%FSLAX23Y23*%
%MOIN*%
%SFA1B1*%

%IPPOS*%
%AMD63*
4,1,8,0.015700,0.031500,-0.015700,0.031500,-0.031500,0.015700,-0.031500,-0.015700,-0.015700,-0.031500,0.015700,-0.031500,0.031500,-0.015700,0.031500,0.015700,0.015700,0.031500,0.0*
1,1,0.031500,0.015700,0.015700*
1,1,0.031500,-0.015700,0.015700*
1,1,0.031500,-0.015700,-0.015700*
1,1,0.031500,0.015700,-0.015700*
%
%ADD16R,0.047240X0.057090*%
%ADD17R,0.043310X0.053150*%
%ADD18R,0.051180X0.074800*%
%ADD19R,0.029530X0.035430*%
%ADD20R,0.055120X0.047240*%
%ADD21R,0.053150X0.043310*%
%ADD22R,0.055120X0.024410*%
%ADD23R,0.094490X0.043310*%
%ADD24R,0.220470X0.220470*%
%ADD25O,0.009840X0.035430*%
%ADD26O,0.035430X0.009840*%
%ADD27R,0.037400X0.031500*%
%ADD28R,0.031500X0.013780*%
%ADD29R,0.013780X0.033470*%
%ADD30R,0.106300X0.102360*%
%ADD31R,0.035430X0.029530*%
%ADD32R,0.057090X0.047240*%
%ADD49C,0.060630*%
%ADD50R,0.060630X0.060630*%
%ADD51R,0.055120X0.055120*%
%ADD52C,0.055120*%
%ADD53C,0.043310*%
%ADD55R,0.055120X0.055120*%
%ADD56R,0.061020X0.061020*%
%ADD57C,0.061020*%
%ADD62C,0.062990*%
G04~CAMADD=63~8~0.0~0.0~629.9~629.9~157.5~0.0~15~0.0~0.0~0.0~0.0~0~0.0~0.0~0.0~0.0~0~0.0~0.0~0.0~0.0~629.9~629.9*
%ADD63D63*%
%ADD64C,0.057090*%
%ADD65C,0.037400*%
%LNmtb_telemetry_system_pcb-1*%
%LPD*%
G54D16*
X5023Y4317D03*
X4944D03*
X5215Y4319D03*
X5136D03*
G54D17*
X5174Y4134D03*
X5229D03*
X5164Y3193D03*
X5219D03*
X5174Y4062D03*
X5229D03*
X5386Y3491D03*
X5331D03*
G54D18*
X5826Y3646D03*
Y3772D03*
X5610Y3646D03*
Y3772D03*
G54D19*
X5793Y3870D03*
X5746D03*
X5658Y3854D03*
X5611D03*
X5612Y3558D03*
X5659D03*
X5356Y3199D03*
X5403D03*
X5787Y4126D03*
X5740D03*
G54D20*
X5818Y4033D03*
Y3966D03*
X5731D03*
Y4033D03*
G54D21*
X5428Y3578D03*
Y3633D03*
X5534Y4008D03*
Y3953D03*
X5446Y3371D03*
Y3316D03*
X5509Y3617D03*
Y3672D03*
X5105Y4058D03*
Y4003D03*
X5087Y3668D03*
Y3723D03*
G54D22*
X4425Y3496D03*
Y3540D03*
Y3583D03*
Y3626D03*
Y3670D03*
Y3713D03*
Y3756D03*
Y3800D03*
Y3843D03*
G54D23*
X3992Y3897D03*
X4347D03*
Y3261D03*
X3992D03*
G54D24*
X5298Y3848D03*
G54D25*
X5407Y3712D03*
X5387D03*
X5367D03*
X5348D03*
X5328D03*
X5308D03*
X5288D03*
X5269D03*
X5249D03*
X5229D03*
X5210D03*
X5190D03*
Y3984D03*
X5210D03*
X5229D03*
X5249D03*
X5269D03*
X5288D03*
X5308D03*
X5328D03*
X5348D03*
X5367D03*
X5387D03*
X5407D03*
G54D26*
X5163Y3740D03*
Y3759D03*
Y3779D03*
Y3799D03*
Y3818D03*
Y3838D03*
Y3858D03*
Y3878D03*
Y3897D03*
Y3917D03*
Y3937D03*
Y3956D03*
X5434D03*
Y3937D03*
Y3917D03*
Y3897D03*
Y3878D03*
Y3858D03*
Y3838D03*
Y3818D03*
Y3799D03*
Y3779D03*
Y3759D03*
Y3740D03*
G54D27*
X5629Y3988D03*
Y4039D03*
G54D28*
X5218Y3393D03*
Y3373D03*
Y3354D03*
Y3334D03*
Y3314D03*
Y3295D03*
X5376Y3393D03*
Y3373D03*
Y3354D03*
Y3334D03*
Y3314D03*
Y3295D03*
G54D29*
X5248Y3266D03*
X5268D03*
X5287D03*
X5307D03*
X5327D03*
X5346D03*
X5248Y3422D03*
X5268D03*
X5287D03*
X5307D03*
X5327D03*
X5346D03*
G54D30*
X5297Y3344D03*
G54D31*
X4563Y3693D03*
Y3646D03*
G54D32*
X5286Y3081D03*
Y3160D03*
G54D49*
X5139Y2100D03*
X5316D03*
X5139Y2356D03*
X5561Y2104D03*
X5738D03*
X5561Y2360D03*
X5982Y2102D03*
X6159D03*
X5982Y2358D03*
G54D50*
X5316Y2356D03*
X5738Y2360D03*
X6159Y2358D03*
G54D51*
X4457Y4151D03*
G54D52*
X4555Y4151D03*
X4654D03*
X4752D03*
X4850D03*
X4843Y3346D03*
Y3247D03*
Y3149D03*
Y3050D03*
X6070Y4238D03*
Y4140D03*
X6069Y3780D03*
Y3681D03*
G54D53*
X4394Y4229D03*
X4921Y3507D03*
G54D55*
X4843Y3444D03*
X6070Y4336D03*
X6069Y3878D03*
G54D56*
X4497Y2460D03*
X4676Y2159D03*
G54D57*
X4497Y2559D03*
X4676Y2061D03*
G54D62*
X5693Y4437D03*
X5593D03*
X5493D03*
X5393D03*
X5193D03*
X5093D03*
X4893D03*
X4693D03*
X4593D03*
X4793D03*
X4993D03*
X5293D03*
X4361Y3035D03*
X4161D03*
X4261D03*
X4461D03*
X4561D03*
G54D63*
X4493Y4437D03*
X4061Y3035D03*
G54D64*
X4015Y2362D03*
Y2559D03*
G54D65*
X3976Y3732D03*
Y3464D03*
M02*