%FSLAX23Y23*%
%MOIN*%
%SFA1B1*%

%IPPOS*%
%ADD12C,0.007870*%
%ADD92C,0.003940*%
%ADD94C,0.001970*%
%LNmtb_telemetry_system_pcb-1*%
%LPD*%
G54D12*
X4356Y4288D02*
X4951D01*
X4356Y4054D02*
Y4288D01*
Y4054D02*
X4951D01*
Y4288*
X6031Y2219D02*
X6126D01*
Y2266*
X6031D02*
X6126D01*
X6031Y2219D02*
Y2266D01*
X4980Y2950D02*
Y3544D01*
X4746D02*
X4980D01*
X4746Y2950D02*
Y3544D01*
Y2950D02*
X4980D01*
X5171Y2231D02*
X5266D01*
Y2278*
X5171D02*
X5266D01*
X5171Y2231D02*
Y2278D01*
X5610Y2219D02*
X5705D01*
Y2266*
X5610D02*
X5705D01*
X5610Y2219D02*
Y2266D01*
X4594Y2360D02*
Y2659D01*
X4360D02*
X4594D01*
X4360Y2360D02*
Y2659D01*
Y2360D02*
X4594D01*
X4580Y1961D02*
Y2260D01*
Y1961D02*
X4814D01*
Y2260*
X4580D02*
X4814D01*
X4103Y1963D02*
Y2057D01*
Y1963D02*
X4150D01*
Y2057*
X4103D02*
X4150D01*
X5973Y4039D02*
Y4437D01*
Y4039D02*
X6207D01*
Y4437*
X5973D02*
X6207D01*
X5972Y3581D02*
Y3978D01*
Y3581D02*
X6207D01*
Y3978*
X5972D02*
X6207D01*
G54D92*
X3942Y2460D02*
X3982D01*
X3962Y2440D02*
Y2480D01*
X4239Y2750D02*
X4279D01*
X4259Y2730D02*
Y2770D01*
X4487Y1990D02*
Y2030D01*
X4467Y2010D02*
X4506D01*
X4110Y2231D02*
X4149D01*
X4130Y2211D02*
Y2250D01*
X4638Y2543D02*
Y2583D01*
X4618Y2563D02*
X4657D01*
X4477Y2210D02*
Y2250D01*
X4457Y2230D02*
X4496D01*
X5840Y2287D02*
Y2326D01*
X5820Y2307D02*
X5859D01*
X6260Y2275D02*
Y2314D01*
X6240Y2295D02*
X6279D01*
X4488Y3366D02*
X4527D01*
X4508Y3346D02*
Y3385D01*
X4558Y3901D02*
Y3940D01*
X4538Y3921D02*
X4577D01*
X4742Y2662D02*
X4781D01*
X4762Y2642D02*
Y2681D01*
X4576Y3563D02*
X4615D01*
X4596Y3543D02*
Y3582D01*
X4650Y2350D02*
Y2389D01*
X4630Y2370D02*
X4669D01*
X4575Y3659D02*
X4614D01*
X4595Y3639D02*
Y3678D01*
X4289Y2119D02*
X4328D01*
X4309Y2100D02*
Y2139D01*
X4974Y3878D02*
X5013D01*
X4994Y3858D02*
Y3897D01*
X5416Y2292D02*
Y2331D01*
X5396Y2312D02*
X5435D01*
X4574Y3760D02*
X4613D01*
X4594Y3740D02*
Y3779D01*
X4079Y2722D02*
X4118D01*
X4099Y2702D02*
Y2741D01*
X4575Y3472D02*
X4614D01*
X4595Y3452D02*
Y3491D01*
X4974Y3799D02*
X5013D01*
X4994Y3779D02*
Y3818D01*
X4617Y2830D02*
X4656D01*
X4637Y2810D02*
Y2850D01*
X4437Y2830D02*
X4476D01*
X4457Y2810D02*
Y2850D01*
G54D94*
X3805Y2295D02*
X4048D01*
X3805D02*
Y2625D01*
X4048*
Y2295D02*
Y2625D01*
X4291Y3035D02*
X4330D01*
X4311Y3015D02*
Y3054D01*
X3997Y2974D02*
Y3095D01*
X4624*
Y2974D02*
Y3095D01*
X3997Y2974D02*
X4624D01*
X4206Y2717D02*
Y2784D01*
X4312Y2717D02*
Y2784D01*
X4206Y2717D02*
X4312D01*
X4206Y2784D02*
X4312D01*
X4453Y1957D02*
X4520D01*
X4453Y2063D02*
X4520D01*
Y1957D02*
Y2063D01*
X4453Y1957D02*
Y2063D01*
X4080Y2148D02*
Y2313D01*
X4179Y2148D02*
Y2313D01*
X4080D02*
X4179D01*
X4080Y2148D02*
X4179D01*
X4604Y2616D02*
X4671D01*
X4604Y2510D02*
X4671D01*
X4604D02*
Y2616D01*
X4671Y2510D02*
Y2616D01*
X4443Y2177D02*
X4510D01*
X4443Y2283D02*
X4510D01*
Y2177D02*
Y2283D01*
X4443Y2177D02*
Y2283D01*
X5790Y2389D02*
X5889D01*
X5790Y2224D02*
X5889D01*
X5790D02*
Y2389D01*
X5889Y2224D02*
Y2389D01*
X6210Y2377D02*
X6309D01*
X6210Y2212D02*
X6309D01*
X6210D02*
Y2377D01*
X6309Y2212D02*
Y2377D01*
X4425Y3316D02*
Y3415D01*
X4590Y3316D02*
Y3415D01*
X4425Y3316D02*
X4590D01*
X4425Y3415D02*
X4590D01*
X4117Y2355D02*
Y2648D01*
X4338Y2355D02*
Y2648D01*
X4117D02*
X4338D01*
X4117Y2355D02*
X4338D01*
X4508Y3838D02*
X4607D01*
X4508Y4003D02*
X4607D01*
Y3838D02*
Y4003D01*
X4508Y3838D02*
Y4003D01*
X4844Y2612D02*
Y2711D01*
X4679Y2612D02*
Y2711D01*
X4844*
X4679Y2612D02*
X4844D01*
X4513Y3513D02*
Y3612D01*
X4678Y3513D02*
Y3612D01*
X4513Y3513D02*
X4678D01*
X4513Y3612D02*
X4678D01*
X4600Y2452D02*
X4699D01*
X4600Y2287D02*
X4699D01*
X4600D02*
Y2452D01*
X4699Y2287D02*
Y2452D01*
X4512Y3609D02*
Y3708D01*
X4677Y3609D02*
Y3708D01*
X4512Y3609D02*
X4677D01*
X4512Y3708D02*
X4677D01*
X4191Y1954D02*
Y2285D01*
X4427Y1954D02*
Y2285D01*
X4191D02*
X4427D01*
X4191Y1954D02*
X4427D01*
X4940Y3844D02*
Y3911D01*
X5047Y3844D02*
Y3911D01*
X4940Y3844D02*
X5047D01*
X4940Y3911D02*
X5047D01*
X5366Y2394D02*
X5465D01*
X5366Y2229D02*
X5465D01*
X5366D02*
Y2394D01*
X5465Y2229D02*
Y2394D01*
X4511Y3710D02*
Y3809D01*
X4676Y3710D02*
Y3809D01*
X4511Y3710D02*
X4676D01*
X4511Y3809D02*
X4676D01*
X4856Y2674D02*
X4995D01*
X4856Y2366D02*
X4995D01*
X4856D02*
Y2674D01*
X4995Y2366D02*
Y2674D01*
X4016Y2672D02*
Y2771D01*
X4181Y2672D02*
Y2771D01*
X4016Y2672D02*
X4181D01*
X4016Y2771D02*
X4181D01*
X4512Y3422D02*
Y3521D01*
X4677Y3422D02*
Y3521D01*
X4512Y3422D02*
X4677D01*
X4512Y3521D02*
X4677D01*
X4940Y3765D02*
Y3832D01*
X5047Y3765D02*
Y3832D01*
X4940Y3765D02*
X5047D01*
X4940Y3832D02*
X5047D01*
X4554Y2781D02*
Y2879D01*
X4719Y2781D02*
Y2879D01*
X4554Y2781D02*
X4719D01*
X4554Y2879D02*
X4719D01*
X4374Y2781D02*
Y2879D01*
X4539Y2781D02*
Y2879D01*
X4374Y2781D02*
X4539D01*
X4374Y2879D02*
X4539D01*
M02*