%FSLAX23Y23*%
%MOIN*%
%SFA1B1*%

%IPPOS*%
%ADD11C,0.009450*%
%ADD12C,0.007870*%
%ADD92C,0.003940*%
%LNmtb_telemetry_system_pcb-1*%
%LPD*%
G54D11*
X4473Y3472D02*
D01*
D01*
G75*
G03X4463I-4J0D01*
G74*G01*
D01*
G75*
G03X4473I4J0D01*
G74*G01*
G54D12*
X5104Y2104D02*
Y2352D01*
X5352*
Y2104D02*
Y2352D01*
X5104Y2104D02*
X5352D01*
X5525Y2108D02*
Y2356D01*
X5773*
Y2108D02*
Y2356D01*
X5525Y2108D02*
X5773D01*
X5947Y2106D02*
Y2354D01*
X6194*
Y2106D02*
Y2354D01*
X5947Y2106D02*
X6194D01*
X5735Y3851D02*
X5804D01*
X5735D02*
Y3888D01*
X5804*
Y3851D02*
Y3888D01*
X5600Y3835D02*
X5669D01*
X5600D02*
Y3872D01*
X5669*
Y3835D02*
Y3872D01*
X5710Y4051D02*
X5839D01*
Y3948D02*
Y4051D01*
X5710Y3948D02*
X5839D01*
X5710D02*
Y4051D01*
X5601Y3576D02*
X5670D01*
Y3539D02*
Y3576D01*
X5601Y3539D02*
X5670D01*
X5601D02*
Y3576D01*
X5345Y3217D02*
X5414D01*
Y3180D02*
Y3217D01*
X5345Y3180D02*
X5414D01*
X5345D02*
Y3217D01*
X5729Y4107D02*
X5798D01*
X5729D02*
Y4144D01*
X5798*
Y4107D02*
Y4144D01*
X4581Y3635D02*
Y3704D01*
X4544Y3635D02*
X4581D01*
X4544D02*
Y3704D01*
X4581*
G54D92*
X5422Y3744D02*
D01*
D01*
G75*
G03X5383I-19J0D01*
G74*G01*
D01*
G75*
G03X5422I19J0D01*
G74*G01*
X4443Y4487D02*
X5743D01*
X4443Y4387D02*
X5743D01*
X4443D02*
Y4487D01*
X5743Y4387D02*
Y4487D01*
X5025Y4290D02*
Y4343D01*
X4942Y4290D02*
Y4343D01*
Y4290D02*
X5025D01*
X4942Y4343D02*
X5025D01*
X5158Y4105D02*
Y4162D01*
X5245Y4105D02*
Y4162D01*
X5158D02*
X5245D01*
X5158Y4105D02*
X5245D01*
X5561Y3634D02*
Y3784D01*
Y3634D02*
X5876D01*
Y3784*
X5561D02*
X5876D01*
X5148Y3164D02*
Y3221D01*
X5235Y3164D02*
Y3221D01*
X5148D02*
X5235D01*
X5148Y3164D02*
X5235D01*
X5399Y3562D02*
X5456D01*
X5399Y3649D02*
X5456D01*
X5399Y3562D02*
Y3649D01*
X5456Y3562D02*
Y3649D01*
X3819Y3354D02*
Y3875D01*
X4400*
Y3283D02*
Y3875D01*
X3809Y3354D02*
X3819D01*
X3809Y3311D02*
Y3354D01*
Y3311D02*
X3819D01*
Y3283D02*
Y3311D01*
Y3283D02*
X4400D01*
X5217Y4292D02*
Y4345D01*
X5134Y4292D02*
Y4345D01*
Y4292D02*
X5217D01*
X5134Y4345D02*
X5217D01*
X5505Y4024D02*
X5562D01*
X5505Y3937D02*
X5562D01*
Y4024*
X5505Y3937D02*
Y4024D01*
X5159Y3988D02*
X5438D01*
X5159Y3708D02*
X5438D01*
X5159D02*
Y3988D01*
X5438Y3708D02*
Y3988D01*
X5610Y3981D02*
Y4046D01*
X5647Y3981D02*
Y4046D01*
X5610Y3981D02*
X5647D01*
X5610Y4046D02*
X5647D01*
X5218Y3423D02*
X5376D01*
X5218Y3265D02*
Y3423D01*
Y3265D02*
X5376D01*
Y3423*
X5417Y3386D02*
X5474D01*
X5417Y3300D02*
X5474D01*
Y3386*
X5417Y3300D02*
Y3386D01*
X5158Y4033D02*
Y4090D01*
X5245Y4033D02*
Y4090D01*
X5158D02*
X5245D01*
X5158Y4033D02*
X5245D01*
X5402Y3462D02*
Y3519D01*
X5315Y3462D02*
Y3519D01*
Y3462D02*
X5402D01*
X5315Y3519D02*
X5402D01*
X5480Y3601D02*
X5537D01*
X5480Y3688D02*
X5537D01*
X5480Y3601D02*
Y3688D01*
X5537Y3601D02*
Y3688D01*
X5076Y4074D02*
X5133D01*
X5076Y3987D02*
X5133D01*
Y4074*
X5076Y3987D02*
Y4074D01*
X5058Y3652D02*
X5115D01*
X5058Y3739D02*
X5115D01*
X5058Y3652D02*
Y3739D01*
X5115Y3652D02*
Y3739D01*
X5259Y3079D02*
X5312D01*
X5259Y3162D02*
X5312D01*
X5259Y3079D02*
Y3162D01*
X5312Y3079D02*
Y3162D01*
M02*