%FSLAX23Y23*%
%MOIN*%
%SFA1B1*%

%IPPOS*%
%AMD63*
4,1,8,0.015700,0.031500,-0.015700,0.031500,-0.031500,0.015700,-0.031500,-0.015700,-0.015700,-0.031500,0.015700,-0.031500,0.031500,-0.015700,0.031500,0.015700,0.015700,0.031500,0.0*
1,1,0.031500,0.015700,0.015700*
1,1,0.031500,-0.015700,0.015700*
1,1,0.031500,-0.015700,-0.015700*
1,1,0.031500,0.015700,-0.015700*
%
%AMD78*
4,1,8,0.011800,-0.035800,0.011800,0.035800,0.008900,0.038800,-0.008900,0.038800,-0.011800,0.035800,-0.011800,-0.035800,-0.008900,-0.038800,0.008900,-0.038800,0.011800,-0.035800,0.0*
1,1,0.005900,0.008900,-0.035800*
1,1,0.005900,0.008900,0.035800*
1,1,0.005900,-0.008900,0.035800*
1,1,0.005900,-0.008900,-0.035800*
%
%AMD82*
4,1,8,-0.007900,0.028700,-0.007900,-0.028700,-0.005900,-0.030700,0.005900,-0.030700,0.007900,-0.028700,0.007900,0.028700,0.005900,0.030700,-0.005900,0.030700,-0.007900,0.028700,0.0*
1,1,0.003940,-0.005900,0.028700*
1,1,0.003940,-0.005900,-0.028700*
1,1,0.003940,0.005900,-0.028700*
1,1,0.003940,0.005900,0.028700*
%
%ADD16R,0.047240X0.057090*%
%ADD17R,0.043310X0.053150*%
%ADD19R,0.029530X0.035430*%
%ADD21R,0.053150X0.043310*%
%ADD31R,0.035430X0.029530*%
%ADD32R,0.057090X0.047240*%
%ADD49C,0.060630*%
%ADD50R,0.060630X0.060630*%
%ADD51R,0.055120X0.055120*%
%ADD52C,0.055120*%
%ADD53C,0.043310*%
%ADD55R,0.055120X0.055120*%
%ADD56R,0.061020X0.061020*%
%ADD57C,0.061020*%
%ADD62C,0.062990*%
G04~CAMADD=63~8~0.0~0.0~629.9~629.9~157.5~0.0~15~0.0~0.0~0.0~0.0~0~0.0~0.0~0.0~0.0~0~0.0~0.0~0.0~0.0~629.9~629.9*
%ADD63D63*%
%ADD64C,0.057090*%
%ADD65C,0.037400*%
%ADD76R,0.074800X0.059060*%
%ADD77R,0.053150X0.015750*%
G04~CAMADD=78~8~0.0~0.0~775.6~236.2~29.5~0.0~15~0.0~0.0~0.0~0.0~0~0.0~0.0~0.0~0.0~0~0.0~0.0~0.0~270.0~236.0~776.0*
%ADD78D78*%
%ADD79R,0.130000X0.095000*%
%ADD80O,0.027560X0.098430*%
%ADD81R,0.047240X0.021650*%
G04~CAMADD=82~8~0.0~0.0~614.2~157.5~19.7~0.0~15~0.0~0.0~0.0~0.0~0~0.0~0.0~0.0~0.0~0~0.0~0.0~0.0~90.0~158.0~614.0*
%ADD82D82*%
%LNmtb_telemetry_system_pcb-1*%
%LPD*%
G54D16*
X4468Y3366D03*
X4547D03*
X4801Y2662D03*
X4722D03*
X4556Y3563D03*
X4635D03*
X4555Y3659D03*
X4634D03*
X4554Y3760D03*
X4633D03*
X4059Y2722D03*
X4138D03*
X4555Y3472D03*
X4634D03*
X4597Y2830D03*
X4676D03*
X4417D03*
X4496D03*
G54D17*
X4232Y2750D03*
X4287D03*
X4966Y3878D03*
X5021D03*
X4966Y3799D03*
X5021D03*
G54D19*
X6055Y2243D03*
X6102D03*
X5195Y2255D03*
X5242D03*
X5634Y2243D03*
X5681D03*
G54D21*
X4487Y1983D03*
Y2038D03*
X4638Y2591D03*
Y2536D03*
X4477Y2203D03*
Y2258D03*
G54D31*
X4127Y2034D03*
Y1987D03*
G54D32*
X4130Y2270D03*
Y2191D03*
X5840Y2346D03*
Y2267D03*
X6260Y2334D03*
Y2255D03*
X4558Y3881D03*
Y3960D03*
X4650Y2409D03*
Y2330D03*
X5416Y2351D03*
Y2272D03*
G54D49*
X5139Y2100D03*
X5316D03*
X5139Y2356D03*
X5561Y2104D03*
X5738D03*
X5561Y2360D03*
X5982Y2102D03*
X6159D03*
X5982Y2358D03*
G54D50*
X5316Y2356D03*
X5738Y2360D03*
X6159Y2358D03*
G54D51*
X4457Y4151D03*
G54D52*
X4555Y4151D03*
X4654D03*
X4752D03*
X4850D03*
X4843Y3346D03*
Y3247D03*
Y3149D03*
Y3050D03*
X6070Y4238D03*
Y4140D03*
X6069Y3780D03*
Y3681D03*
G54D53*
X4394Y4229D03*
X4921Y3507D03*
G54D55*
X4843Y3444D03*
X6070Y4336D03*
X6069Y3878D03*
G54D56*
X4497Y2460D03*
X4676Y2159D03*
G54D57*
X4497Y2559D03*
X4676Y2061D03*
G54D62*
X5693Y4437D03*
X5593D03*
X5493D03*
X5393D03*
X5193D03*
X5093D03*
X4893D03*
X4693D03*
X4593D03*
X4793D03*
X4993D03*
X5293D03*
X4361Y3035D03*
X4161D03*
X4261D03*
X4461D03*
X4561D03*
G54D63*
X4493Y4437D03*
X4061Y3035D03*
G54D64*
X4015Y2362D03*
Y2559D03*
G54D65*
X3976Y3732D03*
Y3464D03*
G54D76*
X3909Y2500D03*
Y2421D03*
G54D77*
X4015Y2511D03*
Y2486D03*
Y2460D03*
Y2435D03*
Y2409D03*
G54D78*
X4153Y2599D03*
X4203D03*
X4253D03*
X4303D03*
Y2404D03*
X4253D03*
X4203D03*
X4153D03*
G54D79*
X4228Y2502D03*
G54D80*
X4234Y2216D03*
X4284D03*
X4334D03*
X4384D03*
X4234Y2023D03*
X4284D03*
X4334D03*
X4384D03*
G54D81*
X4817Y2573D03*
Y2535D03*
Y2498D03*
X4715D03*
Y2573D03*
Y2535D03*
G54D82*
X4964Y2634D03*
X4938D03*
X4913D03*
X4887D03*
Y2407D03*
X4913D03*
X4938D03*
X4964D03*
M02*