%FSLAX23Y23*%
%MOIN*%
%SFA1B1*%

%IPPOS*%
%ADD10C,0.009840*%
%ADD12C,0.007870*%
%ADD13C,0.010000*%
%ADD14C,0.005000*%
%ADD15C,0.006000*%
%LNmtb_telemetry_system_pcb-1*%
%LPD*%
G36*
X5956Y3175D02*
X5995Y3175D01*
X5996Y3175*
X5996Y3174*
X5996Y3174*
X5996Y3154*
X5996Y3154*
X5997Y3154*
X6016Y3154*
X6016Y3138*
Y3138*
X6016Y3114*
X5976Y3114*
X5975Y3114*
X5975Y3114*
X5975Y3115*
X5975Y3134*
X5975Y3134*
X5914Y3134*
X5914Y3154*
X5874Y3154*
X5874Y3174*
X5874Y3175*
X5874Y3175*
X5875Y3175*
X5914Y3175*
X5914Y3175*
X5914Y3154*
X5955Y3154*
X5955Y3155*
X5955Y3175*
X5956Y3175*
X5956Y3175*
G37*
G36*
X5692D02*
X5771Y3175D01*
X5772Y3174*
X5772Y3154*
X5771Y3154*
X5771Y3154*
X5711Y3154*
X5711Y3154*
X5711Y3134*
X5731Y3134*
X5731Y3114*
X5737*
X5792Y3114*
X5792Y3094*
X5792Y3094*
X5792Y3093*
X5752Y3093*
X5751Y3073*
X5770Y3073*
X5771Y3073*
X5771Y3073*
X5772Y3073*
X5772Y3073*
X5772Y3012*
X5792Y3012*
X5792Y3012*
X5792Y3013*
X5792Y3052*
X5792Y3052*
X5792Y3053*
X5812Y3053*
X5813Y3052*
X5813Y3052*
X5813Y3012*
X5813Y3012*
X5853Y3012*
X5853Y2971*
X5854Y2971*
X5854Y2971*
X5873Y2971*
X5874Y2971*
X5874Y2931*
X5873Y2931*
X5853Y2931*
X5853Y2951*
X5853Y2951*
X5833Y2951*
X5833Y2991*
X5832Y2992*
X5832Y2992*
X5813Y2992*
X5813Y2991*
X5813Y2972*
X5812Y2971*
X5812Y2971*
X5811Y2971*
X5793Y2971*
X5792Y2971*
X5792Y2972*
X5792Y2972*
X5792Y2991*
X5792Y2991*
X5792Y2992*
X5791Y2992*
X5773Y2992*
X5772Y2992*
X5772Y2991*
X5772Y2931*
X5731Y2931*
X5731Y2951*
X5731Y2951*
X5711Y2951*
X5711Y2971*
X5711Y2971*
X5710Y2971*
X5650Y2971*
X5650Y2992*
X5609Y2992*
X5609Y2992*
X5609Y2993*
X5609Y2993*
X5609Y3011*
X5609Y3012*
X5609Y3012*
X5650Y3012*
X5650Y2992*
X5670Y2992*
X5670Y2992*
X5670Y3012*
X5690Y3012*
X5690Y3011*
X5690Y2992*
X5691Y2992*
X5691Y2992*
X5731Y2991*
X5731Y2971*
X5732Y2971*
X5732Y2971*
X5751Y2971*
X5751Y2971*
X5751Y2991*
X5751Y2992*
X5750Y2992*
X5731Y2992*
X5731Y3032*
X5711Y3032*
X5711Y3033*
X5711Y3073*
X5690Y3073*
X5690Y3032*
X5670Y3032*
X5670Y3032*
X5670Y3073*
X5670Y3073*
X5672Y3073*
X5690Y3073*
X5690Y3093*
X5691Y3093*
X5691Y3093*
X5692Y3093*
X5710Y3093*
X5711Y3093*
X5711Y3093*
X5711Y3092*
X5711Y3073*
X5731Y3073*
X5731Y3114*
X5711Y3114*
X5711Y3114*
X5711Y3134*
X5691Y3134*
X5690Y3135*
X5690Y3135*
X5690Y3174*
X5691Y3175*
X5691Y3175*
X5692Y3175*
G37*
G36*
X5813Y3134D02*
X5813Y3114D01*
X5812Y3114*
X5800*
X5792Y3114*
X5792Y3134*
X5792Y3134*
X5813Y3134*
G37*
G36*
X5814Y3175D02*
X5853Y3175D01*
X5853Y3174*
X5853Y3154*
X5854Y3154*
X5854Y3154*
X5874Y3154*
X5874Y3073*
X5874Y3073*
X5874Y3073*
X5875Y3073*
X5894Y3073*
X5894Y3133*
X5894Y3134*
X5894Y3134*
X5914Y3134*
X5914Y3073*
X5935Y3073*
X5935Y3114*
X5955Y3114*
X5955Y3113*
X5955Y3093*
X5956Y3093*
X5975Y3093*
X5975Y3093*
X5975Y3093*
X5975Y3073*
X5975Y3073*
X5976Y3073*
X5977Y3073*
X5995Y3073*
X5995Y3073*
X5996Y3073*
X5996Y3072*
X5996Y3072*
X5996Y3053*
X6016Y3053*
X6016Y3012*
X6036Y3012*
X6036Y2992*
X6037Y2992*
X6057Y2992*
X6057Y2992*
X6057Y3012*
X6077Y3012*
X6077Y3012*
X6077Y3011*
X6077Y2972*
X6077Y2972*
X6077Y2971*
X6078Y2971*
X6078Y2971*
X6097Y2971*
X6097Y2971*
X6097Y2951*
X6098Y2951*
X6118Y2951*
X6118Y2910*
X6117Y2910*
X6097Y2910*
X6097Y2930*
X6077Y2931*
X6077Y2910*
X6097Y2910*
X6097Y2870*
X6097Y2870*
X6097Y2869*
X6096Y2870*
X6057Y2869*
X6057Y2829*
X6077Y2829*
X6077Y2829*
X6077Y2849*
X6077Y2849*
X6138Y2849*
X6138Y2869*
X6138Y2870*
X6118Y2869*
X6118Y2870*
X6118Y2890*
X6119Y2890*
X6119Y2890*
X6137Y2890*
X6138Y2890*
X6138Y2890*
X6138Y2910*
X6179Y2910*
X6179Y2910*
X6179Y2908*
X6179Y2890*
X6179Y2890*
X6178Y2890*
X6178Y2890*
X6159Y2890*
X6159Y2890*
X6159Y2890*
X6158Y2889*
X6159Y2809*
X6158Y2809*
X6159Y2808*
X6178Y2808*
X6179Y2808*
X6179Y2808*
X6179Y2807*
X6179Y2788*
X6179Y2788*
X6178Y2788*
X6177Y2788*
X6160Y2788*
X6159Y2788*
X6159Y2788*
X6158Y2787*
X6159Y2768*
X6158Y2768*
X6159Y2768*
X6179Y2768*
X6179Y2767*
X6179Y2766*
X6179Y2707*
X6179Y2707*
X6178Y2707*
X6159Y2707*
X6158Y2707*
X6159Y2708*
X6158Y2727*
X6138Y2727*
X6138Y2727*
X6138Y2788*
X6137Y2788*
X6137Y2788*
X6136Y2788*
X6118Y2788*
X6118Y2788*
X6118Y2808*
X6098Y2809*
X6097Y2809*
X6097Y2829*
X6077Y2829*
X6077Y2810*
X6077Y2810*
X6077Y2809*
X6077Y2809*
X6077Y2808*
X6057Y2808*
X6057Y2829*
X6036Y2829*
X6036Y2869*
X6036Y2870*
X6016Y2869*
X6016Y2870*
X6016Y2910*
X5996Y2910*
X5996Y2910*
X5996Y2870*
X5996Y2870*
X5995Y2869*
X5975Y2870*
X5975Y2890*
X5975Y2890*
X5974Y2890*
X5935Y2890*
X5935Y2910*
X5975Y2910*
X5975Y2910*
X5975Y2951*
X5894Y2951*
X5894Y2952*
X5894Y2952*
X5894Y2953*
X5894Y2970*
X5894Y2971*
X5894Y2971*
X5895Y2971*
X5914Y2971*
X5914Y2971*
X5914Y2992*
X5894Y2992*
X5894Y2992*
X5894Y2993*
X5894Y2993*
X5894Y3012*
X5894Y3012*
X5853Y3012*
X5853Y3032*
X5833Y3032*
X5833Y3052*
X5833Y3053*
X5853Y3053*
X5853Y3032*
X5874Y3032*
X5874Y3033*
X5874Y3052*
X5873Y3053*
X5853Y3053*
X5853Y3073*
X5853Y3073*
X5852Y3073*
X5834Y3073*
X5833Y3073*
X5833Y3073*
X5833Y3093*
X5834Y3093*
X5842Y3093*
X5842*
X5853Y3093*
X5853Y3094*
X5853Y3114*
X5833Y3114*
X5833Y3114*
X5833Y3134*
X5813Y3134*
X5813Y3175*
X5813Y3175*
X5814Y3175*
G37*
G36*
X6038D02*
X6179Y3175D01*
X6179Y3175*
X6179Y3174*
X6179Y3174*
Y3137*
Y3137*
X6179Y3033*
X6179Y3032*
X6036Y3032*
X6036Y3174*
X6037Y3175*
X6037Y3175*
X6038Y3175*
G37*
G36*
X5508D02*
X5649Y3175D01*
X5650Y3174*
X5650Y3032*
X5539Y3032*
X5539*
X5507Y3032*
X5507Y3033*
X5507Y3033*
X5507Y3174*
X5507Y3175*
X5508Y3175*
X5508Y3175*
G37*
G36*
X6178Y2992D02*
X6179Y2991D01*
X6179Y2991*
X6179Y2990*
X6179Y2931*
X6179Y2931*
X6159Y2931*
X6158Y2931*
X6159Y2932*
X6158Y2991*
X6159Y2992*
X6159Y2992*
X6160Y2992*
X6178Y2992*
X6178Y2992*
G37*
G36*
X5589Y3012D02*
X5589Y3011D01*
X5589Y2951*
X5569Y2951*
X5568Y2951*
X5568Y2971*
X5568Y2971*
X5548Y2971*
X5548Y2971*
X5548Y2951*
X5528Y2951*
X5528Y2992*
X5507Y2992*
X5507Y2992*
X5507Y2993*
X5507Y3011*
X5508Y3012*
X5528Y3012*
X5528Y3011*
X5528Y3011*
X5528Y2992*
X5568Y2992*
X5568Y2992*
X5568Y3012*
X5587Y3012*
X5587*
X5589Y3012*
G37*
G36*
X6138Y2971D02*
X6138Y2971D01*
Y2952*
Y2952*
X6138Y2951*
X6118Y2951*
X6118Y2971*
X6118Y2971*
X6138Y2971*
G37*
G36*
X5650Y2971D02*
X5650Y2951D01*
X5630Y2951*
X5629Y2952*
Y2958*
Y2958*
X5629Y2971*
X5630Y2971*
X5650Y2971*
G37*
G36*
X5812Y2951D02*
X5813Y2950D01*
X5813Y2950*
X5813Y2931*
X5812Y2931*
X5792Y2931*
X5792Y2931*
X5792Y2932*
Y2939*
Y2940*
X5792Y2950*
X5792Y2951*
X5812Y2951*
G37*
G36*
X5528Y2951D02*
X5528Y2931D01*
X5527Y2931*
X5524*
X5507Y2931*
X5507Y2931*
X5507Y2932*
X5507Y2950*
X5508Y2951*
X5528Y2951*
G37*
G36*
X5914Y2930D02*
X5914Y2910D01*
X5914Y2910*
X5894Y2910*
X5894Y2911*
X5894Y2912*
X5894Y2912*
X5894Y2930*
X5894Y2930*
X5894Y2931*
X5912*
X5914Y2930*
G37*
G36*
X5711Y2931D02*
X5731Y2930D01*
X5731Y2910*
X5711Y2910*
X5711Y2931*
X5676*
X5670Y2931*
X5670Y2951*
X5711Y2951*
X5711Y2931*
G37*
G36*
X5589Y2930D02*
X5589Y2910D01*
X5588Y2910*
X5585*
X5548Y2910*
X5548Y2930*
X5588Y2931*
X5589Y2930*
G37*
G36*
X5792Y2910D02*
X5792Y2910D01*
X5792Y2909*
X5792Y2890*
X5813Y2890*
X5813Y2870*
X5813Y2869*
X5833Y2870*
X5833Y2869*
X5833Y2849*
X5825Y2849*
X5825*
X5792Y2849*
X5792Y2849*
X5792Y2851*
X5792Y2890*
X5772Y2890*
X5772Y2870*
X5771Y2869*
X5771Y2870*
X5752Y2869*
X5751Y2870*
X5752Y2890*
X5752Y2890*
X5753Y2890*
X5772Y2890*
X5772Y2910*
X5772Y2910*
X5792Y2910*
G37*
G36*
X5711D02*
X5711Y2890D01*
X5711Y2890*
X5712Y2890*
X5730Y2890*
X5731Y2890*
X5731Y2890*
X5731Y2890*
X5731Y2870*
X5731Y2869*
X5730Y2870*
X5670Y2870*
X5670Y2890*
X5670Y2890*
X5672Y2890*
X5689Y2890*
X5690Y2890*
X5690Y2890*
X5690Y2910*
X5691Y2910*
X5696*
X5711Y2910*
G37*
G36*
X5670Y2930D02*
X5670Y2910D01*
X5670Y2910*
X5629Y2910*
X5629Y2910*
X5629Y2890*
X5630Y2890*
X5631Y2890*
X5649Y2890*
X5649Y2890*
X5650Y2890*
X5650Y2870*
X5670Y2869*
X5670Y2849*
X5711Y2849*
X5711Y2848*
X5711Y2848*
X5711Y2829*
X5731Y2829*
X5731Y2809*
X5731Y2808*
X5751Y2808*
X5752Y2788*
X5772Y2788*
X5772Y2808*
X5751Y2808*
X5751Y2829*
X5731Y2829*
X5731Y2849*
X5731Y2849*
X5772Y2849*
X5772Y2849*
X5772Y2808*
X5812Y2808*
X5813Y2808*
X5813Y2808*
X5813Y2807*
X5813Y2788*
X5813Y2788*
X5814Y2788*
X5833Y2788*
X5833Y2829*
X5853Y2829*
X5853Y2788*
X5873Y2788*
X5874Y2788*
X5874Y2808*
X5874Y2808*
X5874Y2809*
X5875Y2808*
X5893Y2808*
X5894Y2808*
X5894Y2808*
X5894Y2807*
X5894Y2748*
X5894Y2748*
X5894Y2747*
X5955Y2747*
X5955Y2748*
X5955Y2768*
X5914Y2768*
X5914Y2788*
X5914Y2788*
X5915Y2788*
X5916Y2788*
X5916Y2788*
X5955Y2788*
X5955Y2808*
X5954Y2808*
X5915Y2808*
X5914Y2809*
X5914Y2829*
X5853Y2829*
X5853Y2890*
X5813Y2890*
X5813Y2910*
X5853Y2910*
X5853Y2910*
X5853Y2890*
X5873Y2890*
X5874Y2890*
X5874Y2870*
X5874Y2870*
X5874Y2869*
X5875Y2870*
X5914Y2869*
X5914Y2849*
X5934Y2849*
X5935Y2849*
X5935Y2870*
X5914Y2870*
X5914Y2890*
X5915Y2890*
X5916Y2890*
X5935Y2890*
X5935Y2870*
X5975Y2869*
X5975Y2829*
X5976Y2829*
X5996Y2829*
X5996Y2809*
X5995Y2808*
X5976Y2808*
X5975Y2808*
X5975Y2808*
X5975Y2807*
X5975Y2788*
X5975Y2788*
X5974Y2788*
X5955Y2788*
X5955Y2768*
X5996Y2768*
X5996Y2747*
X6016Y2747*
X6016Y2768*
X5996Y2768*
X5996Y2788*
X5996Y2788*
X5997Y2788*
X5998Y2788*
X6015Y2788*
X6016Y2788*
X6016Y2788*
X6016Y2768*
X6036Y2768*
X6036Y2727*
X6057Y2727*
X6057Y2727*
X6057Y2768*
X6056Y2768*
X6036Y2768*
X6037Y2808*
X6037Y2808*
X6057Y2808*
X6057Y2788*
X6057Y2788*
X6058Y2788*
X6076Y2788*
X6077Y2788*
X6077Y2788*
X6077Y2787*
X6077Y2787*
X6077Y2786*
X6077Y2708*
X6077Y2707*
X6077Y2707*
X6037Y2707*
X6036Y2707*
X6036Y2727*
X5996Y2727*
X5996Y2727*
X5996Y2747*
X5975Y2747*
X5975Y2747*
X5975Y2746*
X5975Y2707*
X6016Y2707*
X6016Y2706*
X6016Y2686*
X6017Y2686*
X6017Y2686*
X6097Y2686*
X6098Y2666*
X6118Y2666*
X6118Y2665*
X6118Y2646*
X6138Y2646*
X6138Y2625*
X6179Y2625*
X6179Y2625*
X6179Y2624*
X6179Y2585*
X6179Y2585*
X6178Y2585*
X6159Y2585*
X6158Y2605*
X6158Y2605*
X6157Y2605*
X6139Y2605*
X6139Y2605*
X6138Y2605*
X6138Y2625*
X6098Y2625*
X6097Y2625*
X6098Y2605*
X6098Y2605*
X6099Y2605*
X6099Y2605*
X6118Y2605*
X6118Y2605*
X6118Y2564*
X6098Y2564*
X6097Y2564*
X6097Y2544*
X6118Y2544*
X6118Y2524*
X6117Y2523*
X6097Y2524*
X6097Y2544*
X6077Y2544*
X6077Y2545*
X6077Y2545*
X6077Y2583*
X6077Y2584*
X6077Y2585*
X6057Y2584*
X6057Y2564*
X6057Y2564*
X6036Y2564*
X6036Y2584*
X6036Y2585*
X6016Y2584*
X6016Y2584*
X6016Y2564*
X6036Y2564*
X6036Y2523*
X6056Y2524*
X6057Y2523*
X6057Y2503*
X6056Y2503*
X6055Y2503*
X6037Y2503*
X6036Y2503*
X6036Y2523*
X6016Y2524*
X6016Y2544*
X5976Y2544*
X5975Y2545*
X5975Y2545*
X5975Y2585*
X5955Y2585*
X5955Y2605*
X5955Y2605*
X5957Y2605*
X5975Y2605*
X5975Y2605*
X5975Y2604*
X5975Y2585*
X5996Y2585*
X5996Y2585*
X5996Y2586*
X5996Y2665*
Y2665*
X5995Y2666*
X5975Y2666*
X5975Y2667*
X5975Y2667*
X5975Y2707*
X5955Y2707*
X5955Y2727*
X5935Y2727*
X5935Y2727*
X5935Y2707*
X5955Y2707*
X5955Y2666*
X5935Y2666*
X5935Y2666*
X5935Y2646*
X5955Y2645*
X5955Y2626*
X5955Y2625*
X5935Y2625*
X5935Y2626*
X5935Y2646*
X5874Y2646*
X5874Y2646*
X5874Y2666*
X5853Y2666*
X5853Y2666*
X5853Y2686*
X5833Y2686*
X5833Y2707*
X5813Y2707*
X5813Y2727*
X5812Y2727*
X5792Y2727*
X5792Y2707*
X5813Y2707*
X5813Y2686*
X5813Y2686*
X5814Y2686*
X5833Y2686*
X5833Y2666*
X5792Y2666*
X5792Y2666*
X5792Y2668*
X5792Y2707*
X5772Y2707*
X5772Y2706*
X5772Y2686*
X5771Y2686*
X5771Y2686*
X5752Y2686*
X5751Y2686*
X5752Y2666*
X5772Y2666*
X5772Y2666*
X5772Y2625*
X5792Y2625*
X5792Y2626*
X5792Y2627*
X5792Y2645*
X5792Y2645*
X5792Y2646*
X5812Y2645*
X5813Y2645*
X5813Y2645*
X5813Y2625*
X5813Y2625*
X5833Y2625*
X5833Y2605*
X5833Y2605*
X5853Y2605*
X5853Y2605*
X5853Y2585*
X5853Y2585*
X5833Y2585*
X5833Y2605*
X5813Y2605*
X5813Y2605*
X5813Y2585*
X5833Y2585*
X5833Y2564*
X5813Y2564*
X5813Y2565*
X5812Y2585*
X5792Y2584*
X5792Y2584*
X5792Y2583*
X5792Y2565*
X5792Y2565*
X5792Y2564*
X5772Y2564*
X5772Y2544*
X5772Y2544*
X5792Y2544*
X5792Y2543*
X5792Y2543*
X5792Y2524*
X5792Y2524*
X5792Y2523*
X5813Y2523*
X5813Y2504*
X5812Y2503*
X5812Y2503*
X5811Y2503*
X5772Y2503*
X5772Y2503*
X5772Y2523*
X5771Y2524*
X5771Y2523*
X5731Y2524*
X5731Y2524*
X5731Y2564*
X5711Y2564*
X5711Y2565*
X5711Y2585*
X5690Y2585*
X5690Y2605*
X5690Y2605*
X5689Y2605*
X5671Y2605*
X5670Y2605*
X5670Y2605*
X5670Y2625*
X5711Y2625*
X5711Y2585*
X5731Y2585*
X5731Y2625*
X5711Y2625*
X5711Y2646*
X5670Y2646*
X5670Y2666*
X5629Y2666*
X5629Y2667*
X5629Y2686*
X5630Y2686*
X5649Y2686*
X5650Y2687*
X5650Y2707*
X5630Y2707*
X5629Y2707*
X5629Y2727*
X5650Y2727*
X5650Y2707*
X5690Y2707*
X5690Y2746*
X5690Y2747*
X5691Y2747*
X5711Y2747*
X5711Y2727*
X5711Y2727*
X5792Y2727*
X5792Y2746*
X5792Y2746*
X5792Y2747*
X5792Y2747*
X5792Y2747*
X5772Y2747*
X5772Y2768*
X5752Y2768*
X5751Y2788*
X5751Y2788*
X5711Y2788*
X5711Y2768*
X5731Y2768*
X5731Y2768*
X5731Y2747*
X5711Y2747*
X5711Y2768*
X5691Y2768*
X5690Y2768*
X5690Y2769*
X5690Y2788*
X5672Y2788*
X5671Y2788*
X5671Y2788*
X5670Y2788*
X5670Y2788*
X5670Y2768*
X5650Y2768*
X5650Y2788*
X5649Y2788*
X5648Y2788*
X5609Y2788*
X5609Y2788*
X5609Y2769*
X5609Y2768*
X5609Y2768*
X5589Y2768*
X5589Y2768*
X5589Y2769*
X5589Y2788*
X5589Y2788*
X5589Y2788*
X5590Y2788*
X5590Y2788*
X5609Y2788*
X5609Y2828*
X5609Y2829*
X5589Y2829*
X5589Y2809*
X5588Y2808*
X5568Y2809*
X5568Y2849*
X5569Y2849*
X5650Y2849*
X5650Y2829*
X5670Y2829*
X5670Y2829*
X5670Y2849*
X5650Y2849*
X5650Y2870*
X5589Y2869*
X5589Y2870*
X5589Y2870*
X5589Y2871*
X5589Y2889*
X5589Y2890*
X5589Y2890*
X5590Y2890*
X5608Y2890*
X5609Y2890*
X5609Y2890*
X5609Y2891*
X5609Y2891*
X5609Y2930*
X5609Y2930*
X5609Y2931*
X5670Y2930*
G37*
G36*
X5548Y2910D02*
X5548Y2890D01*
X5547Y2890*
X5547Y2890*
X5528Y2890*
X5528Y2910*
X5528Y2910*
X5546*
X5548Y2910*
G37*
G36*
X6016Y2849D02*
X6016Y2829D01*
X6016Y2829*
X6003*
X5996Y2829*
X5996Y2849*
X5996Y2849*
X6016Y2849*
G37*
G36*
X6118Y2747D02*
X6118Y2742D01*
Y2742*
X6118Y2727*
X6098Y2727*
X6097Y2727*
X6098Y2747*
X6098Y2747*
X6118Y2747*
G37*
G36*
X5650Y2768D02*
X5650Y2747D01*
X5670Y2747*
X5670Y2747*
X5670Y2727*
X5670Y2727*
X5669*
X5650Y2727*
X5650Y2747*
X5629Y2747*
X5629Y2748*
X5629Y2768*
X5630Y2768*
X5650Y2768*
G37*
G36*
X5508Y2890D02*
X5528Y2890D01*
X5528Y2849*
X5548Y2849*
X5548Y2849*
X5548Y2788*
X5549Y2788*
X5549Y2788*
X5567Y2788*
X5568Y2788*
X5568Y2788*
X5568Y2768*
X5548Y2768*
X5548Y2767*
X5548Y2747*
X5568Y2747*
X5568Y2747*
X5568Y2727*
X5589Y2727*
X5589Y2726*
X5589Y2707*
X5588Y2707*
X5568Y2707*
X5568Y2727*
X5548Y2727*
X5548Y2707*
X5548Y2707*
X5568Y2707*
X5568Y2686*
X5568Y2686*
X5567Y2686*
X5528Y2686*
X5528Y2667*
X5528Y2666*
X5527Y2666*
X5507Y2666*
X5507Y2667*
X5507Y2667*
X5507Y2686*
X5507Y2686*
X5508Y2686*
X5528Y2686*
X5528Y2706*
X5528Y2707*
X5527Y2707*
X5526Y2707*
X5507Y2707*
X5507Y2707*
X5507Y2708*
X5507Y2727*
X5508Y2727*
X5528Y2727*
X5528Y2728*
X5528Y2728*
X5528Y2747*
X5527Y2747*
X5507Y2747*
X5507Y2748*
X5507Y2749*
X5507Y2767*
X5508Y2768*
X5528Y2768*
X5528Y2768*
X5528Y2769*
Y2772*
Y2772*
X5528Y2828*
X5527Y2829*
X5507Y2829*
X5507Y2829*
X5507Y2830*
X5507Y2889*
X5507Y2890*
X5508Y2890*
X5508Y2890*
G37*
G36*
X6099Y2707D02*
X6108D01*
X6117Y2707*
X6118Y2706*
X6118Y2686*
X6117Y2686*
X6117Y2686*
X6097Y2686*
X6098Y2707*
X6098Y2707*
X6099Y2707*
G37*
G36*
X6179Y2666D02*
X6179Y2666D01*
X6179Y2665*
X6179Y2665*
X6179Y2646*
X6179Y2646*
X6138Y2646*
X6138Y2666*
X6179Y2666*
X6179Y2666*
G37*
G36*
X5896Y2605D02*
X5914Y2605D01*
X5914Y2605*
X5914Y2585*
X5945Y2585*
X5946*
X5955Y2585*
X5955Y2564*
X5894Y2564*
X5894Y2565*
X5894Y2566*
X5894Y2603*
X5894Y2604*
X5894Y2604*
X5894Y2605*
X5895Y2605*
X5896Y2605*
G37*
G36*
X5690Y2585D02*
X5690Y2564D01*
X5670Y2564*
X5670Y2564*
X5670Y2584*
X5671Y2585*
X5682*
X5690Y2585*
G37*
G36*
X6159D02*
X6159Y2564D01*
X6179Y2564*
X6179Y2563*
X6179Y2563*
X6179Y2544*
X6179Y2544*
X6159Y2544*
X6158Y2545*
X6159Y2545*
X6158Y2564*
X6138Y2564*
X6138Y2576*
Y2576*
X6138Y2584*
X6139Y2585*
X6159Y2585*
G37*
G36*
X5874Y2564D02*
X5874Y2544D01*
X5874Y2544*
X5894Y2544*
X5894Y2543*
X5894Y2542*
X5894Y2524*
X5894Y2523*
X5854Y2524*
X5854*
X5853Y2523*
X5853Y2503*
X5853Y2503*
X5852Y2503*
X5833Y2503*
X5833Y2503*
X5833Y2523*
X5832Y2524*
X5832Y2523*
X5813Y2524*
X5813Y2544*
X5853Y2544*
X5853Y2544*
X5853Y2564*
X5873Y2564*
X5874Y2564*
G37*
G36*
X6139Y2523D02*
X6158Y2524D01*
X6158Y2523*
X6159Y2523*
X6158Y2503*
X6158Y2503*
X6157Y2503*
X6150*
X6138Y2503*
X6138Y2503*
X6138Y2523*
X6139Y2524*
X6139Y2523*
G37*
G36*
X6097Y2523D02*
X6097Y2504D01*
X6097Y2503*
X6097Y2503*
X6096Y2503*
X6093*
X6077Y2503*
X6077Y2503*
X6077Y2504*
X6077Y2505*
X6077Y2523*
X6077Y2523*
X6078Y2524*
X6097Y2523*
G37*
G36*
X5997Y2523D02*
X6009D01*
X6016Y2523*
X6016Y2503*
X6016Y2503*
X6014Y2503*
X5996Y2503*
X5996Y2503*
X5996Y2504*
X5996Y2523*
X5996Y2524*
X5997Y2523*
G37*
G36*
X5955Y2544D02*
X5955Y2503D01*
X5954Y2503*
X5954Y2503*
X5935Y2503*
X5935Y2503*
Y2516*
Y2516*
X5935Y2544*
X5955Y2544*
X5955Y2544*
G37*
G36*
X5671Y2523D02*
X5690Y2524D01*
X5690Y2523*
X5690Y2523*
X5690Y2503*
X5690Y2503*
X5689Y2503*
X5670Y2503*
X5670Y2503*
Y2509*
Y2510*
X5670Y2523*
X5671Y2524*
X5671Y2523*
G37*
G36*
X5650Y2645D02*
X5650Y2503D01*
X5650Y2503*
X5649Y2503*
X5648Y2503*
X5574*
X5508Y2503*
X5507Y2503*
X5507Y2504*
X5507Y2504*
X5507Y2645*
X5508Y2646*
X5650Y2645*
G37*
%LNmtb_telemetry_system_pcb-2*%
%LPC*%
G36*
X5751Y3073D02*
X5731Y3073D01*
X5731Y3032*
X5751Y3032*
X5751Y3042*
Y3042*
X5751Y3073*
G37*
G36*
X5914D02*
X5894Y3073D01*
X5894Y3034*
X5894Y3033*
X5894Y3033*
X5894Y3032*
X5894Y3032*
X5914Y3032*
X5914Y3046*
Y3046*
X5914Y3073*
G37*
G36*
X5954Y3073D02*
X5954Y3073D01*
X5935Y3073*
X5935Y3032*
X5955Y3032*
X5955Y2992*
X5975Y2992*
X5975Y2991*
X5975Y2991*
X5975Y2951*
X5996Y2951*
X5996Y2952*
X5996Y2952*
X5996Y2991*
X5996Y2992*
X5997Y2992*
X6016Y2992*
X6016Y3012*
X5996Y3012*
X5996Y3012*
X5996Y3053*
X5983*
X5975Y3053*
X5975Y3052*
X5975Y3052*
X5975Y3032*
X5975Y3032*
X5955Y3032*
X5955Y3073*
X5954Y3073*
G37*
G36*
X5914Y3012D02*
X5914Y3011D01*
X5914Y2992*
X5935Y2991*
X5935Y2971*
X5935Y2971*
X5936Y2971*
X5936*
X5955Y2971*
X5955Y2971*
X5955Y2992*
X5935Y2992*
X5935Y3012*
X5914Y3012*
G37*
G36*
X6056Y2971D02*
X6037Y2971D01*
X6036Y2971*
X6036Y2931*
X6077Y2931*
X6077Y2931*
Y2931*
X6077Y2950*
X6077Y2950*
X6077Y2951*
X6057Y2951*
X6057Y2971*
X6056Y2971*
G37*
G36*
X6036Y2931D02*
X6016Y2930D01*
X6016Y2930*
X6016Y2910*
X6036Y2910*
X6036Y2910*
Y2911*
Y2912*
X6036Y2931*
G37*
G36*
X6063Y2910D02*
X6063D01*
X6057Y2910*
X6057Y2890*
X6057Y2890*
X6058Y2890*
X6059Y2890*
X6076Y2890*
X6077Y2890*
X6077Y2890*
X6077Y2891*
X6077Y2891*
X6077Y2892*
X6077Y2910*
X6063Y2910*
G37*
G36*
X6118Y2829D02*
X6118Y2829D01*
Y2827*
Y2827*
X6118Y2808*
X6138Y2809*
X6138Y2809*
X6138Y2829*
X6118Y2829*
G37*
G36*
X6157Y3153D02*
X6149D01*
X6058Y3153*
X6058Y3153*
X6058Y3152*
X6058Y3054*
X6058Y3054*
X6059Y3054*
X6157Y3054*
X6157Y3054*
X6157Y3153*
X6157Y3153*
G37*
%LNmtb_telemetry_system_pcb-3*%
%LPD*%
G36*
X6138Y3134D02*
X6138Y3134D01*
Y3133*
Y3133*
X6138Y3073*
X6137Y3073*
X6137Y3073*
X6136Y3073*
X6078Y3073*
X6078Y3073*
X6077Y3073*
X6077Y3074*
X6077Y3075*
X6077Y3134*
X6077Y3134*
X6138Y3134*
G37*
%LNmtb_telemetry_system_pcb-4*%
%LPC*%
G36*
X5628Y3153D02*
X5529Y3153D01*
X5529Y3153*
Y3081*
Y3080*
X5529Y3054*
X5529Y3054*
X5530Y3054*
X5628Y3054*
X5628Y3054*
X5628Y3055*
X5628Y3153*
X5628Y3153*
G37*
%LNmtb_telemetry_system_pcb-5*%
%LPD*%
G36*
X5609Y3134D02*
X5609Y3133D01*
X5609Y3133*
X5609Y3132*
X5609Y3074*
X5609Y3073*
X5609Y3073*
X5608Y3073*
X5608Y3073*
X5607Y3073*
X5549Y3073*
X5548Y3073*
X5548Y3073*
X5548Y3134*
X5548Y3134*
X5578*
X5609Y3134*
G37*
%LNmtb_telemetry_system_pcb-6*%
%LPC*%
G36*
X5650Y2829D02*
X5629Y2829D01*
X5629Y2828*
X5629Y2809*
X5630Y2808*
X5650Y2809*
X5650Y2826*
Y2826*
X5650Y2829*
G37*
G36*
X5711D02*
X5691Y2829D01*
X5690Y2828*
X5690Y2828*
X5691Y2788*
X5711Y2788*
Y2817*
Y2817*
X5711Y2829*
G37*
G36*
X5792Y2788D02*
X5791Y2788D01*
X5790Y2788*
X5772Y2788*
X5772Y2768*
X5792Y2768*
X5792Y2768*
Y2769*
X5792Y2769*
X5792Y2769*
X5792Y2769*
X5792Y2787*
X5792Y2788*
X5792Y2788*
X5792Y2788*
G37*
G36*
X5841D02*
X5841D01*
X5833Y2788*
X5833Y2768*
X5853Y2768*
X5853Y2768*
X5853Y2788*
X5841Y2788*
G37*
G36*
X5813Y2768D02*
X5813D01*
X5813Y2768*
X5813Y2767*
X5813Y2748*
X5813Y2747*
X5833Y2747*
X5833Y2768*
X5813Y2768*
G37*
G36*
X5873Y2747D02*
X5853Y2747D01*
X5853Y2727*
X5874Y2727*
X5874Y2707*
X5894Y2707*
X5894Y2707*
X5894Y2706*
X5894Y2705*
X5894Y2686*
X5934Y2686*
X5934Y2686*
X5935Y2687*
X5935Y2707*
X5914Y2707*
X5914Y2707*
Y2711*
Y2711*
X5914Y2727*
X5874Y2727*
X5874Y2747*
X5873Y2747*
G37*
G36*
X5730Y2707D02*
X5730Y2707D01*
X5690Y2707*
X5690Y2686*
X5690Y2686*
X5689Y2686*
X5670Y2686*
X5670Y2666*
X5711Y2666*
X5711Y2665*
X5711Y2665*
X5711Y2646*
X5731Y2645*
X5731Y2625*
X5751Y2625*
X5752Y2585*
X5772Y2585*
X5772Y2585*
X5772Y2625*
X5751Y2625*
Y2644*
Y2644*
X5751Y2666*
X5731Y2666*
X5731Y2706*
X5730Y2707*
G37*
G36*
X5853Y2727D02*
X5833Y2727D01*
X5833Y2707*
X5846Y2707*
X5846*
X5853Y2707*
X5853Y2686*
X5874Y2686*
X5874Y2666*
X5894Y2666*
X5894Y2666*
X5894Y2668*
X5894Y2686*
X5874Y2686*
X5874Y2707*
X5853Y2707*
X5853Y2727*
G37*
G36*
X6077Y2666D02*
X6016Y2666D01*
X6016Y2666*
Y2630*
Y2630*
X6016Y2605*
X6017Y2605*
X6017Y2605*
X6018Y2605*
X6076Y2605*
X6077Y2605*
X6077Y2605*
X6077Y2606*
X6077Y2606*
X6077Y2607*
X6077Y2665*
X6077Y2665*
X6077Y2666*
G37*
%LNmtb_telemetry_system_pcb-7*%
%LPD*%
G36*
X6057Y2646D02*
X6057Y2645D01*
X6057Y2625*
X6056Y2625*
X6054*
X6036Y2625*
X6036Y2645*
X6037Y2646*
X6057Y2646*
G37*
%LNmtb_telemetry_system_pcb-8*%
%LPC*%
G36*
X5628Y2624D02*
X5529Y2624D01*
X5529Y2624*
X5529Y2525*
X5529Y2525*
X5628Y2525*
X5628Y2525*
X5628Y2525*
Y2585*
Y2585*
X5628Y2624*
X5628Y2624*
X5628Y2624*
G37*
%LNmtb_telemetry_system_pcb-9*%
%LPD*%
G36*
X5549Y2605D02*
X5609Y2605D01*
X5609Y2605*
X5609Y2604*
X5609Y2604*
X5609Y2603*
Y2553*
Y2552*
X5609Y2545*
X5609Y2544*
X5609Y2544*
X5548Y2544*
X5548Y2544*
X5548Y2605*
X5549Y2605*
X5549Y2605*
G37*
G54D10*
X4341Y4151D02*
D01*
D01*
G75*
G03X4332I-4J0D01*
G74*G01*
D01*
G75*
G03X4341I4J0D01*
G74*G01*
X4068Y2409D02*
D01*
D01*
G75*
G03X4059I-4J0D01*
G74*G01*
D01*
G75*
G03X4068I4J0D01*
G74*G01*
X4847Y3564D02*
D01*
D01*
G75*
G03X4838I-4J0D01*
G74*G01*
D01*
G75*
G03X4847I4J0D01*
G74*G01*
X4502Y2337D02*
D01*
D01*
G75*
G03X4493I-4J0D01*
G74*G01*
D01*
G75*
G03X4502I4J0D01*
G74*G01*
X4681Y2282D02*
D01*
D01*
G75*
G03X4671I-4J0D01*
G74*G01*
D01*
G75*
G03X4681I4J0D01*
G74*G01*
X6072Y4453D02*
D01*
D01*
G75*
G03X6063I-4J0D01*
G74*G01*
D01*
G75*
G03X6072I4J0D01*
G74*G01*
X4424Y2023D02*
D01*
D01*
G75*
G03X4414I-4J0D01*
G74*G01*
D01*
G75*
G03X4424I4J0D01*
G74*G01*
X6072Y3995D02*
D01*
D01*
G75*
G03X6062I-4J0D01*
G74*G01*
D01*
G75*
G03X6072I4J0D01*
G74*G01*
G54D12*
X4133Y2677D02*
D01*
D01*
G75*
G03X4125I-3J0D01*
G74*G01*
D01*
G75*
G03X4133I3J0D01*
G74*G01*
X4984Y2345D02*
D01*
D01*
G75*
G03X4976I-3J0D01*
G74*G01*
D01*
G75*
G03X4984I3J0D01*
G74*G01*
X4360Y4284D02*
X4947D01*
X4360Y4058D02*
Y4193D01*
Y4266D02*
Y4284D01*
Y4058D02*
X4947D01*
Y4284*
X6044Y2209D02*
X6113D01*
X6044Y2276D02*
X6113D01*
X3824Y2313D02*
Y2608D01*
X3824Y2608D02*
X3856D01*
X3962D02*
X4009D01*
Y2602D02*
Y2608D01*
X4009Y2313D02*
Y2318D01*
X3962Y2313D02*
X4009D01*
X3824Y2313D02*
X3856D01*
X4976Y2954D02*
Y3540D01*
X4750D02*
X4885D01*
X4958D02*
X4976D01*
X4750Y2954D02*
Y3540D01*
Y2954D02*
X4976D01*
X5184Y2221D02*
X5253D01*
X5184Y2288D02*
X5253D01*
X5623Y2209D02*
X5692D01*
X5623Y2276D02*
X5692D01*
X4590Y2364D02*
Y2655D01*
X4364D02*
X4590D01*
X4364Y2364D02*
Y2655D01*
Y2364D02*
X4590D01*
X4584Y1964D02*
Y2256D01*
Y1964D02*
X4810D01*
Y2256*
X4584D02*
X4810D01*
X4005Y3087D02*
X4616D01*
X4005Y2982D02*
Y3087D01*
Y2982D02*
X4616D01*
Y3087*
X4093Y1976D02*
Y2045D01*
X4160Y1975D02*
Y2044D01*
X4105Y2227D02*
Y2234D01*
X4154Y2227D02*
Y2234D01*
X5815Y2303D02*
Y2310D01*
X5864Y2303D02*
Y2310D01*
X5977Y4043D02*
Y4433D01*
Y4043D02*
X6203D01*
Y4433*
X5977D02*
X6203D01*
X6235Y2291D02*
Y2298D01*
X6284Y2291D02*
Y2298D01*
X4504Y3341D02*
X4511D01*
X4504Y3390D02*
X4511D01*
X4582Y3917D02*
Y3924D01*
X4533Y3917D02*
Y3924D01*
X4758Y2686D02*
X4765D01*
X4758Y2637D02*
X4765D01*
X4592Y3538D02*
X4599D01*
X4592Y3587D02*
X4599D01*
X4625Y2366D02*
Y2373D01*
X4674Y2366D02*
Y2373D01*
X4591Y3634D02*
X4598D01*
X4591Y3683D02*
X4598D01*
X4210Y2088D02*
Y2151D01*
X4407Y2088D02*
Y2151D01*
X4210D02*
X4407D01*
X4210Y2088D02*
X4407D01*
X5391Y2308D02*
Y2315D01*
X5440Y2308D02*
Y2315D01*
X4590Y3735D02*
X4597D01*
X4590Y3784D02*
X4597D01*
X4095Y2697D02*
X4102D01*
X4095Y2746D02*
X4102D01*
X4591Y3447D02*
X4598D01*
X4591Y3496D02*
X4598D01*
X4633Y2806D02*
X4641D01*
X4633Y2855D02*
X4641D01*
X4453Y2806D02*
X4461D01*
X4453Y2855D02*
X4461D01*
X5976Y3585D02*
Y3974D01*
Y3585D02*
X6203D01*
Y3974*
X5976D02*
X6203D01*
G54D13*
X5022Y2585D02*
Y2605D01*
X5027Y2609*
X5036*
X5041Y2605*
Y2585*
X5036Y2580*
X5027*
X5032Y2590D02*
X5022Y2580D01*
X5027D02*
X5022Y2585D01*
X5012Y2580D02*
X5002D01*
X5007*
Y2609*
X5012Y2605*
X4832Y2454D02*
Y2430D01*
X4827Y2425*
X4818*
X4813Y2430*
Y2454*
X4788Y2425D02*
Y2454D01*
X4803Y2440*
X4783*
X4342Y2315D02*
Y2291D01*
X4337Y2286*
X4328*
X4323Y2291*
Y2315*
X4313Y2311D02*
X4308Y2315D01*
X4298*
X4293Y2311*
Y2306*
X4298Y2301*
X4303*
X4298*
X4293Y2296*
Y2291*
X4298Y2286*
X4308*
X4313Y2291*
X4079Y2639D02*
X4104D01*
X4108Y2634*
Y2625*
X4104Y2620*
X4079*
X4108Y2590D02*
Y2610D01*
X4089Y2590*
X4084*
X4079Y2595*
Y2605*
X4084Y2610*
X6284Y2384D02*
Y2414D01*
X6269*
X6264Y2409*
Y2399*
X6269Y2394*
X6284*
X6274D02*
X6264Y2384D01*
X6254D02*
X6244D01*
X6249*
Y2414*
X6254Y2409*
X6229Y2389D02*
X6224Y2384D01*
X6214*
X6209Y2389*
Y2409*
X6214Y2414*
X6224*
X6229Y2409*
Y2404*
X6224Y2399*
X6209*
X5874Y2397D02*
Y2427D01*
X5859*
X5854Y2422*
Y2412*
X5859Y2407*
X5874*
X5864D02*
X5854Y2397D01*
X5844D02*
X5834D01*
X5839*
Y2427*
X5844Y2422*
X5819D02*
X5814Y2427D01*
X5804*
X5799Y2422*
Y2417*
X5804Y2412*
X5799Y2407*
Y2402*
X5804Y2397*
X5814*
X5819Y2402*
Y2407*
X5814Y2412*
X5819Y2417*
Y2422*
X5814Y2412D02*
X5804D01*
X5445Y2407D02*
Y2437D01*
X5430*
X5425Y2432*
Y2422*
X5430Y2417*
X5445*
X5435D02*
X5425Y2407D01*
X5415D02*
X5405D01*
X5410*
Y2437*
X5415Y2432*
X5390Y2437D02*
X5370D01*
Y2432*
X5390Y2412*
Y2407*
X4759Y3678D02*
Y3707D01*
X4744*
X4739Y3703*
Y3693*
X4744Y3688*
X4759*
X4749D02*
X4739Y3678D01*
X4729D02*
X4719D01*
X4724*
Y3707*
X4729Y3703*
X4689Y3678D02*
Y3707D01*
X4704Y3693*
X4684*
X4752Y3575D02*
Y3605D01*
X4737*
X4732Y3600*
Y3590*
X4737Y3585*
X4752*
X4742D02*
X4732Y3575D01*
X4722D02*
X4712D01*
X4717*
Y3605*
X4722Y3600*
X4697D02*
X4692Y3605D01*
X4682*
X4677Y3600*
Y3595*
X4682Y3590*
X4687*
X4682*
X4677Y3585*
Y3580*
X4682Y3575*
X4692*
X4697Y3580*
X4761Y3765D02*
Y3795D01*
X4746*
X4741Y3790*
Y3780*
X4746Y3775*
X4761*
X4751D02*
X4741Y3765D01*
X4731D02*
X4721D01*
X4726*
Y3795*
X4731Y3790*
X4686Y3765D02*
X4706D01*
X4686Y3785*
Y3790*
X4691Y3795*
X4701*
X4706Y3790*
X4673Y3890D02*
Y3920D01*
X4658*
X4653Y3915*
Y3905*
X4658Y3900*
X4673*
X4663D02*
X4653Y3890D01*
X4643D02*
X4633D01*
X4638*
Y3920*
X4643Y3915*
X4618Y3890D02*
X4608D01*
X4613*
Y3920*
X4618Y3915*
X4556Y3287D02*
Y3316D01*
X4541*
X4536Y3312*
Y3302*
X4541Y3297*
X4556*
X4546D02*
X4536Y3287D01*
X4526D02*
X4516D01*
X4521*
Y3316*
X4526Y3312*
X4501D02*
X4496Y3316D01*
X4486*
X4481Y3312*
Y3292*
X4486Y3287*
X4496*
X4501Y3292*
Y3312*
X4675Y3389D02*
Y3418D01*
X4661*
X4656Y3414*
Y3404*
X4661Y3399*
X4675*
X4666D02*
X4656Y3389D01*
X4646Y3394D02*
X4641Y3389D01*
X4631*
X4626Y3394*
Y3414*
X4631Y3418*
X4641*
X4646Y3414*
Y3409*
X4641Y3404*
X4626*
X4664Y2881D02*
Y2911D01*
X4650*
X4645Y2906*
Y2896*
X4650Y2891*
X4664*
X4654D02*
X4645Y2881D01*
X4635Y2911D02*
X4615D01*
Y2906*
X4635Y2886*
Y2881*
X4496Y2880D02*
Y2910D01*
X4482*
X4477Y2905*
Y2895*
X4482Y2890*
X4496*
X4487D02*
X4477Y2880D01*
X4447Y2910D02*
X4457Y2905D01*
X4467Y2895*
Y2885*
X4462Y2880*
X4452*
X4447Y2885*
Y2890*
X4452Y2895*
X4467*
X4751Y2725D02*
Y2755D01*
X4737*
X4732Y2750*
Y2740*
X4737Y2735*
X4751*
X4741D02*
X4732Y2725D01*
X4702Y2755D02*
X4722D01*
Y2740*
X4712Y2745*
X4707*
X4702Y2740*
Y2730*
X4707Y2725*
X4717*
X4722Y2730*
X4726Y2439D02*
X4697D01*
Y2425*
X4702Y2420*
X4712*
X4717Y2425*
Y2439*
Y2430D02*
X4726Y2420D01*
Y2395D02*
X4697D01*
X4712Y2410*
Y2390*
X4126Y2777D02*
Y2806D01*
X4112*
X4107Y2802*
Y2792*
X4112Y2787*
X4126*
X4116D02*
X4107Y2777D01*
X4097Y2802D02*
X4092Y2806D01*
X4082*
X4077Y2802*
Y2797*
X4082Y2792*
X4087*
X4082*
X4077Y2787*
Y2782*
X4082Y2777*
X4092*
X4097Y2782*
X4070Y2262D02*
X4041D01*
Y2248*
X4046Y2243*
X4056*
X4061Y2248*
Y2262*
Y2253D02*
X4070Y2243D01*
Y2213D02*
Y2233D01*
X4051Y2213*
X4046*
X4041Y2218*
Y2228*
X4046Y2233*
X4669Y3064D02*
X4640D01*
Y3050*
X4645Y3045*
X4655*
X4660Y3050*
Y3064*
X4669Y3015D02*
Y3035D01*
X4650Y3015*
X4645*
X4640Y3020*
Y3030*
X4645Y3035*
X6238Y4446D02*
Y4456D01*
Y4451*
X6263*
X6267Y4456*
Y4460*
X6263Y4465*
X6238Y4436D02*
Y4416D01*
X6243*
X6263Y4436*
X6267*
X6242Y3994D02*
Y4003D01*
Y3999*
X6267*
X6272Y4003*
Y4008*
X6267Y4013*
X6242Y3964D02*
X6247Y3974D01*
X6257Y3984*
X6267*
X6272Y3979*
Y3969*
X6267Y3964*
X6262*
X6257Y3969*
Y3984*
X4252Y4115D02*
Y4125D01*
Y4120*
X4277*
X4282Y4125*
Y4130*
X4277Y4135*
X4252Y4085D02*
Y4105D01*
X4267*
X4262Y4095*
Y4090*
X4267Y4085*
X4277*
X4282Y4090*
Y4100*
X4277Y4105*
X4890Y3615D02*
X4899D01*
X4895*
Y3591*
X4899Y3586*
X4904*
X4909Y3591*
X4865Y3586D02*
Y3615D01*
X4880Y3601*
X4860*
X4766Y2312D02*
X4775D01*
X4771*
Y2288*
X4775Y2283*
X4780*
X4785Y2288*
X4756Y2308D02*
X4751Y2312D01*
X4741*
X4736Y2308*
Y2303*
X4741Y2298*
X4746*
X4741*
X4736Y2293*
Y2288*
X4741Y2283*
X4751*
X4756Y2288*
X4473Y2719D02*
X4483D01*
X4478*
Y2694*
X4483Y2689*
X4487*
X4492Y2694*
X4443Y2689D02*
X4463D01*
X4443Y2709*
Y2714*
X4448Y2719*
X4458*
X4463Y2714*
X3907Y2683D02*
X3917D01*
X3912*
Y2658*
X3917Y2653*
X3921*
X3926Y2658*
X3897Y2653D02*
X3887D01*
X3892*
Y2683*
X3897Y2678*
X6084Y2324D02*
X6089Y2328D01*
X6099*
X6104Y2324*
Y2304*
X6099Y2299*
X6089*
X6084Y2304*
X6055Y2299D02*
X6075D01*
X6055Y2319*
Y2324*
X6060Y2328*
X6070*
X6075Y2324*
X6030Y2299D02*
Y2328D01*
X6045Y2314*
X6025*
X5660Y2323D02*
X5665Y2328D01*
X5675*
X5680Y2323*
Y2303*
X5675Y2298*
X5665*
X5660Y2303*
X5631Y2298D02*
X5651D01*
X5631Y2318*
Y2323*
X5636Y2328*
X5646*
X5651Y2323*
X5621D02*
X5616Y2328D01*
X5606*
X5601Y2323*
Y2318*
X5606Y2313*
X5611*
X5606*
X5601Y2308*
Y2303*
X5606Y2298*
X5616*
X5621Y2303*
X5240Y2191D02*
X5245Y2196D01*
X5255*
X5260Y2191*
Y2171*
X5255Y2166*
X5245*
X5240Y2171*
X5211Y2166D02*
X5231D01*
X5211Y2186*
Y2191*
X5216Y2196*
X5226*
X5231Y2191*
X5181Y2166D02*
X5201D01*
X5181Y2186*
Y2191*
X5186Y2196*
X5196*
X5201Y2191*
X4622Y2690D02*
X4617Y2695D01*
Y2705*
X4622Y2710*
X4642*
X4647Y2705*
Y2695*
X4642Y2690*
X4647Y2680D02*
Y2670D01*
Y2675*
X4617*
X4622Y2680*
X4617Y2635D02*
X4622Y2645D01*
X4632Y2655*
X4642*
X4647Y2650*
Y2640*
X4642Y2635*
X4637*
X4632Y2640*
Y2655*
X4040Y2104D02*
X4035Y2109D01*
Y2119*
X4040Y2124*
X4060*
X4064Y2119*
Y2109*
X4060Y2104*
X4064Y2094D02*
Y2084D01*
Y2089*
X4035*
X4040Y2094*
X4035Y2049D02*
Y2069D01*
X4050*
X4045Y2059*
Y2054*
X4050Y2049*
X4060*
X4064Y2054*
Y2064*
X4060Y2069*
X4269Y2824D02*
X4274Y2828D01*
X4284*
X4289Y2824*
Y2804*
X4284Y2799*
X4274*
X4269Y2804*
X4259Y2799D02*
X4249D01*
X4254*
Y2828*
X4259Y2824*
X4219Y2799D02*
Y2828D01*
X4234Y2814*
X4214*
X4533Y2091D02*
X4528Y2096D01*
Y2106*
X4533Y2111*
X4553*
X4557Y2106*
Y2096*
X4553Y2091*
X4557Y2081D02*
Y2071D01*
Y2076*
X4528*
X4533Y2081*
Y2056D02*
X4528Y2051D01*
Y2041*
X4533Y2036*
X4538*
X4543Y2041*
Y2046*
Y2041*
X4548Y2036*
X4553*
X4557Y2041*
Y2051*
X4553Y2056*
X4527Y2257D02*
X4522Y2262D01*
Y2272*
X4527Y2277*
X4547*
X4551Y2272*
Y2262*
X4547Y2257*
X4551Y2247D02*
Y2237D01*
Y2242*
X4522*
X4527Y2247*
X4551Y2202D02*
Y2222D01*
X4532Y2202*
X4527*
X4522Y2207*
Y2217*
X4527Y2222*
X4935Y3750D02*
X4940Y3755D01*
X4949*
X4954Y3750*
Y3730*
X4949Y3725*
X4940*
X4935Y3730*
X4905Y3755D02*
X4915Y3750D01*
X4925Y3740*
Y3730*
X4920Y3725*
X4910*
X4905Y3730*
Y3735*
X4910Y3740*
X4925*
X4907Y3895D02*
X4912Y3900D01*
X4921*
X4926Y3895*
Y3875*
X4921Y3870*
X4912*
X4907Y3875*
X4877Y3900D02*
X4897D01*
Y3885*
X4887Y3890*
X4882*
X4877Y3885*
Y3875*
X4882Y3870*
X4892*
X4897Y3875*
G54D14*
X4781Y2574D02*
D01*
D01*
G75*
G03X4774I-3J0D01*
G74*G01*
D01*
G75*
G03X4781I3J0D01*
G74*G01*
X4127Y2423D02*
Y2580D01*
X4328Y2423D02*
Y2580D01*
X4866Y2432D02*
Y2609D01*
X4985Y2432D02*
Y2609D01*
X4860Y2318D02*
X4830D01*
Y2303*
X4835Y2298*
X4845*
X4850Y2303*
Y2318*
X4860Y2283D02*
Y2273D01*
X4855Y2268*
X4845*
X4840Y2273*
Y2283*
X4845Y2288*
X4855*
X4860Y2283*
X4840Y2258D02*
X4855D01*
X4860Y2253*
X4855Y2248*
X4860Y2243*
X4855Y2238*
X4840*
X4860Y2213D02*
Y2223D01*
X4855Y2228*
X4845*
X4840Y2223*
Y2213*
X4845Y2208*
X4850*
Y2228*
X4840Y2198D02*
X4860D01*
X4850*
X4845Y2193*
X4840Y2188*
Y2183*
X4860Y2138D02*
Y2123D01*
X4855Y2118*
X4850Y2123*
Y2133*
X4845Y2138*
X4840Y2133*
Y2118*
Y2108D02*
X4855D01*
X4860Y2103*
X4855Y2098*
X4860Y2093*
X4855Y2088*
X4840*
X4860Y2078D02*
Y2068D01*
Y2073*
X4840*
Y2078*
X4835Y2048D02*
X4840D01*
Y2053*
Y2043*
Y2048*
X4855*
X4860Y2043*
X4840Y2008D02*
Y2023D01*
X4845Y2028*
X4855*
X4860Y2023*
Y2008*
X4830Y1998D02*
X4860D01*
X4845*
X4840Y1993*
Y1983*
X4845Y1978*
X4860*
X4413Y2345D02*
X4443D01*
Y2330*
X4438Y2325*
X4433*
X4428Y2330*
Y2345*
Y2330*
X4423Y2325*
X4418*
X4413Y2330*
Y2345*
X4428Y2315D02*
Y2295D01*
X4418Y2305D02*
X4438D01*
X4530Y2739D02*
X4560D01*
Y2724*
X4555Y2719*
X4550*
X4545Y2724*
Y2739*
Y2724*
X4540Y2719*
X4535*
X4530Y2724*
Y2739*
X4545Y2709D02*
Y2689D01*
X5954Y3767D02*
Y3786D01*
X5944Y3796*
X5934Y3786*
Y3767*
Y3782*
X5954*
X5924Y3796D02*
Y3767D01*
X5909*
X5904Y3772*
Y3791*
X5909Y3796*
X5924*
X5874Y3791D02*
X5879Y3796D01*
X5889*
X5894Y3791*
Y3772*
X5889Y3767*
X5879*
X5874Y3772*
X5864Y3767D02*
X5854D01*
X5859*
Y3796*
X5864Y3791*
X5963Y4230D02*
Y4249D01*
X5953Y4259*
X5943Y4249*
Y4230*
Y4245*
X5963*
X5933Y4259D02*
Y4230D01*
X5918*
X5913Y4235*
Y4254*
X5918Y4259*
X5933*
X5883Y4254D02*
X5888Y4259D01*
X5898*
X5903Y4254*
Y4235*
X5898Y4230*
X5888*
X5883Y4235*
X5873Y4230D02*
X5863D01*
X5868*
Y4259*
X5873Y4254*
X5954Y3894D02*
X5949Y3899D01*
X5939*
X5934Y3894*
Y3889*
X5939Y3884*
X5944*
X5939*
X5934Y3880*
Y3875*
X5939Y3870*
X5949*
X5954Y3875*
X5924Y3870D02*
Y3875D01*
X5919*
Y3870*
X5924*
X5899Y3894D02*
X5894Y3899D01*
X5884*
X5879Y3894*
Y3889*
X5884Y3884*
X5889*
X5884*
X5879Y3880*
Y3875*
X5884Y3870*
X5894*
X5899Y3875*
X5869Y3899D02*
Y3880D01*
X5859Y3870*
X5849Y3880*
Y3899*
X5958Y4354D02*
X5953Y4359D01*
X5943*
X5938Y4354*
Y4349*
X5943Y4345*
X5948*
X5943*
X5938Y4340*
Y4335*
X5943Y4330*
X5953*
X5958Y4335*
X5928Y4330D02*
Y4335D01*
X5923*
Y4330*
X5928*
X5903Y4354D02*
X5898Y4359D01*
X5888*
X5883Y4354*
Y4349*
X5888Y4345*
X5893*
X5888*
X5883Y4340*
Y4335*
X5888Y4330*
X5898*
X5903Y4335*
X5873Y4359D02*
Y4340D01*
X5863Y4330*
X5853Y4340*
Y4359*
X5930Y3693D02*
X5935Y3698D01*
X5945*
X5950Y3693*
Y3674*
X5945Y3669*
X5935*
X5930Y3674*
Y3684*
X5940*
X5920Y3669D02*
Y3698D01*
X5900Y3669*
Y3698*
X5890D02*
Y3669D01*
X5875*
X5870Y3674*
Y3693*
X5875Y3698*
X5890*
X5940Y4135D02*
X5945Y4140D01*
X5955*
X5960Y4135*
Y4116*
X5955Y4111*
X5945*
X5940Y4116*
Y4126*
X5950*
X5930Y4111D02*
Y4140D01*
X5910Y4111*
Y4140*
X5900D02*
Y4111D01*
X5885*
X5880Y4116*
Y4135*
X5885Y4140*
X5900*
X4049Y3207D02*
X4044Y3202D01*
Y3192*
X4049Y3187*
X4054*
X4059Y3192*
Y3197*
Y3192*
X4064Y3187*
X4069*
X4074Y3192*
Y3202*
X4069Y3207*
X4074Y3177D02*
X4069D01*
Y3172*
X4074*
Y3177*
X4049Y3152D02*
X4044Y3147D01*
Y3137*
X4049Y3132*
X4054*
X4059Y3137*
Y3142*
Y3137*
X4064Y3132*
X4069*
X4074Y3137*
Y3147*
X4069Y3152*
X4044Y3122D02*
X4064D01*
X4074Y3112*
X4064Y3102*
X4044*
X4140Y3188D02*
X4170D01*
Y3173*
X4165Y3168*
X4145*
X4140Y3173*
Y3188*
Y3158D02*
Y3148D01*
Y3153*
X4170*
Y3158*
Y3148*
X4140Y3118D02*
Y3128D01*
X4145Y3133*
X4165*
X4170Y3128*
Y3118*
X4165Y3113*
X4145*
X4140Y3118*
X4248Y3170D02*
X4243Y3175D01*
Y3185*
X4248Y3190*
X4268*
X4273Y3185*
Y3175*
X4268Y3170*
X4243Y3160D02*
X4273D01*
Y3140*
X4243Y3130D02*
X4273D01*
X4263*
X4243Y3110*
X4258Y3125*
X4273Y3110*
X4379Y3218D02*
X4349D01*
X4379Y3198*
X4349*
X4379Y3188D02*
X4349D01*
Y3173*
X4354Y3168*
X4364*
X4369Y3173*
Y3188*
Y3178D02*
X4379Y3168D01*
X4354Y3138D02*
X4349Y3143D01*
Y3153*
X4354Y3158*
X4359*
X4364Y3153*
Y3143*
X4369Y3138*
X4374*
X4379Y3143*
Y3153*
X4374Y3158*
X4349Y3128D02*
Y3108D01*
Y3118*
X4379*
X4444Y3164D02*
X4474D01*
Y3149*
X4469Y3144*
X4464*
X4459Y3149*
Y3164*
Y3149*
X4454Y3144*
X4449*
X4444Y3149*
Y3164*
X4449Y3134D02*
X4444Y3129D01*
Y3119*
X4449Y3114*
X4469*
X4474Y3119*
Y3129*
X4469Y3134*
X4449*
X4563Y3178D02*
X4558Y3183D01*
Y3193*
X4563Y3198*
X4583*
X4588Y3193*
Y3183*
X4583Y3178*
X4573*
Y3188*
X4588Y3168D02*
X4558D01*
X4588Y3148*
X4558*
Y3138D02*
X4588D01*
Y3123*
X4583Y3118*
X4563*
X4558Y3123*
Y3138*
X5051Y3367D02*
X5056Y3372D01*
X5066*
X5071Y3367*
Y3362*
X5066Y3358*
X5056*
X5051Y3353*
Y3348*
X5056Y3343*
X5066*
X5071Y3348*
X5021Y3367D02*
X5026Y3372D01*
X5036*
X5041Y3367*
Y3348*
X5036Y3343*
X5026*
X5021Y3348*
X5011Y3372D02*
Y3343D01*
X4991*
X5054Y3265D02*
X5059Y3270D01*
X5069*
X5074Y3265*
Y3260*
X5069Y3256*
X5059*
X5054Y3251*
Y3246*
X5059Y3241*
X5069*
X5074Y3246*
X5044Y3270D02*
Y3241D01*
X5029*
X5024Y3246*
Y3265*
X5029Y3270*
X5044*
X5014Y3241D02*
Y3260D01*
X5004Y3270*
X4994Y3260*
Y3241*
Y3256*
X5014*
X5068Y3165D02*
X5058D01*
X5063*
Y3136*
X5068*
X5058*
X5043D02*
Y3165D01*
X5023Y3136*
Y3165*
X5013D02*
X4993D01*
X5003*
Y3136*
X5056Y3063D02*
X5061Y3068D01*
X5071*
X5076Y3063*
Y3044*
X5071Y3039*
X5061*
X5056Y3044*
Y3053*
X5066*
X5046Y3039D02*
Y3068D01*
X5026Y3039*
Y3068*
X5016D02*
Y3039D01*
X5001*
X4996Y3044*
Y3063*
X5001Y3068*
X5016*
X5108Y3458D02*
X5103Y3463D01*
X5093*
X5088Y3458*
Y3453*
X5093Y3449*
X5098*
X5093*
X5088Y3444*
Y3439*
X5093Y3434*
X5103*
X5108Y3439*
X5078Y3434D02*
Y3439D01*
X5073*
Y3434*
X5078*
X5053Y3458D02*
X5048Y3463D01*
X5038*
X5033Y3458*
Y3453*
X5038Y3449*
X5043*
X5038*
X5033Y3444*
Y3439*
X5038Y3434*
X5048*
X5053Y3439*
X5023Y3463D02*
Y3444D01*
X5013Y3434*
X5003Y3444*
Y3463*
X4427Y4041D02*
X4422Y4036D01*
Y4026*
X4427Y4021*
X4432*
X4437Y4026*
Y4031*
Y4026*
X4442Y4021*
X4447*
X4452Y4026*
Y4036*
X4447Y4041*
X4452Y4011D02*
X4447D01*
Y4006*
X4452*
Y4011*
X4427Y3986D02*
X4422Y3981D01*
Y3971*
X4427Y3966*
X4432*
X4437Y3971*
Y3976*
Y3971*
X4442Y3966*
X4447*
X4452Y3971*
Y3981*
X4447Y3986*
X4422Y3956D02*
X4442D01*
X4452Y3946*
X4442Y3936*
X4422*
X4844Y4021D02*
X4839Y4026D01*
Y4036*
X4844Y4041*
X4864*
X4869Y4036*
Y4026*
X4864Y4021*
X4854*
Y4031*
X4869Y4011D02*
X4839D01*
X4869Y3991*
X4839*
Y3981D02*
X4869D01*
Y3966*
X4864Y3961*
X4844*
X4839Y3966*
Y3981*
X4747Y4037D02*
Y4027D01*
Y4032*
X4777*
Y4037*
Y4027*
Y4012D02*
X4747D01*
X4777Y3992*
X4747*
Y3982D02*
Y3962D01*
Y3972*
X4777*
X4650Y4021D02*
X4645Y4026D01*
Y4036*
X4650Y4041*
X4655*
X4660Y4036*
Y4026*
X4665Y4021*
X4670*
X4675Y4026*
Y4036*
X4670Y4041*
X4645Y4011D02*
X4675D01*
Y3996*
X4670Y3991*
X4650*
X4645Y3996*
Y4011*
X4675Y3981D02*
X4655D01*
X4645Y3971*
X4655Y3961*
X4675*
X4660*
Y3981*
X4489Y4015D02*
X4484Y4020D01*
Y4030*
X4489Y4035*
X4494*
X4499Y4030*
Y4020*
X4504Y4015*
X4509*
X4514Y4020*
Y4030*
X4509Y4035*
X4489Y3985D02*
X4484Y3990D01*
Y4000*
X4489Y4005*
X4509*
X4514Y4000*
Y3990*
X4509Y3985*
X4484Y3975D02*
X4514D01*
Y3955*
G54D15*
X4734Y2479D02*
X4798D01*
X4734Y2591D02*
X4798D01*
X4734Y2515D02*
Y2556D01*
X4798Y2552D02*
Y2556D01*
Y2515D02*
Y2518D01*
Y2587D02*
Y2591D01*
Y2479D02*
Y2483D01*
X4734Y2479D02*
Y2483D01*
Y2587D02*
Y2591D01*
X4056Y2968D02*
X4066D01*
X4061*
Y2938*
X4056Y2943*
X4566Y2938D02*
X4556Y2943D01*
X4546Y2953*
Y2963*
X4551Y2968*
X4561*
X4566Y2963*
Y2958*
X4561Y2953*
X4546*
M02*