%FSLAX23Y23*%
%MOIN*%
%SFA1B1*%

%IPPOS*%
%ADD10C,0.009840*%
%ADD11C,0.009450*%
%ADD12C,0.007870*%
%ADD13C,0.010000*%
%ADD14C,0.005000*%
%ADD15C,0.006000*%
%LNmtb_telemetry_system_pcb-1*%
%LPD*%
G36*
X6101Y3456D02*
X6103D01*
Y3456*
X6104*
Y3455*
X6105*
Y3455*
X6106*
Y3454*
X6107*
Y3453*
X6108*
Y3453*
X6108*
Y3452*
X6109*
Y3451*
X6109*
Y3450*
X6110*
Y3449*
X6111*
Y3448*
X6111*
Y3424*
Y3423*
Y3408*
X6111*
Y3406*
X6110*
Y3405*
X6109*
Y3405*
X6109*
Y3403*
X6108*
Y3403*
X6108*
Y3402*
X6107*
Y3402*
X6107*
Y3401*
X6105*
Y3401*
X6105*
Y3400*
X6104*
Y3399*
X6102*
Y3399*
X6099*
Y3398*
X6097*
Y3399*
X6094*
Y3399*
X6093*
Y3400*
X6091*
Y3401*
X6090*
Y3401*
X6090*
Y3402*
X6089*
Y3402*
X6089*
Y3403*
X6088*
Y3403*
X6087*
Y3404*
X6087*
Y3405*
X6086*
Y3406*
X6086*
Y3408*
X6085*
Y3409*
X6084*
Y3446*
X6085*
Y3448*
X6086*
Y3449*
X6086*
Y3451*
X6087*
Y3452*
X6087*
Y3452*
X6088*
Y3453*
X6089*
Y3453*
X6089*
Y3454*
X6090*
Y3455*
X6090*
Y3455*
X6091*
Y3456*
X6093*
Y3456*
X6094*
Y3457*
X6101*
Y3456*
G37*
G36*
X6036D02*
X6038D01*
Y3456*
X6039*
Y3455*
X6040*
Y3455*
X6041*
Y3454*
X6041*
Y3453*
X6042*
Y3453*
X6043*
Y3452*
X6043*
Y3452*
X6044*
Y3451*
X6044*
Y3449*
X6045*
Y3448*
X6045*
Y3446*
X6046*
Y3410*
X6045*
Y3408*
X6045*
Y3406*
X6044*
Y3405*
X6044*
Y3404*
X6043*
Y3403*
X6043*
Y3403*
X6042*
Y3402*
X6041*
Y3402*
X6041*
Y3401*
X6040*
Y3401*
X6039*
Y3400*
X6038*
Y3399*
X6036*
Y3399*
X6033*
Y3398*
X6032*
Y3399*
X6029*
Y3399*
X6027*
Y3400*
X6026*
Y3401*
X6025*
Y3401*
X6024*
Y3402*
X6023*
Y3402*
X6023*
Y3403*
X6022*
Y3403*
X6022*
Y3405*
X6021*
Y3405*
X6020*
Y3406*
X6020*
Y3408*
X6019*
Y3412*
X6019*
Y3441*
X6019*
Y3442*
X6019*
Y3444*
X6019*
Y3448*
X6020*
Y3449*
X6020*
Y3451*
X6021*
Y3451*
X6022*
Y3452*
X6022*
Y3453*
X6023*
Y3453*
X6023*
Y3454*
X6025*
Y3455*
X6025*
Y3455*
X6026*
Y3456*
X6027*
Y3456*
X6029*
Y3457*
X6036*
Y3456*
G37*
G36*
X5971D02*
X5973D01*
Y3456*
X5975*
Y3455*
X5975*
Y3455*
X5976*
Y3454*
X5977*
Y3453*
X5977*
Y3453*
X5978*
Y3452*
X5979*
Y3452*
X5979*
Y3451*
X5980*
Y3449*
X5980*
Y3448*
X5981*
Y3446*
X5982*
Y3410*
X5981*
Y3408*
X5980*
Y3406*
X5980*
Y3405*
X5979*
Y3404*
X5979*
Y3403*
X5978*
Y3403*
X5977*
Y3402*
X5977*
Y3402*
X5976*
Y3401*
X5976*
Y3401*
X5975*
Y3400*
X5973*
Y3399*
X5972*
Y3399*
X5969*
Y3398*
X5968*
Y3399*
X5964*
Y3399*
X5962*
Y3400*
X5961*
Y3401*
X5960*
Y3401*
X5959*
Y3402*
X5959*
Y3402*
X5958*
Y3403*
X5958*
Y3403*
X5957*
Y3404*
X5957*
Y3405*
X5956*
Y3406*
X5955*
Y3408*
X5955*
Y3410*
X5954*
Y3416*
Y3417*
Y3445*
X5955*
Y3448*
X5955*
Y3449*
X5956*
Y3451*
X5957*
Y3451*
X5957*
Y3452*
X5958*
Y3453*
X5958*
Y3453*
X5959*
Y3454*
X5959*
Y3455*
X5961*
Y3455*
X5962*
Y3456*
X5963*
Y3456*
X5964*
Y3457*
X5971*
Y3456*
G37*
G36*
X5907D02*
X5908D01*
Y3456*
X5909*
Y3455*
X5910*
Y3455*
X5911*
Y3454*
X5912*
Y3453*
X5912*
Y3453*
X5913*
Y3452*
X5914*
Y3451*
X5914*
Y3450*
X5915*
Y3449*
X5915*
Y3448*
X5916*
Y3408*
X5915*
Y3406*
X5915*
Y3405*
X5914*
Y3405*
X5914*
Y3403*
X5913*
Y3403*
X5912*
Y3402*
X5912*
Y3402*
X5911*
Y3401*
X5911*
Y3401*
X5909*
Y3400*
X5908*
Y3399*
X5907*
Y3399*
X5904*
Y3398*
X5901*
Y3399*
X5898*
Y3399*
X5897*
Y3400*
X5895*
Y3401*
X5894*
Y3401*
X5894*
Y3402*
X5893*
Y3402*
X5893*
Y3403*
X5892*
Y3403*
X5891*
Y3405*
X5891*
Y3405*
X5890*
Y3406*
X5890*
Y3408*
X5889*
Y3447*
X5890*
Y3449*
X5890*
Y3451*
X5891*
Y3451*
X5891*
Y3452*
X5892*
Y3453*
X5893*
Y3453*
X5893*
Y3454*
X5894*
Y3455*
X5895*
Y3455*
X5895*
Y3456*
X5897*
Y3456*
X5898*
Y3457*
X5907*
Y3456*
G37*
G36*
X5842D02*
X5844D01*
Y3456*
X5845*
Y3455*
X5846*
Y3455*
X5847*
Y3454*
X5848*
Y3453*
X5848*
Y3453*
X5849*
Y3452*
X5850*
Y3451*
X5850*
Y3450*
X5851*
Y3449*
X5851*
Y3447*
X5852*
Y3409*
X5851*
Y3406*
X5851*
Y3406*
X5850*
Y3405*
X5850*
Y3403*
X5849*
Y3403*
X5848*
Y3402*
X5848*
Y3402*
X5847*
Y3401*
X5846*
Y3401*
X5845*
Y3400*
X5844*
Y3399*
X5843*
Y3399*
X5840*
Y3398*
X5837*
Y3399*
X5834*
Y3399*
X5833*
Y3400*
X5832*
Y3401*
X5831*
Y3401*
X5830*
Y3402*
X5829*
Y3402*
X5829*
Y3403*
X5828*
Y3404*
X5827*
Y3405*
X5827*
Y3406*
X5826*
Y3407*
X5826*
Y3409*
X5825*
Y3447*
X5826*
Y3448*
Y3448*
Y3449*
X5826*
Y3450*
X5827*
Y3451*
X5827*
Y3452*
X5828*
Y3452*
X5829*
Y3453*
X5829*
Y3454*
X5830*
Y3455*
X5831*
Y3455*
X5832*
Y3456*
X5833*
Y3456*
X5835*
Y3457*
X5842*
Y3456*
G37*
G36*
X5777D02*
X5779D01*
Y3456*
X5780*
Y3455*
X5781*
Y3455*
X5782*
Y3454*
X5782*
Y3453*
X5783*
Y3453*
X5783*
Y3452*
X5784*
Y3452*
X5784*
Y3451*
X5785*
Y3450*
X5786*
Y3448*
X5786*
Y3446*
X5787*
Y3409*
X5786*
Y3408*
X5786*
Y3406*
X5785*
Y3405*
X5784*
Y3404*
X5784*
Y3403*
X5783*
Y3402*
X5783*
Y3402*
X5782*
Y3401*
X5781*
Y3401*
X5780*
Y3400*
X5779*
Y3399*
X5777*
Y3399*
X5775*
Y3398*
X5771*
Y3399*
X5769*
Y3399*
X5767*
Y3400*
X5766*
Y3401*
X5765*
Y3401*
X5765*
Y3402*
X5763*
Y3402*
X5763*
Y3403*
X5762*
Y3404*
X5762*
Y3405*
X5761*
Y3406*
X5761*
Y3407*
X5760*
Y3409*
X5759*
Y3446*
X5760*
Y3448*
X5761*
Y3449*
Y3450*
X5761*
Y3451*
X5762*
Y3452*
X5762*
Y3452*
X5763*
Y3453*
X5763*
Y3453*
X5764*
Y3454*
X5765*
Y3455*
X5765*
Y3455*
X5766*
Y3456*
X5768*
Y3456*
X5769*
Y3457*
X5777*
Y3456*
G37*
G36*
X5681Y3371D02*
X5683D01*
Y3370*
X5684*
Y3370*
X5684*
Y3369*
X5686*
Y3369*
X5686*
Y3368*
X5687*
Y3367*
X5687*
Y3367*
X5688*
Y3366*
X5688*
Y3365*
X5689*
Y3364*
X5690*
Y3362*
X5690*
Y3359*
X5691*
Y3357*
X5690*
Y3354*
X5690*
Y3352*
X5689*
Y3352*
X5688*
Y3351*
X5688*
Y3350*
X5687*
Y3349*
X5687*
Y3348*
X5686*
Y3348*
X5685*
Y3347*
X5684*
Y3346*
X5683*
Y3346*
X5682*
Y3345*
X5680*
Y3345*
X5642*
Y3345*
X5640*
Y3346*
X5639*
Y3346*
X5638*
Y3347*
X5637*
Y3348*
X5637*
Y3348*
X5636*
Y3349*
X5636*
Y3349*
X5635*
Y3350*
X5634*
Y3351*
X5634*
Y3352*
X5633*
Y3353*
X5633*
Y3355*
X5632*
Y3362*
X5633*
Y3363*
X5633*
Y3364*
X5634*
Y3366*
X5634*
Y3367*
X5635*
Y3367*
X5636*
Y3368*
X5636*
Y3369*
X5637*
Y3369*
X5638*
Y3370*
X5639*
Y3370*
X5640*
Y3371*
X5641*
Y3371*
X5681*
Y3371*
G37*
G36*
X6234Y3369D02*
X6236D01*
Y3368*
X6237*
Y3367*
X6239*
Y3367*
X6240*
Y3366*
X6240*
Y3366*
X6241*
Y3365*
X6241*
Y3364*
X6242*
Y3364*
X6243*
Y3363*
X6243*
Y3362*
X6244*
Y3361*
X6244*
Y3359*
X6245*
Y3352*
X6244*
Y3351*
X6244*
Y3349*
X6243*
Y3348*
X6243*
Y3348*
X6242*
Y3346*
X6241*
Y3346*
X6241*
Y3345*
X6240*
Y3345*
X6239*
Y3344*
X6239*
Y3344*
X6237*
Y3343*
X6236*
Y3342*
X6233*
Y3342*
X6199*
Y3342*
X6196*
Y3343*
X6194*
Y3344*
X6193*
Y3344*
X6192*
Y3345*
X6191*
Y3345*
X6191*
Y3346*
X6190*
Y3346*
X6190*
Y3347*
X6189*
Y3348*
X6189*
Y3349*
X6188*
Y3350*
X6187*
Y3352*
X6187*
Y3355*
X6186*
Y3356*
X6187*
Y3359*
X6187*
Y3361*
X6188*
Y3362*
X6189*
Y3363*
X6189*
Y3364*
X6190*
Y3364*
X6190*
Y3365*
X6191*
Y3366*
X6191*
Y3366*
X6192*
Y3367*
X6193*
Y3367*
X6194*
Y3368*
X6196*
Y3369*
X6198*
Y3369*
X6234*
Y3369*
G37*
G36*
X5679Y3306D02*
X5681D01*
Y3305*
X5683*
Y3305*
X5684*
Y3304*
X5685*
Y3303*
X5686*
Y3303*
X5686*
Y3302*
X5687*
Y3302*
X5687*
Y3301*
X5688*
Y3301*
X5688*
Y3299*
X5689*
Y3298*
X5690*
Y3297*
X5690*
Y3294*
X5691*
Y3292*
X5690*
Y3289*
X5690*
Y3287*
X5689*
Y3286*
X5688*
Y3285*
X5688*
Y3284*
X5687*
Y3284*
X5687*
Y3283*
X5686*
Y3283*
X5686*
Y3282*
X5685*
Y3281*
X5684*
Y3281*
X5683*
Y3280*
X5681*
Y3280*
X5678*
Y3279*
X5644*
Y3280*
X5641*
Y3280*
X5640*
Y3281*
X5638*
Y3281*
X5638*
Y3282*
X5637*
Y3283*
X5636*
Y3283*
X5636*
Y3284*
X5635*
Y3285*
X5634*
Y3285*
X5634*
Y3287*
X5633*
Y3288*
X5633*
Y3289*
X5632*
Y3296*
X5633*
Y3298*
X5633*
Y3299*
X5634*
Y3300*
X5634*
Y3301*
X5635*
Y3302*
X5636*
Y3302*
X5636*
Y3303*
X5637*
Y3303*
X5637*
Y3304*
X5638*
Y3305*
X5640*
Y3305*
X5641*
Y3306*
X5643*
Y3306*
X5679*
Y3306*
G37*
G36*
X6236Y3303D02*
X6237D01*
Y3302*
X6238*
Y3302*
X6239*
Y3301*
X6240*
Y3301*
X6241*
Y3300*
X6241*
Y3299*
X6242*
Y3298*
X6243*
Y3298*
X6243*
Y3296*
X6244*
Y3295*
X6244*
Y3294*
X6245*
Y3287*
X6244*
Y3285*
X6244*
Y3284*
X6243*
Y3283*
X6243*
Y3282*
X6242*
Y3281*
X6241*
Y3280*
X6240*
Y3280*
X6240*
Y3279*
X6239*
Y3278*
X6238*
Y3278*
X6237*
Y3277*
X6235*
Y3277*
X6197*
Y3277*
X6195*
Y3278*
X6194*
Y3278*
X6193*
Y3279*
X6192*
Y3280*
X6191*
Y3280*
X6190*
Y3281*
X6190*
Y3281*
X6189*
Y3283*
X6189*
Y3283*
X6188*
Y3284*
X6187*
Y3286*
X6187*
Y3289*
X6186*
Y3291*
X6187*
Y3294*
X6187*
Y3296*
X6188*
Y3297*
X6189*
Y3298*
X6189*
Y3299*
X6190*
Y3299*
X6190*
Y3300*
X6191*
Y3301*
X6191*
Y3301*
X6193*
Y3302*
X6193*
Y3302*
X6194*
Y3303*
X6196*
Y3303*
X6236*
Y3303*
G37*
G36*
X5679Y3241D02*
X5681D01*
Y3241*
X5683*
Y3240*
X5684*
Y3239*
X5685*
Y3239*
X5686*
Y3238*
X5686*
Y3238*
X5687*
Y3237*
X5687*
Y3237*
X5688*
Y3236*
X5688*
Y3235*
X5689*
Y3234*
X5690*
Y3232*
X5690*
Y3228*
X5691*
Y3227*
X5690*
Y3224*
X5690*
Y3223*
X5689*
Y3221*
X5688*
Y3220*
X5688*
Y3220*
X5687*
Y3219*
X5687*
Y3219*
X5686*
Y3218*
X5686*
Y3217*
X5685*
Y3217*
X5684*
Y3216*
X5683*
Y3216*
X5681*
Y3215*
X5679*
Y3214*
X5643*
Y3215*
X5641*
Y3216*
X5640*
Y3216*
X5638*
Y3217*
X5637*
Y3217*
X5637*
Y3218*
X5636*
Y3219*
X5636*
Y3219*
X5635*
Y3220*
X5634*
Y3221*
X5634*
Y3221*
X5633*
Y3223*
X5633*
Y3225*
X5632*
Y3232*
X5633*
Y3233*
X5633*
Y3234*
X5634*
Y3235*
X5634*
Y3237*
X5635*
Y3237*
X5636*
Y3238*
X5636*
Y3238*
X5637*
Y3239*
X5638*
Y3239*
X5638*
Y3240*
X5640*
Y3241*
X5641*
Y3241*
X5644*
Y3242*
X5679*
Y3241*
G37*
G36*
X6235Y3238D02*
X6237D01*
Y3238*
X6238*
Y3237*
X6239*
Y3237*
X6240*
Y3236*
X6240*
Y3235*
X6241*
Y3235*
X6241*
Y3234*
X6242*
Y3234*
X6243*
Y3233*
X6243*
Y3232*
X6244*
Y3231*
X6244*
Y3229*
X6245*
Y3222*
X6244*
Y3220*
X6244*
Y3219*
X6243*
Y3218*
X6243*
Y3217*
X6242*
Y3216*
X6241*
Y3216*
X6241*
Y3215*
X6240*
Y3214*
X6239*
Y3214*
X6238*
Y3213*
X6237*
Y3213*
X6236*
Y3212*
X6197*
Y3213*
X6194*
Y3213*
X6193*
Y3214*
X6193*
Y3214*
X6191*
Y3215*
X6191*
Y3216*
X6190*
Y3216*
X6190*
Y3217*
X6189*
Y3218*
X6189*
Y3219*
X6188*
Y3220*
X6187*
Y3221*
X6187*
Y3224*
X6186*
Y3227*
X6187*
Y3230*
X6187*
Y3231*
X6188*
Y3233*
X6189*
Y3233*
X6189*
Y3234*
X6190*
Y3235*
X6190*
Y3235*
X6191*
Y3236*
X6192*
Y3237*
X6193*
Y3237*
X6194*
Y3238*
X6195*
Y3238*
X6197*
Y3239*
X6235*
Y3238*
G37*
G36*
X5681Y3176D02*
X5682D01*
Y3175*
X5684*
Y3174*
X5684*
Y3174*
X5686*
Y3173*
X5686*
Y3173*
X5687*
Y3172*
X5687*
Y3171*
X5688*
Y3170*
X5688*
Y3170*
X5689*
Y3169*
X5690*
Y3167*
X5690*
Y3164*
X5691*
Y3161*
X5690*
Y3158*
X5690*
Y3157*
X5689*
Y3156*
X5688*
Y3155*
X5688*
Y3154*
X5687*
Y3153*
X5687*
Y3153*
X5686*
Y3152*
X5686*
Y3152*
X5685*
Y3151*
X5684*
Y3151*
X5683*
Y3150*
X5681*
Y3149*
X5676*
Y3149*
X5646*
Y3149*
X5641*
Y3150*
X5640*
Y3151*
X5638*
Y3151*
X5638*
Y3152*
X5637*
Y3152*
X5636*
Y3153*
X5636*
Y3153*
X5635*
Y3154*
X5634*
Y3155*
X5634*
Y3156*
X5633*
Y3157*
X5633*
Y3159*
X5632*
Y3167*
X5633*
Y3168*
X5633*
Y3170*
X5634*
Y3170*
X5634*
Y3171*
X5635*
Y3172*
X5636*
Y3173*
X5636*
Y3173*
X5637*
Y3174*
X5638*
Y3174*
X5639*
Y3175*
X5640*
Y3176*
X5642*
Y3176*
X5681*
Y3176*
G37*
G36*
X6234Y3173D02*
X6236D01*
Y3173*
X6237*
Y3172*
X6239*
Y3171*
X6240*
Y3171*
X6240*
Y3170*
X6241*
Y3170*
X6241*
Y3169*
X6242*
Y3169*
X6243*
Y3168*
X6243*
Y3167*
X6244*
Y3166*
X6244*
Y3164*
X6245*
Y3156*
X6244*
Y3155*
X6244*
Y3153*
X6243*
Y3152*
X6243*
Y3152*
X6242*
Y3151*
X6241*
Y3151*
X6241*
Y3150*
X6240*
Y3149*
X6240*
Y3149*
X6239*
Y3148*
X6238*
Y3148*
X6236*
Y3147*
X6234*
Y3146*
X6197*
Y3147*
X6195*
Y3148*
X6194*
Y3148*
X6193*
Y3149*
X6192*
Y3149*
X6191*
Y3150*
X6190*
Y3151*
X6190*
Y3152*
X6189*
Y3152*
X6189*
Y3153*
X6188*
Y3154*
X6187*
Y3156*
X6187*
Y3158*
X6186*
Y3162*
X6187*
Y3164*
X6187*
Y3166*
X6188*
Y3167*
X6189*
Y3168*
X6189*
Y3169*
X6190*
Y3169*
X6190*
Y3170*
X6191*
Y3170*
X6191*
Y3171*
X6192*
Y3171*
X6193*
Y3172*
X6194*
Y3173*
X6196*
Y3173*
X6198*
Y3174*
X6234*
Y3173*
G37*
G36*
X6143Y3384D02*
X6147D01*
Y3384*
X6149*
Y3383*
X6151*
Y3383*
X6152*
Y3382*
X6154*
Y3381*
X6155*
Y3381*
X6156*
Y3380*
X6157*
Y3380*
X6158*
Y3379*
X6159*
Y3378*
X6160*
Y3378*
X6161*
Y3377*
X6161*
Y3377*
X6162*
Y3376*
X6163*
Y3376*
X6164*
Y3375*
X6164*
Y3374*
X6165*
Y3374*
X6165*
Y3373*
X6166*
Y3373*
X6166*
Y3371*
X6167*
Y3371*
X6168*
Y3370*
X6168*
Y3369*
X6169*
Y3369*
X6169*
Y3367*
X6170*
Y3367*
X6171*
Y3366*
X6171*
Y3364*
X6172*
Y3363*
X6172*
Y3362*
X6173*
Y3360*
X6173*
Y3358*
X6174*
Y3355*
X6175*
Y3161*
X6174*
Y3158*
X6173*
Y3156*
X6173*
Y3154*
X6172*
Y3153*
X6172*
Y3151*
X6171*
Y3150*
X6171*
Y3149*
X6170*
Y3148*
X6169*
Y3147*
X6169*
Y3146*
X6168*
Y3145*
X6168*
Y3145*
X6167*
Y3144*
X6166*
Y3143*
X6166*
Y3142*
X6165*
Y3142*
X6165*
Y3141*
X6164*
Y3141*
X6164*
Y3140*
X6163*
Y3139*
X6162*
Y3139*
X6161*
Y3138*
X6161*
Y3138*
X6160*
Y3137*
X6159*
Y3137*
X6158*
Y3136*
X6157*
Y3135*
X6156*
Y3135*
X6155*
Y3134*
X6154*
Y3134*
X6152*
Y3133*
X6151*
Y3132*
X6149*
Y3132*
X6147*
Y3131*
X6143*
Y3131*
X5734*
Y3131*
X5730*
Y3132*
X5728*
Y3132*
X5726*
Y3133*
X5725*
Y3134*
X5723*
Y3134*
X5722*
Y3135*
X5721*
Y3135*
X5720*
Y3136*
X5719*
Y3137*
X5718*
Y3137*
X5717*
Y3138*
X5716*
Y3138*
X5716*
Y3139*
X5715*
Y3139*
X5714*
Y3140*
X5713*
Y3141*
X5713*
Y3141*
X5712*
Y3142*
X5712*
Y3142*
X5711*
Y3143*
X5711*
Y3144*
X5710*
Y3145*
X5709*
Y3145*
X5709*
Y3146*
X5708*
Y3147*
X5708*
Y3148*
X5707*
Y3149*
X5706*
Y3150*
X5706*
Y3151*
X5705*
Y3153*
X5705*
Y3154*
X5704*
Y3156*
X5704*
Y3158*
X5703*
Y3161*
X5702*
Y3355*
X5703*
Y3358*
X5704*
Y3360*
X5704*
Y3362*
X5705*
Y3363*
X5705*
Y3364*
X5706*
Y3366*
X5706*
Y3367*
X5707*
Y3367*
X5708*
Y3369*
X5708*
Y3369*
X5709*
Y3370*
X5709*
Y3371*
X5710*
Y3371*
X5711*
Y3373*
X5711*
Y3373*
X5712*
Y3374*
X5712*
Y3374*
X5713*
Y3375*
X5713*
Y3376*
X5714*
Y3376*
X5715*
Y3377*
X5716*
Y3377*
X5716*
Y3378*
X5717*
Y3378*
X5718*
Y3379*
X5719*
Y3380*
X5720*
Y3380*
X5721*
Y3381*
X5722*
Y3381*
X5723*
Y3382*
X5725*
Y3383*
X5726*
Y3383*
X5728*
Y3384*
X5730*
Y3384*
X5734*
Y3385*
X6143*
Y3384*
G37*
G36*
X6099Y3117D02*
X6101D01*
Y3116*
X6103*
Y3116*
X6104*
Y3115*
X6105*
Y3114*
X6106*
Y3114*
X6107*
Y3113*
X6107*
Y3113*
X6108*
Y3112*
X6108*
Y3111*
X6109*
Y3110*
X6109*
Y3109*
X6110*
Y3107*
X6111*
Y3068*
X6110*
Y3067*
X6109*
Y3066*
X6109*
Y3064*
X6108*
Y3064*
X6108*
Y3063*
X6107*
Y3062*
X6107*
Y3062*
X6106*
Y3061*
X6105*
Y3060*
X6104*
Y3060*
X6102*
Y3059*
X6101*
Y3059*
X6094*
Y3059*
X6092*
Y3060*
X6091*
Y3060*
X6090*
Y3061*
X6089*
Y3062*
X6089*
Y3062*
X6088*
Y3063*
X6087*
Y3063*
X6087*
Y3064*
X6086*
Y3064*
X6086*
Y3066*
X6085*
Y3067*
X6084*
Y3069*
X6084*
Y3107*
X6084*
Y3109*
X6085*
Y3110*
X6086*
Y3111*
X6086*
Y3112*
X6087*
Y3113*
X6087*
Y3113*
X6088*
Y3114*
X6089*
Y3114*
X6090*
Y3115*
X6090*
Y3116*
X6091*
Y3116*
X6093*
Y3117*
X6096*
Y3117*
X6099*
Y3117*
G37*
G36*
X6033D02*
X6036D01*
Y3116*
X6037*
Y3116*
X6039*
Y3115*
X6040*
Y3114*
X6040*
Y3114*
X6041*
Y3113*
X6041*
Y3113*
X6042*
Y3112*
X6043*
Y3112*
X6043*
Y3110*
X6044*
Y3109*
X6044*
Y3108*
X6045*
Y3106*
X6045*
Y3070*
X6045*
Y3067*
X6044*
Y3066*
X6044*
Y3065*
X6043*
Y3064*
X6043*
Y3063*
X6042*
Y3063*
X6041*
Y3062*
X6041*
Y3062*
X6040*
Y3061*
X6039*
Y3060*
X6039*
Y3060*
X6037*
Y3059*
X6035*
Y3059*
X6029*
Y3059*
X6027*
Y3060*
X6026*
Y3060*
X6025*
Y3061*
X6024*
Y3062*
X6023*
Y3062*
X6022*
Y3063*
X6022*
Y3063*
X6021*
Y3064*
X6020*
Y3065*
X6020*
Y3066*
X6019*
Y3068*
X6019*
Y3071*
X6018*
Y3105*
X6019*
Y3107*
X6019*
Y3109*
X6020*
Y3110*
X6020*
Y3111*
X6021*
Y3112*
X6022*
Y3113*
X6022*
Y3113*
X6023*
Y3114*
X6023*
Y3114*
X6025*
Y3115*
X6025*
Y3116*
X6026*
Y3116*
X6028*
Y3117*
X6031*
Y3117*
X6033*
Y3117*
G37*
G36*
X5968D02*
X5971D01*
Y3116*
X5973*
Y3116*
X5974*
Y3115*
X5975*
Y3114*
X5976*
Y3114*
X5976*
Y3113*
X5977*
Y3113*
X5977*
Y3112*
X5978*
Y3112*
X5979*
Y3110*
X5979*
Y3109*
X5980*
Y3108*
X5980*
Y3105*
X5981*
Y3080*
Y3080*
Y3070*
X5980*
Y3068*
X5980*
Y3066*
X5979*
Y3065*
X5979*
Y3064*
X5978*
Y3063*
X5977*
Y3063*
X5977*
Y3062*
X5976*
Y3062*
X5976*
Y3061*
X5975*
Y3060*
X5973*
Y3060*
X5972*
Y3059*
X5970*
Y3059*
X5964*
Y3059*
X5962*
Y3060*
X5961*
Y3060*
X5960*
Y3061*
X5959*
Y3062*
X5958*
Y3062*
X5958*
Y3063*
X5957*
Y3063*
X5957*
Y3064*
X5956*
Y3065*
X5955*
Y3066*
X5955*
Y3068*
X5954*
Y3070*
X5954*
Y3105*
X5954*
Y3108*
X5955*
Y3109*
X5955*
Y3110*
X5956*
Y3112*
X5957*
Y3112*
X5957*
Y3113*
X5958*
Y3113*
X5958*
Y3114*
X5959*
Y3114*
X5959*
Y3115*
X5961*
Y3116*
X5962*
Y3116*
X5964*
Y3117*
X5966*
Y3117*
X5968*
Y3117*
G37*
G36*
X5904D02*
X5907D01*
Y3116*
X5908*
Y3116*
X5909*
Y3115*
X5910*
Y3114*
X5911*
Y3114*
X5911*
Y3113*
X5912*
Y3113*
X5912*
Y3112*
X5913*
Y3111*
X5914*
Y3110*
X5914*
Y3109*
X5915*
Y3107*
X5915*
Y3069*
X5915*
Y3067*
X5914*
Y3066*
X5914*
Y3064*
X5913*
Y3064*
X5912*
Y3063*
X5912*
Y3062*
X5911*
Y3062*
X5910*
Y3061*
X5909*
Y3060*
X5908*
Y3060*
X5907*
Y3059*
X5906*
Y3059*
X5898*
Y3059*
X5896*
Y3060*
X5895*
Y3060*
X5894*
Y3061*
X5893*
Y3062*
X5893*
Y3062*
X5892*
Y3063*
X5891*
Y3063*
X5891*
Y3064*
X5890*
Y3065*
X5890*
Y3067*
X5889*
Y3068*
X5888*
Y3092*
Y3093*
Y3107*
X5889*
Y3109*
X5890*
Y3110*
X5890*
Y3112*
X5891*
Y3112*
X5891*
Y3113*
X5892*
Y3113*
X5893*
Y3114*
X5893*
Y3114*
X5894*
Y3115*
X5895*
Y3116*
X5896*
Y3116*
X5897*
Y3117*
X5900*
Y3117*
X5904*
Y3117*
G37*
G36*
X5839D02*
X5842D01*
Y3116*
X5844*
Y3116*
X5845*
Y3115*
X5845*
Y3114*
X5847*
Y3114*
X5847*
Y3113*
X5848*
Y3113*
X5848*
Y3112*
X5849*
Y3111*
X5850*
Y3110*
X5850*
Y3109*
X5851*
Y3107*
X5851*
Y3069*
X5851*
Y3067*
X5850*
Y3066*
X5850*
Y3064*
X5849*
Y3064*
X5848*
Y3063*
X5848*
Y3062*
X5847*
Y3062*
X5846*
Y3061*
X5845*
Y3060*
X5844*
Y3060*
X5843*
Y3059*
X5841*
Y3059*
X5834*
Y3059*
X5833*
Y3060*
X5832*
Y3060*
X5830*
Y3061*
X5830*
Y3062*
X5829*
Y3062*
X5828*
Y3063*
X5827*
Y3064*
X5827*
Y3064*
X5826*
Y3066*
X5826*
Y3067*
X5825*
Y3069*
X5825*
Y3107*
X5825*
Y3109*
X5826*
Y3110*
X5826*
Y3111*
X5827*
Y3112*
X5827*
Y3113*
X5828*
Y3113*
X5829*
Y3114*
X5829*
Y3114*
X5830*
Y3115*
X5831*
Y3116*
X5832*
Y3116*
X5834*
Y3117*
X5837*
Y3117*
X5839*
Y3117*
G37*
G36*
X5775D02*
X5777D01*
Y3116*
X5779*
Y3116*
X5779*
Y3115*
X5780*
Y3114*
X5781*
Y3114*
X5782*
Y3113*
X5782*
Y3113*
X5783*
Y3112*
X5783*
Y3112*
X5784*
Y3111*
X5784*
Y3110*
X5785*
Y3108*
X5786*
Y3106*
X5786*
Y3070*
X5786*
Y3067*
X5785*
Y3066*
X5784*
Y3065*
X5784*
Y3064*
X5783*
Y3063*
X5783*
Y3063*
X5782*
Y3062*
X5782*
Y3062*
X5781*
Y3061*
X5780*
Y3060*
X5779*
Y3060*
X5778*
Y3059*
X5776*
Y3059*
X5769*
Y3059*
X5767*
Y3060*
X5766*
Y3060*
X5765*
Y3061*
X5764*
Y3062*
X5763*
Y3062*
X5763*
Y3063*
X5762*
Y3063*
X5762*
Y3064*
X5761*
Y3064*
X5761*
Y3066*
X5760*
Y3067*
X5759*
Y3069*
X5759*
Y3106*
X5759*
Y3109*
X5760*
Y3110*
X5761*
Y3111*
X5761*
Y3112*
X5762*
Y3113*
X5762*
Y3113*
X5763*
Y3114*
X5763*
Y3114*
X5765*
Y3115*
X5765*
Y3116*
X5766*
Y3116*
X5768*
Y3117*
X5770*
Y3117*
X5775*
Y3117*
G37*
%LNmtb_telemetry_system_pcb-2*%
%LPC*%
G36*
X6144Y3372D02*
X5733D01*
Y3371*
X5731*
Y3371*
X5729*
Y3370*
X5728*
Y3370*
X5727*
Y3369*
X5726*
Y3369*
X5725*
Y3368*
X5724*
Y3367*
X5723*
Y3367*
X5723*
Y3366*
X5722*
Y3366*
X5722*
Y3365*
X5721*
Y3364*
X5720*
Y3364*
X5720*
Y3363*
X5719*
Y3363*
X5719*
Y3362*
X5718*
Y3361*
X5718*
Y3360*
X5717*
Y3359*
X5716*
Y3357*
X5716*
Y3355*
X5715*
Y3352*
X5715*
Y3164*
X5715*
Y3160*
X5716*
Y3159*
X5716*
Y3157*
X5717*
Y3156*
X5718*
Y3155*
X5718*
Y3154*
X5719*
Y3153*
X5719*
Y3152*
X5720*
Y3152*
X5720*
Y3151*
X5721*
Y3151*
X5722*
Y3150*
X5722*
Y3149*
X5723*
Y3148*
X5724*
Y3148*
X5725*
Y3147*
X5726*
Y3146*
X5727*
Y3146*
X5728*
Y3145*
X5729*
Y3145*
X5730*
Y3144*
X5733*
Y3144*
X6144*
Y3144*
X6147*
Y3145*
X6148*
Y3145*
X6149*
Y3146*
X6150*
Y3146*
X6151*
Y3147*
X6152*
Y3148*
X6153*
Y3148*
X6154*
Y3149*
X6154*
Y3149*
X6155*
Y3150*
X6155*
Y3151*
X6156*
Y3151*
X6157*
Y3152*
X6157*
Y3152*
X6158*
Y3153*
X6158*
Y3154*
X6159*
Y3155*
X6159*
Y3156*
X6160*
Y3157*
X6161*
Y3159*
X6161*
Y3160*
X6162*
Y3164*
X6162*
Y3306*
Y3306*
Y3352*
X6162*
Y3355*
X6161*
Y3357*
X6161*
Y3359*
X6160*
Y3360*
X6159*
Y3360*
X6159*
Y3362*
X6158*
Y3363*
X6158*
Y3363*
X6157*
Y3364*
X6157*
Y3364*
X6156*
Y3365*
X6155*
Y3366*
X6155*
Y3366*
X6154*
Y3367*
X6154*
Y3367*
X6153*
Y3368*
X6152*
Y3369*
X6151*
Y3369*
X6150*
Y3370*
X6149*
Y3370*
X6148*
Y3371*
X6146*
Y3371*
X6144*
Y3372*
G37*
%LNmtb_telemetry_system_pcb-3*%
%LPD*%
G36*
X6122Y3342D02*
X6124D01*
Y3342*
X6125*
Y3341*
X6126*
Y3341*
X6126*
Y3340*
X6127*
Y3339*
X6127*
Y3337*
X6128*
Y3327*
X6127*
Y3325*
X6127*
Y3324*
X6126*
Y3323*
X6126*
Y3323*
X6125*
Y3322*
X6124*
Y3321*
X6123*
Y3321*
X6031*
Y3270*
X6117*
Y3269*
X6118*
Y3269*
X6119*
Y3268*
X6120*
Y3267*
X6121*
Y3266*
X6121*
Y3266*
X6122*
Y3252*
X6121*
Y3251*
X6121*
Y3251*
X6120*
Y3250*
X6119*
Y3249*
X6119*
Y3249*
X6118*
Y3248*
X6116*
Y3248*
X6031*
Y3195*
Y3195*
X6125*
Y3194*
X6126*
Y3194*
X6127*
Y3193*
X6128*
Y3192*
X6129*
Y3192*
X6129*
Y3191*
X6130*
Y3177*
X6129*
Y3176*
X6129*
Y3175*
X6127*
Y3174*
X6127*
Y3174*
X6126*
Y3173*
X6125*
Y3173*
X6009*
Y3173*
X6007*
Y3174*
X6006*
Y3174*
X6005*
Y3175*
X6004*
Y3176*
X6004*
Y3176*
X6002*
Y3177*
X6002*
Y3177*
X6001*
Y3178*
X6001*
Y3179*
X6000*
Y3180*
X6000*
Y3180*
X5999*
Y3181*
X5998*
Y3181*
X5998*
Y3182*
X5997*
Y3183*
X5997*
Y3184*
X5996*
Y3184*
X5995*
Y3185*
X5995*
Y3186*
X5994*
Y3187*
X5994*
Y3187*
X5993*
Y3188*
X5993*
Y3189*
X5992*
Y3189*
X5991*
Y3190*
X5991*
Y3191*
X5990*
Y3192*
X5990*
Y3192*
X5989*
Y3193*
X5989*
Y3194*
X5988*
Y3195*
X5987*
Y3195*
X5987*
Y3196*
X5986*
Y3196*
X5986*
Y3197*
X5985*
Y3198*
X5984*
Y3199*
X5984*
Y3199*
X5983*
Y3200*
X5983*
Y3201*
X5982*
Y3202*
X5982*
Y3202*
X5981*
Y3203*
X5980*
Y3203*
X5980*
Y3205*
X5979*
Y3205*
X5979*
Y3206*
X5978*
Y3206*
X5977*
Y3207*
X5977*
Y3208*
X5976*
Y3209*
X5976*
Y3209*
X5975*
Y3210*
X5975*
Y3211*
X5974*
Y3212*
X5973*
Y3212*
X5973*
Y3213*
X5972*
Y3214*
X5972*
Y3214*
X5971*
Y3215*
X5970*
Y3216*
X5970*
Y3216*
X5969*
Y3217*
X5969*
Y3218*
X5968*
Y3219*
X5968*
Y3219*
X5967*
Y3220*
X5966*
Y3221*
X5966*
Y3221*
X5965*
Y3222*
X5965*
Y3223*
X5964*
Y3224*
X5964*
Y3224*
X5963*
Y3225*
X5962*
Y3226*
X5962*
Y3227*
X5961*
Y3227*
X5961*
Y3228*
X5960*
Y3228*
X5959*
Y3230*
X5959*
Y3230*
X5958*
Y3231*
X5958*
Y3231*
X5957*
Y3232*
X5957*
Y3233*
X5956*
Y3234*
X5955*
Y3234*
X5955*
Y3235*
X5954*
Y3235*
X5954*
Y3237*
X5953*
Y3237*
X5952*
Y3238*
X5952*
Y3239*
X5951*
Y3239*
X5951*
Y3240*
X5950*
Y3241*
X5950*
Y3241*
X5949*
Y3242*
X5948*
Y3243*
X5948*
Y3244*
X5947*
Y3244*
X5947*
Y3245*
X5946*
Y3246*
X5945*
Y3246*
X5945*
Y3247*
X5944*
Y3248*
X5944*
Y3249*
X5943*
Y3249*
X5943*
Y3250*
X5942*
Y3251*
X5941*
Y3252*
X5941*
Y3252*
X5940*
Y3253*
X5940*
Y3253*
X5939*
Y3254*
X5939*
Y3255*
X5938*
Y3256*
X5937*
Y3256*
X5937*
Y3257*
X5936*
Y3258*
X5936*
Y3259*
X5935*
Y3259*
X5934*
Y3260*
X5934*
Y3260*
X5933*
Y3262*
X5933*
Y3262*
X5932*
Y3263*
X5932*
Y3263*
X5931*
Y3264*
X5930*
Y3265*
X5930*
Y3266*
X5929*
Y3266*
X5929*
Y3267*
X5928*
Y3268*
X5927*
Y3269*
X5927*
Y3269*
X5926*
Y3270*
X5926*
Y3271*
X5925*
Y3271*
X5925*
Y3272*
X5924*
Y3273*
X5923*
Y3274*
X5923*
Y3274*
X5922*
Y3275*
X5922*
Y3276*
X5921*
Y3276*
X5920*
Y3277*
X5920*
Y3278*
X5919*
Y3278*
X5919*
Y3279*
X5918*
Y3280*
X5918*
Y3281*
X5917*
Y3281*
X5916*
Y3282*
X5916*
Y3283*
X5915*
Y3284*
X5915*
Y3284*
X5914*
Y3285*
X5914*
Y3285*
X5913*
Y3287*
X5912*
Y3287*
X5912*
Y3288*
X5911*
Y3288*
X5911*
Y3289*
X5910*
Y3290*
X5909*
Y3291*
X5909*
Y3291*
X5908*
Y3292*
X5908*
Y3293*
X5907*
Y3294*
X5907*
Y3294*
X5906*
Y3295*
X5905*
Y3296*
X5905*
Y3296*
X5904*
Y3297*
X5904*
Y3298*
X5903*
Y3178*
X5902*
Y3177*
X5902*
Y3176*
X5901*
Y3176*
X5901*
Y3175*
X5900*
Y3174*
X5900*
Y3174*
X5898*
Y3173*
X5897*
Y3173*
X5873*
Y3173*
X5871*
Y3174*
X5869*
Y3174*
X5868*
Y3175*
X5867*
Y3176*
X5866*
Y3176*
X5866*
Y3177*
X5865*
Y3177*
X5864*
Y3178*
X5863*
Y3178*
X5862*
Y3179*
X5862*
Y3180*
X5861*
Y3180*
X5860*
Y3181*
X5859*
Y3181*
X5859*
Y3182*
X5858*
Y3182*
X5857*
Y3183*
X5857*
Y3184*
X5856*
Y3184*
X5855*
Y3185*
X5854*
Y3185*
X5854*
Y3186*
X5853*
Y3187*
X5852*
Y3187*
X5851*
Y3188*
X5851*
Y3188*
X5850*
Y3189*
X5849*
Y3189*
X5848*
Y3190*
X5848*
Y3191*
X5847*
Y3191*
X5846*
Y3192*
X5845*
Y3192*
X5845*
Y3193*
X5844*
Y3194*
X5843*
Y3194*
X5843*
Y3195*
X5841*
Y3195*
X5841*
Y3196*
X5840*
Y3196*
X5840*
Y3197*
X5838*
Y3198*
X5838*
Y3198*
X5837*
Y3199*
X5836*
Y3199*
X5836*
Y3200*
X5835*
Y3201*
X5834*
Y3201*
X5833*
Y3202*
X5833*
Y3202*
X5832*
Y3203*
X5831*
Y3203*
X5830*
Y3204*
X5830*
Y3205*
X5829*
Y3205*
X5828*
Y3206*
X5827*
Y3206*
X5827*
Y3207*
X5826*
Y3207*
X5825*
Y3208*
X5825*
Y3209*
X5824*
Y3209*
X5823*
Y3210*
X5822*
Y3210*
X5822*
Y3211*
X5820*
Y3212*
X5820*
Y3212*
X5819*
Y3213*
X5818*
Y3213*
X5818*
Y3214*
X5817*
Y3214*
X5816*
Y3215*
X5815*
Y3216*
X5815*
Y3216*
X5814*
Y3217*
X5813*
Y3217*
X5812*
Y3218*
X5812*
Y3219*
X5811*
Y3219*
X5810*
Y3220*
X5809*
Y3220*
X5809*
Y3221*
X5808*
Y3221*
X5807*
Y3222*
X5807*
Y3223*
X5806*
Y3223*
X5805*
Y3224*
X5804*
Y3224*
X5804*
Y3225*
X5802*
Y3226*
X5802*
Y3226*
X5801*
Y3227*
X5801*
Y3227*
X5800*
Y3228*
X5799*
Y3228*
X5798*
Y3229*
X5797*
Y3230*
X5797*
Y3230*
X5796*
Y3231*
X5795*
Y3231*
X5794*
Y3232*
X5794*
Y3233*
X5793*
Y3233*
X5792*
Y3234*
X5791*
Y3234*
X5791*
Y3235*
X5790*
Y3235*
X5789*
Y3236*
X5788*
Y3237*
X5788*
Y3237*
X5787*
Y3238*
X5786*
Y3238*
X5786*
Y3239*
X5785*
Y3239*
X5784*
Y3240*
X5783*
Y3241*
X5783*
Y3241*
X5782*
Y3177*
X5781*
Y3176*
X5780*
Y3176*
X5780*
Y3175*
X5779*
Y3174*
X5778*
Y3174*
X5777*
Y3173*
X5775*
Y3173*
X5759*
Y3173*
X5757*
Y3174*
X5756*
Y3174*
X5755*
Y3175*
X5755*
Y3176*
X5754*
Y3176*
X5754*
Y3177*
X5753*
Y3338*
X5754*
Y3339*
X5754*
Y3340*
X5755*
Y3341*
X5755*
Y3341*
X5757*
Y3342*
X5757*
Y3342*
X5759*
Y3343*
X5775*
Y3342*
X5777*
Y3342*
X5778*
Y3341*
X5779*
Y3341*
X5780*
Y3340*
X5780*
Y3339*
X5781*
Y3338*
X5782*
Y3280*
X5782*
Y3281*
X5783*
Y3281*
X5784*
Y3282*
X5784*
Y3283*
X5785*
Y3283*
X5786*
Y3284*
X5787*
Y3284*
X5788*
Y3285*
X5788*
Y3285*
X5789*
Y3286*
X5790*
Y3287*
X5791*
Y3287*
X5791*
Y3288*
X5793*
Y3288*
X5793*
Y3289*
X5794*
Y3289*
X5795*
Y3290*
X5795*
Y3291*
X5796*
Y3291*
X5797*
Y3292*
X5798*
Y3292*
X5798*
Y3293*
X5800*
Y3294*
X5800*
Y3294*
X5801*
Y3295*
X5802*
Y3295*
X5802*
Y3296*
X5803*
Y3296*
X5804*
Y3297*
X5805*
Y3298*
X5805*
Y3298*
X5807*
Y3299*
X5807*
Y3299*
X5808*
Y3300*
X5809*
Y3301*
X5809*
Y3301*
X5810*
Y3302*
X5811*
Y3302*
X5812*
Y3303*
X5812*
Y3303*
X5813*
Y3304*
X5814*
Y3305*
X5815*
Y3305*
X5816*
Y3306*
X5816*
Y3306*
X5817*
Y3307*
X5818*
Y3308*
X5819*
Y3308*
X5819*
Y3309*
X5820*
Y3309*
X5821*
Y3310*
X5822*
Y3310*
X5823*
Y3311*
X5823*
Y3312*
X5825*
Y3312*
X5825*
Y3313*
X5826*
Y3313*
X5826*
Y3314*
X5827*
Y3314*
X5828*
Y3315*
X5829*
Y3316*
X5830*
Y3316*
X5830*
Y3317*
X5832*
Y3317*
X5832*
Y3318*
X5833*
Y3319*
X5834*
Y3319*
X5834*
Y3320*
X5835*
Y3320*
X5836*
Y3321*
X5837*
Y3321*
X5837*
Y3322*
X5838*
Y3323*
X5839*
Y3323*
X5840*
Y3324*
X5841*
Y3324*
X5841*
Y3325*
X5842*
Y3326*
X5843*
Y3326*
X5844*
Y3327*
X5844*
Y3327*
X5845*
Y3328*
X5846*
Y3328*
X5847*
Y3329*
X5848*
Y3330*
X5848*
Y3330*
X5849*
Y3331*
X5850*
Y3331*
X5851*
Y3332*
X5851*
Y3333*
X5852*
Y3333*
X5853*
Y3334*
X5854*
Y3334*
X5855*
Y3335*
X5855*
Y3335*
X5856*
Y3336*
X5857*
Y3337*
X5858*
Y3337*
X5858*
Y3338*
X5859*
Y3338*
X5860*
Y3339*
X5861*
Y3339*
X5862*
Y3340*
X5862*
Y3341*
X5863*
Y3341*
X5865*
Y3342*
X5866*
Y3342*
X5869*
Y3343*
X5895*
Y3342*
X5897*
Y3342*
X5898*
Y3341*
X5900*
Y3341*
X5900*
Y3340*
X5901*
Y3339*
X5901*
Y3339*
X5902*
Y3338*
X5903*
Y3337*
X5904*
Y3337*
X5904*
Y3336*
X5905*
Y3335*
X5905*
Y3335*
X5906*
Y3334*
X5907*
Y3333*
X5907*
Y3333*
X5908*
Y3332*
X5908*
Y3331*
X5909*
Y3330*
X5909*
Y3330*
X5910*
Y3329*
X5911*
Y3328*
X5911*
Y3327*
X5912*
Y3327*
X5912*
Y3326*
X5913*
Y3326*
X5914*
Y3324*
X5914*
Y3324*
X5915*
Y3323*
X5915*
Y3323*
X5916*
Y3322*
X5916*
Y3321*
X5917*
Y3320*
X5918*
Y3320*
X5918*
Y3319*
X5919*
Y3318*
X5919*
Y3317*
X5920*
Y3317*
X5920*
Y3316*
X5921*
Y3316*
X5922*
Y3314*
X5922*
Y3314*
X5923*
Y3313*
X5923*
Y3313*
X5924*
Y3312*
X5925*
Y3311*
X5925*
Y3310*
X5926*
Y3310*
X5926*
Y3309*
X5927*
Y3308*
X5927*
Y3308*
X5928*
Y3307*
X5929*
Y3306*
X5929*
Y3305*
X5930*
Y3305*
X5930*
Y3304*
X5931*
Y3303*
X5932*
Y3303*
X5932*
Y3302*
X5933*
Y3301*
X5933*
Y3301*
X5934*
Y3300*
X5934*
Y3299*
X5935*
Y3298*
X5936*
Y3298*
X5936*
Y3297*
X5937*
Y3296*
X5937*
Y3295*
X5938*
Y3295*
X5939*
Y3294*
X5939*
Y3294*
X5940*
Y3292*
X5940*
Y3292*
X5941*
Y3291*
X5941*
Y3291*
X5942*
Y3290*
X5943*
Y3289*
X5943*
Y3288*
X5944*
Y3288*
X5944*
Y3287*
X5945*
Y3286*
X5945*
Y3285*
X5946*
Y3285*
X5947*
Y3284*
X5947*
Y3283*
X5948*
Y3283*
X5948*
Y3282*
X5949*
Y3281*
X5950*
Y3281*
X5950*
Y3280*
X5951*
Y3279*
X5951*
Y3278*
X5952*
Y3278*
X5952*
Y3277*
X5953*
Y3276*
X5954*
Y3276*
X5954*
Y3275*
X5955*
Y3274*
X5955*
Y3273*
X5956*
Y3273*
X5957*
Y3272*
X5957*
Y3271*
X5958*
Y3270*
X5958*
Y3270*
X5959*
Y3269*
X5959*
Y3269*
X5960*
Y3267*
X5961*
Y3267*
X5961*
Y3266*
X5962*
Y3266*
X5962*
Y3265*
X5963*
Y3264*
X5964*
Y3263*
X5964*
Y3263*
X5965*
Y3262*
X5965*
Y3262*
X5966*
Y3260*
X5966*
Y3260*
X5967*
Y3259*
X5968*
Y3259*
X5968*
Y3258*
X5969*
Y3257*
X5969*
Y3256*
X5970*
Y3256*
X5970*
Y3255*
X5971*
Y3254*
X5972*
Y3253*
X5972*
Y3253*
X5973*
Y3252*
X5973*
Y3251*
X5974*
Y3251*
X5975*
Y3250*
X5975*
Y3249*
X5976*
Y3248*
X5976*
Y3248*
X5977*
Y3247*
X5977*
Y3246*
X5978*
Y3245*
X5979*
Y3245*
X5979*
Y3244*
X5980*
Y3244*
X5980*
Y3243*
X5981*
Y3242*
X5982*
Y3241*
X5982*
Y3241*
X5983*
Y3240*
X5983*
Y3239*
X5984*
Y3238*
X5984*
Y3238*
X5985*
Y3237*
X5986*
Y3237*
X5986*
Y3235*
X5987*
Y3235*
X5987*
Y3234*
X5988*
Y3234*
X5989*
Y3233*
X5989*
Y3232*
X5990*
Y3231*
X5990*
Y3231*
X5991*
Y3230*
X5991*
Y3229*
X5992*
Y3228*
X5993*
Y3228*
X5993*
Y3227*
X5994*
Y3226*
X5994*
Y3226*
X5995*
Y3225*
X5995*
Y3224*
X5996*
Y3224*
X5997*
Y3223*
X5997*
Y3222*
X5998*
Y3221*
X5998*
Y3221*
X5999*
Y3220*
X6000*
Y3219*
X6000*
Y3219*
X6001*
Y3218*
X6001*
Y3338*
X6002*
Y3339*
X6002*
Y3340*
X6003*
Y3341*
X6004*
Y3341*
X6005*
Y3342*
X6006*
Y3342*
X6008*
Y3343*
X6122*
Y3342*
G37*
%LNmtb_telemetry_system_pcb-4*%
%LPC*%
G36*
X5874Y3319D02*
X5873D01*
Y3318*
X5872*
Y3317*
X5872*
Y3317*
X5871*
Y3316*
X5870*
Y3316*
X5869*
Y3315*
X5868*
Y3314*
X5868*
Y3314*
X5867*
Y3313*
X5866*
Y3313*
X5865*
Y3312*
X5865*
Y3312*
X5864*
Y3311*
X5863*
Y3310*
X5862*
Y3310*
X5861*
Y3309*
X5861*
Y3309*
X5860*
Y3308*
X5859*
Y3308*
X5858*
Y3307*
X5858*
Y3306*
X5857*
Y3306*
X5856*
Y3305*
X5855*
Y3305*
X5854*
Y3304*
X5854*
Y3303*
X5853*
Y3303*
X5852*
Y3302*
X5851*
Y3302*
X5851*
Y3301*
X5850*
Y3301*
X5849*
Y3300*
X5848*
Y3299*
X5847*
Y3299*
X5847*
Y3298*
X5846*
Y3298*
X5845*
Y3297*
X5844*
Y3296*
X5844*
Y3296*
X5843*
Y3295*
X5842*
Y3295*
X5841*
Y3294*
X5840*
Y3294*
X5840*
Y3293*
X5839*
Y3292*
X5838*
Y3292*
X5837*
Y3291*
X5837*
Y3291*
X5836*
Y3290*
X5835*
Y3289*
X5834*
Y3289*
X5833*
Y3288*
X5833*
Y3288*
X5832*
Y3287*
X5831*
Y3287*
X5830*
Y3286*
X5830*
Y3285*
X5829*
Y3285*
X5828*
Y3284*
X5827*
Y3284*
X5826*
Y3283*
X5826*
Y3283*
X5825*
Y3282*
X5824*
Y3281*
X5823*
Y3281*
X5823*
Y3280*
X5822*
Y3280*
X5821*
Y3279*
X5820*
Y3278*
X5819*
Y3278*
X5819*
Y3277*
X5818*
Y3277*
X5817*
Y3276*
X5816*
Y3276*
X5816*
Y3275*
X5815*
Y3274*
X5814*
Y3274*
X5813*
Y3273*
X5812*
Y3273*
X5812*
Y3272*
X5811*
Y3271*
X5810*
Y3271*
X5809*
Y3270*
X5809*
Y3270*
X5808*
Y3269*
X5807*
Y3269*
X5807*
Y3268*
X5805*
Y3267*
X5805*
Y3267*
X5804*
Y3266*
X5803*
Y3266*
X5802*
Y3265*
X5802*
Y3264*
X5801*
Y3264*
X5800*
Y3263*
X5800*
Y3263*
X5798*
Y3262*
X5798*
Y3262*
X5797*
Y3261*
X5798*
Y3260*
X5799*
Y3260*
X5800*
Y3259*
X5800*
Y3259*
X5801*
Y3258*
X5802*
Y3258*
X5802*
Y3257*
X5804*
Y3256*
X5804*
Y3256*
X5805*
Y3255*
X5805*
Y3255*
X5807*
Y3254*
X5807*
Y3253*
X5808*
Y3253*
X5809*
Y3252*
X5809*
Y3252*
X5810*
Y3251*
X5811*
Y3251*
X5812*
Y3250*
X5812*
Y3249*
X5813*
Y3249*
X5814*
Y3248*
X5815*
Y3248*
X5815*
Y3247*
X5816*
Y3246*
X5817*
Y3246*
X5818*
Y3245*
X5818*
Y3245*
X5819*
Y3244*
X5820*
Y3244*
X5820*
Y3243*
X5821*
Y3242*
X5822*
Y3242*
X5823*
Y3241*
X5823*
Y3241*
X5825*
Y3240*
X5825*
Y3239*
X5826*
Y3239*
X5827*
Y3238*
X5827*
Y3238*
X5828*
Y3237*
X5829*
Y3237*
X5830*
Y3236*
X5830*
Y3235*
X5831*
Y3235*
X5832*
Y3234*
X5833*
Y3234*
X5833*
Y3233*
X5834*
Y3233*
X5835*
Y3232*
X5836*
Y3231*
X5836*
Y3231*
X5837*
Y3230*
X5838*
Y3230*
X5838*
Y3229*
X5839*
Y3228*
X5840*
Y3228*
X5841*
Y3227*
X5841*
Y3227*
X5843*
Y3226*
X5843*
Y3226*
X5844*
Y3225*
X5844*
Y3224*
X5845*
Y3224*
X5846*
Y3223*
X5847*
Y3223*
X5848*
Y3222*
X5848*
Y3221*
X5849*
Y3221*
X5850*
Y3220*
X5851*
Y3220*
X5851*
Y3219*
X5852*
Y3219*
X5853*
Y3218*
X5854*
Y3217*
X5854*
Y3217*
X5855*
Y3216*
X5856*
Y3216*
X5857*
Y3215*
X5857*
Y3214*
X5858*
Y3214*
X5859*
Y3213*
X5859*
Y3213*
X5861*
Y3212*
X5861*
Y3212*
X5862*
Y3211*
X5862*
Y3210*
X5863*
Y3210*
X5864*
Y3209*
X5865*
Y3209*
X5866*
Y3208*
X5866*
Y3207*
X5867*
Y3207*
X5868*
Y3206*
X5869*
Y3206*
X5869*
Y3205*
X5870*
Y3205*
X5871*
Y3204*
X5872*
Y3203*
X5872*
Y3203*
X5873*
Y3202*
X5874*
Y3319*
G37*
%LNmtb_telemetry_system_pcb-5*%
%LPD*%
G54D10*
X5321Y2411D02*
D01*
D01*
G75*
G03X5312I-4J0D01*
G74*G01*
D01*
G75*
G03X5321I4J0D01*
G74*G01*
X5615Y3587D02*
D01*
D01*
G75*
G03X5605I-4J0D01*
G74*G01*
D01*
G75*
G03X5615I4J0D01*
G74*G01*
X5743Y2415D02*
D01*
D01*
G75*
G03X5733I-4J0D01*
G74*G01*
D01*
G75*
G03X5743I4J0D01*
G74*G01*
X6164Y2413D02*
D01*
D01*
G75*
G03X6154I-4J0D01*
G74*G01*
D01*
G75*
G03X6164I4J0D01*
G74*G01*
X5676Y3964D02*
D01*
D01*
G75*
G03X5666I-4J0D01*
G74*G01*
D01*
G75*
G03X5676I4J0D01*
G74*G01*
X5475Y3708D02*
D01*
D01*
G75*
G03X5465I-4J0D01*
G74*G01*
D01*
G75*
G03X5475I4J0D01*
G74*G01*
X5186Y3393D02*
D01*
D01*
G75*
G03X5176I-4J0D01*
G74*G01*
D01*
G75*
G03X5186I4J0D01*
G74*G01*
G54D11*
X4473Y3472D02*
D01*
D01*
G75*
G03X4463I-4J0D01*
G74*G01*
D01*
G75*
G03X4473I4J0D01*
G74*G01*
G54D12*
X5748Y4384D02*
Y4489D01*
X4437D02*
X5748D01*
X4437Y4384D02*
Y4489D01*
Y4384D02*
X5748D01*
X4980Y4292D02*
X4987D01*
X4980Y4341D02*
X4987D01*
X5104Y2145D02*
Y2311D01*
X5184Y2352D02*
X5271D01*
X5352Y2145D02*
Y2311D01*
X5184Y2104D02*
X5271D01*
X5561Y3634D02*
X5568D01*
X5561D02*
Y3784D01*
X5568*
X5868Y3634D02*
X5876D01*
Y3784*
X5868D02*
X5876D01*
X5651Y3634D02*
X5785D01*
X5651Y3784D02*
X5785D01*
X5525Y2149D02*
Y2315D01*
X5606Y2356D02*
X5693D01*
X5773Y2149D02*
Y2315D01*
X5606Y2108D02*
X5693D01*
X5947Y2147D02*
Y2313D01*
X6027Y2354D02*
X6114D01*
X6194Y2147D02*
Y2313D01*
X6027Y2106D02*
X6114D01*
X5735Y3836D02*
X5804D01*
X5735Y3903D02*
X5804D01*
X5600Y3820D02*
X5669D01*
X5600Y3887D02*
X5669D01*
X5686Y4074D02*
X5863D01*
Y3925D02*
Y4074D01*
X5686Y3925D02*
X5863D01*
X5686D02*
Y4074D01*
X3819Y3354D02*
Y3875D01*
X3929*
X4055D02*
X4283D01*
X4400Y3295D02*
Y3472D01*
X4055Y3283D02*
X4283D01*
X3809Y3354D02*
X3819D01*
X3809Y3311D02*
Y3354D01*
Y3311D02*
X3819D01*
Y3283D02*
Y3311D01*
Y3283D02*
X3929D01*
X5172Y4294D02*
X5179D01*
X5172Y4343D02*
X5179D01*
X5427Y3994D02*
X5444D01*
Y3977D02*
Y3994D01*
X5153D02*
X5169D01*
X5153Y3977D02*
Y3994D01*
Y3702D02*
Y3719D01*
Y3702D02*
X5169D01*
X5427D02*
X5444D01*
Y3719*
X5601Y3591D02*
X5670D01*
X5601Y3524D02*
X5670D01*
X5213Y3416D02*
Y3428D01*
X5225*
X5213Y3259D02*
Y3272D01*
Y3259D02*
X5225D01*
X5369D02*
X5382D01*
Y3272*
Y3416D02*
Y3428D01*
X5369D02*
X5382D01*
X5345Y3232D02*
X5414D01*
X5345Y3165D02*
X5414D01*
X5729Y4092D02*
X5798D01*
X5729Y4159D02*
X5798D01*
X4596Y3635D02*
Y3704D01*
X4529Y3635D02*
Y3704D01*
X5261Y3117D02*
Y3124D01*
X5310Y3117D02*
Y3124D01*
G54D13*
X5102Y2867D02*
Y2927D01*
X5121Y2907*
X5141Y2927*
Y2867*
X5161Y2927D02*
X5201D01*
X5181*
Y2867*
X5221Y2927D02*
Y2867D01*
X5251*
X5261Y2877*
Y2887*
X5251Y2897*
X5221*
X5251*
X5261Y2907*
Y2917*
X5251Y2927*
X5221*
X5341D02*
X5381D01*
X5361*
Y2867*
X5431D02*
X5411D01*
X5401Y2877*
Y2897*
X5411Y2907*
X5431*
X5441Y2897*
Y2887*
X5401*
X5461Y2867D02*
X5481D01*
X5471*
Y2927*
X5461*
X5541Y2867D02*
X5521D01*
X5511Y2877*
Y2897*
X5521Y2907*
X5541*
X5551Y2897*
Y2887*
X5511*
X5571Y2867D02*
Y2907D01*
X5581*
X5591Y2897*
Y2867*
Y2897*
X5601Y2907*
X5611Y2897*
Y2867*
X5661D02*
X5641D01*
X5631Y2877*
Y2897*
X5641Y2907*
X5661*
X5671Y2897*
Y2887*
X5631*
X5701Y2917D02*
Y2907D01*
X5691*
X5711*
X5701*
Y2877*
X5711Y2867*
X5741Y2907D02*
Y2867D01*
Y2887*
X5751Y2897*
X5761Y2907*
X5771*
X5801D02*
Y2877D01*
X5811Y2867*
X5841*
Y2858*
X5831Y2848*
X5821*
X5841Y2867D02*
Y2907D01*
X5961Y2917D02*
X5951Y2927D01*
X5931*
X5921Y2917*
Y2907*
X5931Y2897*
X5951*
X5961Y2887*
Y2877*
X5951Y2867*
X5931*
X5921Y2877*
X5981Y2907D02*
Y2877D01*
X5991Y2867*
X6021*
Y2858*
X6011Y2848*
X6001*
X6021Y2867D02*
Y2907D01*
X6041Y2867D02*
X6071D01*
X6081Y2877*
X6071Y2887*
X6051*
X6041Y2897*
X6051Y2907*
X6081*
X6111Y2917D02*
Y2907D01*
X6101*
X6121*
X6111*
Y2877*
X6121Y2867*
X6181D02*
X6161D01*
X6151Y2877*
Y2897*
X6161Y2907*
X6181*
X6191Y2897*
Y2887*
X6151*
X6211Y2867D02*
Y2907D01*
X6221*
X6231Y2897*
Y2867*
Y2897*
X6241Y2907*
X6251Y2897*
Y2867*
X5295Y2675D02*
Y2615D01*
Y2635*
X5334Y2675*
X5305Y2645*
X5334Y2615*
X5354Y2655D02*
Y2615D01*
Y2635*
X5364Y2645*
X5374Y2655*
X5384*
X5414D02*
X5454D01*
X5414Y2615*
X5454*
X5474Y2655D02*
Y2625D01*
X5484Y2615*
X5514*
Y2606*
X5504Y2596*
X5494*
X5514Y2615D02*
Y2655D01*
X5534Y2615D02*
X5564D01*
X5574Y2625*
X5564Y2635*
X5544*
X5534Y2645*
X5544Y2655*
X5574*
X5594D02*
X5634D01*
X5594Y2615*
X5634*
X5664Y2665D02*
Y2655D01*
X5654*
X5674*
X5664*
Y2625*
X5674Y2615*
X5714D02*
X5734D01*
X5744Y2625*
Y2645*
X5734Y2655*
X5714*
X5704Y2645*
Y2625*
X5714Y2615*
X5774D02*
Y2665D01*
Y2645*
X5764*
X5784*
X5774*
Y2665*
X5784Y2675*
X5914Y2665D02*
X5904Y2675D01*
X5884*
X5874Y2665*
Y2655*
X5884Y2645*
X5904*
X5914Y2635*
Y2625*
X5904Y2615*
X5884*
X5874Y2625*
X5934Y2615D02*
X5954D01*
X5944*
Y2655*
X5934*
X5984Y2615D02*
Y2675D01*
Y2635D02*
X6014Y2655D01*
X5984Y2635D02*
X6014Y2615D01*
X6054D02*
X6074D01*
X6084Y2625*
Y2645*
X6074Y2655*
X6054*
X6044Y2645*
Y2625*
X6054Y2615*
X6104Y2655D02*
Y2615D01*
Y2635*
X6114Y2645*
X6124Y2655*
X6134*
X6174D02*
X6194D01*
X6204Y2645*
Y2615*
X6174*
X6164Y2625*
X6174Y2635*
X6204*
X6009Y2798D02*
X6028Y2759D01*
X6048Y2798*
X6068Y2759D02*
X6088D01*
X6078*
Y2818*
X6068Y2808*
X6118Y2759D02*
Y2769D01*
X6128*
Y2759*
X6118*
X6168Y2808D02*
X6178Y2818D01*
X6198*
X6208Y2808*
Y2769*
X6198Y2759*
X6178*
X6168Y2769*
Y2808*
X5784Y4405D02*
Y4435D01*
X5799*
X5804Y4430*
Y4420*
X5799Y4415*
X5784*
X5814Y4405D02*
X5823D01*
X5818*
Y4435*
X5814Y4430*
X4933Y4218D02*
Y4247D01*
X4948*
X4953Y4243*
Y4233*
X4948Y4228*
X4933*
X4943D02*
X4953Y4218D01*
X4963D02*
X4973D01*
X4968*
Y4247*
X4963Y4243*
X5008Y4247D02*
X4988D01*
Y4233*
X4998Y4238*
X5003*
X5008Y4233*
Y4223*
X5003Y4218*
X4993*
X4988Y4223*
X5459Y3460D02*
X5454Y3455D01*
Y3445*
X5459Y3440*
X5479*
X5483Y3445*
Y3455*
X5479Y3460*
X5483Y3470D02*
Y3480D01*
Y3475*
X5454*
X5459Y3470*
Y3495D02*
X5454Y3500D01*
Y3510*
X5459Y3515*
X5479*
X5483Y3510*
Y3500*
X5479Y3495*
X5459*
X5885Y4010D02*
X5890D01*
X5900Y4020*
X5890Y4030*
X5885*
X5900Y4020D02*
X5915D01*
Y4040D02*
Y4049D01*
Y4044*
X5885*
X5890Y4040*
X5901Y3693D02*
X5930Y3713D01*
X5901D02*
X5930Y3693D01*
Y3723D02*
Y3732D01*
Y3727*
X5901*
X5906Y3723*
X5134Y3311D02*
X5159D01*
X5163Y3316*
Y3326*
X5159Y3331*
X5134*
Y3360D02*
Y3341D01*
X5149*
X5144Y3351*
Y3355*
X5149Y3360*
X5159*
X5163Y3355*
Y3346*
X5159Y3341*
X5086Y3853D02*
X5111D01*
X5115Y3858*
Y3868*
X5111Y3873*
X5086*
X5115Y3883D02*
Y3892D01*
Y3888*
X5086*
X5091Y3883*
X6052Y2031D02*
X6047Y2036D01*
X6037*
X6032Y2031*
Y2026*
X6037Y2021*
X6047*
X6052Y2016*
Y2011*
X6047Y2006*
X6037*
X6032Y2011*
X6062Y2036D02*
Y2006D01*
X6072Y2016*
X6082Y2006*
Y2036*
X6091Y2031D02*
X6096Y2036D01*
X6106*
X6111Y2031*
Y2026*
X6106Y2021*
X6101*
X6106*
X6111Y2016*
Y2011*
X6106Y2006*
X6096*
X6091Y2011*
X5629Y2042D02*
X5624Y2046D01*
X5614*
X5609Y2042*
Y2037*
X5614Y2032*
X5624*
X5629Y2027*
Y2022*
X5624Y2017*
X5614*
X5609Y2022*
X5639Y2046D02*
Y2017D01*
X5649Y2027*
X5659Y2017*
Y2046*
X5688Y2017D02*
X5668D01*
X5688Y2037*
Y2042*
X5683Y2046*
X5673*
X5668Y2042*
X5211Y2041D02*
X5206Y2045D01*
X5196*
X5191Y2041*
Y2036*
X5196Y2031*
X5206*
X5211Y2026*
Y2021*
X5206Y2016*
X5196*
X5191Y2021*
X5221Y2045D02*
Y2016D01*
X5231Y2026*
X5240Y2016*
Y2045*
X5250Y2016D02*
X5260D01*
X5255*
Y2045*
X5250Y2041*
X5262Y4301D02*
Y4331D01*
X5277*
X5282Y4326*
Y4316*
X5277Y4311*
X5262*
X5272D02*
X5282Y4301D01*
X5292D02*
X5302D01*
X5297*
Y4331*
X5292Y4326*
X5337Y4331D02*
X5327Y4326D01*
X5317Y4316*
Y4306*
X5322Y4301*
X5332*
X5337Y4306*
Y4311*
X5332Y4316*
X5317*
X5373Y3033D02*
X5344D01*
Y3048*
X5349Y3053*
X5359*
X5364Y3048*
Y3033*
Y3043D02*
X5373Y3053D01*
X5349Y3063D02*
X5344Y3068D01*
Y3077*
X5349Y3082*
X5354*
X5359Y3077*
X5364Y3082*
X5369*
X5373Y3077*
Y3068*
X5369Y3063*
X5364*
X5359Y3068*
X5354Y3063*
X5349*
X5359Y3068D02*
Y3077D01*
X5643Y4088D02*
X5614D01*
Y4103*
X5619Y4108*
X5629*
X5634Y4103*
Y4088*
Y4098D02*
X5643Y4108D01*
Y4118D02*
Y4127D01*
Y4122*
X5614*
X5619Y4118*
X3948Y3983D02*
X3938D01*
X3943*
Y3958*
X3938Y3953*
X3933*
X3928Y3958*
X3958Y3978D02*
X3963Y3983D01*
X3972*
X3977Y3978*
Y3973*
X3972Y3968*
X3977Y3963*
Y3958*
X3972Y3953*
X3963*
X3958Y3958*
Y3963*
X3963Y3968*
X3958Y3973*
Y3978*
X3963Y3968D02*
X3972D01*
X5301Y4078D02*
X5296Y4082D01*
X5286*
X5281Y4078*
Y4058*
X5286Y4053*
X5296*
X5301Y4058*
X5331Y4053D02*
X5311D01*
X5331Y4073*
Y4078*
X5326Y4082*
X5316*
X5311Y4078*
X5360Y4082D02*
X5350Y4078D01*
X5340Y4068*
Y4058*
X5345Y4053*
X5355*
X5360Y4058*
Y4063*
X5355Y4068*
X5340*
X5178Y4216D02*
X5173Y4220D01*
X5163*
X5158Y4216*
Y4196*
X5163Y4191*
X5173*
X5178Y4196*
X5208Y4191D02*
X5188D01*
X5208Y4211*
Y4216*
X5203Y4220*
X5193*
X5188Y4216*
X5237Y4220D02*
X5217D01*
Y4206*
X5227Y4211*
X5232*
X5237Y4206*
Y4196*
X5232Y4191*
X5222*
X5217Y4196*
X4628Y3652D02*
X4623Y3647D01*
Y3637*
X4628Y3632*
X4648*
X4653Y3637*
Y3647*
X4648Y3652*
X4653Y3681D02*
Y3662D01*
X4633Y3681*
X4628*
X4623Y3677*
Y3667*
X4628Y3662*
X4653Y3691D02*
Y3701D01*
Y3696*
X4623*
X4628Y3691*
X5131Y3079D02*
X5126Y3074D01*
Y3064*
X5131Y3059*
X5151*
X5155Y3064*
Y3074*
X5151Y3079*
X5155Y3109D02*
Y3089D01*
X5136Y3109*
X5131*
X5126Y3104*
Y3094*
X5131Y3089*
Y3118D02*
X5126Y3123D01*
Y3133*
X5131Y3138*
X5151*
X5155Y3133*
Y3123*
X5151Y3118*
X5131*
X5541Y3335D02*
X5536Y3330D01*
Y3320*
X5541Y3315*
X5561*
X5566Y3320*
Y3330*
X5561Y3335*
X5566Y3345D02*
Y3355D01*
Y3350*
X5536*
X5541Y3345*
X5561Y3370D02*
X5566Y3375D01*
Y3385*
X5561Y3390*
X5541*
X5536Y3385*
Y3375*
X5541Y3370*
X5546*
X5551Y3375*
Y3390*
X5484Y3214D02*
X5479Y3219D01*
X5469*
X5464Y3214*
Y3194*
X5469Y3189*
X5479*
X5484Y3194*
X5494Y3189D02*
X5504D01*
X5499*
Y3219*
X5494Y3214*
X5519D02*
X5524Y3219D01*
X5534*
X5539Y3214*
Y3209*
X5534Y3204*
X5539Y3199*
Y3194*
X5534Y3189*
X5524*
X5519Y3194*
Y3199*
X5524Y3204*
X5519Y3209*
Y3214*
X5524Y3204D02*
X5534D01*
X5231Y3506D02*
X5226Y3510D01*
X5216*
X5211Y3506*
Y3486*
X5216Y3481*
X5226*
X5231Y3486*
X5241Y3481D02*
X5251D01*
X5246*
Y3510*
X5241Y3506*
X5266Y3510D02*
X5286D01*
Y3506*
X5266Y3486*
Y3481*
X5459Y4045D02*
X5454Y4040D01*
Y4030*
X5459Y4025*
X5479*
X5483Y4030*
Y4040*
X5479Y4045*
X5483Y4055D02*
Y4065D01*
Y4060*
X5454*
X5459Y4055*
X5483Y4080D02*
Y4090D01*
Y4085*
X5454*
X5459Y4080*
X5014Y3650D02*
X5009Y3645D01*
Y3635*
X5014Y3630*
X5034*
X5038Y3635*
Y3645*
X5034Y3650*
Y3660D02*
X5038Y3665D01*
Y3674*
X5034Y3679*
X5014*
X5009Y3674*
Y3665*
X5014Y3660*
X5019*
X5024Y3665*
Y3679*
X5038Y4077D02*
X5033Y4072D01*
Y4062*
X5038Y4057*
X5058*
X5062Y4062*
Y4072*
X5058Y4077*
X5038Y4087D02*
X5033Y4092D01*
Y4101*
X5038Y4106*
X5043*
X5048Y4101*
X5053Y4106*
X5058*
X5062Y4101*
Y4092*
X5058Y4087*
X5053*
X5048Y4092*
X5043Y4087*
X5038*
X5048Y4092D02*
Y4101D01*
X5556Y3544D02*
X5551Y3539D01*
Y3529*
X5556Y3524*
X5576*
X5581Y3529*
Y3539*
X5576Y3544*
X5551Y3554D02*
Y3573D01*
X5556*
X5576Y3554*
X5581*
X5756Y4203D02*
X5751Y4198D01*
Y4188*
X5756Y4183*
X5776*
X5780Y4188*
Y4198*
X5776Y4203*
X5780Y4227D02*
X5751D01*
X5766Y4213*
Y4232*
X5890Y3879D02*
X5885Y3884D01*
X5875*
X5870Y3879*
Y3859*
X5875Y3854*
X5885*
X5890Y3859*
X5900Y3879D02*
X5905Y3884D01*
X5914*
X5919Y3879*
Y3874*
X5914Y3869*
X5910*
X5914*
X5919Y3864*
Y3859*
X5914Y3854*
X5905*
X5900Y3859*
X5544Y3872D02*
X5539Y3877D01*
X5529*
X5524Y3872*
Y3852*
X5529Y3847*
X5539*
X5544Y3852*
X5573Y3847D02*
X5554D01*
X5573Y3867*
Y3872*
X5568Y3877*
X5559*
X5554Y3872*
X5750Y3562D02*
X5745Y3566D01*
X5735*
X5730Y3562*
Y3542*
X5735Y3537*
X5745*
X5750Y3542*
X5760Y3537D02*
X5769D01*
X5765*
Y3566*
X5760Y3562*
G54D14*
X4879Y4259D02*
X4909D01*
Y4273*
X4904Y4278*
X4884*
X4879Y4273*
Y4259*
X4909Y4288D02*
X4889D01*
X4879Y4298*
X4889Y4308*
X4909*
X4894*
Y4288*
X4879Y4318D02*
Y4338D01*
Y4328*
X4909*
Y4348D02*
X4889D01*
X4879Y4358*
X4889Y4368*
X4909*
X4894*
Y4348*
X4790Y4301D02*
X4785Y4297D01*
Y4287*
X4790Y4282*
X4810*
X4815Y4287*
Y4297*
X4810Y4301*
X4785Y4311D02*
X4815D01*
Y4331*
X4785Y4341D02*
X4815D01*
X4805*
X4785Y4361*
X4800Y4346*
X4815Y4361*
X4707Y4315D02*
X4677D01*
Y4330*
X4682Y4334*
X4692*
X4697Y4330*
Y4315*
Y4325D02*
X4707Y4334D01*
X4682Y4364D02*
X4677Y4359D01*
Y4349*
X4682Y4344*
X4687*
X4692Y4349*
Y4359*
X4697Y4364*
X4702*
X4707Y4359*
Y4349*
X4702Y4344*
X4606Y4284D02*
X4576D01*
Y4299*
X4581Y4303*
X4591*
X4596Y4299*
Y4284*
Y4294D02*
X4606Y4303D01*
X4581Y4333D02*
X4576Y4328D01*
Y4318*
X4581Y4313*
X4586*
X4591Y4318*
Y4328*
X4596Y4333*
X4601*
X4606Y4328*
Y4318*
X4601Y4313*
X4576Y4363D02*
Y4343D01*
X4606*
Y4363*
X4591Y4343D02*
Y4353D01*
X4482Y4334D02*
X4477Y4330D01*
Y4320*
X4482Y4315*
X4502*
X4507Y4320*
Y4330*
X4502Y4334*
X4482Y4364D02*
X4477Y4359D01*
Y4349*
X4482Y4344*
X4487*
X4492Y4349*
Y4359*
X4497Y4364*
X4502*
X4507Y4359*
Y4349*
X4502Y4344*
G54D15*
X5775Y4472D02*
X5785D01*
X5780*
Y4501*
X5775Y4496*
X5799D02*
X5804Y4501D01*
X5814*
X5819Y4496*
Y4491*
X5814Y4487*
X5809*
X5814*
X5819Y4482*
Y4477*
X5814Y4472*
X5804*
X5799Y4477*
X4397Y4468D02*
X4407D01*
X4402*
Y4497*
X4397Y4492*
M02*