%FSLAX23Y23*%
%MOIN*%
%SFA1B1*%

%IPPOS*%
%AMD63*
4,1,8,0.015700,0.031500,-0.015700,0.031500,-0.031500,0.015700,-0.031500,-0.015700,-0.015700,-0.031500,0.015700,-0.031500,0.031500,-0.015700,0.031500,0.015700,0.015700,0.031500,0.0*
1,1,0.031500,0.015700,0.015700*
1,1,0.031500,-0.015700,0.015700*
1,1,0.031500,-0.015700,-0.015700*
1,1,0.031500,0.015700,-0.015700*
%
%AMD78*
4,1,8,0.011800,-0.035800,0.011800,0.035800,0.008900,0.038800,-0.008900,0.038800,-0.011800,0.035800,-0.011800,-0.035800,-0.008900,-0.038800,0.008900,-0.038800,0.011800,-0.035800,0.0*
1,1,0.005900,0.008900,-0.035800*
1,1,0.005900,0.008900,0.035800*
1,1,0.005900,-0.008900,0.035800*
1,1,0.005900,-0.008900,-0.035800*
%
%AMD82*
4,1,8,-0.007900,0.028700,-0.007900,-0.028700,-0.005900,-0.030700,0.005900,-0.030700,0.007900,-0.028700,0.007900,0.028700,0.005900,0.030700,-0.005900,0.030700,-0.007900,0.028700,0.0*
1,1,0.003940,-0.005900,0.028700*
1,1,0.003940,-0.005900,-0.028700*
1,1,0.003940,0.005900,-0.028700*
1,1,0.003940,0.005900,0.028700*
%
%ADD13C,0.010000*%
%ADD16R,0.047240X0.057090*%
%ADD17R,0.043310X0.053150*%
%ADD19R,0.029530X0.035430*%
%ADD21R,0.053150X0.043310*%
%ADD31R,0.035430X0.029530*%
%ADD32R,0.057090X0.047240*%
%ADD49C,0.060630*%
%ADD50R,0.060630X0.060630*%
%ADD51R,0.055120X0.055120*%
%ADD52C,0.055120*%
%ADD53C,0.043310*%
%ADD55R,0.055120X0.055120*%
%ADD56R,0.061020X0.061020*%
%ADD57C,0.061020*%
%ADD60C,0.030000*%
%ADD61C,0.020000*%
%ADD62C,0.062990*%
G04~CAMADD=63~8~0.0~0.0~629.9~629.9~157.5~0.0~15~0.0~0.0~0.0~0.0~0~0.0~0.0~0.0~0.0~0~0.0~0.0~0.0~0.0~629.9~629.9*
%ADD63D63*%
%ADD64C,0.057090*%
%ADD65C,0.037400*%
%ADD66C,0.098430*%
%ADD67C,0.017720*%
%ADD68C,0.025000*%
%ADD69C,0.019680*%
%ADD70C,0.050000*%
%ADD71C,0.031500*%
%ADD75C,0.019680*%
%ADD76R,0.074800X0.059060*%
%ADD77R,0.053150X0.015750*%
G04~CAMADD=78~8~0.0~0.0~775.6~236.2~29.5~0.0~15~0.0~0.0~0.0~0.0~0~0.0~0.0~0.0~0.0~0~0.0~0.0~0.0~270.0~236.0~776.0*
%ADD78D78*%
%ADD79R,0.130000X0.095000*%
%ADD80O,0.027560X0.098430*%
%ADD81R,0.047240X0.021650*%
G04~CAMADD=82~8~0.0~0.0~614.2~157.5~19.7~0.0~15~0.0~0.0~0.0~0.0~0~0.0~0.0~0.0~0.0~0~0.0~0.0~0.0~90.0~158.0~614.0*
%ADD82D82*%
%ADD83C,0.015000*%
%LNmtb_telemetry_system_pcb-1*%
%LPD*%
G36*
X4523Y4419D02*
X4523Y4418D01*
X4523Y4417*
X4523Y4416*
X4523Y4414*
X4524Y4413*
X4525Y4412*
X4526Y4410*
X4528Y4408*
X4529Y4407*
X4522Y4400*
X4521Y4401*
X4517Y4404*
X4516Y4405*
X4515Y4406*
X4513Y4406*
X4512Y4406*
X4511Y4406*
X4510Y4406*
X4510Y4405*
X4524Y4419*
X4523Y4419*
G37*
G36*
X4624Y4432D02*
X4625Y4423D01*
X4625Y4420*
X4626Y4416*
X4627Y4413*
X4628Y4411*
X4629Y4408*
X4630Y4406*
X4631Y4405*
X4624Y4398*
X4623Y4399*
X4621Y4400*
X4618Y4401*
X4616Y4402*
X4613Y4403*
X4609Y4404*
X4606Y4404*
X4597Y4405*
X4593Y4405*
X4624Y4436*
X4624Y4432*
G37*
G36*
X4864Y4316D02*
X4865Y4316D01*
X4865Y4315*
X4865Y4315*
X4865Y4314*
X4866Y4314*
X4867Y4312*
X4868Y4311*
X4861Y4304*
X4860Y4305*
X4858Y4306*
X4858Y4307*
X4857Y4307*
X4857Y4307*
X4856Y4308*
X4856Y4308*
X4856Y4308*
X4864Y4316*
X4864Y4316*
G37*
G36*
X5008Y4263D02*
X5008Y4264D01*
X5008Y4264*
X5007Y4264*
X5007Y4264*
X5006Y4264*
X5005Y4264*
X5004Y4264*
X5002Y4265*
Y4275*
X5003Y4275*
X5005Y4275*
X5006Y4275*
X5007Y4275*
X5007Y4275*
X5008Y4275*
X5008Y4275*
X5008Y4276*
Y4263*
G37*
G36*
X5029Y4224D02*
X5029Y4225D01*
X5029Y4225*
X5028Y4225*
X5028Y4225*
X5027Y4225*
X5026Y4225*
X5025Y4225*
X5023Y4226*
Y4236*
X5024Y4236*
X5026Y4236*
X5027Y4236*
X5028Y4236*
X5028Y4236*
X5029Y4236*
X5029Y4236*
X5029Y4237*
Y4224*
G37*
G36*
X5405Y4233D02*
X5408Y4231D01*
X5408Y4231*
X5408Y4230*
X5409Y4230*
X5409Y4230*
X5399Y4223*
X5399Y4223*
X5399Y4224*
X5399Y4224*
X5398Y4225*
X5398Y4225*
X5398Y4226*
X5397Y4227*
X5396Y4228*
X5396Y4229*
X5404Y4234*
X5405Y4233*
G37*
G36*
X6050Y4219D02*
X6047Y4221D01*
X6042Y4226*
X6039Y4228*
X6037Y4229*
X6034Y4231*
X6032Y4232*
X6030Y4232*
X6028Y4233*
X6026Y4233*
Y4243*
X6028Y4243*
X6030Y4244*
X6032Y4244*
X6034Y4245*
X6037Y4247*
X6039Y4248*
X6042Y4250*
X6044Y4252*
X6050Y4257*
Y4219*
G37*
G36*
X4589Y4178D02*
X4588Y4176D01*
X4587Y4174*
X4586Y4172*
X4585Y4170*
X4584Y4168*
X4584Y4165*
X4583Y4162*
X4583Y4158*
X4583Y4151*
X4555Y4178*
X4559Y4178*
X4566Y4179*
X4569Y4179*
X4572Y4180*
X4575Y4180*
X4577Y4181*
X4579Y4182*
X4581Y4184*
X4582Y4185*
X4589Y4178*
G37*
G36*
X4780Y4146D02*
X4780Y4139D01*
X4780Y4136*
X4781Y4133*
X4782Y4131*
X4783Y4129*
X4784Y4127*
X4785Y4125*
X4786Y4123*
X4779Y4116*
X4778Y4117*
X4776Y4119*
X4774Y4120*
X4772Y4121*
X4769Y4121*
X4766Y4122*
X4763Y4122*
X4760Y4123*
X4752Y4123*
X4779Y4150*
X4780Y4146*
G37*
G36*
X4681D02*
X4682Y4139D01*
X4682Y4136*
X4683Y4133*
X4683Y4131*
X4684Y4129*
X4685Y4127*
X4687Y4125*
X4688Y4123*
X4681Y4116*
X4679Y4117*
X4677Y4119*
X4675Y4120*
X4673Y4121*
X4671Y4121*
X4668Y4122*
X4665Y4122*
X4661Y4123*
X4654Y4123*
X4681Y4150*
X4681Y4146*
G37*
G36*
X5279Y4047D02*
X5279Y4045D01*
X5279Y4044*
X5279Y4043*
X5279Y4043*
X5279Y4042*
X5279Y4042*
X5280Y4042*
X5267*
X5268Y4042*
X5268Y4042*
X5268Y4043*
X5268Y4043*
X5268Y4044*
X5268Y4045*
X5268Y4046*
X5269Y4048*
X5279*
X5279Y4047*
G37*
G36*
X4586Y3978D02*
X4587Y3976D01*
X4588Y3974*
X4589Y3973*
X4591Y3972*
X4593Y3971*
X4596Y3970*
X4599Y3970*
X4602Y3970*
X4606Y3970*
Y3950*
X4602Y3949*
X4599Y3949*
X4596Y3949*
X4593Y3948*
X4591Y3947*
X4589Y3946*
X4588Y3945*
X4587Y3943*
X4586Y3941*
X4586Y3940*
Y3980*
X4586Y3978*
G37*
G36*
X4959Y3949D02*
X4961Y3948D01*
X4961Y3947*
X4962Y3947*
X4962Y3947*
X4963Y3946*
X4963Y3946*
X4963Y3946*
X4955Y3938*
X4955Y3938*
X4955Y3938*
X4954Y3939*
X4954Y3939*
X4954Y3940*
X4953Y3940*
X4952Y3941*
X4951Y3943*
X4958Y3950*
X4959Y3949*
G37*
G36*
X5489Y3942D02*
X5490Y3942D01*
X5490Y3942*
X5491Y3942*
X5491Y3942*
X5493Y3942*
X5494Y3942*
X5495Y3942*
X5497Y3932*
X5496Y3931*
X5493Y3931*
X5493Y3931*
X5492Y3931*
X5492Y3931*
X5491Y3931*
X5491Y3930*
X5490Y3930*
X5489Y3942*
X5489Y3942*
G37*
G36*
X4888Y3933D02*
X4887Y3932D01*
X4886Y3931*
X4886Y3930*
X4885Y3929*
X4885Y3928*
X4885Y3927*
X4885Y3926*
X4885Y3925*
X4885Y3924*
X4875*
X4874Y3925*
X4874Y3926*
X4874Y3927*
X4874Y3928*
X4874Y3929*
X4873Y3930*
X4873Y3931*
X4872Y3932*
X4871Y3933*
X4871Y3934*
X4888*
X4888Y3933*
G37*
G36*
X5464Y3934D02*
X5464Y3933D01*
X5464Y3933*
X5465Y3933*
X5465Y3932*
X5465Y3931*
X5466Y3931*
X5467Y3930*
X5468Y3929*
X5459Y3923*
X5458Y3924*
X5455Y3926*
X5455Y3927*
X5455Y3927*
X5454Y3927*
X5454Y3927*
X5464Y3934*
X5464Y3934*
G37*
G36*
X4557Y3858D02*
X4556Y3859D01*
X4554Y3859*
X4552*
X4549Y3859*
X4547Y3858*
X4544Y3856*
X4541Y3854*
X4537Y3851*
X4529Y3843*
X4515Y3858*
X4519Y3862*
X4525Y3869*
X4527Y3872*
X4529Y3875*
X4530Y3878*
X4531Y3880*
Y3883*
X4530Y3884*
X4529Y3886*
X4557Y3858*
G37*
G36*
X4984Y3851D02*
X4982Y3850D01*
X4981Y3849*
X4980Y3848*
X4978Y3846*
X4978Y3844*
X4977Y3841*
X4976Y3838*
X4976Y3838*
X4976Y3838*
X4977Y3835*
X4978Y3832*
X4978Y3830*
X4980Y3828*
X4981Y3827*
X4982Y3826*
X4984Y3825*
X4986Y3825*
X4946*
X4948Y3825*
X4950Y3826*
X4951Y3827*
X4952Y3828*
X4953Y3830*
X4954Y3832*
X4955Y3835*
X4956Y3838*
X4956Y3838*
X4956Y3838*
X4955Y3841*
X4954Y3844*
X4953Y3846*
X4952Y3848*
X4951Y3849*
X4950Y3850*
X4948Y3851*
X4946Y3851*
X4986*
X4984Y3851*
G37*
G36*
X5036Y3851D02*
X5043D01*
X5041Y3851*
X5040Y3850*
X5039Y3848*
X5038Y3846*
X5038Y3844*
X5037Y3840*
X5037Y3839*
X5037Y3836*
X5038Y3832*
X5038Y3830*
X5039Y3828*
X5040Y3826*
X5041Y3825*
X5043Y3825*
X5036*
X5036Y3821*
X5006*
X5006Y3825*
X5000*
X5001Y3825*
X5002Y3826*
X5003Y3828*
X5004Y3830*
X5004Y3832*
X5005Y3836*
X5005Y3837*
X5005Y3840*
X5004Y3844*
X5004Y3846*
X5003Y3848*
X5002Y3850*
X5001Y3851*
X5000Y3851*
X5006*
X5006Y3855*
X5036*
X5036Y3851*
G37*
G36*
X4944Y3779D02*
X4944Y3780D01*
X4944Y3782*
X4943Y3784*
X4941Y3785*
X4939Y3786*
X4937Y3787*
X4935Y3788*
X4932Y3788*
X4928Y3788*
X4924Y3789*
Y3809*
X4928Y3809*
X4932Y3809*
X4935Y3809*
X4937Y3810*
X4939Y3811*
X4941Y3812*
X4943Y3813*
X4944Y3815*
X4944Y3817*
X4944Y3819*
Y3779*
G37*
G36*
X6049Y3760D02*
X6046Y3763D01*
X6041Y3768*
X6039Y3769*
X6036Y3771*
X6034Y3772*
X6032Y3773*
X6029Y3774*
X6027Y3774*
X6025Y3775*
Y3785*
X6027Y3785*
X6029Y3785*
X6032Y3786*
X6034Y3787*
X6036Y3788*
X6039Y3790*
X6041Y3792*
X6044Y3794*
X6049Y3799*
Y3760*
G37*
G36*
X5067Y3756D02*
X5067Y3756D01*
X5067Y3755*
X5067Y3755*
X5067Y3754*
X5067Y3753*
X5067Y3752*
X5067Y3750*
X5057*
X5056Y3751*
X5056Y3753*
X5056Y3754*
X5056Y3755*
X5056Y3755*
X5056Y3756*
X5056Y3756*
X5055Y3756*
X5068*
X5067Y3756*
G37*
G36*
X5041Y3772D02*
X5041Y3771D01*
X5040Y3769*
X5039Y3767*
X5038Y3765*
X5038Y3761*
X5037Y3757*
X5037Y3753*
X5037Y3747*
X5038Y3746*
X5038Y3744*
X5039Y3743*
X5039Y3742*
X5039Y3742*
X5004Y3741*
X5005Y3741*
X5005Y3742*
X5006Y3743*
X5006Y3745*
X5006Y3746*
X5007Y3750*
X5006Y3761*
X5005Y3765*
X5004Y3767*
X5003Y3769*
X5002Y3771*
X5001Y3772*
X5000Y3772*
X5043*
X5041Y3772*
G37*
G36*
X4531Y3736D02*
X4530Y3738D01*
X4530Y3740*
X4529Y3742*
X4527Y3743*
X4526Y3744*
X4523Y3745*
X4521Y3746*
X4518Y3746*
X4514Y3746*
X4511Y3746*
Y3766*
X4514Y3767*
X4518Y3767*
X4521Y3767*
X4523Y3768*
X4526Y3769*
X4527Y3770*
X4529Y3771*
X4530Y3773*
X4530Y3775*
X4531Y3776*
Y3736*
G37*
G36*
X4655Y3731D02*
X4653Y3730D01*
X4652Y3728*
X4651Y3726*
X4650Y3724*
X4650Y3720*
X4649Y3716*
X4649Y3712*
X4649Y3709*
X4649Y3702*
X4650Y3698*
X4651Y3694*
X4652Y3692*
X4653Y3690*
X4654Y3688*
X4656Y3687*
X4657Y3687*
X4610*
X4612Y3687*
X4613Y3688*
X4614Y3690*
X4615Y3692*
X4616Y3694*
X4617Y3698*
X4618Y3702*
X4618Y3706*
X4618Y3709*
X4618Y3716*
X4617Y3720*
X4616Y3724*
X4615Y3726*
X4614Y3728*
X4613Y3730*
X4611Y3731*
X4609Y3731*
X4656*
X4655Y3731*
G37*
G36*
X4586Y3687D02*
X4584Y3685D01*
X4581Y3681*
X4579Y3680*
X4579Y3678*
X4578Y3677*
X4578Y3676*
X4578Y3674*
X4578Y3674*
X4579Y3673*
X4564Y3687*
X4565Y3686*
X4566Y3686*
X4567Y3686*
X4568Y3686*
X4570Y3687*
X4571Y3688*
X4573Y3689*
X4575Y3690*
X4579Y3694*
X4586Y3687*
G37*
G36*
X5338Y3679D02*
X5338Y3678D01*
X5338Y3678*
X5339Y3677*
X5339Y3677*
X5339Y3676*
X5340Y3675*
X5342Y3674*
X5335Y3667*
X5334Y3667*
X5332Y3669*
X5331Y3669*
X5331Y3670*
X5330Y3670*
X5330Y3670*
X5330Y3670*
X5329Y3670*
X5338Y3679*
X5338Y3679*
G37*
G36*
X5214Y3663D02*
X5214Y3664D01*
X5214Y3664*
X5213Y3664*
X5213Y3664*
X5212Y3664*
X5211Y3664*
X5210Y3664*
X5208Y3665*
Y3675*
X5209Y3675*
X5211Y3675*
X5212Y3675*
X5213Y3675*
X5213Y3675*
X5214Y3675*
X5214Y3675*
X5214Y3676*
Y3663*
G37*
G36*
X5288Y3664D02*
X5288Y3663D01*
X5288Y3660*
X5288Y3660*
X5288Y3659*
X5288Y3659*
X5288Y3658*
X5288Y3658*
X5276Y3659*
X5276Y3660*
X5277Y3660*
X5277Y3661*
X5277Y3661*
X5277Y3662*
X5277Y3662*
X5277Y3663*
X5277Y3665*
X5278Y3666*
X5288Y3664*
G37*
G36*
X5259Y3661D02*
X5259Y3661D01*
X5259Y3660*
X5259Y3660*
X5259Y3659*
X5259Y3658*
X5259Y3657*
X5259Y3655*
X5249*
X5248Y3656*
X5248Y3658*
X5248Y3659*
X5248Y3660*
X5248Y3660*
X5248Y3661*
X5248Y3661*
X5247Y3661*
X5260*
X5259Y3661*
G37*
G36*
X5315Y3666D02*
X5316Y3666D01*
X5316Y3665*
X5316Y3665*
X5316Y3664*
X5317Y3664*
X5318Y3662*
X5319Y3661*
X5312Y3654*
X5311Y3655*
X5309Y3656*
X5309Y3657*
X5308Y3657*
X5308Y3657*
X5307Y3658*
X5307Y3658*
X5307Y3658*
X5315Y3666*
X5315Y3666*
G37*
G36*
X4532Y3647D02*
X4531Y3649D01*
X4531Y3650*
X4530Y3652*
X4528Y3653*
X4527Y3654*
X4524Y3655*
X4522Y3656*
X4519Y3656*
X4515Y3657*
X4512Y3657*
Y3677*
X4515Y3677*
X4519Y3677*
X4522Y3678*
X4524Y3678*
X4527Y3679*
X4528Y3680*
X4530Y3682*
X4531Y3683*
X4531Y3685*
X4532Y3687*
Y3647*
G37*
G36*
X5311Y3599D02*
X5311Y3599D01*
X5310Y3599*
X5310Y3599*
X5309Y3598*
X5309Y3598*
X5308Y3598*
X5307Y3597*
X5306Y3596*
X5306Y3595*
X5299Y3603*
X5299Y3603*
X5301Y3605*
X5301Y3606*
X5302Y3606*
X5302Y3607*
X5302Y3607*
X5302Y3608*
X5302Y3608*
X5311Y3599*
G37*
G36*
X4658Y3684D02*
X4659Y3682D01*
X4660Y3680*
X4662Y3678*
X4665Y3677*
X4668Y3676*
X4672Y3675*
X4677Y3674*
X4682Y3674*
X4687Y3674*
Y3644*
X4682Y3643*
X4677Y3643*
X4672Y3642*
X4668Y3641*
X4665Y3640*
X4662Y3639*
X4660Y3637*
X4659Y3635*
X4658Y3633*
X4657Y3630*
X4656Y3630*
X4654Y3629*
X4653Y3627*
X4652Y3625*
X4651Y3623*
X4651Y3619*
X4650Y3615*
X4650Y3611*
X4650Y3606*
X4651Y3602*
X4652Y3598*
X4653Y3596*
X4654Y3594*
X4655Y3592*
X4657Y3591*
X4658Y3591*
X4611*
X4613Y3591*
X4614Y3592*
X4615Y3594*
X4616Y3596*
X4617Y3598*
X4618Y3602*
X4619Y3606*
X4619Y3610*
X4619Y3615*
X4618Y3619*
X4617Y3623*
X4616Y3625*
X4615Y3627*
X4614Y3629*
X4612Y3630*
X4610Y3630*
X4657*
Y3687*
X4658Y3684*
G37*
G36*
X5188Y3583D02*
X5188Y3583D01*
X5188Y3583*
X5187Y3582*
X5187Y3582*
X5186Y3582*
X5186Y3581*
X5184Y3580*
X5183Y3579*
X5176Y3586*
X5177Y3587*
X5178Y3589*
X5179Y3589*
X5179Y3590*
X5179Y3590*
X5180Y3591*
X5180Y3591*
X5180Y3591*
X5188Y3583*
G37*
G36*
X5337Y3578D02*
X5337Y3576D01*
X5337Y3575*
X5337Y3574*
X5337Y3574*
X5337Y3573*
X5337Y3573*
X5338Y3573*
X5325*
X5326Y3573*
X5326Y3573*
X5326Y3574*
X5326Y3574*
X5326Y3575*
X5326Y3576*
X5326Y3577*
X5327Y3579*
X5337*
X5337Y3578*
G37*
G36*
X4707Y3552D02*
X4706Y3551D01*
X4705Y3549*
X4704Y3548*
X4704Y3547*
X4703Y3546*
X4703Y3546*
X4702Y3545*
X4702Y3544*
X4702Y3543*
X4692Y3557*
X4693Y3557*
X4694Y3557*
X4695Y3557*
X4696Y3557*
X4697Y3557*
X4698Y3558*
X4699Y3558*
X4700Y3559*
X4700Y3560*
X4701Y3560*
X4707Y3552*
G37*
G36*
X5259Y3549D02*
X5258Y3548D01*
X5257Y3547*
X5257Y3546*
X5257Y3546*
X5256Y3545*
X5256Y3545*
X5256Y3544*
X5256Y3544*
X5256Y3544*
X5245Y3547*
X5251Y3555*
X5259Y3549*
G37*
G36*
X4533Y3543D02*
X4532Y3544D01*
X4532Y3546*
X4531Y3548*
X4529Y3549*
X4528Y3550*
X4525Y3551*
X4523Y3552*
X4520Y3552*
X4516Y3552*
X4513Y3553*
Y3573*
X4516Y3573*
X4520Y3573*
X4523Y3573*
X4525Y3574*
X4528Y3575*
X4529Y3576*
X4531Y3577*
X4532Y3579*
X4532Y3581*
X4533Y3583*
Y3543*
G37*
G36*
X4657Y3534D02*
X4655Y3533D01*
X4654Y3531*
X4653Y3529*
X4652Y3527*
X4651Y3523*
X4650Y3519*
X4650Y3517*
X4650Y3515*
X4651Y3511*
X4651Y3507*
X4652Y3505*
X4653Y3503*
X4654Y3501*
X4656Y3500*
X4657Y3500*
X4610*
X4612Y3500*
X4614Y3501*
X4615Y3503*
X4616Y3505*
X4617Y3507*
X4618Y3511*
X4619Y3515*
X4619Y3517*
X4619Y3519*
X4618Y3523*
X4617Y3527*
X4616Y3529*
X4615Y3531*
X4614Y3533*
X4613Y3534*
X4611Y3534*
X4658*
X4657Y3534*
G37*
G36*
X4532Y3500D02*
Y3478D01*
X4532Y3479*
X4531Y3479*
X4531Y3479*
X4530Y3479*
X4529Y3480*
X4527Y3480*
X4524Y3480*
X4520Y3480*
Y3500*
X4532Y3500*
G37*
G36*
X4643Y3443D02*
X4642Y3442D01*
X4642Y3442*
X4641Y3440*
X4641Y3439*
X4641Y3437*
X4640Y3432*
X4640Y3425*
X4610*
X4610Y3443*
X4643Y3443*
X4643Y3443*
G37*
G36*
X4475Y3410D02*
X4476Y3407D01*
X4476Y3404*
X4477Y3401*
X4478Y3399*
X4479Y3397*
X4480Y3396*
X4482Y3395*
X4483Y3394*
X4485Y3394*
X4445*
X4447Y3394*
X4449Y3395*
X4450Y3396*
X4452Y3397*
X4453Y3399*
X4454Y3401*
X4454Y3404*
X4455Y3407*
X4455Y3410*
X4455Y3414*
X4475*
X4475Y3410*
G37*
G36*
X4910Y3387D02*
X4910Y3388D01*
X4910Y3388*
X4909Y3388*
X4909Y3388*
X4908Y3388*
X4907Y3388*
X4906Y3388*
X4904Y3389*
Y3399*
X4905Y3399*
X4907Y3399*
X4908Y3399*
X4909Y3399*
X4909Y3399*
X4910Y3399*
X4910Y3399*
X4910Y3400*
Y3387*
G37*
G36*
X4706Y3162D02*
X4706Y3160D01*
X4706Y3159*
X4706Y3158*
X4706Y3158*
X4706Y3157*
X4706Y3157*
X4707Y3157*
X4694*
X4695Y3157*
X4695Y3157*
X4695Y3158*
X4695Y3158*
X4695Y3159*
X4695Y3160*
X4695Y3161*
X4696Y3163*
X4706*
X4706Y3162*
G37*
G36*
X4877Y3176D02*
X4876Y3174D01*
X4874Y3173*
X4873Y3171*
X4872Y3168*
X4872Y3166*
X4871Y3163*
X4871Y3160*
X4870Y3156*
X4870Y3149*
X4843Y3176*
X4847Y3176*
X4854Y3177*
X4857Y3177*
X4860Y3178*
X4862Y3179*
X4864Y3179*
X4866Y3181*
X4868Y3182*
X4870Y3183*
X4877Y3176*
G37*
G36*
X4499Y3066D02*
X4498Y3065D01*
X4497Y3063*
X4496Y3060*
X4495Y3058*
X4494Y3055*
X4493Y3051*
X4493Y3048*
X4492Y3039*
X4492Y3035*
X4461Y3066*
X4465Y3066*
X4474Y3067*
X4477Y3067*
X4481Y3068*
X4484Y3069*
X4486Y3070*
X4489Y3071*
X4491Y3072*
X4492Y3073*
X4499Y3066*
G37*
G36*
X4299D02*
X4298Y3065D01*
X4297Y3063*
X4296Y3060*
X4295Y3058*
X4294Y3055*
X4293Y3051*
X4293Y3048*
X4292Y3039*
X4292Y3035*
X4261Y3066*
X4265Y3066*
X4274Y3067*
X4277Y3067*
X4281Y3068*
X4284Y3069*
X4286Y3070*
X4289Y3071*
X4291Y3072*
X4292Y3073*
X4299Y3066*
G37*
G36*
X4199D02*
X4198Y3065D01*
X4197Y3063*
X4196Y3060*
X4195Y3058*
X4194Y3055*
X4193Y3051*
X4193Y3048*
X4192Y3039*
X4192Y3035*
X4161Y3066*
X4165Y3066*
X4174Y3067*
X4177Y3067*
X4181Y3068*
X4184Y3069*
X4186Y3070*
X4189Y3071*
X4191Y3072*
X4192Y3073*
X4199Y3066*
G37*
G36*
X4392Y3030D02*
X4393Y3021D01*
X4393Y3018*
X4394Y3014*
X4395Y3011*
X4396Y3009*
X4397Y3006*
X4398Y3004*
X4399Y3003*
X4392Y2996*
X4391Y2997*
X4389Y2998*
X4386Y2999*
X4384Y3000*
X4381Y3001*
X4377Y3002*
X4374Y3002*
X4365Y3003*
X4361Y3003*
X4392Y3034*
X4392Y3030*
G37*
G36*
X4574Y2803D02*
X4574Y2805D01*
X4573Y2807*
X4571Y2809*
X4569Y2811*
X4567Y2812*
X4564Y2813*
X4561Y2814*
X4556Y2815*
X4552Y2815*
X4547Y2815*
X4542Y2815*
X4537Y2815*
X4533Y2814*
X4529Y2813*
X4526Y2812*
X4524Y2811*
X4522Y2809*
X4521Y2807*
X4520Y2805*
X4519Y2803*
Y2857*
X4520Y2855*
X4521Y2853*
X4522Y2851*
X4524Y2850*
X4526Y2848*
X4529Y2847*
X4533Y2846*
X4537Y2846*
X4542Y2845*
X4547Y2845*
X4552Y2845*
X4556Y2846*
X4561Y2846*
X4564Y2847*
X4567Y2848*
X4569Y2850*
X4571Y2851*
X4573Y2853*
X4574Y2855*
X4574Y2857*
Y2803*
G37*
G36*
X4700Y2856D02*
X4701Y2854D01*
X4702Y2852*
X4704Y2850*
X4707Y2848*
X4710Y2847*
X4712Y2847*
X4712Y2847*
X4713Y2848*
X4713Y2848*
X4713Y2847*
X4714Y2846*
X4719Y2846*
X4724Y2845*
X4730Y2845*
Y2815*
X4724Y2815*
X4719Y2815*
X4716Y2814*
X4716Y2813*
X4716Y2814*
X4715Y2814*
X4715Y2814*
X4714Y2814*
X4710Y2813*
X4707Y2812*
X4704Y2810*
X4702Y2809*
X4701Y2807*
X4700Y2804*
X4700Y2802*
Y2815*
X4699Y2815*
X4696Y2845*
X4699Y2845*
X4700Y2845*
Y2859*
X4700Y2856*
G37*
G36*
X4439Y2801D02*
X4438Y2801D01*
X4437Y2799*
X4435Y2797*
X4434Y2794*
X4434Y2791*
X4433Y2787*
X4433Y2783*
X4432Y2772*
X4402*
X4402Y2777*
X4402Y2787*
X4401Y2791*
X4400Y2794*
X4399Y2797*
X4398Y2799*
X4397Y2801*
X4395Y2801*
X4394Y2802*
X4441*
X4439Y2801*
G37*
G36*
X4308Y2754D02*
X4309Y2754D01*
X4310Y2754*
X4311Y2754*
X4318Y2754*
X4324Y2754*
Y2724*
X4308Y2724*
X4308Y2754*
X4308Y2754*
G37*
G36*
X4253Y2724D02*
X4253Y2723D01*
X4253Y2723*
X4253Y2703*
X4223*
X4223Y2707*
X4223Y2714*
X4222Y2716*
X4222Y2719*
X4221Y2720*
X4221Y2722*
X4220Y2723*
X4219Y2724*
X4218Y2724*
X4253Y2724*
G37*
G36*
X4815Y2716D02*
X4817Y2716D01*
X4817Y2716*
X4817Y2715*
X4816Y2714*
X4816Y2712*
X4816Y2711*
X4816Y2709*
X4816Y2705*
X4817Y2701*
X4817Y2697*
X4818Y2695*
X4820Y2693*
X4821Y2691*
X4823Y2690*
X4824Y2690*
X4777*
X4779Y2690*
X4780Y2691*
X4781Y2693*
X4782Y2695*
X4783Y2697*
X4784Y2701*
X4784Y2705*
X4785Y2707*
X4785Y2710*
X4784Y2711*
X4784Y2713*
X4783Y2714*
X4783Y2715*
X4783Y2715*
X4785Y2715*
X4785Y2720*
X4815*
X4815Y2716*
G37*
G36*
X4360Y2702D02*
X4359Y2701D01*
X4357Y2700*
X4356Y2698*
X4355Y2696*
X4354Y2695*
X4353Y2693*
X4353Y2691*
X4352Y2688*
X4352Y2686*
X4352Y2683*
X4332Y2686*
X4332Y2689*
X4332Y2691*
X4332Y2694*
X4331Y2696*
X4331Y2698*
X4330Y2700*
X4329Y2702*
X4328Y2704*
X4327Y2706*
X4326Y2707*
X4360Y2702*
G37*
G36*
X4160Y2720D02*
X4160Y2718D01*
X4160Y2716*
X4160Y2713*
X4161Y2711*
X4163Y2708*
X4165Y2705*
X4168Y2701*
X4176Y2693*
X4161Y2679*
X4157Y2683*
X4150Y2689*
X4147Y2691*
X4144Y2693*
X4141Y2694*
X4139Y2695*
X4136Y2695*
X4135Y2694*
X4133Y2693*
X4161Y2721*
X4160Y2720*
G37*
G36*
X4081Y2693D02*
X4080Y2692D01*
X4078Y2690*
X4077Y2688*
X4076Y2686*
X4075Y2682*
X4075Y2678*
X4074Y2674*
X4074Y2663*
X4044*
X4044Y2669*
X4043Y2678*
X4043Y2682*
X4042Y2686*
X4041Y2688*
X4040Y2690*
X4039Y2692*
X4037Y2693*
X4036Y2693*
X4083*
X4081Y2693*
G37*
G36*
X4931Y2639D02*
X4931D01*
Y2629*
X4931Y2629*
Y2624*
X4931Y2624*
X4930Y2625*
X4930Y2626*
X4929Y2627*
X4928Y2627*
X4927Y2628*
X4926Y2628*
X4926*
X4926*
X4924Y2628*
X4923Y2627*
X4922Y2627*
X4922Y2626*
X4921Y2625*
X4921Y2624*
X4921Y2624*
Y2629*
X4921Y2629*
Y2639*
X4921*
Y2644*
X4921Y2643*
X4921Y2642*
X4922Y2641*
X4922Y2640*
X4923Y2640*
X4924Y2639*
X4926Y2639*
X4926Y2639*
X4926Y2639*
X4927Y2639*
X4928Y2640*
X4929Y2640*
X4930Y2641*
X4930Y2642*
X4931Y2643*
X4931Y2644*
Y2639*
G37*
G36*
X4271Y2663D02*
X4270Y2662D01*
X4268Y2660*
X4267Y2658*
X4266Y2656*
X4265Y2655*
X4265Y2652*
X4264Y2650*
X4264Y2648*
X4264Y2647*
X4264Y2636*
X4241*
X4241Y2637*
X4242Y2638*
X4242Y2639*
X4243Y2641*
X4243Y2646*
X4243Y2648*
X4243Y2649*
X4243Y2651*
X4242Y2653*
X4242Y2655*
X4241Y2657*
X4240Y2659*
X4239Y2661*
X4238Y2663*
X4236Y2664*
X4271Y2663*
G37*
G36*
X4211Y2650D02*
X4211Y2643D01*
X4211Y2642*
X4212Y2640*
X4212Y2639*
X4212Y2638*
X4213Y2637*
X4213Y2637*
X4191Y2636*
X4191Y2636*
X4191Y2636*
X4191Y2637*
X4191Y2652*
X4211*
X4211Y2650*
G37*
G36*
X4746Y2633D02*
X4746Y2623D01*
X4731*
X4731Y2625*
X4731Y2628*
X4730Y2629*
X4730Y2631*
X4730Y2632*
X4729Y2632*
X4729Y2633*
X4728Y2633*
X4728Y2633*
X4746Y2633*
G37*
G36*
X3928Y2609D02*
X3928Y2609D01*
X3928Y2608*
X3928Y2607*
Y2607*
X3928Y2606*
X3928Y2605*
X3928Y2604*
X3927Y2603*
X3927Y2603*
Y2610*
X3928Y2609*
G37*
G36*
X4920Y2603D02*
X4919Y2603D01*
X4919Y2602*
X4919Y2601*
X4918Y2600*
X4918Y2599*
X4918Y2598*
X4918Y2595*
X4918Y2593*
X4908*
X4908Y2595*
X4907Y2599*
X4907Y2600*
X4907Y2601*
X4907Y2602*
X4906Y2603*
X4906Y2603*
X4906Y2603*
X4920*
X4920Y2603*
G37*
G36*
X4895Y2603D02*
X4893Y2603D01*
X4892Y2602*
X4889Y2600*
X4887Y2599*
X4884Y2597*
X4881Y2594*
X4879Y2592*
X4869Y2603*
X4872Y2606*
X4876Y2611*
X4878Y2613*
X4879Y2616*
X4880Y2618*
X4880Y2620*
X4880Y2621*
X4880Y2623*
X4879Y2624*
X4895Y2603*
G37*
G36*
X4541Y2572D02*
X4539Y2570D01*
X4533Y2563*
X4532Y2561*
X4529Y2558*
X4528Y2556*
X4528Y2554*
X4527Y2553*
X4504Y2588*
X4506Y2588*
X4507Y2588*
X4509Y2589*
X4511Y2589*
X4513Y2590*
X4516Y2591*
X4518Y2593*
X4520Y2594*
X4522Y2596*
X4525Y2599*
X4541Y2572*
G37*
G36*
X4053Y2583D02*
X4051Y2580D01*
X4048Y2576*
X4046Y2574*
X4045Y2572*
X4044Y2570*
X4044Y2569*
X4043Y2567*
X4043Y2566*
X4043Y2564*
X4013Y2585*
X3987Y2560*
X3987Y2561*
X3986Y2563*
X3986Y2564*
X3985Y2566*
X3984Y2568*
X3983Y2570*
X3981Y2572*
X3978Y2576*
X3976Y2578*
X3998Y2599*
X4000Y2596*
X4004Y2593*
X4006Y2591*
X4008Y2590*
X4010Y2589*
X4011Y2588*
X4013Y2588*
X4013Y2588*
X4014Y2588*
X4016Y2589*
X4017Y2590*
X4021Y2593*
X4025Y2597*
X4027Y2599*
X4053Y2583*
G37*
G36*
X4141Y2579D02*
X4141Y2581D01*
X4140Y2583*
X4139Y2584*
X4138Y2585*
X4136Y2586*
X4134Y2587*
X4131Y2588*
X4128Y2589*
X4125Y2589*
X4121Y2589*
Y2609*
X4125Y2609*
X4128Y2609*
X4131Y2610*
X4134Y2611*
X4136Y2611*
X4138Y2613*
X4139Y2614*
X4140Y2615*
X4141Y2617*
X4141Y2619*
Y2579*
G37*
G36*
X4653Y2591D02*
X4653Y2591D01*
X4653Y2590*
X4653Y2590*
X4653Y2589*
X4654Y2589*
X4655Y2588*
X4655Y2588*
X4656Y2587*
X4641Y2573*
X4641Y2573*
X4639Y2575*
X4639Y2575*
X4639Y2575*
X4638Y2575*
X4638Y2576*
X4637Y2576*
X4637Y2576*
X4653Y2591*
X4653Y2591*
G37*
G36*
X4611Y2569D02*
X4611Y2570D01*
X4610Y2572*
X4609Y2572*
X4606Y2573*
X4604Y2574*
X4600Y2575*
X4597Y2575*
X4587Y2576*
X4581Y2576*
Y2606*
X4587Y2606*
X4600Y2607*
X4604Y2607*
X4606Y2608*
X4609Y2609*
X4610Y2610*
X4611Y2611*
X4611Y2612*
Y2569*
G37*
G36*
X4852Y2568D02*
X4850Y2568D01*
X4846Y2568*
X4845Y2568*
X4843Y2567*
X4842Y2567*
X4841Y2566*
X4841Y2565*
X4840Y2565*
X4840Y2564*
X4840Y2583*
X4841Y2583*
X4841Y2583*
X4852Y2583*
Y2568*
G37*
G36*
X4664Y2598D02*
X4665Y2596D01*
X4666Y2595*
X4667Y2594*
X4669Y2592*
X4671Y2592*
X4674Y2591*
X4677Y2590*
X4680Y2590*
X4684Y2590*
Y2589*
X4686Y2588*
X4688Y2588*
X4689Y2587*
X4690Y2586*
X4691Y2584*
X4691Y2583*
Y2562*
X4691Y2563*
X4690Y2565*
X4689Y2566*
X4688Y2567*
X4686Y2568*
X4684Y2569*
X4681Y2569*
X4678Y2570*
X4677Y2570*
X4664Y2569*
X4664Y2600*
X4664Y2598*
G37*
G36*
X3927Y2622D02*
Y2602D01*
X3927Y2603*
Y2602*
X3946*
Y2551*
X3924*
X3925Y2548*
X3925Y2544*
X3926Y2540*
X3928Y2536*
X3929Y2534*
X3931Y2532*
X3934Y2530*
X3936Y2529*
X3939Y2529*
X3879*
X3882Y2529*
X3884Y2530*
X3887Y2532*
X3889Y2534*
X3890Y2536*
X3892Y2540*
X3893Y2544*
X3893Y2548*
X3894Y2551*
X3872*
Y2602*
X3891*
Y2606*
X3885Y2604*
X3887Y2607*
X3890Y2610*
X3891Y2611*
Y2622*
X3927*
G37*
G36*
X4793Y2524D02*
X4793Y2525D01*
X4793Y2526*
X4792Y2526*
X4791Y2526*
X4790Y2527*
X4788Y2527*
X4786Y2527*
X4781Y2528*
X4778Y2528*
Y2543*
X4781Y2543*
X4788Y2543*
X4790Y2543*
X4791Y2544*
X4792Y2544*
X4793Y2545*
X4793Y2545*
X4793Y2546*
Y2524*
G37*
G36*
X4664Y2553D02*
X4665Y2552D01*
X4666Y2550*
X4667Y2549*
X4669Y2548*
X4671Y2547*
X4674Y2546*
X4677Y2546*
X4679Y2546*
X4691Y2546*
Y2524*
X4691Y2525*
X4690Y2525*
X4689Y2525*
X4688Y2525*
X4680Y2525*
X4677Y2525*
X4674Y2524*
X4671Y2524*
X4669Y2523*
X4667Y2522*
X4666Y2520*
X4665Y2519*
X4664Y2517*
X4664Y2515*
Y2555*
X4664Y2553*
G37*
G36*
X4025Y2547D02*
X4025Y2546D01*
X4024Y2544*
X4024Y2541*
X4024Y2538*
X4035*
X4033Y2536*
X4031Y2533*
X4029Y2531*
X4027Y2528*
X4026Y2526*
X4025Y2524*
X4025Y2523*
X4025Y2523*
X4025Y2521*
X4026Y2520*
X4028Y2520*
X4029Y2519*
X4030Y2519*
X4023*
X4023Y2519*
X4023Y2516*
X4023Y2514*
X4008*
X4008Y2516*
X4007Y2519*
X4007Y2519*
X4000*
X4002Y2519*
X4003Y2520*
X4004Y2520*
X4005Y2521*
X4006Y2523*
X4006Y2523*
X4006Y2524*
X4005Y2526*
X4003Y2528*
X4002Y2531*
X4000Y2533*
X3998Y2536*
X3995Y2538*
X4007*
X4006Y2544*
X4006Y2546*
X4005Y2547*
X4005Y2548*
X4026*
X4025Y2547*
G37*
G36*
X4841Y2508D02*
X4841Y2507D01*
X4842Y2507*
X4843Y2506*
X4844Y2506*
X4845Y2506*
X4847Y2506*
X4852Y2505*
X4854Y2505*
Y2490*
X4852Y2490*
X4845Y2490*
X4844Y2489*
X4843Y2489*
X4842Y2489*
X4841Y2488*
X4841Y2488*
X4840Y2487*
Y2508*
X4841Y2508*
G37*
G36*
X4662Y2514D02*
X4660Y2513D01*
X4658Y2511*
X4657Y2509*
X4656Y2507*
X4655Y2503*
X4654Y2499*
X4653Y2495*
X4653Y2490*
X4653Y2484*
X4623*
X4623Y2490*
X4622Y2499*
X4621Y2503*
X4620Y2507*
X4619Y2509*
X4617Y2511*
X4615Y2513*
X4613Y2514*
X4611Y2514*
X4664*
X4662Y2514*
G37*
G36*
X3924Y2474D02*
X3924Y2470D01*
X3939*
X3936Y2470*
X3934Y2469*
X3931Y2468*
X3929Y2465*
X3928Y2463*
X3927Y2460*
X3928Y2458*
X3929Y2455*
X3931Y2453*
X3934Y2451*
X3936Y2450*
X3939Y2450*
X3924*
X3924Y2446*
X3924Y2440*
X3894*
X3894Y2446*
X3893Y2450*
X3879*
X3882Y2450*
X3884Y2451*
X3887Y2453*
X3889Y2455*
X3890Y2458*
X3891Y2460*
X3890Y2463*
X3889Y2465*
X3887Y2468*
X3884Y2469*
X3882Y2470*
X3879Y2470*
X3893*
X3894Y2474*
X3894Y2480*
X3924*
X3924Y2474*
G37*
G36*
X4653Y2457D02*
X4653Y2452D01*
X4654Y2447*
X4655Y2443*
X4657Y2440*
X4658Y2437*
X4660Y2435*
X4662Y2434*
X4665Y2433*
X4668Y2432*
X4621*
X4621Y2433*
X4622Y2434*
X4622Y2435*
X4622Y2437*
X4623Y2447*
X4623Y2462*
X4653*
X4653Y2457*
G37*
G36*
X4078Y2414D02*
X4078Y2414D01*
Y2414*
X4078Y2414*
X4079Y2414*
X4081Y2414*
X4090Y2414*
Y2414*
X4094Y2414*
Y2404*
X4090Y2404*
Y2404*
X4090Y2404*
X4089Y2404*
X4088Y2404*
X4078Y2404*
Y2404*
X4078*
Y2391*
X4076Y2393*
X4074Y2395*
X4072Y2397*
X4070Y2398*
X4068Y2399*
X4065Y2400*
X4063Y2401*
X4061Y2401*
X4059Y2401*
X4057Y2401*
X4042Y2401*
Y2417*
X4042Y2417*
X4042Y2417*
X4044Y2417*
X4057Y2416*
X4059Y2417*
X4061Y2417*
X4063Y2417*
X4065Y2418*
X4068Y2419*
X4070Y2420*
X4072Y2421*
X4074Y2423*
X4076Y2425*
X4078Y2426*
Y2414*
G37*
G36*
X4467Y2458D02*
X4474Y2451D01*
X4482Y2460*
X4497Y2445*
X4497Y2445*
X4496Y2444*
X4494Y2442*
X4488Y2437*
X4495Y2430*
X4527*
X4525Y2429*
X4522Y2429*
X4520Y2427*
X4518Y2425*
X4516Y2422*
X4515Y2419*
X4514Y2415*
X4513Y2411*
X4513Y2405*
X4512Y2400*
X4482*
X4482Y2405*
X4482Y2411*
X4481Y2415*
X4480Y2419*
X4479Y2422*
X4477Y2425*
X4475Y2423*
X4467Y2416*
X4453Y2430*
X4457Y2434*
X4463Y2441*
X4465Y2444*
X4464Y2445*
X4462Y2447*
X4460Y2448*
X4456Y2450*
X4452Y2451*
X4448Y2451*
X4443Y2452*
X4437Y2452*
Y2482*
X4443Y2482*
X4452Y2483*
X4456Y2483*
X4460Y2484*
X4462Y2485*
X4464Y2486*
X4466Y2487*
X4467Y2489*
X4467Y2491*
X4467Y2458*
G37*
G36*
X4115Y2425D02*
X4117Y2423D01*
X4119Y2421*
X4121Y2420*
X4124Y2419*
X4126Y2418*
X4128Y2417*
X4130Y2417*
X4131Y2417*
X4131Y2417*
X4133Y2417*
X4135Y2418*
X4137Y2418*
X4138Y2419*
X4140Y2420*
X4140Y2421*
X4141Y2423*
X4141Y2424*
Y2394*
X4141Y2395*
X4140Y2397*
X4140Y2398*
X4138Y2399*
X4137Y2400*
X4135Y2400*
X4133Y2401*
X4131Y2401*
X4131Y2401*
X4130Y2401*
X4128Y2401*
X4126Y2400*
X4124Y2399*
X4121Y2398*
X4119Y2397*
X4117Y2395*
X4115Y2393*
X4113Y2391*
Y2426*
X4115Y2425*
G37*
G36*
X4314Y2422D02*
X4315Y2420D01*
X4316Y2419*
X4317Y2418*
X4319Y2417*
X4321Y2416*
X4324Y2415*
X4327Y2414*
X4330Y2414*
X4334Y2414*
Y2394*
X4330Y2394*
X4327Y2394*
X4324Y2393*
X4321Y2392*
X4319Y2392*
X4317Y2390*
X4316Y2389*
X4315Y2388*
X4314Y2386*
X4314Y2384*
Y2424*
X4314Y2422*
G37*
G36*
X4936Y2372D02*
X4936Y2370D01*
X4936Y2367*
X4936Y2365*
X4937Y2363*
X4938Y2361*
X4938Y2359*
X4939Y2357*
X4940Y2355*
X4942Y2354*
X4943Y2352*
X4908Y2352*
X4910Y2354*
X4911Y2356*
X4912Y2357*
X4913Y2359*
X4914Y2361*
X4914Y2363*
X4915Y2365*
X4915Y2368*
X4916Y2370*
X4916Y2372*
X4936Y2372*
G37*
G36*
X4314Y2367D02*
X4313Y2366D01*
X4313Y2364*
X4313Y2363*
X4313Y2356*
X4313Y2346*
X4293*
X4292Y2349*
X4292Y2366*
X4291Y2367*
X4291Y2367*
X4314*
X4314Y2367*
G37*
G36*
X6189Y2386D02*
X6190Y2384D01*
X6192Y2383*
X6194Y2381*
X6197Y2380*
X6200Y2379*
X6204Y2378*
X6208Y2378*
X6213Y2378*
X6219Y2378*
Y2348*
X6213Y2347*
X6208Y2347*
X6204Y2346*
X6200Y2345*
X6197Y2344*
X6194Y2342*
X6192Y2340*
X6190Y2338*
X6189Y2335*
X6189Y2333*
X6189Y2388*
X6189Y2386*
G37*
G36*
X5768Y2387D02*
X5769Y2384D01*
X5770Y2382*
X5773Y2380*
X5775Y2378*
X5779Y2377*
X5783Y2376*
X5787Y2375*
X5792Y2375*
X5798Y2375*
Y2345*
X5792Y2345*
X5787Y2344*
X5783Y2343*
X5779Y2342*
X5775Y2341*
X5773Y2339*
X5770Y2337*
X5769Y2335*
X5768Y2333*
X5768Y2330*
Y2390*
X5768Y2387*
G37*
G36*
X5347Y2380D02*
X5348Y2378D01*
X5349Y2376*
X5351Y2374*
X5354Y2372*
X5357Y2371*
X5361Y2370*
X5366Y2369*
X5368Y2369*
X5376Y2369*
X5380Y2370*
X5382Y2371*
X5384Y2371*
X5386Y2372*
X5387Y2373*
X5387Y2374*
Y2327*
X5387Y2329*
X5386Y2331*
X5384Y2333*
X5382Y2334*
X5380Y2336*
X5376Y2337*
X5372Y2337*
X5368Y2338*
X5367Y2338*
X5366Y2338*
X5361Y2337*
X5357Y2336*
X5354Y2335*
X5351Y2334*
X5349Y2332*
X5348Y2330*
X5347Y2328*
X5347Y2326*
X5347Y2383*
X5347Y2380*
G37*
G36*
X4017Y2333D02*
X4016Y2333D01*
X4015Y2333*
X4013Y2332*
X4011Y2331*
X4010Y2330*
X4008Y2329*
X4004Y2325*
X4002Y2323*
X4000Y2321*
X3976Y2340*
X3978Y2343*
X3982Y2347*
X3983Y2349*
X3985Y2351*
X3985Y2353*
X3986Y2354*
X3987Y2356*
X3987Y2357*
X3987Y2359*
X4017Y2333*
G37*
G36*
X4306Y2305D02*
X4303Y2302D01*
X4301Y2299*
X4299Y2296*
X4297Y2292*
X4295Y2289*
X4294Y2286*
X4293Y2282*
X4292Y2278*
X4292Y2275*
X4292Y2269*
X4293Y2267*
X4294Y2263*
X4294Y2261*
X4295Y2259*
X4296Y2258*
X4270Y2255*
X4271Y2256*
X4271Y2257*
X4271Y2258*
X4272Y2264*
X4272Y2273*
X4272Y2274*
X4271Y2278*
X4271Y2282*
X4270Y2285*
X4269Y2289*
X4267Y2292*
X4266Y2295*
X4264Y2297*
X4262Y2300*
X4260Y2302*
X4274Y2317*
X4276Y2315*
X4277Y2314*
X4279Y2314*
X4281Y2314*
X4283Y2314*
X4285Y2315*
X4288Y2316*
X4290Y2318*
X4293Y2320*
X4295Y2323*
X4306Y2305*
G37*
G36*
X5584Y2341D02*
X5584Y2339D01*
X5583Y2338*
X5583Y2336*
X5582Y2334*
X5582Y2329*
X5581Y2323*
X5581Y2320*
X5551Y2313*
X5551Y2316*
X5551Y2322*
X5550Y2324*
X5550Y2327*
X5549Y2329*
X5548Y2330*
X5547Y2332*
X5546Y2333*
X5545Y2334*
X5585Y2342*
X5584Y2341*
G37*
G36*
X6004Y2337D02*
X6004Y2336D01*
X6004Y2335*
X6003Y2333*
X6003Y2329*
X6003Y2321*
X6003Y2318*
X5973Y2312*
X5973Y2315*
X5972Y2323*
X5972Y2325*
X5971Y2327*
X5971Y2328*
X5970Y2329*
X5969Y2330*
X5968Y2331*
X6005Y2338*
X6004Y2337*
G37*
G36*
X3936Y2391D02*
X3934Y2390D01*
X3931Y2389*
X3929Y2387*
X3928Y2384*
X3926Y2381*
X3925Y2377*
X3925Y2372*
X3924Y2370*
X3946*
Y2318*
X3927*
Y2317*
X3927Y2317*
X3928Y2315*
X3928Y2314*
X3928Y2314*
Y2313*
X3928Y2312*
X3928Y2312*
X3928Y2311*
X3927Y2311*
Y2317*
X3927Y2318*
Y2299*
X3891*
Y2310*
X3890Y2310*
X3889Y2312*
X3887Y2314*
X3885Y2316*
X3891Y2315*
Y2318*
X3872*
Y2370*
X3894*
X3893Y2372*
X3893Y2377*
X3892Y2381*
X3890Y2384*
X3889Y2387*
X3887Y2389*
X3884Y2390*
X3882Y2391*
X3879Y2391*
X3939*
X3936Y2391*
G37*
G36*
X5163Y2337D02*
X5163Y2336D01*
X5162Y2334*
X5162Y2332*
X5161Y2330*
X5161Y2325*
X5160Y2322*
X5160Y2316*
X5130Y2309*
X5130Y2312*
X5129Y2318*
X5129Y2320*
X5128Y2323*
X5127Y2325*
X5126Y2326*
X5125Y2328*
X5124Y2329*
X5123Y2330*
X5164Y2339*
X5163Y2337*
G37*
G36*
X4621Y2307D02*
X4621Y2308D01*
X4620Y2310*
X4618Y2311*
X4616Y2312*
X4614Y2313*
X4610Y2314*
X4606Y2314*
X4602Y2315*
X4591Y2315*
Y2345*
X4597Y2345*
X4606Y2346*
X4610Y2346*
X4614Y2347*
X4616Y2348*
X4618Y2349*
X4620Y2351*
X4621Y2352*
X4621Y2354*
Y2307*
G37*
G36*
X5765Y2329D02*
X5762Y2328D01*
X5760Y2327*
X5758Y2325*
X5756Y2322*
X5755Y2319*
X5754Y2315*
X5753Y2310*
X5753Y2305*
X5753Y2300*
X5723*
X5723Y2305*
X5722Y2310*
X5721Y2315*
X5720Y2319*
X5719Y2322*
X5717Y2325*
X5715Y2327*
X5713Y2328*
X5711Y2329*
X5708Y2330*
X5768*
X5765Y2329*
G37*
G36*
X6186Y2327D02*
X6184Y2326D01*
X6181Y2325*
X6179Y2323*
X6178Y2320*
X6176Y2317*
X6175Y2313*
X6175Y2308*
X6174Y2303*
X6174Y2298*
X6144*
X6144Y2303*
X6143Y2308*
X6143Y2313*
X6142Y2317*
X6140Y2320*
X6139Y2323*
X6137Y2325*
X6134Y2326*
X6132Y2327*
X6129Y2328*
X6189*
X6186Y2327*
G37*
G36*
X5344Y2325D02*
X5341Y2324D01*
X5339Y2323*
X5337Y2321*
X5335Y2318*
X5334Y2315*
X5333Y2311*
X5332Y2306*
X5332Y2301*
X5331Y2296*
X5301*
X5301Y2301*
X5301Y2306*
X5300Y2311*
X5299Y2315*
X5298Y2318*
X5296Y2321*
X5294Y2323*
X5292Y2324*
X5289Y2325*
X5286Y2326*
X5346*
X5344Y2325*
G37*
G36*
X4172Y2293D02*
X4168Y2289D01*
X4162Y2282*
X4160Y2279*
X4158Y2276*
X4157Y2273*
X4156Y2271*
X4156Y2268*
X4157Y2267*
X4158Y2265*
X4130Y2293*
X4131Y2292*
X4133Y2292*
X4135Y2292*
X4138Y2292*
X4140Y2293*
X4143Y2295*
X4146Y2297*
X4150Y2300*
X4158Y2308*
X4172Y2293*
G37*
G36*
X4503Y2279D02*
X4467Y2279D01*
X4470Y2279*
X4473Y2280*
X4475Y2282*
X4477Y2284*
X4479Y2287*
X4480Y2290*
X4481Y2294*
X4482Y2298*
X4482Y2304*
X4482Y2309*
X4512*
X4503Y2279*
G37*
G36*
X5425Y2249D02*
X5424Y2248D01*
X5423Y2248*
X5422Y2247*
X5422Y2246*
X5421Y2245*
X5421Y2244*
X5421Y2242*
X5421Y2241*
X5421Y2239*
X5411*
X5410Y2241*
X5410Y2242*
X5410Y2244*
X5410Y2245*
X5409Y2246*
X5409Y2247*
X5408Y2248*
X5407Y2248*
X5406Y2249*
X5406Y2249*
X5426*
X5425Y2249*
G37*
G36*
X4450Y2238D02*
X4450Y2240D01*
X4450Y2241*
X4449Y2243*
X4447Y2244*
X4445Y2245*
X4443Y2246*
X4441Y2247*
X4437Y2247*
X4434Y2248*
X4430Y2248*
Y2268*
X4434Y2268*
X4437Y2268*
X4441Y2269*
X4443Y2269*
X4445Y2270*
X4447Y2271*
X4449Y2273*
X4450Y2274*
X4450Y2276*
X4450Y2278*
Y2238*
G37*
G36*
X5257Y2272D02*
X5258Y2271D01*
X5259Y2271*
X5262Y2270*
X5264Y2270*
X5276Y2270*
X5287Y2270*
Y2240*
X5281Y2239*
X5259Y2238*
X5258Y2238*
X5257Y2237*
X5257Y2237*
Y2272*
X5257Y2272*
G37*
G36*
X5184Y2289D02*
X5198Y2277D01*
X5201Y2275*
X5203Y2274*
X5206Y2273*
X5208Y2272*
X5210Y2272*
X5180Y2237*
X5180Y2240*
X5179Y2243*
X5178Y2246*
X5177Y2249*
X5175Y2252*
X5173Y2256*
X5170Y2260*
X5163Y2267*
X5159Y2272*
X5180Y2293*
X5184Y2289*
G37*
G36*
X5849Y2244D02*
X5848Y2243D01*
X5847Y2243*
X5846Y2242*
X5846Y2241*
X5845Y2240*
X5845Y2239*
X5845Y2237*
X5845Y2236*
X5845Y2234*
X5835*
X5834Y2236*
X5834Y2237*
X5834Y2239*
X5834Y2240*
X5833Y2241*
X5833Y2242*
X5832Y2243*
X5831Y2243*
X5830Y2244*
X5830Y2244*
X5850*
X5849Y2244*
G37*
G36*
X4388Y2264D02*
X4390Y2264D01*
X4391Y2264*
X4396Y2263*
X4404Y2263*
X4411Y2263*
X4418Y2243*
X4413Y2243*
X4409Y2242*
X4406Y2242*
X4403Y2241*
X4401Y2240*
X4399Y2239*
X4398Y2238*
X4397Y2236*
X4397Y2235*
X4397Y2233*
X4387Y2265*
X4388Y2264*
G37*
G36*
X6117Y2260D02*
X6118Y2259D01*
X6119Y2259*
X6122Y2258*
X6124Y2258*
X6136Y2258*
X6147Y2258*
Y2228*
X6141Y2227*
X6119Y2226*
X6118Y2226*
X6117Y2225*
X6117Y2225*
Y2260*
X6117Y2260*
G37*
G36*
X6044Y2277D02*
X6058Y2265D01*
X6061Y2263*
X6063Y2262*
X6066Y2261*
X6068Y2260*
X6070Y2260*
X6040Y2225*
X6040Y2228*
X6039Y2231*
X6038Y2234*
X6037Y2237*
X6035Y2240*
X6033Y2244*
X6030Y2248*
X6023Y2255*
X6019Y2260*
X6040Y2281*
X6044Y2277*
G37*
G36*
X5696Y2260D02*
X5697Y2259D01*
X5698Y2259*
X5701Y2258*
X5703Y2258*
X5715Y2258*
X5726Y2258*
Y2228*
X5720Y2227*
X5698Y2226*
X5697Y2226*
X5696Y2225*
X5696Y2225*
Y2260*
X5696Y2260*
G37*
G36*
X5623Y2277D02*
X5637Y2265D01*
X5640Y2263*
X5642Y2262*
X5645Y2261*
X5647Y2260*
X5649Y2260*
X5619Y2225*
X5619Y2228*
X5618Y2231*
X5617Y2234*
X5616Y2237*
X5614Y2240*
X5612Y2244*
X5609Y2248*
X5602Y2255*
X5598Y2260*
X5619Y2281*
X5623Y2277*
G37*
G36*
X6269Y2232D02*
X6268Y2231D01*
X6267Y2231*
X6266Y2230*
X6266Y2229*
X6265Y2228*
X6265Y2227*
X6265Y2225*
X6265Y2224*
X6265Y2222*
X6255*
X6254Y2224*
X6254Y2225*
X6254Y2227*
X6254Y2228*
X6253Y2229*
X6253Y2230*
X6252Y2231*
X6251Y2231*
X6250Y2232*
X6250Y2232*
X6270*
X6269Y2232*
G37*
G36*
X5841Y2209D02*
X5840Y2208D01*
X5839Y2207*
X5839Y2206*
X5838Y2205*
X5838Y2204*
X5838Y2203*
X5837Y2202*
X5837Y2201*
X5837Y2200*
X5838Y2199*
X5823Y2209*
X5824Y2209*
X5825Y2209*
X5826Y2210*
X5827Y2210*
X5828Y2211*
X5828Y2211*
X5829Y2212*
X5831Y2213*
X5832Y2214*
X5841Y2209*
G37*
G36*
X5418D02*
X5417Y2208D01*
X5416Y2207*
X5416Y2206*
X5415Y2205*
X5415Y2204*
X5415Y2203*
X5414Y2202*
X5414Y2201*
X5414Y2200*
X5415Y2199*
X5400Y2209*
X5401Y2209*
X5402Y2209*
X5403Y2210*
X5404Y2210*
X5405Y2211*
X5405Y2211*
X5406Y2212*
X5408Y2213*
X5409Y2214*
X5418Y2209*
G37*
G36*
X4224Y2171D02*
X4222Y2172D01*
X4221Y2174*
X4219Y2176*
X4217Y2177*
X4214Y2178*
X4212Y2179*
X4209Y2180*
X4206Y2180*
X4203Y2180*
X4200Y2181*
Y2201*
X4204Y2201*
X4208Y2201*
X4211Y2201*
X4213Y2202*
X4216Y2203*
X4217Y2204*
X4219Y2205*
X4220Y2207*
X4220Y2209*
X4220Y2211*
X4224Y2171*
G37*
G36*
X4158Y2209D02*
X4159Y2207D01*
X4160Y2205*
X4161Y2204*
X4163Y2203*
X4165Y2202*
X4168Y2201*
X4171Y2201*
X4174Y2201*
X4178Y2201*
Y2181*
X4174Y2180*
X4171Y2180*
X4168Y2180*
X4165Y2179*
X4163Y2178*
X4161Y2177*
X4160Y2176*
X4159Y2174*
X4158Y2172*
X4158Y2171*
Y2211*
X4158Y2209*
G37*
G36*
X4501Y2181D02*
X4499Y2180D01*
X4497Y2178*
X4496Y2176*
X4494Y2174*
X4493Y2170*
X4493Y2166*
X4492Y2165*
X4493Y2164*
X4493Y2163*
X4494Y2162*
X4494Y2161*
X4492Y2161*
X4492Y2157*
X4492Y2151*
X4462*
X4461Y2157*
X4461Y2161*
X4459Y2161*
X4460Y2162*
X4460Y2163*
X4460Y2164*
X4461Y2165*
X4461Y2166*
X4460Y2170*
X4459Y2174*
X4458Y2176*
X4456Y2178*
X4454Y2180*
X4452Y2181*
X4450Y2181*
X4503*
X4501Y2181*
G37*
G36*
X4646Y2129D02*
X4645Y2132D01*
X4644Y2134*
X4643Y2136*
X4641Y2138*
X4638Y2139*
X4635Y2140*
X4631Y2141*
X4626Y2142*
X4621Y2142*
X4616Y2143*
Y2173*
X4621Y2173*
X4626Y2173*
X4631Y2174*
X4635Y2175*
X4638Y2176*
X4641Y2178*
X4643Y2180*
X4645Y2182*
X4645Y2185*
X4646Y2188*
X4646Y2129*
G37*
G36*
X5753Y2145D02*
X5753Y2139D01*
X5754Y2137*
X5754Y2134*
X5755Y2132*
X5756Y2130*
X5757Y2128*
X5758Y2127*
X5759Y2125*
X5716*
X5718Y2127*
X5719Y2128*
X5720Y2130*
X5720Y2132*
X5721Y2134*
X5722Y2137*
X5722Y2139*
X5722Y2142*
X5723Y2148*
X5753*
X5753Y2145*
G37*
G36*
X6174Y2143D02*
X6175Y2137D01*
X6175Y2135*
X6176Y2132*
X6176Y2130*
X6177Y2128*
X6178Y2126*
X6179Y2125*
X6180Y2124*
X6138*
X6139Y2125*
X6140Y2126*
X6141Y2128*
X6142Y2130*
X6142Y2132*
X6143Y2135*
X6143Y2137*
X6144Y2140*
X6144Y2146*
X6174*
X6174Y2143*
G37*
G36*
X5331Y2141D02*
X5332Y2135D01*
X5332Y2133*
X5333Y2130*
X5334Y2128*
X5334Y2126*
X5335Y2124*
X5336Y2123*
X5338Y2122*
X5295*
X5296Y2123*
X5297Y2124*
X5298Y2126*
X5299Y2128*
X5300Y2130*
X5300Y2133*
X5301Y2135*
X5301Y2138*
X5301Y2144*
X5331*
X5331Y2141*
G37*
G36*
X4352Y2094D02*
X4350Y2093D01*
X4349Y2091*
X4348Y2090*
X4347Y2088*
X4346Y2086*
X4345Y2084*
X4345Y2082*
X4344Y2079*
X4344Y2079*
X4345Y2067*
X4345Y2066*
X4346Y2065*
X4322*
X4322Y2066*
X4323Y2067*
X4323Y2069*
X4323Y2070*
X4324Y2075*
X4324Y2079*
X4324Y2080*
X4323Y2082*
X4323Y2084*
X4322Y2086*
X4321Y2088*
X4321Y2090*
X4319Y2092*
X4318Y2093*
X4317Y2095*
X4352Y2094*
G37*
G36*
X4534Y2059D02*
X4528Y2053D01*
X4519Y2042*
X4516Y2037*
X4513Y2033*
X4511Y2029*
X4511Y2025*
X4511Y2022*
X4511Y2019*
X4513Y2017*
X4471Y2059*
X4473Y2057*
X4476Y2057*
X4479Y2057*
X4483Y2057*
X4487Y2059*
X4491Y2062*
X4496Y2065*
X4501Y2069*
X4513Y2080*
X4534Y2059*
G37*
G36*
X4460Y2021D02*
X4460Y2022D01*
X4460Y2024*
X4459Y2026*
X4457Y2027*
X4455Y2028*
X4453Y2029*
X4451Y2030*
X4447Y2030*
X4444Y2030*
X4440Y2031*
Y2051*
X4444Y2051*
X4447Y2051*
X4450Y2051*
X4453Y2052*
X4455Y2053*
X4457Y2054*
X4458Y2055*
X4459Y2056*
X4460Y2058*
X4460Y2059*
X4460Y2021*
G37*
G36*
X4397Y2059D02*
X4398Y2057D01*
X4399Y2055*
X4400Y2054*
X4402Y2053*
X4405Y2052*
X4407Y2051*
X4410Y2051*
X4414Y2051*
X4418Y2051*
Y2031*
X4414Y2030*
X4410Y2030*
X4407Y2030*
X4405Y2029*
X4402Y2028*
X4401Y2027*
X4399Y2026*
X4398Y2024*
X4398Y2022*
X4397Y2021*
X4397Y2060*
X4397Y2059*
G37*
G36*
X4145Y2048D02*
X4145Y2047D01*
X4146Y2046*
X4148Y2045*
X4149Y2045*
X4152Y2045*
X4154Y2044*
X4161Y2044*
X4164Y2044*
Y2024*
X4161Y2024*
X4152Y2023*
X4149Y2023*
X4148Y2022*
X4146Y2021*
X4145Y2021*
X4145Y2020*
X4144Y2019*
Y2048*
X4145Y2048*
G37*
G36*
X4220Y2014D02*
X4220Y2016D01*
X4219Y2017*
X4218Y2019*
X4217Y2020*
X4215Y2021*
X4213Y2022*
X4210Y2023*
X4207Y2023*
X4204Y2024*
X4200Y2024*
Y2044*
X4204Y2044*
X4207Y2044*
X4210Y2045*
X4213Y2045*
X4215Y2046*
X4217Y2047*
X4218Y2049*
X4219Y2050*
X4220Y2052*
X4220Y2054*
Y2014*
G37*
G36*
X4093Y2004D02*
X4094Y2003D01*
X4095Y2003*
X4096Y2002*
X4098Y2002*
X4102Y2002*
X4107Y2002*
X4110Y2002*
Y1972*
X4107Y1971*
X4098Y1971*
X4096Y1971*
X4095Y1970*
X4094Y1970*
X4093Y1969*
X4092Y1969*
X4092Y2004*
X4093Y2004*
G37*
G36*
X4513Y2003D02*
X4514Y2002D01*
X4516Y2001*
X4518Y2000*
X4521Y1999*
X4524Y1999*
X4528Y1998*
X4530Y1998*
X4532Y1998*
X4534Y1998*
X4535Y1999*
X4536Y1999*
X4537Y2000*
X4538Y2000*
Y1998*
X4543Y1998*
Y1968*
X4538Y1967*
X4538Y1965*
X4537Y1966*
X4536Y1966*
X4535Y1966*
X4534Y1967*
X4532Y1967*
X4531Y1967*
X4524Y1967*
X4521Y1966*
X4518Y1965*
X4516Y1964*
X4514Y1963*
X4513Y1962*
X4513Y1961*
Y2004*
X4513Y2003*
G37*
%LNmtb_telemetry_system_pcb-2*%
%LPC*%
G36*
X3927Y2602D02*
D01*
G37*
G36*
X3926D02*
X3891D01*
X3926*
G37*
G36*
X4467Y2458D02*
X4467Y2448D01*
X4468Y2450*
X4469Y2453*
Y2455*
X4468Y2456*
X4467Y2458*
G37*
G36*
X4492Y2431D02*
X4490D01*
X4487Y2431*
X4485Y2430*
X4495*
X4494Y2431*
X4492Y2431*
G37*
G36*
X3926Y2318D02*
X3891D01*
X3926*
G37*
%LNmtb_telemetry_system_pcb-3*%
%LPD*%
G54D13*
X5382Y4249D02*
X5408Y4224D01*
X4941Y4249D02*
X5382D01*
X5408Y4222D02*
Y4224D01*
X4699Y4231D02*
X5036D01*
X4903Y4270D02*
X5015D01*
X4856Y4317D02*
X4903Y4270D01*
X4493Y4437D02*
X4699Y4231D01*
X4781Y4249D02*
X4941D01*
X4941Y4249*
X5134Y4209D02*
X5274Y4069D01*
Y4036D02*
Y4069D01*
X4593Y4437D02*
X4781Y4249D01*
X5326Y3275D02*
X5461Y3410D01*
X5469Y3856D02*
Y3858D01*
X5461Y3410D02*
Y3848D01*
X5469Y3856*
X5484Y3936D02*
X5485Y3937D01*
X5712*
X5456Y3934D02*
X5475Y3915D01*
X5690*
X5825Y3780*
X6013Y4238D02*
X6070D01*
X5712Y3937D02*
X6013Y4238D01*
X5456Y3934D02*
Y3936D01*
X5249Y3540D02*
X5250Y3541D01*
Y3547D02*
X5311Y3608D01*
X5311*
X5250Y3541D02*
Y3547D01*
X4693Y3545D02*
X4880Y3732D01*
X4690Y3545D02*
X4693D01*
X5213Y3563D02*
X5254Y3604D01*
Y3668*
X5213Y3519D02*
Y3563D01*
X4529Y3103D02*
X4960D01*
X4461Y3035D02*
X4529Y3103D01*
X4261Y3035D02*
X4416Y3190D01*
X4508*
X4871Y3553*
X5150*
X4341Y3215D02*
X4500D01*
X4858Y3573*
X4939*
X5825Y3780D02*
X6069D01*
X5279Y3275D02*
X5326D01*
X4427Y2969D02*
X4973D01*
X5279Y3275*
X4709Y3316D02*
X4711D01*
X4701Y3151D02*
Y3307D01*
X4709Y3316*
X4789Y3394D02*
X4917D01*
X4711Y3316D02*
X4789Y3394D01*
X5150Y3553D02*
X5189Y3592D01*
X5149Y3712D02*
X5191Y3670D01*
X5149Y3712D02*
Y3845D01*
X5191Y3670D02*
X5221D01*
X4361Y3035D02*
X4427Y2969D01*
X5427Y3570D02*
Y3635D01*
X4960Y3103D02*
X5427Y3570D01*
X5332Y3567D02*
Y3605D01*
X5334Y3607*
X5329Y3679D02*
X5355Y3654D01*
X5408D02*
X5427Y3635D01*
X5355Y3654D02*
X5408D01*
X5307Y3667D02*
X5334Y3640D01*
Y3607D02*
Y3640D01*
X4939Y3573D02*
X5062Y3696D01*
X4161Y3035D02*
X4341Y3215D01*
X5062Y3696D02*
Y3763D01*
X4843Y3149D02*
X5213Y3519D01*
X5283Y3654D02*
Y3693D01*
X5282Y3653D02*
X5283Y3654D01*
X5307Y3664D02*
Y3667D01*
X5140Y3854D02*
X5149Y3845D01*
X5138Y3854D02*
X5140D01*
X5052Y3940D02*
X5138Y3854D01*
X5034Y3940D02*
X5052D01*
X4762Y4043D02*
X4931D01*
X5034Y3940*
X4654Y4151D02*
X4762Y4043D01*
X4752Y4151D02*
X4815Y4088D01*
X5036*
X5105Y4019*
Y3957D02*
Y4019D01*
Y3957D02*
X5179Y3883D01*
Y3738D02*
Y3883D01*
Y3738D02*
X5188Y3729D01*
X5247*
X5283Y3693*
X4555Y4151D02*
X4613Y4209D01*
X5134*
X4880Y3732D02*
Y3943D01*
X4913Y2584D02*
Y2634D01*
X4907Y2578D02*
X4913Y2584D01*
X4907Y2576D02*
Y2578D01*
X4597Y3823D02*
X4746Y3972D01*
X4929*
X4964Y3937*
X4555Y3663D02*
X4597Y3705D01*
Y3823*
X4555Y3659D02*
Y3663D01*
X4792Y4437D02*
X4793Y4437D01*
X5416Y2214D02*
Y2272D01*
X5403Y2201D02*
X5416Y2214D01*
X5403Y2197D02*
Y2201D01*
X5840Y2215D02*
Y2267D01*
X5826Y2201D02*
X5840Y2215D01*
X5826Y2197D02*
Y2201D01*
X6260Y2209D02*
Y2255D01*
X4913Y2634D02*
X4938D01*
X4073Y2409D02*
X4096D01*
X4231Y2749D02*
X4232Y2750D01*
X4006Y2371D02*
X4015Y2362D01*
G54D16*
X4468Y3366D03*
X4547D03*
X4801Y2662D03*
X4722D03*
X4556Y3563D03*
X4635D03*
X4555Y3659D03*
X4634D03*
X4554Y3760D03*
X4633D03*
X4059Y2722D03*
X4138D03*
X4555Y3472D03*
X4634D03*
X4597Y2830D03*
X4676D03*
X4417D03*
X4496D03*
G54D17*
X4232Y2750D03*
X4287D03*
X4966Y3878D03*
X5021D03*
X4966Y3799D03*
X5021D03*
G54D19*
X6055Y2243D03*
X6102D03*
X5195Y2255D03*
X5242D03*
X5634Y2243D03*
X5681D03*
G54D21*
X4487Y1983D03*
Y2038D03*
X4638Y2591D03*
Y2536D03*
X4477Y2203D03*
Y2258D03*
G54D31*
X4127Y2034D03*
Y1987D03*
G54D32*
X4130Y2270D03*
Y2191D03*
X5840Y2346D03*
Y2267D03*
X6260Y2334D03*
Y2255D03*
X4558Y3881D03*
Y3960D03*
X4650Y2409D03*
Y2330D03*
X5416Y2351D03*
Y2272D03*
G54D49*
X5139Y2100D03*
X5316D03*
X5139Y2356D03*
X5561Y2104D03*
X5738D03*
X5561Y2360D03*
X5982Y2102D03*
X6159D03*
X5982Y2358D03*
G54D50*
X5316Y2356D03*
X5738Y2360D03*
X6159Y2358D03*
G54D51*
X4457Y4151D03*
G54D52*
X4555Y4151D03*
X4654D03*
X4752D03*
X4850D03*
X4843Y3346D03*
Y3247D03*
Y3149D03*
Y3050D03*
X6070Y4238D03*
Y4140D03*
X6069Y3780D03*
Y3681D03*
G54D53*
X4394Y4229D03*
X4921Y3507D03*
G54D55*
X4843Y3444D03*
X6070Y4336D03*
X6069Y3878D03*
G54D56*
X4497Y2460D03*
X4676Y2159D03*
G54D57*
X4497Y2559D03*
X4676Y2061D03*
G54D60*
X4547Y3366D02*
Y3370D01*
X4555Y3379*
X4579*
X4625Y3425*
Y3463*
X4634Y3472*
X4547Y2830D02*
X4597D01*
X4496D02*
X4547D01*
X6159Y2358D02*
X6164Y2363D01*
X6226*
X6255Y2334D02*
X6260D01*
X6226Y2363D02*
X6255Y2334D01*
X6159Y2244D02*
Y2358D01*
Y2102D02*
Y2244D01*
X6102Y2243D02*
X6158D01*
X6159Y2244*
X6055Y2243D02*
Y2245D01*
X5988Y2312D02*
X6055Y2245D01*
X5988Y2312D02*
Y2352D01*
X5982Y2358D02*
X5988Y2352D01*
X5831Y2354D02*
X5840Y2346D01*
X5814Y2354D02*
X5831D01*
X5808Y2360D02*
X5814Y2354D01*
X5738Y2360D02*
X5808D01*
X5738Y2245D02*
Y2360D01*
Y2104D02*
Y2245D01*
X5681Y2243D02*
X5736D01*
X5738Y2245*
X5634Y2243D02*
Y2245D01*
X5566Y2312D02*
X5634Y2245D01*
X5566Y2312D02*
Y2354D01*
X5561Y2360D02*
X5566Y2354D01*
X5413Y2353D02*
X5416Y2351D01*
X5319Y2353D02*
X5413D01*
X5316Y2356D02*
X5319Y2353D01*
X5316Y2252D02*
Y2356D01*
Y2100D02*
Y2252D01*
X5242Y2255D02*
X5313D01*
X5316Y2252*
X5195Y2255D02*
Y2257D01*
X5145Y2307D02*
X5195Y2257D01*
X5145Y2307D02*
Y2350D01*
X5139Y2356D02*
X5145Y2350D01*
X4731Y2830D02*
X4733Y2832D01*
X4676Y2830D02*
X4731D01*
X5022Y3724D02*
Y3798D01*
Y3724D02*
X5023Y3724D01*
X4800Y2662D02*
Y2733D01*
X5021Y3799D02*
X5022Y3798D01*
X4634Y3659D02*
X4703D01*
X4704Y3660*
X4633Y3760D02*
X4633Y3759D01*
Y3659D02*
Y3759D01*
Y3659D02*
X4634Y3659D01*
X4634Y3563D02*
X4635Y3563D01*
X4634Y3563D02*
Y3658D01*
X4634Y3659D02*
X4634Y3658D01*
Y3472D02*
Y3562D01*
X4635Y3563*
X5021Y3799D02*
Y3878D01*
X4674Y2158D02*
X4676Y2159D01*
X4487Y2038D02*
X4492D01*
X4611Y2158*
X4674*
X4491Y2467D02*
X4497Y2460D01*
X4435Y2467D02*
X4491D01*
X4417Y2485D02*
Y2830D01*
Y2485D02*
X4435Y2467D01*
X4800Y2662D02*
X4801Y2662D01*
X4800Y2734D02*
X4800Y2733D01*
X4638Y2417D02*
Y2536D01*
Y2417D02*
X4646Y2409D01*
X4650*
X4538Y2591D02*
X4638D01*
X4506Y2559D02*
X4538Y2591D01*
X4497Y2559D02*
X4506D01*
X4646Y2412D02*
X4650Y2409D01*
X4497Y2333D02*
Y2460D01*
Y2274D02*
Y2333D01*
X4500Y2330D02*
X4650D01*
X4497Y2333D02*
X4500Y2330D01*
X4255Y2682D02*
Y2687D01*
X4238Y2703D02*
Y2741D01*
Y2703D02*
X4255Y2687D01*
X4231Y2749D02*
X4238Y2741D01*
X4287Y2745D02*
X4293Y2739D01*
X4324*
X4340Y2723*
X4346*
X4287Y2745D02*
Y2750D01*
X4015Y2560D02*
Y2566D01*
Y2559D02*
Y2560D01*
X4059Y2610D02*
Y2722D01*
X4015Y2566D02*
X4059Y2610D01*
X4477Y2202D02*
X4477Y2203D01*
X4477Y2144D02*
Y2202D01*
X4477Y2144D02*
X4477Y2144D01*
X4487Y1983D02*
X4487Y1983D01*
X4555*
X4556Y1983*
X4127Y1987D02*
Y1987D01*
X4075Y1987D02*
X4127D01*
X4075D02*
D01*
X4497Y2559D02*
X4502Y2563D01*
X4482Y2258D02*
X4497Y2274D01*
X3936Y2598D02*
X3977D01*
X3918D02*
X3936D01*
X3909D02*
X3918D01*
X3977D02*
X4015Y2560D01*
X3936Y2322D02*
X3979D01*
X3918D02*
X3936D01*
X3909D02*
X3918D01*
X4015Y2358D02*
Y2362D01*
X3979Y2322D02*
X4015Y2358D01*
X3909Y2322D02*
Y2421D01*
Y2500*
Y2598*
G54D61*
X4282Y2216D02*
Y2295D01*
X4303Y2316*
X4267Y2310D02*
X4282Y2295D01*
X4174Y2310D02*
X4267D01*
X4304Y2638D02*
X4342Y2676D01*
X4304Y2601D02*
Y2638D01*
X4342Y2676D02*
Y2719D01*
X4303Y2599D02*
X4304Y2601D01*
X4924Y3799D02*
X4966D01*
Y3878*
X4558Y3960D02*
X4613D01*
X4558Y3960D02*
X4558Y3960D01*
X4553Y3881D02*
X4558D01*
X4515Y3843D02*
X4553Y3881D01*
X4515Y3826D02*
Y3843D01*
X4514Y3826D02*
X4515Y3826D01*
X4493Y3516D02*
X4494D01*
X4520Y3490D02*
X4542D01*
X4513Y3498D02*
X4520Y3490D01*
X4494Y3516D02*
X4512Y3498D01*
X4513*
X4555Y3472D02*
Y3476D01*
X4542Y3490D02*
X4555Y3476D01*
X4506Y3563D02*
X4556D01*
X4490Y3578D02*
X4506Y3563D01*
X4547Y3667D02*
X4555Y3659D01*
X4496Y3667D02*
X4547D01*
X4495Y3668D02*
X4496Y3667D01*
X4551Y3756D02*
X4554Y3760D01*
X4498Y3756D02*
X4551D01*
X4498Y3756D02*
X4498Y3756D01*
X4465Y3368D02*
X4468Y3366D01*
X4465Y3368D02*
Y3443D01*
X4464Y3444D02*
X4465Y3443D01*
X4926Y2335D02*
X4926Y2335D01*
Y2407*
X4484Y2041D02*
X4487Y2038D01*
X4387Y2041D02*
X4484D01*
X4384Y2023D02*
Y2037D01*
X4387Y2041*
X4702Y2573D02*
X4715D01*
X4694Y2580D02*
X4702Y2573D01*
X4649Y2580D02*
X4694D01*
X4638Y2591D02*
X4649Y2580D01*
X4714Y2535D02*
X4715Y2535D01*
X4638Y2535D02*
X4714D01*
X4638Y2536D02*
X4638Y2535D01*
X4253Y2599D02*
X4254Y2600D01*
Y2681D02*
X4255Y2682D01*
X4254Y2600D02*
Y2681D01*
X4342Y2719D02*
X4346Y2723D01*
X4138Y2717D02*
Y2722D01*
Y2717D02*
X4193Y2662D01*
Y2661D02*
Y2662D01*
X4201Y2601D02*
X4203Y2599D01*
X4201Y2601D02*
Y2652D01*
X4193Y2661D02*
X4201Y2652D01*
X4303Y2316D02*
Y2404D01*
X4477Y2258D02*
X4482D01*
X4426D02*
X4477D01*
X4384Y2216D02*
Y2249D01*
X4387Y2253*
X4421*
X4426Y2258*
X4303Y2404D02*
X4441D01*
X4497Y2460*
X4334Y2023D02*
X4334Y2023D01*
Y2112*
X4335Y2113*
X4127Y2034D02*
X4230D01*
X4234Y2030*
Y2023D02*
Y2030D01*
X4130Y2191D02*
X4130Y2191D01*
X4234Y2194D02*
Y2216D01*
X4230Y2191D02*
X4234Y2194D01*
X4130Y2191D02*
X4230D01*
X4130Y2270D02*
X4134D01*
X4174Y2310*
X4714Y2572D02*
X4715Y2573D01*
X4058Y2599D02*
X4153D01*
G54D62*
X5693Y4437D03*
X5593D03*
X5493D03*
X5393D03*
X5193D03*
X5093D03*
X4893D03*
X4693D03*
X4593D03*
X4793D03*
X4993D03*
X5293D03*
X4361Y3035D03*
X4161D03*
X4261D03*
X4461D03*
X4561D03*
G54D63*
X4493Y4437D03*
X4061Y3035D03*
G54D64*
X4015Y2362D03*
Y2559D03*
G54D65*
X3976Y3732D03*
Y3464D03*
G54D66*
X6259Y4448D03*
X3897D03*
Y2007D03*
X6259D03*
G54D67*
X5408Y4222D03*
X5036Y4231D03*
X5015Y4270D03*
X4856Y4317D03*
X5818Y4126D03*
X5387Y3680D03*
X5695Y3557D03*
X5188Y3395D03*
X5426Y3490D03*
X5435Y3199D03*
X5220Y3150D03*
X5128Y3191D03*
X5469Y3858D03*
X5484Y3936D03*
X5456Y3936D03*
X5466Y3964D03*
X5274Y4036D03*
X5200Y4019D03*
X5254Y3668D03*
X4547Y2830D03*
X4701Y3151D03*
X4917Y3394D03*
X5077Y3506D03*
X5128Y3760D03*
X5189Y3592D03*
X5332Y3567D03*
X5062Y3763D03*
X5282Y3653D03*
X5311Y3608D03*
X5307Y3667D03*
X5329Y3679D03*
X5221Y3670D03*
X4964Y3937D03*
X5249Y3540D03*
X5337Y3233D03*
G54D68*
X5080Y4318D03*
X5494Y3317D03*
X5489Y3878D03*
X5701Y3856D03*
X5833Y3874D03*
X5493Y3371D03*
X4690Y3545D03*
X5118Y4134D03*
X5560Y3665D03*
X5142Y2466D03*
X4924Y3799D03*
X4429Y3898D03*
X4430Y3262D03*
X4880Y3943D03*
X4613Y3960D03*
X4514Y3826D03*
X4484Y3713D03*
X4490Y3626D03*
X4493Y3516D03*
X4490Y3578D03*
X4495Y3668D03*
X4498Y3756D03*
X4704Y3660D03*
X4464Y3444D03*
X5403Y2197D03*
X5826D03*
X6253Y2198D03*
X5580Y3966D03*
G54D69*
X5212Y3935D03*
X5255D03*
X5298D03*
X5342D03*
X5385D03*
X5212Y3891D03*
X5255D03*
X5298D03*
X5342D03*
X5385D03*
X5212Y3848D03*
X5255D03*
X5298D03*
X5342D03*
X5385D03*
X5212Y3805D03*
X5255D03*
X5298D03*
X5342D03*
X5385D03*
X5212Y3761D03*
X5255D03*
X5298D03*
X5342D03*
X5385D03*
X5276Y3322D03*
X5319D03*
Y3366D03*
X5276D03*
X4907Y2576D03*
G54D70*
X5091Y3599D03*
X4733Y2832D03*
X5372Y3609D03*
X5506Y3559D03*
X5023Y3724D03*
X4800Y2734D03*
X5534Y4062D03*
X4926Y2335D03*
X5043Y4001D03*
X4255Y2682D03*
X4346Y2723D03*
X4096Y2409D03*
X4477Y2144D03*
X4556Y1983D03*
X4335Y2113D03*
X4075Y1987D03*
G54D71*
X5286Y3035D03*
G54D75*
X3901Y2318D02*
D01*
D01*
G75*
G03X3881I-9J0D01*
G74*G01*
D01*
G75*
G03X3901I9J0D01*
G74*G01*
Y2602D02*
D01*
D01*
G75*
G03X3881I-9J0D01*
G74*G01*
D01*
G75*
G03X3901I9J0D01*
G74*G01*
X3937Y2318D02*
D01*
D01*
G75*
G03X3936Y2322I-9J0D01*
G74*G01*
D01*
D01*
G75*
G03X3918I-9J-3D01*
G74*G01*
D01*
D01*
G75*
G03X3937Y2318I9J-3D01*
G74*G01*
Y2602D02*
D01*
D01*
G75*
G03X3918Y2598I-9J0D01*
G74*G01*
D01*
D01*
G75*
G03X3936I9J3D01*
G74*G01*
D01*
D01*
G75*
G03X3937Y2602I-8J3D01*
G74*G01*
G54D76*
X3909Y2500D03*
Y2421D03*
G54D77*
X4015Y2511D03*
Y2486D03*
Y2460D03*
Y2435D03*
Y2409D03*
G54D78*
X4153Y2599D03*
X4203D03*
X4253D03*
X4303D03*
Y2404D03*
X4253D03*
X4203D03*
X4153D03*
G54D79*
X4228Y2502D03*
G54D80*
X4234Y2216D03*
X4284D03*
X4334D03*
X4384D03*
X4234Y2023D03*
X4284D03*
X4334D03*
X4384D03*
G54D81*
X4817Y2573D03*
Y2535D03*
Y2498D03*
X4715D03*
Y2573D03*
Y2535D03*
G54D82*
X4964Y2634D03*
X4938D03*
X4913D03*
X4887D03*
Y2407D03*
X4913D03*
X4938D03*
X4964D03*
G54D83*
X4852Y2576D02*
X4887Y2611D01*
X4764Y2546D02*
Y2598D01*
Y2546D02*
X4774Y2535D01*
X4817*
X4738Y2623D02*
X4764Y2598D01*
X4738Y2623D02*
Y2645D01*
X4820Y2576D02*
X4852D01*
X4887Y2611D02*
Y2634D01*
X4817Y2498D02*
X4854D01*
X4887Y2407D02*
Y2465D01*
X4854Y2498D02*
X4887Y2465D01*
X4964Y2407D02*
Y2634D01*
X4817Y2573D02*
X4820Y2576D01*
X4096Y2409D02*
X4148D01*
X4015D02*
X4073D01*
X4722Y2662D02*
X4738Y2645D01*
X4015Y2511D02*
Y2559D01*
X4148Y2409D02*
X4153Y2405D01*
Y2404D02*
Y2405D01*
M02*