%FSLAX23Y23*%
%MOIN*%
%SFA1B1*%

%IPPOS*%
%AMD63*
4,1,8,0.015700,0.031500,-0.015700,0.031500,-0.031500,0.015700,-0.031500,-0.015700,-0.015700,-0.031500,0.015700,-0.031500,0.031500,-0.015700,0.031500,0.015700,0.015700,0.031500,0.0*
1,1,0.031500,0.015700,0.015700*
1,1,0.031500,-0.015700,0.015700*
1,1,0.031500,-0.015700,-0.015700*
1,1,0.031500,0.015700,-0.015700*
%
%ADD49C,0.060630*%
%ADD50R,0.060630X0.060630*%
%ADD51R,0.055120X0.055120*%
%ADD52C,0.055120*%
%ADD53C,0.043310*%
%ADD55R,0.055120X0.055120*%
%ADD56R,0.061020X0.061020*%
%ADD57C,0.061020*%
%ADD62C,0.062990*%
G04~CAMADD=63~8~0.0~0.0~629.9~629.9~157.5~0.0~15~0.0~0.0~0.0~0.0~0~0.0~0.0~0.0~0.0~0~0.0~0.0~0.0~0.0~629.9~629.9*
%ADD63D63*%
%ADD64C,0.057090*%
%ADD65C,0.037400*%
%ADD66C,0.098430*%
%ADD67C,0.017720*%
%ADD68C,0.025000*%
%ADD69C,0.019680*%
%ADD70C,0.050000*%
%ADD71C,0.031500*%
%LNmtb_telemetry_system_pcb-1*%
%LPD*%
G36*
X6330Y1937D02*
X3826D01*
Y4523*
X6330*
Y1937*
G37*
%LNmtb_telemetry_system_pcb-2*%
%LPC*%
G36*
X5297Y4472D02*
X5295D01*
Y4439*
X5328*
Y4441*
X5326Y4450*
X5321Y4458*
X5314Y4465*
X5306Y4470*
X5297Y4472*
G37*
G36*
X5291D02*
X5288D01*
X5279Y4470*
X5271Y4465*
X5264Y4458*
X5259Y4450*
X5257Y4441*
Y4439*
X5291*
Y4472*
G37*
G36*
X5097D02*
X5095D01*
Y4439*
X5128*
Y4441*
X5126Y4450*
X5121Y4458*
X5114Y4465*
X5106Y4470*
X5097Y4472*
G37*
G36*
X5091D02*
X5088D01*
X5079Y4470*
X5071Y4465*
X5064Y4458*
X5059Y4450*
X5057Y4441*
Y4439*
X5091*
Y4472*
G37*
G36*
X5697D02*
X5688D01*
X5679Y4470*
X5671Y4465*
X5664Y4458*
X5659Y4450*
X5657Y4441*
Y4432*
X5659Y4423*
X5664Y4415*
X5671Y4408*
X5679Y4403*
X5688Y4401*
X5697*
X5706Y4403*
X5714Y4408*
X5721Y4415*
X5726Y4423*
X5728Y4432*
Y4441*
X5726Y4450*
X5721Y4458*
X5714Y4465*
X5706Y4470*
X5697Y4472*
G37*
G36*
X5597D02*
X5588D01*
X5579Y4470*
X5571Y4465*
X5564Y4458*
X5559Y4450*
X5557Y4441*
Y4432*
X5559Y4423*
X5564Y4415*
X5571Y4408*
X5579Y4403*
X5588Y4401*
X5597*
X5606Y4403*
X5614Y4408*
X5621Y4415*
X5626Y4423*
X5628Y4432*
Y4441*
X5626Y4450*
X5621Y4458*
X5614Y4465*
X5606Y4470*
X5597Y4472*
G37*
G36*
X5497D02*
X5488D01*
X5479Y4470*
X5471Y4465*
X5464Y4458*
X5459Y4450*
X5457Y4441*
Y4432*
X5459Y4423*
X5464Y4415*
X5471Y4408*
X5479Y4403*
X5488Y4401*
X5497*
X5506Y4403*
X5514Y4408*
X5521Y4415*
X5526Y4423*
X5528Y4432*
Y4441*
X5526Y4450*
X5521Y4458*
X5514Y4465*
X5506Y4470*
X5497Y4472*
G37*
G36*
X5397D02*
X5388D01*
X5379Y4470*
X5371Y4465*
X5364Y4458*
X5359Y4450*
X5357Y4441*
Y4432*
X5359Y4423*
X5364Y4415*
X5371Y4408*
X5379Y4403*
X5388Y4401*
X5397*
X5406Y4403*
X5414Y4408*
X5421Y4415*
X5426Y4423*
X5428Y4432*
Y4441*
X5426Y4450*
X5421Y4458*
X5414Y4465*
X5406Y4470*
X5397Y4472*
G37*
G36*
X5328Y4435D02*
X5295D01*
Y4401*
X5297*
X5306Y4403*
X5314Y4408*
X5321Y4415*
X5326Y4423*
X5328Y4432*
Y4435*
G37*
G36*
X5291D02*
X5257D01*
Y4432*
X5259Y4423*
X5264Y4415*
X5271Y4408*
X5279Y4403*
X5288Y4401*
X5291*
Y4435*
G37*
G36*
X5197Y4472D02*
X5188D01*
X5179Y4470*
X5171Y4465*
X5164Y4458*
X5159Y4450*
X5157Y4441*
Y4432*
X5159Y4423*
X5164Y4415*
X5171Y4408*
X5179Y4403*
X5188Y4401*
X5197*
X5206Y4403*
X5214Y4408*
X5221Y4415*
X5226Y4423*
X5228Y4432*
Y4441*
X5226Y4450*
X5221Y4458*
X5214Y4465*
X5206Y4470*
X5197Y4472*
G37*
G36*
X5128Y4435D02*
X5095D01*
Y4401*
X5097*
X5106Y4403*
X5114Y4408*
X5121Y4415*
X5126Y4423*
X5128Y4432*
Y4435*
G37*
G36*
X5091D02*
X5057D01*
Y4432*
X5059Y4423*
X5064Y4415*
X5071Y4408*
X5079Y4403*
X5088Y4401*
X5091*
Y4435*
G37*
G36*
X4997Y4472D02*
X4988D01*
X4979Y4470*
X4971Y4465*
X4964Y4458*
X4959Y4450*
X4957Y4441*
Y4432*
X4959Y4423*
X4964Y4415*
X4971Y4408*
X4979Y4403*
X4988Y4401*
X4997*
X5006Y4403*
X5014Y4408*
X5021Y4415*
X5026Y4423*
X5028Y4432*
Y4441*
X5026Y4450*
X5021Y4458*
X5014Y4465*
X5006Y4470*
X4997Y4472*
G37*
G36*
X4897D02*
X4888D01*
X4879Y4470*
X4871Y4465*
X4864Y4458*
X4859Y4450*
X4857Y4441*
Y4432*
X4859Y4423*
X4864Y4415*
X4871Y4408*
X4879Y4403*
X4888Y4401*
X4897*
X4906Y4403*
X4914Y4408*
X4921Y4415*
X4926Y4423*
X4928Y4432*
Y4441*
X4926Y4450*
X4921Y4458*
X4914Y4465*
X4906Y4470*
X4897Y4472*
G37*
G36*
X4797D02*
X4788D01*
X4779Y4470*
X4771Y4465*
X4764Y4458*
X4759Y4450*
X4757Y4441*
Y4432*
X4759Y4423*
X4764Y4415*
X4771Y4408*
X4779Y4403*
X4788Y4401*
X4797*
X4806Y4403*
X4814Y4408*
X4821Y4415*
X4826Y4423*
X4828Y4432*
Y4441*
X4826Y4450*
X4821Y4458*
X4814Y4465*
X4806Y4470*
X4797Y4472*
G37*
G36*
X4697D02*
X4688D01*
X4679Y4470*
X4671Y4465*
X4664Y4458*
X4659Y4450*
X4657Y4441*
Y4432*
X4659Y4423*
X4664Y4415*
X4671Y4408*
X4679Y4403*
X4688Y4401*
X4697*
X4706Y4403*
X4714Y4408*
X4721Y4415*
X4726Y4423*
X4728Y4432*
Y4441*
X4726Y4450*
X4721Y4458*
X4714Y4465*
X4706Y4470*
X4697Y4472*
G37*
G36*
X4597D02*
X4588D01*
X4579Y4470*
X4571Y4465*
X4564Y4458*
X4559Y4450*
X4557Y4441*
Y4432*
X4559Y4423*
X4564Y4415*
X4571Y4408*
X4579Y4403*
X4588Y4401*
X4597*
X4606Y4403*
X4614Y4408*
X4621Y4415*
X4626Y4423*
X4628Y4432*
Y4441*
X4626Y4450*
X4621Y4458*
X4614Y4465*
X4606Y4470*
X4597Y4472*
G37*
G36*
X4508Y4472D02*
X4477D01*
X4469Y4471*
X4463Y4466*
X4458Y4460*
X4457Y4452*
Y4421*
X4458Y4413*
X4463Y4407*
X4469Y4402*
X4477Y4401*
X4508*
X4516Y4402*
X4522Y4407*
X4527Y4413*
X4528Y4421*
Y4452*
X4527Y4460*
X4522Y4466*
X4516Y4471*
X4508Y4472*
G37*
G36*
X6101Y4368D02*
X6038D01*
Y4305*
X6101*
Y4368*
G37*
G36*
X4858Y4330D02*
X4853D01*
X4848Y4328*
X4844Y4324*
X4842Y4319*
Y4314*
X4844Y4309*
X4848Y4305*
X4853Y4303*
X4858*
X4863Y4305*
X4867Y4309*
X4869Y4314*
Y4319*
X4867Y4324*
X4863Y4328*
X4858Y4330*
G37*
G36*
X5083Y4336D02*
X5076D01*
X5069Y4333*
X5064Y4328*
X5061Y4321*
Y4314*
X5064Y4307*
X5069Y4302*
X5076Y4299*
X5083*
X5090Y4302*
X5095Y4307*
X5098Y4314*
Y4321*
X5095Y4328*
X5090Y4333*
X5083Y4336*
G37*
G36*
X5017Y4283D02*
X5012D01*
X5007Y4281*
X5003Y4277*
X5001Y4272*
Y4267*
X5003Y4262*
X5007Y4258*
X5012Y4256*
X5017*
X5022Y4258*
X5026Y4262*
X5028Y4267*
Y4272*
X5026Y4277*
X5022Y4281*
X5017Y4283*
G37*
G36*
X5038Y4244D02*
X5033D01*
X5028Y4242*
X5024Y4238*
X5022Y4233*
Y4228*
X5024Y4223*
X5028Y4219*
X5033Y4217*
X5038*
X5043Y4219*
X5047Y4223*
X5049Y4228*
Y4233*
X5047Y4238*
X5043Y4242*
X5038Y4244*
G37*
G36*
X5410Y4235D02*
X5405D01*
X5400Y4233*
X5396Y4229*
X5394Y4224*
Y4219*
X5396Y4214*
X5400Y4210*
X5405Y4208*
X5410*
X5415Y4210*
X5419Y4214*
X5421Y4219*
Y4224*
X5419Y4229*
X5415Y4233*
X5410Y4235*
G37*
G36*
X6074Y4269D02*
X6065D01*
X6057Y4267*
X6050Y4263*
X6044Y4257*
X6040Y4250*
X6038Y4242*
Y4234*
X6040Y4226*
X6044Y4219*
X6050Y4213*
X6057Y4209*
X6065Y4206*
X6074*
X6082Y4209*
X6089Y4213*
X6095Y4219*
X6099Y4226*
X6101Y4234*
Y4242*
X6099Y4250*
X6095Y4257*
X6089Y4263*
X6082Y4267*
X6074Y4269*
G37*
G36*
X4398Y4261D02*
X4390D01*
X4382Y4259*
X4374Y4254*
X4368Y4249*
X4364Y4241*
X4362Y4233*
Y4225*
X4364Y4217*
X4368Y4210*
X4374Y4204*
X4382Y4200*
X4390Y4198*
X4398*
X4406Y4200*
X4413Y4204*
X4419Y4210*
X4423Y4217*
X4425Y4225*
Y4233*
X4423Y4241*
X4419Y4249*
X4413Y4254*
X4406Y4259*
X4398Y4261*
G37*
G36*
X4855Y4182D02*
X4852D01*
Y4153*
X4882*
Y4155*
X4880Y4163*
X4876Y4170*
X4870Y4176*
X4863Y4180*
X4855Y4182*
G37*
G36*
X4848D02*
X4846D01*
X4838Y4180*
X4831Y4176*
X4825Y4170*
X4821Y4163*
X4819Y4155*
Y4153*
X4848*
Y4182*
G37*
G36*
X6074Y4171D02*
X6072D01*
Y4142*
X6101*
Y4144*
X6099Y4152*
X6095Y4159*
X6089Y4165*
X6082Y4169*
X6074Y4171*
G37*
G36*
X6068D02*
X6065D01*
X6057Y4169*
X6050Y4165*
X6044Y4159*
X6040Y4152*
X6038Y4144*
Y4142*
X6068*
Y4171*
G37*
G36*
X4882Y4149D02*
X4852D01*
Y4119*
X4855*
X4863Y4121*
X4870Y4125*
X4876Y4131*
X4880Y4138*
X4882Y4146*
Y4149*
G37*
G36*
X4848D02*
X4819D01*
Y4146*
X4821Y4138*
X4825Y4131*
X4831Y4125*
X4838Y4121*
X4846Y4119*
X4848*
Y4149*
G37*
G36*
X4756Y4182D02*
X4748D01*
X4740Y4180*
X4733Y4176*
X4727Y4170*
X4723Y4163*
X4720Y4155*
Y4146*
X4723Y4138*
X4727Y4131*
X4733Y4125*
X4740Y4121*
X4748Y4119*
X4756*
X4764Y4121*
X4771Y4125*
X4777Y4131*
X4781Y4138*
X4783Y4146*
Y4155*
X4781Y4163*
X4777Y4170*
X4771Y4176*
X4764Y4180*
X4756Y4182*
G37*
G36*
X4658D02*
X4649D01*
X4641Y4180*
X4634Y4176*
X4628Y4170*
X4624Y4163*
X4622Y4155*
Y4146*
X4624Y4138*
X4628Y4131*
X4634Y4125*
X4641Y4121*
X4649Y4119*
X4658*
X4666Y4121*
X4673Y4125*
X4679Y4131*
X4683Y4138*
X4685Y4146*
Y4155*
X4683Y4163*
X4679Y4170*
X4673Y4176*
X4666Y4180*
X4658Y4182*
G37*
G36*
X4559D02*
X4551D01*
X4543Y4180*
X4536Y4176*
X4530Y4170*
X4526Y4163*
X4524Y4155*
Y4146*
X4526Y4138*
X4530Y4131*
X4536Y4125*
X4543Y4121*
X4551Y4119*
X4559*
X4567Y4121*
X4574Y4125*
X4580Y4131*
X4584Y4138*
X4587Y4146*
Y4155*
X4584Y4163*
X4580Y4170*
X4574Y4176*
X4567Y4180*
X4559Y4182*
G37*
G36*
X4488D02*
X4425D01*
Y4119*
X4488*
Y4182*
G37*
G36*
X6101Y4138D02*
X6072D01*
Y4108*
X6074*
X6082Y4110*
X6089Y4114*
X6095Y4120*
X6099Y4127*
X6101Y4135*
Y4138*
G37*
G36*
X6068D02*
X6038D01*
Y4135*
X6040Y4127*
X6044Y4120*
X6050Y4114*
X6057Y4110*
X6065Y4108*
X6068*
Y4138*
G37*
G36*
X5276Y4049D02*
X5271D01*
X5266Y4047*
X5262Y4043*
X5260Y4038*
Y4033*
X5262Y4028*
X5266Y4024*
X5271Y4022*
X5276*
X5281Y4024*
X5285Y4028*
X5287Y4033*
Y4038*
X5285Y4043*
X5281Y4047*
X5276Y4049*
G37*
G36*
X5046Y4031D02*
X5039D01*
X5031Y4028*
X5024Y4025*
X5018Y4019*
X5015Y4012*
X5013Y4004*
Y3997*
X5015Y3989*
X5018Y3982*
X5024Y3976*
X5031Y3973*
X5039Y3971*
X5046*
X5054Y3973*
X5061Y3976*
X5067Y3982*
X5070Y3989*
X5073Y3997*
Y4004*
X5070Y4012*
X5067Y4019*
X5061Y4025*
X5054Y4028*
X5046Y4031*
G37*
G36*
X5583Y3983D02*
X5576D01*
X5570Y3980*
X5565Y3975*
X5562Y3969*
Y3962*
X5565Y3956*
X5570Y3951*
X5576Y3948*
X5583*
X5589Y3951*
X5594Y3956*
X5597Y3962*
Y3969*
X5594Y3975*
X5589Y3980*
X5583Y3983*
G37*
G36*
X4616Y3977D02*
X4609D01*
X4603Y3974*
X4598Y3969*
X4595Y3963*
Y3956*
X4598Y3950*
X4603Y3945*
X4609Y3942*
X4616*
X4622Y3945*
X4627Y3950*
X4630Y3956*
Y3963*
X4627Y3969*
X4622Y3974*
X4616Y3977*
G37*
G36*
X4883Y3960D02*
X4876D01*
X4870Y3957*
X4865Y3952*
X4862Y3946*
Y3939*
X4865Y3933*
X4870Y3928*
X4876Y3925*
X4883*
X4889Y3928*
X4894Y3933*
X4897Y3939*
Y3946*
X4894Y3952*
X4889Y3957*
X4883Y3960*
G37*
G36*
X4966Y3951D02*
X4961D01*
X4956Y3949*
X4952Y3945*
X4950Y3940*
Y3935*
X4952Y3930*
X4956Y3926*
X4961Y3924*
X4966*
X4971Y3926*
X4975Y3930*
X4977Y3935*
Y3940*
X4975Y3945*
X4971Y3949*
X4966Y3951*
G37*
G36*
X5468Y3977D02*
X5463D01*
X5458Y3975*
X5454Y3971*
X5452Y3966*
Y3961*
X5454Y3956*
X5455Y3955*
X5453Y3950*
X5448Y3948*
X5444Y3944*
X5442Y3939*
Y3933*
X5444Y3928*
X5448Y3924*
X5453Y3922*
X5458*
X5463Y3924*
X5467Y3927*
X5470Y3928*
X5472Y3927*
X5476Y3924*
X5481Y3922*
X5486*
X5491Y3924*
X5495Y3928*
X5497Y3933*
Y3938*
X5495Y3943*
X5491Y3947*
X5486Y3949*
X5481*
X5476Y3947*
X5475Y3947*
X5471Y3947*
X5472Y3951*
X5473Y3952*
X5477Y3956*
X5479Y3961*
Y3966*
X5477Y3971*
X5473Y3975*
X5468Y3977*
G37*
G36*
X6100Y3909D02*
X6037D01*
Y3846*
X6100*
Y3909*
G37*
G36*
X5471Y3871D02*
X5466D01*
X5461Y3869*
X5457Y3865*
X5455Y3860*
Y3855*
X5457Y3850*
X5461Y3846*
X5466Y3844*
X5471*
X5476Y3846*
X5480Y3850*
X5482Y3855*
Y3860*
X5480Y3865*
X5476Y3869*
X5471Y3871*
G37*
G36*
X4517Y3843D02*
X4510D01*
X4504Y3840*
X4499Y3835*
X4496Y3829*
Y3822*
X4499Y3816*
X4504Y3811*
X4510Y3808*
X4517*
X4524Y3811*
X4529Y3816*
X4531Y3822*
Y3829*
X4529Y3835*
X4524Y3840*
X4517Y3843*
G37*
G36*
X5064Y3776D02*
X5059D01*
X5054Y3774*
X5050Y3770*
X5048Y3765*
Y3760*
X5050Y3755*
X5054Y3751*
X5059Y3749*
X5064*
X5069Y3751*
X5073Y3755*
X5075Y3760*
Y3765*
X5073Y3770*
X5069Y3774*
X5064Y3776*
G37*
G36*
X6073Y3811D02*
X6065D01*
X6057Y3809*
X6049Y3805*
X6044Y3799*
X6039Y3792*
X6037Y3784*
Y3775*
X6039Y3767*
X6044Y3760*
X6049Y3754*
X6057Y3750*
X6065Y3748*
X6073*
X6081Y3750*
X6088Y3754*
X6094Y3760*
X6098Y3767*
X6100Y3775*
Y3784*
X6098Y3792*
X6094Y3799*
X6088Y3805*
X6081Y3809*
X6073Y3811*
G37*
G36*
X4501Y3773D02*
X4494D01*
X4488Y3770*
X4483Y3765*
X4480Y3759*
Y3752*
X4483Y3746*
X4488Y3741*
X4494Y3738*
X4501*
X4507Y3741*
X4512Y3746*
X4515Y3752*
Y3759*
X4512Y3765*
X4507Y3770*
X4501Y3773*
G37*
G36*
X3980Y3760D02*
X3972D01*
X3965Y3758*
X3958Y3755*
X3953Y3749*
X3949Y3743*
X3947Y3736*
Y3728*
X3949Y3721*
X3953Y3714*
X3958Y3709*
X3965Y3705*
X3972Y3703*
X3980*
X3987Y3705*
X3993Y3709*
X3999Y3714*
X4002Y3721*
X4004Y3728*
Y3736*
X4002Y3743*
X3999Y3749*
X3993Y3755*
X3987Y3758*
X3980Y3760*
G37*
G36*
X5026Y3754D02*
X5019D01*
X5011Y3751*
X5004Y3748*
X4998Y3742*
X4995Y3735*
X4993Y3727*
Y3720*
X4995Y3712*
X4998Y3705*
X5004Y3699*
X5011Y3696*
X5019Y3694*
X5026*
X5034Y3696*
X5041Y3699*
X5047Y3705*
X5050Y3712*
X5053Y3720*
Y3727*
X5050Y3735*
X5047Y3742*
X5041Y3748*
X5034Y3751*
X5026Y3754*
G37*
G36*
X6073Y3713D02*
X6071D01*
Y3683*
X6100*
Y3685*
X6098Y3693*
X6094Y3700*
X6088Y3706*
X6081Y3710*
X6073Y3713*
G37*
G36*
X6067D02*
X6065D01*
X6057Y3710*
X6049Y3706*
X6044Y3700*
X6039Y3693*
X6037Y3685*
Y3683*
X6067*
Y3713*
G37*
G36*
X5332Y3693D02*
X5326D01*
X5321Y3691*
X5317Y3687*
X5315Y3682*
X5310Y3680*
X5309Y3680*
X5304*
X5299Y3678*
X5295Y3674*
X5293Y3669*
Y3668*
X5292Y3667*
X5288Y3665*
X5284Y3666*
X5279*
X5274Y3664*
X5272Y3662*
X5268Y3664*
X5267Y3665*
Y3670*
X5265Y3675*
X5261Y3679*
X5256Y3681*
X5251*
X5246Y3679*
X5242Y3675*
X5240Y3670*
Y3665*
X5242Y3660*
X5246Y3656*
X5251Y3654*
X5256*
X5261Y3656*
X5263Y3658*
X5267Y3656*
X5268Y3655*
Y3650*
X5270Y3645*
X5274Y3641*
X5279Y3639*
X5284*
X5289Y3641*
X5293Y3645*
X5295Y3650*
Y3651*
X5296Y3652*
X5300Y3654*
X5304Y3653*
X5309*
X5314Y3655*
X5318Y3659*
X5320Y3664*
X5325Y3666*
X5326Y3665*
X5332*
X5337Y3667*
X5341Y3671*
X5343Y3676*
Y3682*
X5341Y3687*
X5337Y3691*
X5332Y3693*
G37*
G36*
X5223Y3683D02*
X5218D01*
X5213Y3681*
X5209Y3677*
X5207Y3672*
Y3667*
X5209Y3662*
X5213Y3658*
X5218Y3656*
X5223*
X5228Y3658*
X5232Y3662*
X5234Y3667*
Y3672*
X5232Y3677*
X5228Y3681*
X5223Y3683*
G37*
G36*
X4498Y3685D02*
X4491D01*
X4485Y3683*
X4480Y3678*
X4477Y3671*
Y3664*
X4480Y3658*
X4485Y3653*
X4491Y3650*
X4498*
X4505Y3653*
X4510Y3658*
X4512Y3664*
Y3671*
X4510Y3678*
X4505Y3683*
X4498Y3685*
G37*
G36*
X6100Y3679D02*
X6071D01*
Y3650*
X6073*
X6081Y3652*
X6088Y3656*
X6094Y3662*
X6098Y3669*
X6100Y3677*
Y3679*
G37*
G36*
X6067D02*
X6037D01*
Y3677*
X6039Y3669*
X6044Y3662*
X6049Y3656*
X6057Y3652*
X6065Y3650*
X6067*
Y3679*
G37*
G36*
X5563Y3682D02*
X5556D01*
X5550Y3679*
X5545Y3674*
X5542Y3668*
Y3661*
X5545Y3655*
X5550Y3650*
X5556Y3647*
X5563*
X5569Y3650*
X5574Y3655*
X5577Y3661*
Y3668*
X5574Y3674*
X5569Y3679*
X5563Y3682*
G37*
G36*
X4707Y3677D02*
X4700D01*
X4694Y3674*
X4689Y3669*
X4686Y3663*
Y3656*
X4689Y3650*
X4694Y3645*
X4700Y3642*
X4707*
X4713Y3645*
X4718Y3650*
X4721Y3656*
Y3663*
X4718Y3669*
X4713Y3674*
X4707Y3677*
G37*
G36*
X4493Y3643D02*
X4486D01*
X4480Y3640*
X4475Y3635*
X4472Y3629*
Y3622*
X4475Y3616*
X4480Y3611*
X4486Y3608*
X4493*
X4499Y3611*
X4504Y3616*
X4507Y3622*
Y3629*
X4504Y3635*
X4499Y3640*
X4493Y3643*
G37*
G36*
X5314Y3622D02*
X5308D01*
X5303Y3620*
X5299Y3616*
X5297Y3611*
Y3605*
X5299Y3600*
X5303Y3596*
X5308Y3594*
X5314*
X5319Y3596*
X5323Y3600*
X5325Y3605*
Y3611*
X5323Y3616*
X5319Y3620*
X5314Y3622*
G37*
G36*
X5376Y3639D02*
X5368D01*
X5361Y3636*
X5354Y3633*
X5348Y3627*
X5344Y3620*
X5342Y3612*
Y3605*
X5344Y3597*
X5348Y3590*
X5354Y3585*
X5361Y3581*
X5368Y3579*
X5376*
X5384Y3581*
X5391Y3585*
X5396Y3590*
X5400Y3597*
X5402Y3605*
Y3612*
X5400Y3620*
X5396Y3627*
X5391Y3633*
X5384Y3636*
X5376Y3639*
G37*
G36*
X5191Y3605D02*
X5186D01*
X5181Y3603*
X5177Y3599*
X5175Y3594*
Y3589*
X5177Y3584*
X5181Y3580*
X5186Y3578*
X5191*
X5196Y3580*
X5200Y3584*
X5202Y3589*
Y3594*
X5200Y3599*
X5196Y3603*
X5191Y3605*
G37*
G36*
X4493Y3596D02*
X4486D01*
X4480Y3593*
X4475Y3588*
X4472Y3582*
Y3575*
X4475Y3569*
X4480Y3564*
X4486Y3561*
X4493*
X4500Y3564*
X4505Y3569*
X4507Y3575*
Y3582*
X4505Y3588*
X4500Y3593*
X4493Y3596*
G37*
G36*
X5334Y3580D02*
X5329D01*
X5324Y3578*
X5320Y3574*
X5318Y3569*
Y3564*
X5320Y3559*
X5324Y3555*
X5329Y3553*
X5334*
X5339Y3555*
X5343Y3559*
X5345Y3564*
Y3569*
X5343Y3574*
X5339Y3578*
X5334Y3580*
G37*
G36*
X4693Y3562D02*
X4686D01*
X4680Y3559*
X4675Y3554*
X4672Y3548*
Y3541*
X4675Y3535*
X4680Y3530*
X4686Y3527*
X4693*
X4699Y3530*
X4704Y3535*
X4707Y3541*
Y3548*
X4704Y3554*
X4699Y3559*
X4693Y3562*
G37*
G36*
X5251Y3553D02*
X5246D01*
X5241Y3551*
X5237Y3547*
X5235Y3542*
Y3537*
X5237Y3532*
X5241Y3528*
X5246Y3526*
X5251*
X5256Y3528*
X5260Y3532*
X5262Y3537*
Y3542*
X5260Y3547*
X5256Y3551*
X5251Y3553*
G37*
G36*
X4496Y3533D02*
X4489D01*
X4483Y3530*
X4478Y3525*
X4475Y3519*
Y3512*
X4478Y3506*
X4483Y3501*
X4489Y3498*
X4496*
X4502Y3501*
X4507Y3506*
X4510Y3512*
Y3519*
X4507Y3525*
X4502Y3530*
X4496Y3533*
G37*
G36*
X5079Y3519D02*
X5074D01*
X5069Y3517*
X5065Y3513*
X5063Y3508*
Y3503*
X5065Y3498*
X5069Y3494*
X5074Y3492*
X5079*
X5084Y3494*
X5088Y3498*
X5090Y3503*
Y3508*
X5088Y3513*
X5084Y3517*
X5079Y3519*
G37*
G36*
X4925Y3538D02*
X4917D01*
X4909Y3536*
X4902Y3532*
X4896Y3526*
X4892Y3519*
X4890Y3511*
Y3503*
X4892Y3495*
X4896Y3488*
X4902Y3482*
X4909Y3478*
X4917Y3475*
X4925*
X4933Y3478*
X4941Y3482*
X4946Y3488*
X4951Y3495*
X4953Y3503*
Y3511*
X4951Y3519*
X4946Y3526*
X4941Y3532*
X4933Y3536*
X4925Y3538*
G37*
G36*
X4288Y3880D02*
X4128D01*
X4125Y3879*
X4124Y3875*
Y3474*
X4125Y3471*
X4128Y3470*
X4288*
X4291Y3471*
X4292Y3474*
Y3875*
X4291Y3879*
X4288Y3880*
G37*
G36*
X3980Y3493D02*
X3972D01*
X3965Y3491*
X3958Y3487*
X3953Y3482*
X3949Y3475*
X3947Y3468*
Y3460*
X3949Y3453*
X3953Y3447*
X3958Y3441*
X3965Y3437*
X3972Y3436*
X3980*
X3987Y3437*
X3993Y3441*
X3999Y3447*
X4002Y3453*
X4004Y3460*
Y3468*
X4002Y3475*
X3999Y3482*
X3993Y3487*
X3987Y3491*
X3980Y3493*
G37*
G36*
X4468Y3461D02*
X4461D01*
X4454Y3458*
X4449Y3454*
X4447Y3447*
Y3440*
X4449Y3434*
X4454Y3429*
X4461Y3426*
X4468*
X4474Y3429*
X4479Y3434*
X4482Y3440*
Y3447*
X4479Y3454*
X4474Y3458*
X4468Y3461*
G37*
G36*
X4874Y3475D02*
X4811D01*
Y3412*
X4874*
Y3475*
G37*
G36*
X4919Y3407D02*
X4914D01*
X4909Y3405*
X4905Y3401*
X4903Y3396*
Y3391*
X4905Y3386*
X4909Y3382*
X4914Y3380*
X4919*
X4924Y3382*
X4928Y3386*
X4930Y3391*
Y3396*
X4928Y3401*
X4924Y3405*
X4919Y3407*
G37*
G36*
X4847Y3377D02*
X4838D01*
X4830Y3375*
X4823Y3371*
X4817Y3365*
X4813Y3358*
X4811Y3350*
Y3341*
X4813Y3333*
X4817Y3326*
X4823Y3320*
X4830Y3316*
X4838Y3314*
X4847*
X4855Y3316*
X4862Y3320*
X4868Y3326*
X4872Y3333*
X4874Y3341*
Y3350*
X4872Y3358*
X4868Y3365*
X4862Y3371*
X4855Y3375*
X4847Y3377*
G37*
G36*
X5497Y3334D02*
X5490D01*
X5484Y3331*
X5479Y3326*
X5476Y3320*
Y3313*
X5479Y3307*
X5484Y3302*
X5490Y3299*
X5497*
X5503Y3302*
X5508Y3307*
X5511Y3313*
Y3320*
X5508Y3326*
X5503Y3331*
X5497Y3334*
G37*
G36*
X4847Y3279D02*
X4838D01*
X4830Y3276*
X4823Y3272*
X4817Y3266*
X4813Y3259*
X4811Y3251*
Y3243*
X4813Y3235*
X4817Y3228*
X4823Y3222*
X4830Y3218*
X4838Y3216*
X4847*
X4855Y3218*
X4862Y3222*
X4868Y3228*
X4872Y3235*
X4874Y3243*
Y3251*
X4872Y3259*
X4868Y3266*
X4862Y3272*
X4855Y3276*
X4847Y3279*
G37*
G36*
X4703Y3164D02*
X4698D01*
X4693Y3162*
X4689Y3158*
X4687Y3153*
Y3148*
X4689Y3143*
X4693Y3139*
X4698Y3137*
X4703*
X4708Y3139*
X4712Y3143*
X4714Y3148*
Y3153*
X4712Y3158*
X4708Y3162*
X4703Y3164*
G37*
G36*
X5222Y3163D02*
X5217D01*
X5212Y3161*
X5208Y3157*
X5206Y3152*
Y3147*
X5208Y3142*
X5212Y3138*
X5217Y3136*
X5222*
X5227Y3138*
X5231Y3142*
X5233Y3147*
Y3152*
X5231Y3157*
X5227Y3161*
X5222Y3163*
G37*
G36*
X4847Y3180D02*
X4838D01*
X4830Y3178*
X4823Y3174*
X4817Y3168*
X4813Y3161*
X4811Y3153*
Y3144*
X4813Y3136*
X4817Y3129*
X4823Y3123*
X4830Y3119*
X4838Y3117*
X4847*
X4855Y3119*
X4862Y3123*
X4868Y3129*
X4872Y3136*
X4874Y3144*
Y3153*
X4872Y3161*
X4868Y3168*
X4862Y3174*
X4855Y3178*
X4847Y3180*
G37*
G36*
Y3082D02*
X4845D01*
Y3052*
X4874*
Y3054*
X4872Y3062*
X4868Y3070*
X4862Y3075*
X4855Y3080*
X4847Y3082*
G37*
G36*
X4841D02*
X4838D01*
X4830Y3080*
X4823Y3075*
X4817Y3070*
X4813Y3062*
X4811Y3054*
Y3052*
X4841*
Y3082*
G37*
G36*
X4565Y3070D02*
X4563D01*
Y3037*
X4596*
Y3039*
X4594Y3048*
X4589Y3056*
X4582Y3063*
X4574Y3068*
X4565Y3070*
G37*
G36*
X4559D02*
X4556D01*
X4547Y3068*
X4539Y3063*
X4532Y3056*
X4527Y3048*
X4525Y3039*
Y3037*
X4559*
Y3070*
G37*
G36*
X4874Y3048D02*
X4845D01*
Y3019*
X4847*
X4855Y3021*
X4862Y3025*
X4868Y3031*
X4872Y3038*
X4874Y3046*
Y3048*
G37*
G36*
X4841D02*
X4811D01*
Y3046*
X4813Y3038*
X4817Y3031*
X4823Y3025*
X4830Y3021*
X4838Y3019*
X4841*
Y3048*
G37*
G36*
X4596Y3033D02*
X4563D01*
Y2999*
X4565*
X4574Y3001*
X4582Y3006*
X4589Y3013*
X4594Y3021*
X4596Y3030*
Y3033*
G37*
G36*
X4559D02*
X4525D01*
Y3030*
X4527Y3021*
X4532Y3013*
X4539Y3006*
X4547Y3001*
X4556Y2999*
X4559*
Y3033*
G37*
G36*
X4465Y3070D02*
X4456D01*
X4447Y3068*
X4439Y3063*
X4432Y3056*
X4427Y3048*
X4425Y3039*
Y3030*
X4427Y3021*
X4432Y3013*
X4439Y3006*
X4447Y3001*
X4456Y2999*
X4465*
X4474Y3001*
X4482Y3006*
X4489Y3013*
X4494Y3021*
X4496Y3030*
Y3039*
X4494Y3048*
X4489Y3056*
X4482Y3063*
X4474Y3068*
X4465Y3070*
G37*
G36*
X4365D02*
X4356D01*
X4347Y3068*
X4339Y3063*
X4332Y3056*
X4327Y3048*
X4325Y3039*
Y3030*
X4327Y3021*
X4332Y3013*
X4339Y3006*
X4347Y3001*
X4356Y2999*
X4365*
X4374Y3001*
X4382Y3006*
X4389Y3013*
X4394Y3021*
X4396Y3030*
Y3039*
X4394Y3048*
X4389Y3056*
X4382Y3063*
X4374Y3068*
X4365Y3070*
G37*
G36*
X4265D02*
X4256D01*
X4247Y3068*
X4239Y3063*
X4232Y3056*
X4227Y3048*
X4225Y3039*
Y3030*
X4227Y3021*
X4232Y3013*
X4239Y3006*
X4247Y3001*
X4256Y2999*
X4265*
X4274Y3001*
X4282Y3006*
X4289Y3013*
X4294Y3021*
X4296Y3030*
Y3039*
X4294Y3048*
X4289Y3056*
X4282Y3063*
X4274Y3068*
X4265Y3070*
G37*
G36*
X4165D02*
X4156D01*
X4147Y3068*
X4139Y3063*
X4132Y3056*
X4127Y3048*
X4125Y3039*
Y3030*
X4127Y3021*
X4132Y3013*
X4139Y3006*
X4147Y3001*
X4156Y2999*
X4165*
X4174Y3001*
X4182Y3006*
X4189Y3013*
X4194Y3021*
X4196Y3030*
Y3039*
X4194Y3048*
X4189Y3056*
X4182Y3063*
X4174Y3068*
X4165Y3070*
G37*
G36*
X4076Y3070D02*
X4045D01*
X4037Y3069*
X4031Y3064*
X4026Y3058*
X4025Y3050*
Y3019*
X4026Y3011*
X4031Y3005*
X4037Y3000*
X4045Y2999*
X4076*
X4084Y3000*
X4090Y3005*
X4095Y3011*
X4096Y3019*
Y3050*
X4095Y3058*
X4090Y3064*
X4084Y3069*
X4076Y3070*
G37*
G36*
X4549Y2844D02*
X4544D01*
X4539Y2842*
X4535Y2838*
X4533Y2833*
Y2827*
X4535Y2822*
X4539Y2818*
X4544Y2816*
X4549*
X4555Y2818*
X4558Y2822*
X4561Y2827*
Y2833*
X4558Y2838*
X4555Y2842*
X4549Y2844*
G37*
G36*
X4349Y2753D02*
X4342D01*
X4334Y2750*
X4327Y2747*
X4321Y2741*
X4318Y2734*
X4316Y2726*
Y2719*
X4318Y2711*
X4321Y2704*
X4327Y2698*
X4334Y2695*
X4342Y2693*
X4349*
X4357Y2695*
X4364Y2698*
X4370Y2704*
X4373Y2711*
X4376Y2719*
Y2726*
X4373Y2734*
X4370Y2741*
X4364Y2747*
X4357Y2750*
X4349Y2753*
G37*
G36*
X3923Y2614D02*
X3911D01*
Y2600*
X3938*
X3938Y2604*
X3934Y2609*
X3929Y2613*
X3923Y2614*
G37*
G36*
X3907D02*
X3895D01*
X3889Y2613*
X3884Y2609*
X3880Y2604*
X3879Y2600*
X3907*
Y2614*
G37*
G36*
X3938Y2596D02*
X3911D01*
Y2582*
X3923*
X3929Y2583*
X3934Y2587*
X3938Y2592*
X3938Y2596*
G37*
G36*
X3907D02*
X3879D01*
X3880Y2592*
X3884Y2587*
X3889Y2583*
X3895Y2582*
X3907*
Y2596*
G37*
G36*
X4020Y2591D02*
X4017D01*
Y2561*
X4048*
Y2563*
X4046Y2571*
X4041Y2579*
X4035Y2585*
X4028Y2589*
X4020Y2591*
G37*
G36*
X4013D02*
X4011D01*
X4003Y2589*
X3995Y2585*
X3989Y2579*
X3985Y2571*
X3983Y2563*
Y2561*
X4013*
Y2591*
G37*
G36*
X4910Y2591D02*
X4903D01*
X4898Y2589*
X4893Y2584*
X4891Y2579*
Y2572*
X4893Y2567*
X4898Y2562*
X4903Y2560*
X4910*
X4915Y2562*
X4920Y2567*
X4922Y2572*
Y2579*
X4920Y2584*
X4915Y2589*
X4910Y2591*
G37*
G36*
X4048Y2557D02*
X4017D01*
Y2526*
X4020*
X4028Y2528*
X4035Y2533*
X4041Y2539*
X4046Y2546*
X4048Y2554*
Y2557*
G37*
G36*
X4013D02*
X3983D01*
Y2554*
X3985Y2546*
X3989Y2539*
X3995Y2533*
X4003Y2528*
X4011Y2526*
X4013*
Y2557*
G37*
G36*
X4502Y2593D02*
X4493D01*
X4484Y2591*
X4476Y2586*
X4470Y2580*
X4465Y2572*
X4463Y2563*
Y2554*
X4465Y2545*
X4470Y2537*
X4476Y2531*
X4484Y2526*
X4493Y2524*
X4502*
X4511Y2526*
X4519Y2531*
X4525Y2537*
X4530Y2545*
X4532Y2554*
Y2563*
X4530Y2572*
X4525Y2580*
X4519Y2586*
X4511Y2591*
X4502Y2593*
G37*
G36*
X5145Y2483D02*
X5138D01*
X5132Y2480*
X5127Y2475*
X5124Y2469*
Y2462*
X5127Y2456*
X5132Y2451*
X5138Y2448*
X5145*
X5151Y2451*
X5156Y2456*
X5159Y2462*
Y2469*
X5156Y2475*
X5151Y2480*
X5145Y2483*
G37*
G36*
X4532Y2495D02*
X4463D01*
Y2426*
X4532*
Y2495*
G37*
G36*
X4099Y2439D02*
X4092D01*
X4084Y2437*
X4077Y2433*
X4071Y2427*
X4068Y2421*
X4066Y2413*
Y2405*
X4068Y2397*
X4071Y2391*
X4077Y2385*
X4084Y2381*
X4092Y2379*
X4099*
X4107Y2381*
X4114Y2385*
X4120Y2391*
X4123Y2397*
X4126Y2405*
Y2413*
X4123Y2421*
X4120Y2427*
X4114Y2433*
X4107Y2437*
X4099Y2439*
G37*
G36*
X4020Y2394D02*
X4017D01*
Y2364*
X4048*
Y2366*
X4046Y2374*
X4041Y2382*
X4035Y2388*
X4028Y2392*
X4020Y2394*
G37*
G36*
X4013D02*
X4011D01*
X4003Y2392*
X3995Y2388*
X3989Y2382*
X3985Y2374*
X3983Y2366*
Y2364*
X4013*
Y2394*
G37*
G36*
X5565Y2394D02*
X5563D01*
Y2362*
X5595*
Y2364*
X5593Y2373*
X5588Y2381*
X5582Y2387*
X5574Y2392*
X5565Y2394*
G37*
G36*
X5559D02*
X5556D01*
X5547Y2392*
X5539Y2387*
X5533Y2381*
X5529Y2373*
X5526Y2364*
Y2362*
X5559*
Y2394*
G37*
G36*
X5986Y2392D02*
X5984D01*
Y2360*
X6016*
Y2362*
X6014Y2371*
X6009Y2379*
X6003Y2385*
X5995Y2390*
X5986Y2392*
G37*
G36*
X5980D02*
X5977D01*
X5969Y2390*
X5961Y2385*
X5954Y2379*
X5950Y2371*
X5947Y2362*
Y2360*
X5980*
Y2392*
G37*
G36*
X5144Y2390D02*
X5141D01*
Y2358*
X5174*
Y2360*
X5171Y2369*
X5167Y2377*
X5160Y2383*
X5153Y2388*
X5144Y2390*
G37*
G36*
X5137D02*
X5135D01*
X5126Y2388*
X5118Y2383*
X5112Y2377*
X5107Y2369*
X5105Y2360*
Y2358*
X5137*
Y2390*
G37*
G36*
X4048Y2360D02*
X4017D01*
Y2329*
X4020*
X4028Y2331*
X4035Y2336*
X4041Y2342*
X4046Y2349*
X4048Y2357*
Y2360*
G37*
G36*
X4013D02*
X3983D01*
Y2357*
X3985Y2349*
X3989Y2342*
X3995Y2336*
X4003Y2331*
X4011Y2329*
X4013*
Y2360*
G37*
G36*
X5772Y2394D02*
X5703D01*
Y2325*
X5772*
Y2394*
G37*
G36*
X5595Y2358D02*
X5563D01*
Y2325*
X5565*
X5574Y2328*
X5582Y2332*
X5588Y2339*
X5593Y2346*
X5595Y2355*
Y2358*
G37*
G36*
X5559D02*
X5526D01*
Y2355*
X5529Y2346*
X5533Y2339*
X5539Y2332*
X5547Y2328*
X5556Y2325*
X5559*
Y2358*
G37*
G36*
X3923Y2338D02*
X3911D01*
Y2324*
X3938*
X3938Y2329*
X3934Y2334*
X3929Y2337*
X3923Y2338*
G37*
G36*
X3907D02*
X3895D01*
X3889Y2337*
X3884Y2334*
X3880Y2329*
X3879Y2324*
X3907*
Y2338*
G37*
G36*
X6193Y2392D02*
X6125D01*
Y2323*
X6193*
Y2392*
G37*
G36*
X6016Y2356D02*
X5984D01*
Y2323*
X5986*
X5995Y2326*
X6003Y2330*
X6009Y2337*
X6014Y2345*
X6016Y2353*
Y2356*
G37*
G36*
X5980D02*
X5947D01*
Y2353*
X5950Y2345*
X5954Y2337*
X5961Y2330*
X5969Y2326*
X5977Y2323*
X5980*
Y2356*
G37*
G36*
X5351Y2390D02*
X5282D01*
Y2321*
X5351*
Y2390*
G37*
G36*
X5174Y2354D02*
X5141D01*
Y2321*
X5144*
X5153Y2324*
X5160Y2328*
X5167Y2335*
X5171Y2343*
X5174Y2351*
Y2354*
G37*
G36*
X5137D02*
X5105D01*
Y2351*
X5107Y2343*
X5112Y2335*
X5118Y2328*
X5126Y2324*
X5135Y2321*
X5137*
Y2354*
G37*
G36*
X3938Y2320D02*
X3911D01*
Y2306*
X3923*
X3929Y2307*
X3934Y2311*
X3938Y2316*
X3938Y2320*
G37*
G36*
X3907D02*
X3879D01*
X3880Y2316*
X3884Y2311*
X3889Y2307*
X3895Y2306*
X3907*
Y2320*
G37*
G36*
X6256Y2215D02*
X6249D01*
X6243Y2212*
X6238Y2207*
X6235Y2201*
Y2194*
X6238Y2188*
X6243Y2183*
X6249Y2180*
X6256*
X6262Y2183*
X6267Y2188*
X6270Y2194*
Y2201*
X6267Y2207*
X6262Y2212*
X6256Y2215*
G37*
G36*
X5829Y2214D02*
X5822D01*
X5816Y2211*
X5811Y2206*
X5808Y2200*
Y2193*
X5811Y2187*
X5816Y2182*
X5822Y2179*
X5829*
X5835Y2182*
X5840Y2187*
X5843Y2193*
Y2200*
X5840Y2206*
X5835Y2211*
X5829Y2214*
G37*
G36*
X5406D02*
X5399D01*
X5393Y2211*
X5388Y2206*
X5385Y2200*
Y2193*
X5388Y2187*
X5393Y2182*
X5399Y2179*
X5406*
X5412Y2182*
X5417Y2187*
X5420Y2193*
Y2200*
X5417Y2206*
X5412Y2211*
X5406Y2214*
G37*
G36*
X4711Y2194D02*
X4642D01*
Y2125*
X4711*
Y2194*
G37*
G36*
X5565Y2138D02*
X5563D01*
Y2106*
X5595*
Y2108*
X5593Y2117*
X5588Y2125*
X5582Y2131*
X5574Y2136*
X5565Y2138*
G37*
G36*
X5559D02*
X5556D01*
X5547Y2136*
X5539Y2131*
X5533Y2125*
X5529Y2117*
X5526Y2108*
Y2106*
X5559*
Y2138*
G37*
G36*
X5986Y2136D02*
X5984D01*
Y2104*
X6016*
Y2106*
X6014Y2115*
X6009Y2123*
X6003Y2129*
X5995Y2134*
X5986Y2136*
G37*
G36*
X5980D02*
X5977D01*
X5969Y2134*
X5961Y2129*
X5954Y2123*
X5950Y2115*
X5947Y2106*
Y2104*
X5980*
Y2136*
G37*
G36*
X5144Y2134D02*
X5141D01*
Y2102*
X5174*
Y2104*
X5171Y2113*
X5167Y2121*
X5160Y2127*
X5153Y2132*
X5144Y2134*
G37*
G36*
X5137D02*
X5135D01*
X5126Y2132*
X5118Y2127*
X5112Y2121*
X5107Y2113*
X5105Y2104*
Y2102*
X5137*
Y2134*
G37*
G36*
X5742Y2138D02*
X5733D01*
X5724Y2136*
X5717Y2131*
X5710Y2125*
X5706Y2117*
X5703Y2108*
Y2099*
X5706Y2091*
X5710Y2083*
X5717Y2076*
X5724Y2072*
X5733Y2070*
X5742*
X5751Y2072*
X5759Y2076*
X5765Y2083*
X5770Y2091*
X5772Y2099*
Y2108*
X5770Y2117*
X5765Y2125*
X5759Y2131*
X5751Y2136*
X5742Y2138*
G37*
G36*
X5595Y2102D02*
X5563D01*
Y2070*
X5565*
X5574Y2072*
X5582Y2076*
X5588Y2083*
X5593Y2091*
X5595Y2099*
Y2102*
G37*
G36*
X5559D02*
X5526D01*
Y2099*
X5529Y2091*
X5533Y2083*
X5539Y2076*
X5547Y2072*
X5556Y2070*
X5559*
Y2102*
G37*
G36*
X6163Y2136D02*
X6154D01*
X6146Y2134*
X6138Y2129*
X6131Y2123*
X6127Y2115*
X6125Y2106*
Y2097*
X6127Y2089*
X6131Y2081*
X6138Y2074*
X6146Y2070*
X6154Y2068*
X6163*
X6172Y2070*
X6180Y2074*
X6186Y2081*
X6191Y2089*
X6193Y2097*
Y2106*
X6191Y2115*
X6186Y2123*
X6180Y2129*
X6172Y2134*
X6163Y2136*
G37*
G36*
X6016Y2100D02*
X5984D01*
Y2068*
X5986*
X5995Y2070*
X6003Y2074*
X6009Y2081*
X6014Y2089*
X6016Y2097*
Y2100*
G37*
G36*
X5980D02*
X5947D01*
Y2097*
X5950Y2089*
X5954Y2081*
X5961Y2074*
X5969Y2070*
X5977Y2068*
X5980*
Y2100*
G37*
G36*
X5321Y2134D02*
X5312D01*
X5303Y2132*
X5295Y2127*
X5289Y2121*
X5284Y2113*
X5282Y2104*
Y2095*
X5284Y2087*
X5289Y2079*
X5295Y2072*
X5303Y2068*
X5312Y2066*
X5321*
X5330Y2068*
X5338Y2072*
X5344Y2079*
X5348Y2087*
X5351Y2095*
Y2104*
X5348Y2113*
X5344Y2121*
X5338Y2127*
X5330Y2132*
X5321Y2134*
G37*
G36*
X5174Y2098D02*
X5141D01*
Y2066*
X5144*
X5153Y2068*
X5160Y2072*
X5167Y2079*
X5171Y2087*
X5174Y2095*
Y2098*
G37*
G36*
X5137D02*
X5105D01*
Y2095*
X5107Y2087*
X5112Y2079*
X5118Y2072*
X5126Y2068*
X5135Y2066*
X5137*
Y2098*
G37*
G36*
X4681Y2095D02*
X4671D01*
X4663Y2093*
X4655Y2089*
X4648Y2082*
X4644Y2074*
X4642Y2065*
Y2056*
X4644Y2048*
X4648Y2040*
X4655Y2033*
X4663Y2029*
X4671Y2026*
X4681*
X4689Y2029*
X4697Y2033*
X4704Y2040*
X4708Y2048*
X4711Y2056*
Y2065*
X4708Y2074*
X4704Y2082*
X4697Y2089*
X4689Y2093*
X4681Y2095*
G37*
%LNmtb_telemetry_system_pcb-3*%
%LPD*%
G54D49*
X5139Y2100D03*
X5316D03*
X5139Y2356D03*
X5561Y2104D03*
X5738D03*
X5561Y2360D03*
X5982Y2102D03*
X6159D03*
X5982Y2358D03*
G54D50*
X5316Y2356D03*
X5738Y2360D03*
X6159Y2358D03*
G54D51*
X4457Y4151D03*
G54D52*
X4555Y4151D03*
X4654D03*
X4752D03*
X4850D03*
X4843Y3346D03*
Y3247D03*
Y3149D03*
Y3050D03*
X6070Y4238D03*
Y4140D03*
X6069Y3780D03*
Y3681D03*
G54D53*
X4394Y4229D03*
X4921Y3507D03*
G54D55*
X4843Y3444D03*
X6070Y4336D03*
X6069Y3878D03*
G54D56*
X4497Y2460D03*
X4676Y2159D03*
G54D57*
X4497Y2559D03*
X4676Y2061D03*
G54D62*
X5693Y4437D03*
X5593D03*
X5493D03*
X5393D03*
X5193D03*
X5093D03*
X4893D03*
X4693D03*
X4593D03*
X4793D03*
X4993D03*
X5293D03*
X4361Y3035D03*
X4161D03*
X4261D03*
X4461D03*
X4561D03*
G54D63*
X4493Y4437D03*
X4061Y3035D03*
G54D64*
X4015Y2362D03*
Y2559D03*
G54D65*
X3976Y3732D03*
Y3464D03*
G54D66*
X6259Y4448D03*
X3897D03*
Y2007D03*
X6259D03*
G54D67*
X5408Y4222D03*
X5036Y4231D03*
X5015Y4270D03*
X4856Y4317D03*
X5818Y4126D03*
X5387Y3680D03*
X5695Y3557D03*
X5188Y3395D03*
X5426Y3490D03*
X5435Y3199D03*
X5220Y3150D03*
X5128Y3191D03*
X5469Y3858D03*
X5484Y3936D03*
X5456Y3936D03*
X5466Y3964D03*
X5274Y4036D03*
X5200Y4019D03*
X5254Y3668D03*
X4547Y2830D03*
X4701Y3151D03*
X4917Y3394D03*
X5077Y3506D03*
X5128Y3760D03*
X5189Y3592D03*
X5332Y3567D03*
X5062Y3763D03*
X5282Y3653D03*
X5311Y3608D03*
X5307Y3667D03*
X5329Y3679D03*
X5221Y3670D03*
X4964Y3937D03*
X5249Y3540D03*
X5337Y3233D03*
G54D68*
X5080Y4318D03*
X5494Y3317D03*
X5489Y3878D03*
X5701Y3856D03*
X5833Y3874D03*
X5493Y3371D03*
X4690Y3545D03*
X5118Y4134D03*
X5560Y3665D03*
X5142Y2466D03*
X4924Y3799D03*
X4429Y3898D03*
X4430Y3262D03*
X4880Y3943D03*
X4613Y3960D03*
X4514Y3826D03*
X4484Y3713D03*
X4490Y3626D03*
X4493Y3516D03*
X4490Y3578D03*
X4495Y3668D03*
X4498Y3756D03*
X4704Y3660D03*
X4464Y3444D03*
X5403Y2197D03*
X5826D03*
X6253Y2198D03*
X5580Y3966D03*
G54D69*
X5212Y3935D03*
X5255D03*
X5298D03*
X5342D03*
X5385D03*
X5212Y3891D03*
X5255D03*
X5298D03*
X5342D03*
X5385D03*
X5212Y3848D03*
X5255D03*
X5298D03*
X5342D03*
X5385D03*
X5212Y3805D03*
X5255D03*
X5298D03*
X5342D03*
X5385D03*
X5212Y3761D03*
X5255D03*
X5298D03*
X5342D03*
X5385D03*
X5276Y3322D03*
X5319D03*
Y3366D03*
X5276D03*
X4907Y2576D03*
G54D70*
X5091Y3599D03*
X4733Y2832D03*
X5372Y3609D03*
X5506Y3559D03*
X5023Y3724D03*
X4800Y2734D03*
X5534Y4062D03*
X4926Y2335D03*
X5043Y4001D03*
X4255Y2682D03*
X4346Y2723D03*
X4096Y2409D03*
X4477Y2144D03*
X4556Y1983D03*
X4335Y2113D03*
X4075Y1987D03*
G54D71*
X5286Y3035D03*
M02*