%FSLAX23Y23*%
%MOIN*%
%SFA1B1*%

%IPPOS*%
%ADD12C,0.007870*%
%LNmtb_telemetry_system_pcb-1*%
%LPD*%
G36*
X5228Y2277D02*
X5213D01*
X5213Y2277*
X5213Y2277*
X5213Y2277*
X5213Y2277*
X5213Y2276*
X5214Y2276*
X5214Y2276*
X5214Y2275*
Y2275*
X5214Y2275*
X5214Y2275*
X5214Y2275*
X5215Y2274*
X5215Y2274*
X5215Y2274*
X5215Y2273*
X5215Y2273*
X5213*
Y2273*
X5213Y2273*
X5213Y2273*
X5213Y2273*
X5213Y2273*
X5213Y2273*
X5212Y2274*
X5212Y2274*
X5212Y2275*
X5211Y2276*
X5211Y2276*
X5211Y2276*
X5211Y2276*
X5211Y2276*
X5211Y2276*
X5210Y2277*
X5210Y2277*
X5210Y2277*
X5209Y2278*
X5209Y2278*
X5208Y2278*
Y2280*
X5228*
Y2277*
G37*
G36*
Y2264D02*
Y2262D01*
X5213Y2258*
X5213*
X5213Y2258*
X5213Y2258*
X5213Y2258*
X5212Y2258*
X5212Y2257*
X5212Y2257*
X5211Y2257*
X5211Y2257*
X5211Y2257*
X5211Y2257*
X5211*
X5211Y2257*
X5211Y2257*
X5211Y2257*
X5211Y2257*
X5212Y2257*
X5212Y2257*
X5213Y2257*
X5213Y2257*
X5228Y2252*
Y2250*
X5208Y2245*
Y2247*
X5221Y2250*
X5221*
X5221Y2250*
X5221Y2250*
X5221Y2250*
X5221Y2250*
X5222Y2250*
X5222Y2251*
X5222Y2251*
X5223Y2251*
X5223Y2251*
X5224Y2251*
X5225Y2251*
X5225*
X5225Y2251*
X5225Y2251*
X5224Y2251*
X5224Y2251*
X5224Y2251*
X5223Y2252*
X5223Y2252*
X5222Y2252*
X5222Y2252*
X5222Y2252*
X5222Y2252*
X5221Y2252*
X5221Y2252*
X5208Y2256*
Y2259*
X5218Y2261*
X5218*
X5218Y2261*
X5218Y2262*
X5219Y2262*
X5219Y2262*
X5219Y2262*
X5220Y2262*
X5220Y2262*
X5221Y2262*
X5221Y2262*
X5222Y2263*
X5224Y2263*
X5225Y2263*
X5225*
X5225Y2263*
X5225*
X5225Y2263*
X5224Y2263*
X5224Y2263*
X5224Y2263*
X5224Y2263*
X5223Y2263*
X5222Y2264*
X5222Y2264*
X5221Y2264*
X5208Y2267*
Y2269*
X5228Y2264*
G37*
G36*
X5223Y2243D02*
X5223Y2243D01*
X5224Y2243*
X5224Y2243*
X5225Y2243*
X5225Y2242*
X5225*
X5225Y2242*
X5225Y2242*
X5225Y2242*
X5226Y2242*
X5226Y2241*
X5226Y2241*
X5227Y2240*
X5227Y2240*
Y2240*
X5227Y2240*
X5227Y2240*
X5227Y2239*
X5227Y2239*
X5227Y2239*
X5227Y2239*
X5228Y2238*
X5228Y2237*
X5228Y2237*
X5228Y2236*
Y2236*
X5228Y2235*
Y2235*
X5228Y2235*
X5228Y2234*
X5228Y2234*
X5228Y2233*
X5227Y2232*
X5227Y2232*
Y2232*
X5227Y2232*
X5227Y2231*
X5227Y2231*
X5227Y2231*
X5227Y2231*
X5226Y2230*
X5226Y2230*
X5225Y2229*
X5225Y2229*
X5225*
X5225Y2229*
X5225Y2229*
X5225Y2229*
X5224Y2229*
X5224Y2229*
X5224Y2228*
X5223Y2228*
X5223Y2228*
X5222Y2228*
X5221Y2228*
X5221Y2230*
X5221*
X5221*
X5221Y2230*
X5221*
X5222Y2230*
X5222Y2230*
X5222Y2231*
X5223Y2231*
X5223Y2231*
X5224Y2231*
X5224Y2231*
X5224Y2231*
X5224Y2231*
X5224Y2231*
X5224Y2232*
X5225Y2232*
X5225Y2232*
X5225Y2233*
Y2233*
X5225Y2233*
X5225Y2233*
X5225Y2233*
X5225Y2233*
X5225Y2234*
X5225Y2234*
X5225Y2235*
X5226Y2235*
X5226Y2236*
Y2236*
X5226Y2236*
X5226Y2237*
X5225Y2237*
X5225Y2238*
X5225Y2238*
X5225Y2238*
X5225Y2238*
X5225Y2239*
X5225Y2239*
X5225Y2239*
X5225Y2239*
X5224Y2240*
X5224Y2240*
X5224Y2240*
X5224Y2240*
X5224Y2240*
X5224Y2240*
X5223Y2240*
X5223Y2240*
X5223Y2241*
X5223Y2241*
X5222Y2241*
X5222*
X5222*
X5222Y2241*
X5222Y2241*
X5222Y2241*
X5221Y2240*
X5221Y2240*
X5221Y2240*
X5221Y2240*
X5221Y2240*
X5221Y2240*
X5220Y2240*
X5220Y2239*
X5220Y2239*
X5220Y2239*
X5220Y2238*
X5220Y2238*
X5220Y2238*
X5220Y2238*
X5219Y2238*
X5219Y2238*
X5219Y2237*
X5219Y2237*
X5219Y2237*
X5219Y2237*
X5219Y2236*
X5219Y2236*
X5219Y2235*
X5219Y2235*
Y2235*
X5219Y2235*
X5219Y2235*
X5219Y2235*
X5219Y2234*
X5218Y2234*
X5218Y2234*
X5218Y2233*
X5218Y2232*
X5218Y2232*
X5218Y2231*
X5218Y2231*
Y2231*
X5217Y2231*
X5217Y2231*
X5217Y2231*
X5217Y2231*
X5217Y2230*
X5216Y2230*
X5216Y2230*
X5216Y2229*
X5216Y2229*
X5216Y2229*
X5215Y2229*
X5215Y2229*
X5215Y2229*
X5214Y2229*
X5214Y2229*
X5213Y2229*
X5213*
X5213*
X5213*
X5213*
X5213Y2229*
X5212Y2229*
X5212Y2229*
X5212Y2229*
X5211Y2229*
X5211Y2229*
X5211*
X5211Y2229*
X5210Y2230*
X5210Y2230*
X5210Y2230*
X5210Y2230*
X5209Y2231*
X5209Y2231*
X5209Y2232*
Y2232*
X5209Y2232*
X5209Y2232*
X5209Y2232*
X5209Y2232*
X5208Y2232*
X5208Y2233*
X5208Y2233*
X5208Y2234*
X5208Y2235*
X5208Y2235*
Y2236*
X5208Y2236*
Y2236*
X5208Y2237*
X5208Y2237*
X5208Y2238*
X5208Y2238*
X5209Y2239*
Y2239*
X5209Y2239*
X5209Y2239*
X5209Y2239*
X5209Y2240*
X5209Y2240*
X5210Y2240*
X5210Y2241*
X5210Y2241*
X5211Y2242*
X5211*
X5211Y2242*
X5211Y2242*
X5211Y2242*
X5211Y2242*
X5212Y2242*
X5212Y2242*
X5213Y2242*
X5213Y2242*
X5214Y2243*
X5214Y2240*
X5214*
X5214*
X5214Y2240*
X5214Y2240*
X5213Y2240*
X5213Y2240*
X5212Y2240*
X5212Y2239*
X5212Y2239*
X5211Y2239*
X5211Y2239*
X5211Y2239*
X5211Y2238*
X5211Y2238*
X5211Y2237*
X5210Y2237*
X5210Y2236*
X5210Y2235*
Y2235*
X5210Y2235*
X5210Y2235*
X5210Y2234*
X5211Y2234*
X5211Y2233*
X5211Y2232*
X5211Y2232*
X5211Y2232*
X5211Y2232*
X5211Y2232*
X5211Y2232*
X5212Y2232*
X5212Y2231*
X5212Y2231*
X5213Y2231*
X5213Y2231*
X5213*
X5213*
X5214Y2231*
X5214Y2231*
X5214Y2231*
X5214Y2231*
X5215Y2231*
X5215Y2232*
X5215Y2232*
X5215Y2232*
X5215Y2232*
X5215Y2232*
X5215Y2232*
X5215Y2232*
X5215Y2233*
X5215Y2233*
X5216Y2233*
X5216Y2234*
X5216Y2234*
X5216Y2234*
X5216Y2235*
X5216Y2236*
Y2236*
X5216Y2236*
X5216Y2236*
X5216Y2236*
X5216Y2236*
X5216Y2237*
X5217Y2237*
X5217Y2237*
X5217Y2238*
X5217Y2239*
X5217Y2239*
X5217Y2239*
X5217Y2240*
X5217Y2240*
Y2240*
X5217Y2240*
X5218Y2240*
X5218Y2240*
X5218Y2240*
X5218Y2241*
X5218Y2241*
X5219Y2242*
X5219Y2242*
X5219Y2242*
X5219Y2242*
X5220Y2242*
X5220Y2243*
X5220Y2243*
X5221Y2243*
X5221Y2243*
X5222Y2243*
X5222Y2243*
X5222*
X5222*
X5222*
X5222*
X5223Y2243*
G37*
G36*
X5649Y2275D02*
X5649D01*
X5649*
X5648*
X5648Y2275*
X5648Y2275*
X5648Y2275*
X5647Y2275*
X5647Y2275*
X5647*
X5647Y2275*
X5647Y2275*
X5647Y2275*
X5646Y2275*
X5646Y2275*
X5646Y2276*
X5645Y2276*
X5645Y2276*
X5645*
X5645Y2276*
X5644Y2277*
X5644Y2277*
X5644Y2277*
X5643Y2278*
X5643Y2278*
X5642Y2279*
X5642Y2279*
X5642Y2279*
X5642Y2280*
X5641Y2280*
X5641Y2280*
X5641Y2280*
X5641Y2280*
X5641Y2281*
X5640Y2281*
X5640Y2282*
X5639Y2283*
X5639Y2283*
X5638Y2283*
X5638Y2283*
X5638Y2284*
X5638*
X5638Y2284*
X5638Y2284*
X5637Y2284*
X5637Y2284*
X5637Y2284*
X5636Y2284*
X5636Y2285*
X5635Y2285*
X5635Y2285*
X5635*
X5635*
X5635Y2285*
X5634Y2285*
X5634Y2285*
X5634Y2285*
X5633Y2284*
X5633Y2284*
X5632Y2284*
X5632Y2284*
X5632Y2284*
X5632Y2283*
X5632Y2283*
X5632Y2283*
X5632Y2282*
X5631Y2282*
X5631Y2281*
Y2281*
X5631Y2281*
X5632Y2281*
X5632Y2280*
X5632Y2280*
X5632Y2279*
X5632Y2279*
X5632Y2278*
X5633Y2278*
X5633Y2278*
X5633Y2278*
X5633Y2278*
X5634Y2278*
X5634Y2278*
X5635Y2277*
X5635Y2277*
X5635Y2275*
X5635*
X5635Y2275*
X5635*
X5635Y2275*
X5634Y2275*
X5634Y2275*
X5634Y2275*
X5634Y2275*
X5633Y2275*
X5632Y2276*
X5632Y2276*
X5632Y2276*
X5631Y2277*
X5631Y2277*
X5631Y2277*
X5631Y2277*
X5631Y2277*
X5631Y2277*
X5631Y2277*
X5631Y2277*
X5630Y2278*
X5630Y2278*
X5630Y2278*
X5630Y2279*
X5630Y2279*
X5630Y2279*
X5630Y2280*
X5630Y2280*
X5630Y2281*
X5630Y2281*
Y2281*
X5630Y2282*
X5630Y2282*
X5630Y2282*
X5630Y2282*
X5630Y2283*
X5630Y2283*
X5630Y2284*
X5630Y2285*
X5631Y2285*
X5631Y2285*
X5631Y2286*
X5631Y2286*
X5631Y2286*
X5631Y2286*
X5631Y2286*
X5631Y2286*
X5632Y2286*
X5632Y2286*
X5632Y2286*
X5633Y2287*
X5633Y2287*
X5634Y2287*
X5634Y2287*
X5634Y2287*
X5635Y2287*
X5635*
X5635*
X5635Y2287*
X5636Y2287*
X5636Y2287*
X5636Y2287*
X5637Y2287*
X5637Y2287*
X5637Y2287*
X5637Y2287*
X5638Y2286*
X5638Y2286*
X5638Y2286*
X5639Y2286*
X5639Y2285*
X5639Y2285*
X5640Y2285*
X5640Y2285*
X5640Y2285*
X5640Y2285*
X5640Y2284*
X5640Y2284*
X5641Y2284*
X5641Y2284*
X5641Y2283*
X5641Y2283*
X5642Y2283*
X5642Y2282*
X5642Y2282*
X5643Y2282*
X5643Y2281*
X5643Y2281*
X5643Y2281*
X5643Y2281*
X5643Y2281*
X5643Y2281*
X5644Y2280*
X5644Y2280*
X5645Y2279*
X5645Y2279*
X5645Y2279*
X5645Y2279*
X5645Y2279*
X5645Y2279*
X5645Y2279*
X5646Y2278*
X5646Y2278*
X5646Y2278*
X5647Y2278*
Y2287*
X5649*
Y2275*
G37*
G36*
Y2268D02*
Y2266D01*
X5634Y2262*
X5634*
X5634Y2262*
X5634Y2262*
X5634Y2262*
X5634Y2261*
X5633Y2261*
X5633Y2261*
X5632Y2261*
X5632Y2261*
X5632Y2261*
X5632Y2261*
X5632*
X5632Y2261*
X5632Y2261*
X5632Y2261*
X5633Y2261*
X5633Y2261*
X5633Y2261*
X5634Y2261*
X5634Y2260*
X5649Y2256*
Y2254*
X5630Y2249*
Y2251*
X5642Y2254*
X5642*
X5642Y2254*
X5642Y2254*
X5643Y2254*
X5643Y2254*
X5643Y2254*
X5643Y2254*
X5643Y2255*
X5644Y2255*
X5645Y2255*
X5645Y2255*
X5646Y2255*
X5646*
X5646Y2255*
X5646Y2255*
X5646Y2255*
X5645Y2255*
X5645Y2255*
X5645Y2255*
X5644Y2256*
X5644Y2256*
X5643Y2256*
X5643Y2256*
X5643Y2256*
X5643Y2256*
X5643Y2256*
X5630Y2260*
Y2263*
X5639Y2265*
X5639*
X5640Y2265*
X5640Y2265*
X5640Y2266*
X5640Y2266*
X5641Y2266*
X5641Y2266*
X5642Y2266*
X5642Y2266*
X5643Y2266*
X5644Y2266*
X5645Y2267*
X5646Y2267*
X5646*
X5646Y2267*
X5646*
X5646Y2267*
X5646Y2267*
X5645Y2267*
X5645Y2267*
X5645Y2267*
X5644Y2267*
X5644Y2267*
X5643Y2268*
X5642Y2268*
X5630Y2271*
Y2273*
X5649Y2268*
G37*
G36*
X5644Y2247D02*
X5644Y2247D01*
X5645Y2247*
X5645Y2247*
X5646Y2246*
X5646Y2246*
X5646*
X5646Y2246*
X5647Y2246*
X5647Y2246*
X5647Y2245*
X5647Y2245*
X5648Y2245*
X5648Y2244*
X5648Y2244*
Y2244*
X5648Y2244*
X5648Y2243*
X5648Y2243*
X5649Y2243*
X5649Y2243*
X5649Y2243*
X5649Y2242*
X5649Y2241*
X5649Y2241*
X5649Y2240*
Y2239*
X5649Y2239*
Y2239*
X5649Y2239*
X5649Y2238*
X5649Y2238*
X5649Y2237*
X5649Y2236*
X5648Y2236*
Y2236*
X5648Y2236*
X5648Y2235*
X5648Y2235*
X5648Y2235*
X5648Y2235*
X5647Y2234*
X5647Y2234*
X5647Y2233*
X5646Y2233*
X5646*
X5646Y2233*
X5646Y2233*
X5646Y2233*
X5646Y2233*
X5646Y2233*
X5645Y2232*
X5645Y2232*
X5644Y2232*
X5643Y2232*
X5643Y2232*
X5642Y2234*
X5642*
X5642*
X5643Y2234*
X5643*
X5643Y2234*
X5643Y2234*
X5644Y2234*
X5644Y2235*
X5644Y2235*
X5645Y2235*
X5645Y2235*
X5645Y2235*
X5645Y2235*
X5645Y2235*
X5646Y2236*
X5646Y2236*
X5646Y2236*
X5646Y2237*
Y2237*
X5646Y2237*
X5646Y2237*
X5646Y2237*
X5646Y2237*
X5647Y2238*
X5647Y2238*
X5647Y2239*
X5647Y2239*
X5647Y2240*
Y2240*
X5647Y2240*
X5647Y2241*
X5647Y2241*
X5647Y2242*
X5647Y2242*
X5646Y2242*
X5646Y2242*
X5646Y2243*
X5646Y2243*
X5646Y2243*
X5646Y2243*
X5646Y2244*
X5646Y2244*
X5645Y2244*
X5645Y2244*
X5645Y2244*
X5645Y2244*
X5645Y2244*
X5645Y2244*
X5644Y2245*
X5644Y2245*
X5644Y2245*
X5644*
X5643*
X5643Y2245*
X5643Y2245*
X5643Y2244*
X5643Y2244*
X5642Y2244*
X5642Y2244*
X5642Y2244*
X5642Y2244*
X5642Y2244*
X5642Y2244*
X5641Y2243*
X5641Y2243*
X5641Y2243*
X5641Y2242*
X5641Y2242*
X5641Y2242*
X5641Y2242*
X5641Y2242*
X5641Y2242*
X5641Y2241*
X5641Y2241*
X5640Y2241*
X5640Y2241*
X5640Y2240*
X5640Y2240*
X5640Y2239*
X5640Y2239*
Y2239*
X5640Y2239*
X5640Y2239*
X5640Y2238*
X5640Y2238*
X5640Y2238*
X5640Y2237*
X5639Y2237*
X5639Y2236*
X5639Y2236*
X5639Y2235*
X5639Y2235*
Y2235*
X5639Y2235*
X5639Y2235*
X5639Y2235*
X5638Y2234*
X5638Y2234*
X5638Y2234*
X5637Y2233*
X5637Y2233*
X5637Y2233*
X5637Y2233*
X5637Y2233*
X5636Y2233*
X5636Y2233*
X5636Y2233*
X5635Y2233*
X5635Y2233*
X5635*
X5635*
X5634*
X5634*
X5634Y2233*
X5634Y2233*
X5633Y2233*
X5633Y2233*
X5632Y2233*
X5632Y2233*
X5632*
X5632Y2233*
X5632Y2233*
X5631Y2234*
X5631Y2234*
X5631Y2234*
X5631Y2235*
X5630Y2235*
X5630Y2236*
Y2236*
X5630Y2236*
X5630Y2236*
X5630Y2236*
X5630Y2236*
X5630Y2236*
X5630Y2237*
X5629Y2237*
X5629Y2238*
X5629Y2239*
X5629Y2239*
Y2240*
X5629Y2240*
Y2240*
X5629Y2241*
X5629Y2241*
X5630Y2242*
X5630Y2242*
X5630Y2243*
Y2243*
X5630Y2243*
X5630Y2243*
X5630Y2243*
X5630Y2244*
X5630Y2244*
X5631Y2244*
X5631Y2245*
X5632Y2245*
X5632Y2245*
X5632*
X5632Y2245*
X5632Y2246*
X5632Y2246*
X5633Y2246*
X5633Y2246*
X5633Y2246*
X5634Y2246*
X5634Y2246*
X5635Y2246*
X5635Y2244*
X5635*
X5635*
X5635Y2244*
X5635Y2244*
X5635Y2244*
X5634Y2244*
X5634Y2244*
X5633Y2243*
X5633Y2243*
X5632Y2243*
X5632Y2243*
X5632Y2242*
X5632Y2242*
X5632Y2242*
X5632Y2241*
X5632Y2241*
X5632Y2240*
X5632Y2239*
Y2239*
X5632Y2239*
X5632Y2239*
X5632Y2238*
X5632Y2237*
X5632Y2237*
X5632Y2236*
X5632Y2236*
X5632Y2236*
X5632Y2236*
X5633Y2236*
X5633Y2236*
X5633Y2235*
X5633Y2235*
X5634Y2235*
X5634Y2235*
X5634Y2235*
X5634*
X5635*
X5635Y2235*
X5635Y2235*
X5635Y2235*
X5636Y2235*
X5636Y2235*
X5636Y2236*
X5636Y2236*
X5636Y2236*
X5636Y2236*
X5636Y2236*
X5636Y2236*
X5637Y2236*
X5637Y2237*
X5637Y2237*
X5637Y2237*
X5637Y2238*
X5637Y2238*
X5637Y2238*
X5637Y2239*
X5638Y2239*
Y2240*
X5638Y2240*
X5638Y2240*
X5638Y2240*
X5638Y2240*
X5638Y2241*
X5638Y2241*
X5638Y2241*
X5638Y2242*
X5638Y2243*
X5638Y2243*
X5639Y2243*
X5639Y2244*
X5639Y2244*
Y2244*
X5639Y2244*
X5639Y2244*
X5639Y2244*
X5639Y2244*
X5639Y2245*
X5640Y2245*
X5640Y2245*
X5640Y2246*
X5641Y2246*
X5641Y2246*
X5641Y2246*
X5641Y2246*
X5641Y2247*
X5642Y2247*
X5642Y2247*
X5643Y2247*
X5643Y2247*
X5643*
X5643*
X5644*
X5644*
X5644Y2247*
G37*
G36*
X6065Y2285D02*
X6065Y2285D01*
X6065Y2285*
X6066Y2285*
X6066Y2285*
X6067Y2285*
X6067Y2285*
X6067Y2285*
X6068Y2284*
X6068Y2284*
X6068Y2284*
X6069Y2284*
X6069Y2284*
X6069Y2284*
X6069Y2283*
X6069Y2283*
X6069Y2283*
X6069Y2283*
X6069Y2283*
X6069Y2282*
X6070Y2282*
X6070Y2282*
X6070Y2281*
X6070Y2281*
X6070Y2280*
X6070Y2280*
X6070Y2279*
X6070Y2279*
Y2279*
X6070Y2279*
X6070Y2278*
X6070Y2278*
X6070Y2278*
X6070Y2277*
X6070Y2277*
X6070Y2276*
X6070Y2276*
X6069Y2275*
X6069Y2275*
X6069Y2275*
X6069Y2275*
X6069Y2275*
X6069Y2275*
X6069Y2275*
X6068Y2274*
X6068Y2274*
X6068Y2274*
X6068Y2274*
X6068Y2274*
X6067Y2274*
X6067Y2273*
X6066Y2273*
X6065Y2273*
X6065Y2273*
X6065Y2275*
X6065*
X6065Y2275*
X6065Y2275*
X6065Y2275*
X6065Y2275*
X6065Y2275*
X6066Y2276*
X6066Y2276*
X6067Y2276*
X6067Y2276*
X6068Y2277*
X6068Y2277*
X6068Y2277*
X6068Y2277*
X6068Y2277*
X6068Y2278*
X6068Y2278*
X6068Y2278*
X6068Y2279*
Y2279*
X6068Y2279*
X6068Y2280*
X6068Y2280*
X6068Y2280*
X6068Y2281*
X6068Y2281*
X6067Y2282*
X6067Y2282*
X6067Y2282*
X6067Y2282*
X6066Y2282*
X6066Y2283*
X6066Y2283*
X6065Y2283*
X6064Y2283*
X6064*
X6064*
X6064*
X6064Y2283*
X6064Y2283*
X6064Y2283*
X6063Y2283*
X6063Y2283*
X6062Y2282*
X6062Y2282*
X6062Y2282*
X6062Y2282*
X6061Y2281*
X6061Y2281*
X6061Y2281*
X6061Y2280*
X6061Y2280*
X6061Y2279*
Y2279*
X6061Y2279*
X6061Y2278*
X6061Y2278*
X6061Y2278*
X6061Y2278*
X6059Y2278*
Y2278*
X6059Y2278*
Y2278*
X6059Y2279*
X6059Y2279*
X6059Y2279*
X6059Y2280*
X6058Y2280*
X6058Y2281*
Y2281*
X6058Y2281*
X6058Y2281*
X6058Y2281*
X6058Y2281*
X6057Y2282*
X6057Y2282*
X6056Y2282*
X6056Y2282*
X6056*
X6056*
X6056*
X6055*
X6055Y2282*
X6055Y2282*
X6055Y2282*
X6054Y2282*
X6054Y2282*
X6054Y2281*
X6054Y2281*
X6053Y2281*
X6053Y2281*
X6053Y2281*
X6053Y2280*
X6053Y2280*
X6053Y2279*
X6053Y2279*
Y2279*
X6053Y2278*
X6053Y2278*
X6053Y2278*
X6053Y2277*
X6053Y2277*
X6054Y2277*
X6054Y2277*
X6054Y2277*
X6054Y2276*
X6054Y2276*
X6055Y2276*
X6055Y2276*
X6056Y2276*
X6056Y2275*
X6056Y2273*
X6056*
X6056Y2273*
X6056Y2273*
X6055Y2273*
X6055Y2273*
X6055Y2273*
X6054Y2274*
X6054Y2274*
X6053Y2274*
X6053Y2275*
X6052Y2275*
X6052Y2275*
X6052Y2275*
X6052Y2275*
X6052Y2275*
X6052Y2275*
X6052Y2276*
X6052Y2276*
X6051Y2276*
X6051Y2277*
X6051Y2277*
X6051Y2278*
X6051Y2278*
Y2279*
X6051Y2279*
X6051Y2280*
X6051Y2280*
X6051Y2281*
X6051Y2281*
X6051Y2282*
Y2282*
X6052Y2282*
X6052Y2282*
X6052Y2282*
X6052Y2283*
X6052Y2283*
X6053Y2283*
X6053Y2284*
X6053Y2284*
X6053Y2284*
X6054Y2284*
X6054Y2284*
X6054Y2284*
X6054Y2284*
X6055Y2284*
X6055Y2284*
X6056Y2284*
X6056*
X6056*
X6056Y2284*
X6057Y2284*
X6057Y2284*
X6057Y2284*
X6058Y2284*
X6058Y2284*
X6058Y2284*
X6058Y2284*
X6058Y2284*
X6059Y2283*
X6059Y2283*
X6059Y2283*
X6059Y2282*
X6060Y2282*
Y2282*
X6060Y2282*
X6060Y2282*
X6060Y2282*
X6060Y2282*
X6060Y2283*
X6060Y2283*
X6061Y2284*
X6061Y2284*
X6061Y2284*
X6061Y2285*
X6062Y2285*
X6062Y2285*
X6062Y2285*
X6063Y2285*
X6063Y2285*
X6064Y2285*
X6064Y2285*
X6064*
X6064*
X6065*
X6065Y2285*
G37*
G36*
X6070Y2266D02*
Y2264D01*
X6055Y2260*
X6055*
X6055Y2260*
X6055Y2260*
X6055Y2260*
X6055Y2260*
X6054Y2259*
X6054Y2259*
X6054Y2259*
X6053Y2259*
X6053Y2259*
X6053Y2259*
X6053*
X6053Y2259*
X6053Y2259*
X6054Y2259*
X6054Y2259*
X6054Y2259*
X6055Y2259*
X6055Y2259*
X6055Y2258*
X6070Y2254*
Y2252*
X6051Y2247*
Y2249*
X6063Y2252*
X6063*
X6064Y2252*
X6064Y2252*
X6064Y2252*
X6064Y2252*
X6064Y2252*
X6064Y2252*
X6065Y2253*
X6065Y2253*
X6066Y2253*
X6067Y2253*
X6067Y2253*
X6067*
X6067Y2253*
X6067Y2253*
X6067Y2253*
X6067Y2253*
X6066Y2253*
X6066Y2253*
X6065Y2254*
X6065Y2254*
X6065Y2254*
X6064Y2254*
X6064Y2254*
X6064Y2254*
X6064Y2254*
X6051Y2258*
Y2261*
X6061Y2263*
X6061*
X6061Y2263*
X6061Y2264*
X6061Y2264*
X6062Y2264*
X6062Y2264*
X6062Y2264*
X6063Y2264*
X6063Y2264*
X6064Y2264*
X6065Y2264*
X6066Y2265*
X6067Y2265*
X6067*
X6067Y2265*
X6067*
X6067Y2265*
X6067Y2265*
X6067Y2265*
X6066Y2265*
X6066Y2265*
X6066Y2265*
X6065Y2265*
X6064Y2266*
X6063Y2266*
X6051Y2269*
Y2271*
X6070Y2266*
G37*
G36*
X6065Y2245D02*
X6066Y2245D01*
X6066Y2245*
X6067Y2245*
X6067Y2244*
X6068Y2244*
X6068*
X6068Y2244*
X6068Y2244*
X6068Y2244*
X6068Y2244*
X6069Y2243*
X6069Y2243*
X6069Y2242*
X6070Y2242*
Y2242*
X6070Y2242*
X6070Y2241*
X6070Y2241*
X6070Y2241*
X6070Y2241*
X6070Y2241*
X6070Y2240*
X6070Y2239*
X6070Y2239*
X6070Y2238*
Y2238*
X6070Y2237*
Y2237*
X6070Y2237*
X6070Y2236*
X6070Y2236*
X6070Y2235*
X6070Y2234*
X6070Y2234*
Y2234*
X6070Y2234*
X6070Y2233*
X6069Y2233*
X6069Y2233*
X6069Y2233*
X6069Y2232*
X6068Y2232*
X6068Y2231*
X6067Y2231*
X6067*
X6067Y2231*
X6067Y2231*
X6067Y2231*
X6067Y2231*
X6067Y2231*
X6066Y2230*
X6066Y2230*
X6065Y2230*
X6065Y2230*
X6064Y2230*
X6064Y2232*
X6064*
X6064*
X6064Y2232*
X6064*
X6064Y2232*
X6065Y2232*
X6065Y2232*
X6065Y2233*
X6066Y2233*
X6066Y2233*
X6066Y2233*
X6066Y2233*
X6066Y2233*
X6067Y2233*
X6067Y2234*
X6067Y2234*
X6067Y2234*
X6068Y2235*
Y2235*
X6068Y2235*
X6068Y2235*
X6068Y2235*
X6068Y2235*
X6068Y2236*
X6068Y2236*
X6068Y2237*
X6068Y2237*
X6068Y2238*
Y2238*
X6068Y2238*
X6068Y2239*
X6068Y2239*
X6068Y2240*
X6068Y2240*
X6068Y2240*
X6068Y2240*
X6068Y2241*
X6067Y2241*
X6067Y2241*
X6067Y2241*
X6067Y2242*
X6067Y2242*
X6066Y2242*
X6066Y2242*
X6066Y2242*
X6066Y2242*
X6066Y2242*
X6066Y2242*
X6065Y2243*
X6065Y2243*
X6065Y2243*
X6065*
X6065*
X6065Y2243*
X6064Y2243*
X6064Y2242*
X6064Y2242*
X6064Y2242*
X6063Y2242*
X6063Y2242*
X6063Y2242*
X6063Y2242*
X6063Y2242*
X6063Y2241*
X6063Y2241*
X6062Y2241*
X6062Y2240*
X6062Y2240*
X6062Y2240*
X6062Y2240*
X6062Y2240*
X6062Y2240*
X6062Y2239*
X6062Y2239*
X6062Y2239*
X6062Y2239*
X6062Y2238*
X6061Y2238*
X6061Y2237*
X6061Y2237*
Y2237*
X6061Y2237*
X6061Y2237*
X6061Y2237*
X6061Y2236*
X6061Y2236*
X6061Y2235*
X6061Y2235*
X6060Y2234*
X6060Y2234*
X6060Y2233*
X6060Y2233*
Y2233*
X6060Y2233*
X6060Y2233*
X6060Y2233*
X6060Y2232*
X6059Y2232*
X6059Y2232*
X6059Y2231*
X6058Y2231*
X6058Y2231*
X6058Y2231*
X6058Y2231*
X6058Y2231*
X6057Y2231*
X6057Y2231*
X6056Y2231*
X6056Y2231*
X6056*
X6056*
X6056*
X6056*
X6055Y2231*
X6055Y2231*
X6055Y2231*
X6054Y2231*
X6054Y2231*
X6053Y2231*
X6053*
X6053Y2231*
X6053Y2232*
X6053Y2232*
X6052Y2232*
X6052Y2232*
X6052Y2233*
X6051Y2233*
X6051Y2234*
Y2234*
X6051Y2234*
X6051Y2234*
X6051Y2234*
X6051Y2234*
X6051Y2234*
X6051Y2235*
X6051Y2235*
X6051Y2236*
X6051Y2237*
X6051Y2237*
Y2238*
X6051Y2238*
Y2238*
X6051Y2239*
X6051Y2239*
X6051Y2240*
X6051Y2240*
X6051Y2241*
Y2241*
X6051Y2241*
X6051Y2241*
X6051Y2241*
X6052Y2242*
X6052Y2242*
X6052Y2242*
X6052Y2243*
X6053Y2243*
X6053Y2244*
X6053*
X6053Y2244*
X6053Y2244*
X6054Y2244*
X6054Y2244*
X6054Y2244*
X6055Y2244*
X6055Y2244*
X6056Y2244*
X6056Y2244*
X6056Y2242*
X6056*
X6056*
X6056Y2242*
X6056Y2242*
X6056Y2242*
X6055Y2242*
X6055Y2242*
X6055Y2241*
X6054Y2241*
X6054Y2241*
X6054Y2241*
X6054Y2240*
X6053Y2240*
X6053Y2240*
X6053Y2239*
X6053Y2239*
X6053Y2238*
X6053Y2237*
Y2237*
X6053Y2237*
X6053Y2237*
X6053Y2236*
X6053Y2236*
X6053Y2235*
X6053Y2234*
X6054Y2234*
X6054Y2234*
X6054Y2234*
X6054Y2234*
X6054Y2234*
X6054Y2234*
X6055Y2233*
X6055Y2233*
X6055Y2233*
X6056Y2233*
X6056*
X6056*
X6056Y2233*
X6056Y2233*
X6057Y2233*
X6057Y2233*
X6057Y2233*
X6057Y2234*
X6057Y2234*
X6057Y2234*
X6058Y2234*
X6058Y2234*
X6058Y2234*
X6058Y2234*
X6058Y2235*
X6058Y2235*
X6058Y2235*
X6058Y2236*
X6058Y2236*
X6059Y2236*
X6059Y2237*
X6059Y2238*
Y2238*
X6059Y2238*
X6059Y2238*
X6059Y2238*
X6059Y2238*
X6059Y2239*
X6059Y2239*
X6059Y2239*
X6059Y2240*
X6060Y2241*
X6060Y2241*
X6060Y2241*
X6060Y2242*
X6060Y2242*
Y2242*
X6060Y2242*
X6060Y2242*
X6060Y2242*
X6060Y2242*
X6061Y2243*
X6061Y2243*
X6061Y2244*
X6062Y2244*
X6062Y2244*
X6062Y2244*
X6062Y2244*
X6062Y2245*
X6063Y2245*
X6063Y2245*
X6064Y2245*
X6064Y2245*
X6065Y2245*
X6065*
X6065*
X6065*
X6065*
X6065Y2245*
G37*
G36*
X5745Y3869D02*
X5745Y3869D01*
X5745Y3869*
X5745Y3869*
X5746Y3869*
X5746Y3869*
X5747Y3869*
X5747Y3869*
X5748Y3869*
X5748Y3868*
X5748Y3868*
X5749Y3868*
X5749Y3868*
X5749Y3868*
X5749Y3868*
X5749Y3868*
X5749Y3867*
X5749Y3867*
X5749Y3867*
X5750Y3867*
X5750Y3866*
X5750Y3866*
X5750Y3865*
X5750Y3865*
X5750Y3864*
X5748Y3864*
Y3864*
X5748Y3864*
X5748Y3864*
X5748Y3864*
X5748Y3864*
X5748Y3864*
X5748Y3865*
X5748Y3865*
X5747Y3866*
X5747Y3866*
X5747Y3867*
X5747Y3867*
X5746Y3867*
X5746Y3867*
X5746Y3867*
X5746Y3867*
X5745Y3867*
X5745Y3868*
X5744Y3868*
X5744*
X5744Y3868*
X5744Y3868*
X5743Y3867*
X5743Y3867*
X5742Y3867*
X5742Y3867*
X5741Y3866*
X5741Y3866*
X5741Y3866*
X5741Y3866*
X5741Y3866*
X5741Y3865*
X5741Y3865*
X5740Y3864*
X5740Y3864*
Y3864*
Y3863*
Y3863*
X5740Y3863*
X5740Y3863*
X5740Y3863*
X5741Y3862*
X5741Y3862*
X5741Y3861*
X5741Y3861*
X5741Y3861*
X5742Y3861*
X5742Y3861*
X5742Y3860*
X5742Y3860*
X5743Y3860*
X5743Y3860*
X5744Y3860*
X5744*
X5745Y3860*
X5745Y3860*
X5745Y3860*
X5745Y3860*
X5746Y3860*
X5745Y3858*
X5745*
X5745Y3858*
X5745*
X5745Y3858*
X5744Y3858*
X5744Y3858*
X5743Y3858*
X5743Y3858*
X5742Y3857*
X5742*
X5742Y3857*
X5742Y3857*
X5742Y3857*
X5742Y3857*
X5742Y3856*
X5741Y3856*
X5741Y3855*
X5741Y3855*
Y3855*
Y3855*
Y3855*
Y3855*
X5741Y3854*
X5741Y3854*
X5741Y3854*
X5742Y3853*
X5742Y3853*
X5742Y3853*
X5742Y3853*
X5742Y3853*
X5742Y3852*
X5743Y3852*
X5743Y3852*
X5743Y3852*
X5744Y3852*
X5744Y3852*
X5745*
X5745Y3852*
X5745Y3852*
X5745Y3852*
X5746Y3852*
X5746Y3852*
X5747Y3853*
X5747Y3853*
X5747Y3853*
X5747Y3853*
X5747Y3853*
X5747Y3854*
X5747Y3854*
X5748Y3855*
X5748Y3855*
X5750Y3855*
Y3855*
X5750Y3855*
X5750Y3855*
X5750Y3854*
X5750Y3854*
X5750Y3854*
X5750Y3854*
X5749Y3853*
X5749Y3852*
X5749Y3852*
X5748Y3851*
X5748Y3851*
X5748Y3851*
X5748Y3851*
X5748Y3851*
X5748Y3851*
X5748Y3851*
X5747Y3851*
X5747Y3851*
X5747Y3850*
X5746Y3850*
X5745Y3850*
X5745Y3850*
X5744*
X5744Y3850*
X5743Y3850*
X5743Y3850*
X5742Y3850*
X5742Y3850*
X5742Y3851*
X5741*
X5741Y3851*
X5741Y3851*
X5741Y3851*
X5741Y3851*
X5740Y3851*
X5740Y3852*
X5740Y3852*
X5739Y3852*
X5739Y3852*
X5739Y3853*
X5739Y3853*
X5739Y3853*
X5739Y3854*
X5739Y3854*
X5739Y3854*
X5739Y3855*
Y3855*
Y3855*
X5739Y3855*
X5739Y3856*
X5739Y3856*
X5739Y3856*
X5739Y3857*
X5739Y3857*
X5739Y3857*
X5740Y3857*
X5740Y3858*
X5740Y3858*
X5740Y3858*
X5741Y3858*
X5741Y3859*
X5741Y3859*
X5741*
X5741Y3859*
X5741Y3859*
X5741Y3859*
X5741Y3859*
X5740Y3859*
X5740Y3859*
X5740Y3860*
X5739Y3860*
X5739Y3860*
X5739Y3860*
X5739Y3861*
X5738Y3861*
X5738Y3861*
X5738Y3862*
X5738Y3862*
X5738Y3863*
X5738Y3864*
Y3864*
Y3864*
Y3864*
X5738Y3864*
X5738Y3864*
X5738Y3864*
X5738Y3865*
X5738Y3865*
X5738Y3866*
X5738Y3866*
X5739Y3866*
X5739Y3867*
X5739Y3867*
X5739Y3867*
X5740Y3868*
X5740Y3868*
X5740Y3868*
X5740Y3868*
X5740Y3868*
X5740Y3868*
X5740Y3868*
X5741Y3868*
X5741Y3869*
X5741Y3869*
X5742Y3869*
X5742Y3869*
X5742Y3869*
X5743Y3869*
X5743Y3869*
X5744Y3869*
X5744Y3870*
X5745*
X5745Y3869*
G37*
G36*
X5761D02*
X5761D01*
X5762Y3869*
X5762Y3869*
X5762Y3869*
X5763Y3869*
X5764Y3869*
X5765Y3869*
X5765Y3868*
X5766Y3868*
X5766Y3868*
X5766Y3868*
X5766Y3868*
X5766Y3868*
X5766Y3868*
X5766Y3868*
X5766Y3868*
X5767Y3867*
X5767Y3867*
X5767Y3867*
X5768Y3866*
X5768Y3865*
X5769Y3865*
Y3865*
X5769Y3864*
X5769Y3864*
X5769Y3864*
X5769Y3864*
X5769Y3864*
X5769Y3863*
X5769Y3863*
X5769Y3863*
X5769Y3862*
X5769Y3861*
X5769Y3860*
X5770Y3859*
Y3859*
Y3859*
Y3859*
X5769Y3859*
Y3859*
X5769Y3858*
X5769Y3858*
X5769Y3858*
X5769Y3857*
X5769Y3856*
X5769Y3855*
X5768Y3854*
X5768Y3854*
X5768Y3854*
X5768Y3854*
X5768Y3854*
X5768Y3854*
X5768Y3853*
X5768Y3853*
X5767Y3852*
X5767Y3852*
X5766Y3851*
X5765Y3851*
X5765Y3851*
X5765Y3851*
X5765Y3851*
X5765Y3851*
X5765Y3851*
X5764Y3850*
X5764Y3850*
X5764Y3850*
X5763Y3850*
X5763Y3850*
X5762Y3850*
X5761Y3850*
X5760Y3850*
X5760*
X5760Y3850*
X5760Y3850*
X5759Y3850*
X5759Y3850*
X5759Y3850*
X5758Y3850*
X5757Y3850*
X5757Y3850*
X5756Y3851*
X5756Y3851*
X5756Y3851*
X5756Y3851*
X5756Y3851*
X5755Y3851*
X5755Y3851*
X5755Y3852*
X5755Y3852*
X5755Y3852*
X5755Y3852*
X5754Y3852*
X5754Y3853*
X5754Y3853*
X5754Y3853*
X5753Y3854*
X5753Y3854*
X5753Y3855*
X5753Y3855*
X5755Y3856*
Y3856*
X5755Y3856*
X5755Y3856*
X5756Y3856*
X5756Y3855*
X5756Y3855*
X5756Y3855*
X5756Y3854*
X5756Y3854*
X5757Y3853*
X5757Y3853*
X5757Y3853*
X5758Y3853*
X5758Y3852*
X5758Y3852*
X5759Y3852*
X5759Y3852*
X5760Y3852*
X5761Y3852*
X5761*
X5761Y3852*
X5761*
X5761Y3852*
X5762Y3852*
X5762Y3852*
X5763Y3852*
X5764Y3853*
X5764Y3853*
X5764*
X5764Y3853*
X5764Y3853*
X5765Y3853*
X5765Y3854*
X5765Y3854*
X5766Y3855*
X5766Y3855*
X5766Y3856*
Y3856*
X5766Y3856*
X5766Y3856*
X5766Y3856*
X5766Y3856*
X5767Y3856*
X5767Y3857*
X5767Y3857*
X5767Y3858*
X5767Y3859*
X5767Y3859*
Y3859*
Y3860*
Y3860*
Y3860*
X5767Y3860*
Y3860*
X5767Y3861*
X5767Y3861*
X5767Y3862*
X5767Y3862*
X5766Y3863*
X5766Y3864*
Y3864*
X5766Y3864*
X5766Y3864*
X5766Y3864*
X5766Y3864*
X5766Y3865*
X5765Y3865*
X5765Y3866*
X5765Y3866*
X5764Y3866*
X5764*
X5764Y3866*
X5764Y3867*
X5764Y3867*
X5764Y3867*
X5763Y3867*
X5763Y3867*
X5763Y3867*
X5762Y3867*
X5761Y3867*
X5761Y3867*
X5761*
X5760Y3867*
X5760*
X5760Y3867*
X5759Y3867*
X5759Y3867*
X5758Y3867*
X5758Y3867*
X5757Y3866*
X5757Y3866*
X5757Y3866*
X5757Y3866*
X5757Y3866*
X5757Y3866*
X5757Y3866*
X5757Y3866*
X5756Y3865*
X5756Y3865*
X5756Y3865*
X5756Y3865*
X5756Y3864*
X5756Y3864*
X5755Y3864*
X5755Y3863*
X5755Y3863*
X5755Y3862*
X5753Y3863*
Y3863*
X5753Y3863*
X5753Y3863*
X5753Y3864*
X5753Y3864*
X5753Y3864*
X5753Y3865*
X5753Y3865*
X5754Y3866*
X5754Y3866*
X5754Y3867*
X5755Y3867*
X5755Y3868*
X5755Y3868*
X5755Y3868*
X5756Y3868*
X5756Y3868*
X5756Y3868*
X5756Y3868*
X5756Y3868*
X5757Y3869*
X5757Y3869*
X5757Y3869*
X5758Y3869*
X5758Y3869*
X5758Y3869*
X5759Y3869*
X5759Y3869*
X5760Y3869*
X5761Y3870*
X5761*
X5761Y3869*
G37*
G36*
X5626Y3853D02*
X5626D01*
X5627Y3853*
X5627Y3853*
X5627Y3853*
X5628Y3853*
X5629Y3853*
X5630Y3853*
X5630Y3852*
X5631Y3852*
X5631Y3852*
X5631Y3852*
X5631Y3852*
X5631Y3852*
X5631Y3852*
X5631Y3852*
X5631Y3852*
X5632Y3851*
X5632Y3851*
X5632Y3851*
X5633Y3850*
X5633Y3849*
X5634Y3849*
Y3849*
X5634Y3848*
X5634Y3848*
X5634Y3848*
X5634Y3848*
X5634Y3848*
X5634Y3847*
X5634Y3847*
X5634Y3847*
X5634Y3846*
X5634Y3845*
X5634Y3844*
X5635Y3843*
Y3843*
Y3843*
Y3843*
X5634Y3843*
Y3843*
X5634Y3842*
X5634Y3842*
X5634Y3842*
X5634Y3841*
X5634Y3840*
X5634Y3839*
X5633Y3838*
X5633Y3838*
X5633Y3838*
X5633Y3838*
X5633Y3838*
X5633Y3838*
X5633Y3837*
X5633Y3837*
X5632Y3836*
X5632Y3836*
X5631Y3835*
X5630Y3835*
X5630Y3835*
X5630Y3835*
X5630Y3835*
X5630Y3835*
X5630Y3835*
X5629Y3834*
X5629Y3834*
X5629Y3834*
X5628Y3834*
X5628Y3834*
X5627Y3834*
X5626Y3834*
X5625Y3834*
X5625*
X5625Y3834*
X5625Y3834*
X5624Y3834*
X5624Y3834*
X5624Y3834*
X5623Y3834*
X5622Y3834*
X5622Y3834*
X5621Y3835*
X5621Y3835*
X5621Y3835*
X5621Y3835*
X5621Y3835*
X5620Y3835*
X5620Y3835*
X5620Y3836*
X5620Y3836*
X5620Y3836*
X5620Y3836*
X5619Y3836*
X5619Y3837*
X5619Y3837*
X5619Y3837*
X5618Y3838*
X5618Y3838*
X5618Y3839*
X5618Y3839*
X5620Y3840*
Y3840*
X5620Y3840*
X5620Y3840*
X5621Y3840*
X5621Y3839*
X5621Y3839*
X5621Y3839*
X5621Y3838*
X5621Y3838*
X5622Y3837*
X5622Y3837*
X5622Y3837*
X5623Y3837*
X5623Y3836*
X5623Y3836*
X5624Y3836*
X5624Y3836*
X5625Y3836*
X5626Y3836*
X5626*
X5626Y3836*
X5626*
X5626Y3836*
X5627Y3836*
X5627Y3836*
X5628Y3836*
X5629Y3837*
X5629Y3837*
X5629*
X5629Y3837*
X5629Y3837*
X5630Y3837*
X5630Y3838*
X5630Y3838*
X5631Y3839*
X5631Y3839*
X5631Y3840*
Y3840*
X5631Y3840*
X5631Y3840*
X5631Y3840*
X5631Y3840*
X5632Y3840*
X5632Y3841*
X5632Y3841*
X5632Y3842*
X5632Y3843*
X5632Y3843*
Y3843*
Y3844*
Y3844*
Y3844*
X5632Y3844*
Y3844*
X5632Y3845*
X5632Y3845*
X5632Y3846*
X5632Y3846*
X5631Y3847*
X5631Y3848*
Y3848*
X5631Y3848*
X5631Y3848*
X5631Y3848*
X5631Y3848*
X5631Y3849*
X5630Y3849*
X5630Y3850*
X5630Y3850*
X5629Y3850*
X5629*
X5629Y3850*
X5629Y3851*
X5629Y3851*
X5629Y3851*
X5628Y3851*
X5628Y3851*
X5628Y3851*
X5627Y3851*
X5626Y3851*
X5626Y3851*
X5626*
X5625Y3851*
X5625*
X5625Y3851*
X5624Y3851*
X5624Y3851*
X5623Y3851*
X5623Y3851*
X5622Y3850*
X5622Y3850*
X5622Y3850*
X5622Y3850*
X5622Y3850*
X5622Y3850*
X5622Y3850*
X5622Y3850*
X5621Y3849*
X5621Y3849*
X5621Y3849*
X5621Y3849*
X5621Y3848*
X5621Y3848*
X5620Y3848*
X5620Y3847*
X5620Y3847*
X5620Y3846*
X5618Y3847*
Y3847*
X5618Y3847*
X5618Y3847*
X5618Y3848*
X5618Y3848*
X5618Y3848*
X5618Y3849*
X5618Y3849*
X5619Y3850*
X5619Y3850*
X5619Y3851*
X5620Y3851*
X5620Y3852*
X5620Y3852*
X5620Y3852*
X5621Y3852*
X5621Y3852*
X5621Y3852*
X5621Y3852*
X5621Y3852*
X5622Y3853*
X5622Y3853*
X5622Y3853*
X5623Y3853*
X5623Y3853*
X5623Y3853*
X5624Y3853*
X5624Y3853*
X5625Y3853*
X5626Y3854*
X5626*
X5626Y3853*
G37*
G36*
X5616Y3853D02*
Y3853D01*
Y3853*
X5616Y3853*
X5616Y3852*
X5616Y3852*
X5616Y3852*
X5615Y3852*
Y3852*
X5615Y3851*
X5615Y3851*
X5615Y3851*
X5615Y3851*
X5615Y3850*
X5615Y3850*
X5614Y3849*
X5614Y3849*
Y3849*
X5614Y3849*
X5614Y3849*
X5613Y3849*
X5613Y3848*
X5613Y3848*
X5612Y3847*
X5612Y3847*
X5611Y3846*
X5611Y3846*
X5611Y3846*
X5611Y3846*
X5610Y3846*
X5610Y3845*
X5610Y3845*
X5609Y3845*
X5609Y3845*
X5608Y3844*
X5608Y3843*
X5607Y3843*
X5607Y3843*
X5607Y3842*
X5607Y3842*
Y3842*
X5607Y3842*
X5606Y3842*
X5606Y3842*
X5606Y3841*
X5606Y3841*
X5606Y3841*
X5606Y3840*
X5606Y3840*
X5605Y3839*
Y3839*
Y3839*
X5605Y3839*
X5606Y3839*
X5606Y3838*
X5606Y3838*
X5606Y3838*
X5606Y3837*
X5606Y3837*
X5607Y3837*
X5607Y3837*
X5607Y3837*
X5607Y3836*
X5608Y3836*
X5608Y3836*
X5609Y3836*
X5609Y3836*
X5609*
X5609Y3836*
X5610Y3836*
X5610Y3836*
X5611Y3836*
X5611Y3836*
X5611Y3837*
X5612Y3837*
X5612Y3837*
X5612Y3837*
X5612Y3837*
X5612Y3838*
X5613Y3838*
X5613Y3839*
X5613Y3839*
X5613Y3840*
X5615Y3839*
Y3839*
X5615Y3839*
Y3839*
X5615Y3839*
X5615Y3839*
X5615Y3839*
X5615Y3838*
X5615Y3838*
X5615Y3837*
X5614Y3837*
X5614Y3836*
X5614Y3836*
X5614Y3836*
X5613Y3835*
X5613Y3835*
X5613Y3835*
X5613Y3835*
X5613Y3835*
X5613Y3835*
X5613Y3835*
X5613Y3835*
X5612Y3835*
X5612Y3835*
X5612Y3834*
X5611Y3834*
X5611Y3834*
X5610Y3834*
X5610Y3834*
X5610Y3834*
X5609Y3834*
X5609*
X5609Y3834*
X5608Y3834*
X5608Y3834*
X5608Y3834*
X5607Y3834*
X5607Y3834*
X5606Y3835*
X5606Y3835*
X5605Y3835*
X5605Y3835*
X5605Y3835*
X5605Y3835*
X5605Y3836*
X5605Y3836*
X5604Y3836*
X5604Y3836*
X5604Y3836*
X5604Y3836*
X5604Y3837*
X5604Y3837*
X5603Y3838*
X5603Y3838*
X5603Y3838*
X5603Y3839*
X5603Y3839*
Y3839*
Y3839*
X5603Y3840*
X5603Y3840*
X5603Y3840*
X5603Y3841*
X5603Y3841*
X5604Y3842*
X5604Y3842*
X5604Y3842*
X5604Y3842*
X5604Y3842*
X5604Y3843*
X5604Y3843*
X5605Y3843*
X5605Y3844*
X5605Y3844*
X5605Y3844*
X5605Y3844*
X5606Y3844*
X5606Y3845*
X5606Y3845*
X5606Y3845*
X5606Y3845*
X5607Y3845*
X5607Y3846*
X5607Y3846*
X5608Y3846*
X5608Y3847*
X5609Y3847*
X5609Y3847*
X5609Y3847*
X5609Y3847*
X5609Y3847*
X5609Y3848*
X5609Y3848*
X5610Y3848*
X5610Y3849*
X5611Y3849*
X5611Y3849*
X5611Y3850*
X5611Y3850*
X5611Y3850*
X5612Y3850*
X5612Y3850*
X5612Y3850*
X5612Y3850*
X5612Y3850*
X5612Y3851*
X5603*
Y3853*
X5616*
Y3853*
G37*
G36*
X5784Y4008D02*
Y4000D01*
X5782*
Y4008*
X5775Y4019*
X5778*
X5781Y4013*
Y4013*
X5781Y4013*
X5781Y4013*
X5782Y4013*
X5782Y4012*
X5782Y4012*
X5782Y4012*
X5782Y4011*
X5783Y4011*
X5783Y4010*
X5783Y4010*
Y4010*
X5783Y4010*
X5783Y4010*
X5783Y4010*
X5784Y4010*
X5784Y4010*
X5784Y4011*
X5784Y4011*
X5785Y4012*
X5785Y4012*
X5785Y4013*
X5789Y4019*
X5792*
X5784Y4008*
G37*
G36*
X5802Y4000D02*
X5800D01*
Y4014*
X5800Y4014*
X5800Y4014*
X5800Y4014*
X5799Y4014*
X5799Y4014*
X5799Y4013*
X5798Y4013*
X5798Y4013*
X5798*
X5798Y4013*
X5797Y4013*
X5797Y4013*
X5797Y4012*
X5796Y4012*
X5796Y4012*
X5796Y4012*
X5795Y4012*
Y4014*
X5795*
X5795Y4014*
X5795Y4014*
X5796Y4014*
X5796Y4014*
X5796Y4014*
X5796Y4015*
X5797Y4015*
X5797Y4015*
X5798Y4016*
X5799Y4016*
X5799Y4016*
X5799Y4016*
X5799Y4016*
X5799Y4016*
X5799Y4017*
X5799Y4017*
X5800Y4017*
X5800Y4018*
X5800Y4018*
X5801Y4019*
X5802*
Y4000*
G37*
G36*
X5645Y3577D02*
X5645Y3577D01*
X5646Y3577*
X5646Y3577*
X5646Y3577*
X5647Y3577*
X5648Y3577*
X5648Y3577*
X5649Y3576*
X5649Y3576*
X5649Y3576*
X5649Y3576*
X5649Y3576*
X5650Y3576*
X5650Y3576*
X5650Y3575*
X5650Y3575*
X5650Y3575*
X5650Y3575*
X5651Y3575*
X5651Y3574*
X5651Y3574*
X5651Y3574*
X5652Y3573*
X5652Y3573*
X5652Y3572*
X5652Y3572*
X5650Y3571*
Y3571*
X5650Y3571*
X5650Y3571*
X5649Y3571*
X5649Y3572*
X5649Y3572*
X5649Y3572*
X5649Y3573*
X5649Y3573*
X5648Y3574*
X5648Y3574*
X5648Y3574*
X5647Y3574*
X5647Y3575*
X5647Y3575*
X5646Y3575*
X5646Y3575*
X5645Y3575*
X5644Y3575*
X5644*
X5644Y3575*
X5644*
X5644Y3575*
X5643Y3575*
X5643Y3575*
X5642Y3575*
X5641Y3574*
X5641Y3574*
X5641*
X5641Y3574*
X5641Y3574*
X5640Y3574*
X5640Y3573*
X5640Y3573*
X5639Y3572*
X5639Y3572*
X5639Y3571*
Y3571*
X5639Y3571*
X5639Y3571*
X5639Y3571*
X5639Y3571*
X5638Y3571*
X5638Y3570*
X5638Y3570*
X5638Y3569*
X5638Y3568*
X5638Y3568*
Y3568*
Y3567*
Y3567*
Y3567*
X5638Y3567*
Y3567*
X5638Y3566*
X5638Y3566*
X5638Y3565*
X5638Y3565*
X5639Y3564*
X5639Y3563*
Y3563*
X5639Y3563*
X5639Y3563*
X5639Y3563*
X5639Y3563*
X5639Y3562*
X5640Y3562*
X5640Y3561*
X5640Y3561*
X5641Y3561*
X5641*
X5641Y3561*
X5641Y3560*
X5641Y3560*
X5641Y3560*
X5642Y3560*
X5642Y3560*
X5642Y3560*
X5643Y3560*
X5644Y3560*
X5644Y3560*
X5644*
X5645Y3560*
X5645*
X5645Y3560*
X5646Y3560*
X5646Y3560*
X5647Y3560*
X5647Y3560*
X5648Y3561*
X5648Y3561*
X5648Y3561*
X5648Y3561*
X5648Y3561*
X5648Y3561*
X5648Y3561*
X5648Y3561*
X5649Y3562*
X5649Y3562*
X5649Y3562*
X5649Y3562*
X5649Y3563*
X5649Y3563*
X5650Y3563*
X5650Y3564*
X5650Y3564*
X5650Y3565*
X5652Y3564*
Y3564*
X5652Y3564*
X5652Y3564*
X5652Y3563*
X5652Y3563*
X5652Y3563*
X5652Y3562*
X5652Y3562*
X5651Y3561*
X5651Y3561*
X5651Y3560*
X5650Y3560*
X5650Y3559*
X5650Y3559*
X5650Y3559*
X5649Y3559*
X5649Y3559*
X5649Y3559*
X5649Y3559*
X5649Y3559*
X5648Y3558*
X5648Y3558*
X5648Y3558*
X5647Y3558*
X5647Y3558*
X5647Y3558*
X5646Y3558*
X5646Y3558*
X5645Y3558*
X5645Y3558*
X5644*
X5644Y3558*
X5644*
X5643Y3558*
X5643Y3558*
X5643Y3558*
X5642Y3558*
X5641Y3558*
X5640Y3558*
X5640Y3559*
X5639Y3559*
X5639Y3559*
X5639Y3559*
X5639Y3559*
X5639Y3559*
X5639Y3559*
X5639Y3559*
X5639Y3559*
X5638Y3560*
X5638Y3560*
X5638Y3560*
X5637Y3561*
X5637Y3562*
X5637Y3562*
Y3562*
X5636Y3563*
X5636Y3563*
X5636Y3563*
X5636Y3563*
X5636Y3563*
X5636Y3564*
X5636Y3564*
X5636Y3564*
X5636Y3565*
X5636Y3566*
X5636Y3567*
X5636Y3568*
Y3568*
Y3568*
Y3568*
X5636Y3568*
Y3568*
X5636Y3569*
X5636Y3569*
X5636Y3569*
X5636Y3570*
X5636Y3571*
X5636Y3572*
X5637Y3573*
X5637Y3573*
X5637Y3573*
X5637Y3573*
X5637Y3573*
X5637Y3573*
X5637Y3574*
X5637Y3574*
X5638Y3575*
X5638Y3575*
X5639Y3576*
X5640Y3576*
X5640Y3576*
X5640Y3576*
X5640Y3576*
X5640Y3576*
X5640Y3576*
X5641Y3577*
X5641Y3577*
X5641Y3577*
X5642Y3577*
X5642Y3577*
X5643Y3577*
X5644Y3577*
X5645Y3577*
X5645*
X5645Y3577*
G37*
G36*
X5663Y3558D02*
X5661D01*
Y3573*
X5661Y3573*
X5661Y3573*
X5661Y3573*
X5661Y3572*
X5660Y3572*
X5660Y3572*
X5659Y3571*
X5659Y3571*
X5659*
X5659Y3571*
X5659Y3571*
X5658Y3571*
X5658Y3571*
X5658Y3571*
X5657Y3570*
X5657Y3570*
X5656Y3570*
Y3572*
X5656*
X5657Y3572*
X5657Y3572*
X5657Y3572*
X5657Y3573*
X5657Y3573*
X5658Y3573*
X5658Y3573*
X5659Y3574*
X5659Y3574*
X5660Y3575*
X5660Y3575*
X5660Y3575*
X5660Y3575*
X5660Y3575*
X5660Y3575*
X5661Y3575*
X5661Y3576*
X5661Y3576*
X5662Y3577*
X5662Y3577*
X5663*
Y3558*
G37*
G36*
X5389Y3218D02*
X5389Y3218D01*
X5390Y3218*
X5390Y3218*
X5390Y3218*
X5391Y3218*
X5392Y3218*
X5392Y3218*
X5393Y3217*
X5393Y3217*
X5393Y3217*
X5393Y3217*
X5393Y3217*
X5394Y3217*
X5394Y3217*
X5394Y3216*
X5394Y3216*
X5394Y3216*
X5394Y3216*
X5395Y3216*
X5395Y3215*
X5395Y3215*
X5395Y3215*
X5396Y3214*
X5396Y3214*
X5396Y3213*
X5396Y3213*
X5394Y3212*
Y3212*
X5394Y3212*
X5394Y3212*
X5393Y3212*
X5393Y3213*
X5393Y3213*
X5393Y3213*
X5393Y3214*
X5393Y3214*
X5392Y3215*
X5392Y3215*
X5392Y3215*
X5391Y3215*
X5391Y3216*
X5391Y3216*
X5390Y3216*
X5390Y3216*
X5389Y3216*
X5388Y3216*
X5388*
X5388Y3216*
X5388*
X5388Y3216*
X5387Y3216*
X5387Y3216*
X5386Y3216*
X5385Y3215*
X5385Y3215*
X5385*
X5385Y3215*
X5385Y3215*
X5384Y3215*
X5384Y3214*
X5384Y3214*
X5383Y3213*
X5383Y3213*
X5383Y3212*
Y3212*
X5383Y3212*
X5383Y3212*
X5383Y3212*
X5383Y3212*
X5382Y3212*
X5382Y3211*
X5382Y3211*
X5382Y3210*
X5382Y3209*
X5382Y3209*
Y3209*
Y3208*
Y3208*
Y3208*
X5382Y3208*
Y3208*
X5382Y3207*
X5382Y3207*
X5382Y3206*
X5382Y3206*
X5383Y3205*
X5383Y3204*
Y3204*
X5383Y3204*
X5383Y3204*
X5383Y3204*
X5383Y3204*
X5383Y3203*
X5384Y3203*
X5384Y3202*
X5384Y3202*
X5385Y3202*
X5385*
X5385Y3202*
X5385Y3201*
X5385Y3201*
X5385Y3201*
X5386Y3201*
X5386Y3201*
X5386Y3201*
X5387Y3201*
X5388Y3201*
X5388Y3201*
X5388*
X5389Y3201*
X5389*
X5389Y3201*
X5390Y3201*
X5390Y3201*
X5391Y3201*
X5391Y3201*
X5392Y3202*
X5392Y3202*
X5392Y3202*
X5392Y3202*
X5392Y3202*
X5392Y3202*
X5392Y3202*
X5392Y3202*
X5393Y3203*
X5393Y3203*
X5393Y3203*
X5393Y3203*
X5393Y3204*
X5393Y3204*
X5394Y3204*
X5394Y3205*
X5394Y3205*
X5394Y3206*
X5396Y3205*
Y3205*
X5396Y3205*
X5396Y3205*
X5396Y3204*
X5396Y3204*
X5396Y3204*
X5396Y3203*
X5396Y3203*
X5395Y3202*
X5395Y3202*
X5395Y3201*
X5394Y3201*
X5394Y3200*
X5394Y3200*
X5394Y3200*
X5393Y3200*
X5393Y3200*
X5393Y3200*
X5393Y3200*
X5393Y3200*
X5392Y3199*
X5392Y3199*
X5392Y3199*
X5391Y3199*
X5391Y3199*
X5391Y3199*
X5390Y3199*
X5390Y3199*
X5389Y3199*
X5389Y3199*
X5388*
X5388Y3199*
X5388*
X5387Y3199*
X5387Y3199*
X5387Y3199*
X5386Y3199*
X5385Y3199*
X5384Y3199*
X5384Y3200*
X5383Y3200*
X5383Y3200*
X5383Y3200*
X5383Y3200*
X5383Y3200*
X5383Y3200*
X5383Y3200*
X5383Y3200*
X5382Y3201*
X5382Y3201*
X5382Y3201*
X5381Y3202*
X5381Y3203*
X5381Y3203*
Y3203*
X5380Y3204*
X5380Y3204*
X5380Y3204*
X5380Y3204*
X5380Y3204*
X5380Y3205*
X5380Y3205*
X5380Y3205*
X5380Y3206*
X5380Y3207*
X5380Y3208*
X5380Y3209*
Y3209*
Y3209*
Y3209*
X5380Y3209*
Y3209*
X5380Y3210*
X5380Y3210*
X5380Y3210*
X5380Y3211*
X5380Y3212*
X5380Y3213*
X5381Y3214*
X5381Y3214*
X5381Y3214*
X5381Y3214*
X5381Y3214*
X5381Y3214*
X5381Y3215*
X5381Y3215*
X5382Y3216*
X5382Y3216*
X5383Y3217*
X5384Y3217*
X5384Y3217*
X5384Y3217*
X5384Y3217*
X5384Y3217*
X5384Y3217*
X5385Y3218*
X5385Y3218*
X5385Y3218*
X5386Y3218*
X5386Y3218*
X5387Y3218*
X5388Y3218*
X5389Y3218*
X5389*
X5389Y3218*
G37*
G36*
X5407Y3199D02*
X5405D01*
Y3214*
X5405Y3214*
X5405Y3214*
X5405Y3214*
X5405Y3213*
X5404Y3213*
X5404Y3213*
X5403Y3212*
X5403Y3212*
X5403*
X5403Y3212*
X5403Y3212*
X5402Y3212*
X5402Y3212*
X5402Y3212*
X5401Y3211*
X5401Y3211*
X5400Y3211*
Y3213*
X5400*
X5401Y3213*
X5401Y3213*
X5401Y3213*
X5401Y3214*
X5401Y3214*
X5402Y3214*
X5402Y3214*
X5403Y3215*
X5403Y3215*
X5404Y3216*
X5404Y3216*
X5404Y3216*
X5404Y3216*
X5404Y3216*
X5404Y3216*
X5405Y3216*
X5405Y3217*
X5405Y3217*
X5406Y3218*
X5406Y3218*
X5407*
Y3199*
G37*
G36*
X5420Y3218D02*
X5420Y3218D01*
X5421Y3218*
X5421Y3218*
X5421Y3218*
X5422Y3218*
X5423Y3217*
X5423Y3217*
X5423Y3217*
X5423Y3217*
X5424Y3217*
X5424Y3217*
X5424Y3217*
X5424Y3216*
X5424Y3216*
X5424Y3216*
X5424Y3216*
X5425Y3216*
X5425Y3215*
X5425Y3214*
X5425Y3214*
X5425Y3213*
X5425Y3213*
Y3213*
Y3213*
Y3213*
X5425Y3213*
X5425Y3212*
X5425Y3212*
X5425Y3211*
X5425Y3211*
X5425Y3211*
X5425Y3211*
X5424Y3211*
X5424Y3210*
X5424Y3210*
X5424Y3210*
X5423Y3210*
X5423Y3209*
X5423Y3209*
X5423*
X5423Y3209*
X5423Y3209*
X5423Y3209*
X5423Y3209*
X5424Y3209*
X5424Y3208*
X5424Y3208*
X5425Y3208*
X5425Y3207*
Y3207*
X5425Y3207*
X5425Y3207*
X5425Y3207*
X5426Y3206*
X5426Y3206*
X5426Y3206*
X5426Y3205*
X5426Y3204*
Y3204*
Y3204*
Y3204*
X5426Y3204*
X5426Y3204*
X5426Y3203*
X5426Y3203*
X5426Y3203*
X5426Y3202*
X5426Y3202*
X5425Y3202*
X5425Y3201*
X5425Y3201*
X5425Y3200*
X5424Y3200*
X5424Y3200*
X5424Y3200*
X5424Y3200*
X5424Y3200*
X5424Y3200*
X5424Y3200*
X5423Y3200*
X5423Y3199*
X5423Y3199*
X5422Y3199*
X5422Y3199*
X5422Y3199*
X5421Y3199*
X5421Y3199*
X5420Y3199*
X5420Y3199*
X5420*
X5419Y3199*
X5419Y3199*
X5419Y3199*
X5419Y3199*
X5418Y3199*
X5417Y3199*
X5417Y3199*
X5417Y3199*
X5416Y3199*
X5416Y3200*
X5416Y3200*
X5415Y3200*
X5415Y3200*
X5415Y3200*
X5415Y3200*
X5415Y3200*
X5415Y3201*
X5415Y3201*
X5415Y3201*
X5414Y3201*
X5414Y3202*
X5414Y3202*
X5414Y3203*
X5414Y3203*
X5414Y3203*
X5414Y3204*
X5413Y3204*
Y3204*
Y3204*
Y3205*
X5414Y3205*
Y3205*
X5414Y3205*
X5414Y3205*
X5414Y3206*
X5414Y3206*
X5414Y3207*
X5414Y3207*
Y3208*
X5414Y3208*
X5415Y3208*
X5415Y3208*
X5415Y3208*
X5416Y3208*
X5416Y3209*
X5417Y3209*
X5417Y3209*
X5417*
X5417Y3209*
X5417Y3209*
X5417Y3209*
X5417Y3209*
X5416Y3210*
X5416Y3210*
X5416Y3210*
X5415Y3210*
X5415Y3211*
X5415Y3211*
X5415Y3211*
X5415Y3211*
X5415Y3211*
X5414Y3212*
X5414Y3212*
X5414Y3213*
X5414Y3213*
Y3213*
Y3213*
Y3213*
X5414Y3213*
X5414Y3214*
X5414Y3214*
X5414Y3214*
X5415Y3215*
X5415Y3215*
X5415Y3216*
X5415Y3216*
X5416Y3216*
X5416Y3217*
X5416Y3217*
X5416Y3217*
X5416Y3217*
X5416Y3217*
X5416Y3217*
X5416Y3217*
X5417Y3217*
X5417Y3217*
X5417Y3218*
X5417Y3218*
X5418Y3218*
X5418Y3218*
X5419Y3218*
X5419Y3218*
X5420Y3218*
X5420*
X5420Y3218*
G37*
G36*
X5755Y4125D02*
X5755D01*
X5756Y4125*
X5756Y4125*
X5756Y4125*
X5757Y4125*
X5758Y4125*
X5759Y4125*
X5759Y4124*
X5760Y4124*
X5760Y4124*
X5760Y4124*
X5760Y4124*
X5760Y4124*
X5760Y4124*
X5760Y4124*
X5760Y4124*
X5761Y4123*
X5761Y4123*
X5761Y4123*
X5762Y4122*
X5762Y4121*
X5763Y4121*
Y4121*
X5763Y4120*
X5763Y4120*
X5763Y4120*
X5763Y4120*
X5763Y4120*
X5763Y4119*
X5763Y4119*
X5763Y4119*
X5763Y4118*
X5763Y4117*
X5763Y4116*
X5764Y4115*
Y4115*
Y4115*
Y4115*
X5763Y4115*
Y4115*
X5763Y4114*
X5763Y4114*
X5763Y4114*
X5763Y4113*
X5763Y4112*
X5763Y4111*
X5762Y4110*
X5762Y4110*
X5762Y4110*
X5762Y4110*
X5762Y4110*
X5762Y4110*
X5762Y4109*
X5762Y4109*
X5761Y4108*
X5761Y4108*
X5760Y4107*
X5759Y4107*
X5759Y4107*
X5759Y4107*
X5759Y4107*
X5759Y4107*
X5759Y4107*
X5758Y4106*
X5758Y4106*
X5758Y4106*
X5757Y4106*
X5757Y4106*
X5756Y4106*
X5755Y4106*
X5754Y4106*
X5754*
X5754Y4106*
X5754Y4106*
X5753Y4106*
X5753Y4106*
X5753Y4106*
X5752Y4106*
X5751Y4106*
X5751Y4106*
X5750Y4107*
X5750Y4107*
X5750Y4107*
X5750Y4107*
X5750Y4107*
X5749Y4107*
X5749Y4107*
X5749Y4108*
X5749Y4108*
X5749Y4108*
X5749Y4108*
X5748Y4108*
X5748Y4109*
X5748Y4109*
X5748Y4109*
X5747Y4110*
X5747Y4110*
X5747Y4111*
X5747Y4111*
X5749Y4112*
Y4112*
X5749Y4112*
X5749Y4112*
X5750Y4112*
X5750Y4111*
X5750Y4111*
X5750Y4111*
X5750Y4110*
X5750Y4110*
X5751Y4109*
X5751Y4109*
X5751Y4109*
X5752Y4109*
X5752Y4108*
X5752Y4108*
X5753Y4108*
X5753Y4108*
X5754Y4108*
X5755Y4108*
X5755*
X5755Y4108*
X5755*
X5755Y4108*
X5756Y4108*
X5756Y4108*
X5757Y4108*
X5758Y4109*
X5758Y4109*
X5758*
X5758Y4109*
X5758Y4109*
X5759Y4109*
X5759Y4110*
X5759Y4110*
X5760Y4111*
X5760Y4111*
X5760Y4112*
Y4112*
X5760Y4112*
X5760Y4112*
X5760Y4112*
X5760Y4112*
X5761Y4112*
X5761Y4113*
X5761Y4113*
X5761Y4114*
X5761Y4115*
X5761Y4115*
Y4115*
Y4116*
Y4116*
Y4116*
X5761Y4116*
Y4116*
X5761Y4117*
X5761Y4117*
X5761Y4118*
X5761Y4118*
X5760Y4119*
X5760Y4120*
Y4120*
X5760Y4120*
X5760Y4120*
X5760Y4120*
X5760Y4120*
X5760Y4121*
X5759Y4121*
X5759Y4122*
X5759Y4122*
X5758Y4122*
X5758*
X5758Y4122*
X5758Y4123*
X5758Y4123*
X5758Y4123*
X5757Y4123*
X5757Y4123*
X5757Y4123*
X5756Y4123*
X5755Y4123*
X5755Y4123*
X5755*
X5754Y4123*
X5754*
X5754Y4123*
X5753Y4123*
X5753Y4123*
X5752Y4123*
X5752Y4123*
X5751Y4122*
X5751Y4122*
X5751Y4122*
X5751Y4122*
X5751Y4122*
X5751Y4122*
X5751Y4122*
X5751Y4122*
X5750Y4121*
X5750Y4121*
X5750Y4121*
X5750Y4121*
X5750Y4120*
X5750Y4120*
X5749Y4120*
X5749Y4119*
X5749Y4119*
X5749Y4118*
X5747Y4119*
Y4119*
X5747Y4119*
X5747Y4119*
X5747Y4120*
X5747Y4120*
X5747Y4120*
X5747Y4121*
X5747Y4121*
X5748Y4122*
X5748Y4122*
X5748Y4123*
X5749Y4123*
X5749Y4124*
X5749Y4124*
X5749Y4124*
X5750Y4124*
X5750Y4124*
X5750Y4124*
X5750Y4124*
X5750Y4124*
X5751Y4125*
X5751Y4125*
X5751Y4125*
X5752Y4125*
X5752Y4125*
X5752Y4125*
X5753Y4125*
X5753Y4125*
X5754Y4125*
X5755Y4126*
X5755*
X5755Y4125*
G37*
G36*
X5737Y4121D02*
X5745D01*
Y4118*
X5736Y4106*
X5735*
Y4118*
X5732*
Y4121*
X5735*
Y4125*
X5737*
Y4121*
G37*
G36*
X4573Y3669D02*
X4573D01*
X4574Y3669*
X4574Y3669*
X4574Y3669*
X4575Y3669*
X4576Y3669*
X4577Y3669*
X4578Y3668*
X4578Y3668*
X4578Y3668*
X4578Y3668*
X4578Y3668*
X4578Y3668*
X4579Y3668*
X4579Y3668*
X4580Y3667*
X4580Y3667*
X4581Y3666*
X4581Y3665*
X4581Y3665*
X4581Y3665*
X4581Y3665*
X4581Y3665*
X4581Y3665*
X4582Y3664*
X4582Y3664*
X4582Y3664*
X4582Y3663*
X4582Y3663*
X4582Y3662*
X4582Y3661*
X4582Y3660*
Y3660*
X4582Y3660*
X4582Y3660*
X4582Y3659*
X4582Y3659*
X4582Y3659*
X4582Y3658*
X4582Y3657*
X4582Y3657*
X4581Y3656*
X4581Y3656*
X4581Y3656*
X4581Y3656*
X4581Y3656*
X4581Y3655*
X4581Y3655*
X4580Y3655*
X4580Y3655*
X4580Y3655*
X4580Y3655*
X4580Y3654*
X4579Y3654*
X4579Y3654*
X4579Y3654*
X4578Y3653*
X4578Y3653*
X4577Y3653*
X4577Y3653*
X4576Y3655*
X4576*
X4576Y3655*
X4576Y3655*
X4576Y3656*
X4577Y3656*
X4577Y3656*
X4577Y3656*
X4578Y3656*
X4578Y3656*
X4579Y3657*
X4579Y3657*
X4579Y3657*
X4579Y3658*
X4580Y3658*
X4580Y3658*
X4580Y3659*
X4580Y3659*
X4580Y3660*
X4580Y3661*
Y3661*
X4580Y3661*
Y3661*
X4580Y3661*
X4580Y3662*
X4580Y3662*
X4580Y3663*
X4579Y3664*
X4579Y3664*
Y3664*
X4579Y3664*
X4579Y3664*
X4579Y3665*
X4578Y3665*
X4578Y3665*
X4577Y3666*
X4577Y3666*
X4576Y3666*
X4576*
X4576Y3666*
X4576Y3666*
X4576Y3666*
X4576Y3666*
X4576Y3667*
X4575Y3667*
X4575Y3667*
X4574Y3667*
X4573Y3667*
X4573Y3667*
X4573*
X4572*
X4572*
X4572*
X4572Y3667*
X4572*
X4571Y3667*
X4571Y3667*
X4570Y3667*
X4570Y3667*
X4569Y3666*
X4568Y3666*
X4568*
X4568Y3666*
X4568Y3666*
X4568Y3666*
X4568Y3666*
X4567Y3666*
X4567Y3665*
X4566Y3665*
X4566Y3665*
X4566Y3664*
Y3664*
X4566Y3664*
X4565Y3664*
X4565Y3664*
X4565Y3664*
X4565Y3663*
X4565Y3663*
X4565Y3663*
X4565Y3662*
X4565Y3661*
X4565Y3661*
Y3661*
X4565Y3660*
Y3660*
X4565Y3660*
X4565Y3659*
X4565Y3659*
X4565Y3658*
X4565Y3658*
X4566Y3657*
X4566Y3657*
X4566Y3657*
X4566Y3657*
X4566Y3657*
X4566Y3657*
X4566Y3657*
X4566Y3657*
X4567Y3656*
X4567Y3656*
X4567Y3656*
X4567Y3656*
X4568Y3656*
X4568Y3656*
X4568Y3655*
X4569Y3655*
X4569Y3655*
X4570Y3655*
X4569Y3653*
X4569*
X4569Y3653*
X4569Y3653*
X4568Y3653*
X4568Y3653*
X4568Y3653*
X4567Y3653*
X4567Y3653*
X4566Y3654*
X4566Y3654*
X4565Y3654*
X4565Y3655*
X4564Y3655*
X4564Y3655*
X4564Y3655*
X4564Y3656*
X4564Y3656*
X4564Y3656*
X4564Y3656*
X4564Y3656*
X4563Y3657*
X4563Y3657*
X4563Y3657*
X4563Y3658*
X4563Y3658*
X4563Y3658*
X4563Y3659*
X4563Y3659*
X4563Y3660*
X4563Y3661*
Y3661*
X4563Y3661*
Y3661*
X4563Y3662*
X4563Y3662*
X4563Y3662*
X4563Y3663*
X4563Y3664*
X4563Y3665*
X4564Y3665*
X4564Y3666*
X4564Y3666*
X4564Y3666*
X4564Y3666*
X4564Y3666*
X4564Y3666*
X4564Y3666*
X4564Y3666*
X4565Y3667*
X4565Y3667*
X4565Y3667*
X4566Y3668*
X4567Y3668*
X4567Y3669*
X4567*
X4568Y3669*
X4568Y3669*
X4568Y3669*
X4568Y3669*
X4568Y3669*
X4569Y3669*
X4569Y3669*
X4569Y3669*
X4570Y3669*
X4571Y3669*
X4572Y3669*
X4573Y3670*
X4573*
X4573*
X4573*
X4573Y3669*
G37*
G36*
X4563Y3651D02*
X4564Y3651D01*
X4564Y3651*
X4564Y3651*
X4564Y3650*
X4564*
X4565Y3650*
X4565Y3650*
X4565Y3650*
X4565Y3650*
X4566Y3650*
X4566Y3650*
X4567Y3649*
X4567Y3649*
X4567*
X4567Y3649*
X4567Y3649*
X4567Y3648*
X4568Y3648*
X4568Y3648*
X4569Y3647*
X4569Y3647*
X4570Y3646*
X4570Y3646*
X4570Y3646*
X4570Y3646*
X4570Y3645*
X4571Y3645*
X4571Y3645*
X4571Y3644*
X4571Y3644*
X4572Y3643*
X4573Y3643*
X4573Y3642*
X4573Y3642*
X4574Y3642*
X4574Y3642*
X4574*
X4574Y3642*
X4574Y3641*
X4574Y3641*
X4575Y3641*
X4575Y3641*
X4575Y3641*
X4576Y3641*
X4576Y3641*
X4577Y3640*
X4577*
X4577*
X4577Y3640*
X4577Y3641*
X4578Y3641*
X4578Y3641*
X4578Y3641*
X4579Y3641*
X4579Y3641*
X4579Y3642*
X4579Y3642*
X4579Y3642*
X4580Y3642*
X4580Y3643*
X4580Y3643*
X4580Y3644*
X4580Y3644*
Y3644*
X4580Y3644*
X4580Y3645*
X4580Y3645*
X4580Y3646*
X4580Y3646*
X4579Y3646*
X4579Y3647*
X4579Y3647*
X4579Y3647*
X4579Y3647*
X4578Y3647*
X4578Y3648*
X4577Y3648*
X4577Y3648*
X4576Y3648*
X4577Y3650*
X4577*
X4577Y3650*
X4577*
X4577Y3650*
X4577Y3650*
X4577Y3650*
X4578Y3650*
X4578Y3650*
X4579Y3650*
X4579Y3649*
X4580Y3649*
X4580Y3649*
X4580Y3649*
X4581Y3648*
X4581Y3648*
X4581Y3648*
X4581Y3648*
X4581Y3648*
X4581Y3648*
X4581Y3648*
X4581Y3648*
X4581Y3647*
X4582Y3647*
X4582Y3647*
X4582Y3646*
X4582Y3646*
X4582Y3645*
X4582Y3645*
X4582Y3645*
X4582Y3644*
Y3644*
X4582Y3644*
X4582Y3643*
X4582Y3643*
X4582Y3643*
X4582Y3642*
X4582Y3642*
X4581Y3641*
X4581Y3641*
X4581Y3640*
X4581Y3640*
X4581Y3640*
X4581Y3640*
X4580Y3640*
X4580Y3640*
X4580Y3639*
X4580Y3639*
X4580Y3639*
X4580Y3639*
X4579Y3639*
X4579Y3639*
X4578Y3638*
X4578Y3638*
X4578Y3638*
X4577Y3638*
X4577Y3638*
X4577*
X4577*
X4576Y3638*
X4576Y3638*
X4576Y3638*
X4575Y3638*
X4575Y3638*
X4574Y3639*
X4574Y3639*
X4574Y3639*
X4574Y3639*
X4574Y3639*
X4573Y3639*
X4573Y3639*
X4573Y3640*
X4572Y3640*
X4572Y3640*
X4572Y3640*
X4572Y3640*
X4572Y3641*
X4571Y3641*
X4571Y3641*
X4571Y3641*
X4571Y3641*
X4571Y3642*
X4570Y3642*
X4570Y3642*
X4570Y3643*
X4569Y3643*
X4569Y3644*
X4569Y3644*
X4569Y3644*
X4569Y3644*
X4569Y3644*
X4568Y3644*
X4568Y3644*
X4568Y3645*
X4567Y3645*
X4567Y3646*
X4567Y3646*
X4566Y3646*
X4566Y3646*
X4566Y3646*
X4566Y3647*
X4566Y3647*
X4566Y3647*
X4566Y3647*
X4566Y3647*
X4565Y3647*
Y3638*
X4563*
Y3651*
X4563*
X4563*
X4563*
X4563Y3651*
G37*
G36*
X4577Y3634D02*
X4577Y3634D01*
X4577Y3633*
X4577Y3633*
X4578Y3633*
X4578Y3633*
X4578Y3633*
X4578Y3632*
X4579Y3631*
X4579Y3631*
X4580Y3630*
X4580Y3630*
X4580Y3630*
X4580Y3630*
X4580Y3630*
X4580Y3630*
X4580Y3629*
X4581Y3629*
X4581Y3629*
X4582Y3628*
X4582Y3628*
Y3627*
X4563*
Y3629*
X4578*
X4578Y3629*
X4578Y3629*
X4578Y3629*
X4577Y3630*
X4577Y3630*
X4577Y3630*
X4576Y3631*
X4576Y3631*
Y3631*
X4576Y3631*
X4576Y3631*
X4576Y3632*
X4576Y3632*
X4576Y3632*
X4575Y3633*
X4575Y3633*
X4575Y3634*
X4577*
Y3634*
G37*
%LNmtb_telemetry_system_pcb-2*%
%LPC*%
G36*
X5420Y3216D02*
X5420D01*
X5419Y3216*
X5419Y3216*
X5419Y3216*
X5418Y3216*
X5418Y3216*
X5418Y3215*
X5418Y3215*
X5417Y3215*
X5417Y3215*
X5417Y3215*
X5417Y3214*
X5417Y3214*
X5417Y3214*
X5417Y3213*
Y3213*
Y3213*
X5417Y3213*
X5417Y3213*
X5417Y3212*
X5417Y3212*
X5417Y3212*
X5417Y3211*
X5418Y3211*
X5418Y3211*
X5418Y3211*
X5418Y3211*
X5418Y3211*
X5418Y3210*
X5419Y3210*
X5419Y3210*
X5420Y3210*
X5420*
X5420Y3210*
X5420Y3210*
X5421Y3210*
X5421Y3210*
X5421Y3210*
X5422Y3211*
X5422Y3211*
X5422Y3211*
X5422Y3211*
X5422Y3211*
X5422Y3212*
X5423Y3212*
X5423Y3212*
X5423Y3213*
X5423Y3213*
Y3213*
Y3213*
Y3213*
X5423Y3214*
X5423Y3214*
X5423Y3214*
X5423Y3215*
X5422Y3215*
X5422Y3215*
X5422Y3215*
X5422Y3215*
X5422Y3216*
X5421Y3216*
X5421Y3216*
X5421Y3216*
X5420Y3216*
X5420Y3216*
G37*
G36*
X5420Y3208D02*
X5420D01*
X5419Y3208*
X5419Y3208*
X5419Y3208*
X5418Y3208*
X5418Y3208*
X5417Y3207*
X5417Y3207*
X5417Y3207*
X5417Y3207*
X5417Y3207*
X5416Y3206*
X5416Y3206*
X5416Y3205*
X5416Y3205*
X5416Y3204*
Y3204*
Y3204*
X5416Y3204*
X5416Y3204*
X5416Y3203*
X5416Y3203*
X5416Y3203*
X5416Y3202*
X5416Y3202*
X5416Y3202*
X5417Y3202*
X5417Y3202*
X5417Y3202*
X5417Y3201*
X5417Y3201*
X5418Y3201*
X5418Y3201*
X5418Y3201*
X5418Y3201*
X5418Y3201*
X5419Y3201*
X5419Y3201*
X5419Y3200*
X5420Y3200*
X5420*
X5420Y3200*
X5420Y3200*
X5421Y3201*
X5421Y3201*
X5422Y3201*
X5422Y3201*
X5423Y3202*
X5423Y3202*
X5423Y3202*
X5423Y3202*
X5423Y3202*
X5423Y3203*
X5424Y3203*
X5424Y3204*
X5424Y3204*
Y3204*
Y3204*
Y3204*
X5424Y3205*
X5424Y3205*
X5424Y3205*
X5423Y3206*
X5423Y3206*
X5423Y3207*
X5423Y3207*
X5423Y3207*
X5422Y3207*
X5422Y3207*
X5422Y3208*
X5421Y3208*
X5421Y3208*
X5420Y3208*
X5420Y3208*
G37*
G36*
X5743Y4118D02*
X5737D01*
Y4110*
X5743Y4118*
G37*
%LNmtb_telemetry_system_pcb-3*%
%LPD*%
G54D12*
X5100Y2066D02*
Y2390D01*
X5356*
Y2066D02*
Y2390D01*
X5100Y2066D02*
X5356D01*
X5521Y2070D02*
Y2394D01*
X5777*
Y2070D02*
Y2394D01*
X5521Y2070D02*
X5777D01*
X5943Y2068D02*
Y2392D01*
X6198*
Y2068D02*
Y2392D01*
X5943Y2068D02*
X6198D01*
X5722Y3846D02*
X5817D01*
X5722D02*
Y3893D01*
X5817*
Y3846D02*
Y3893D01*
X5587Y3830D02*
X5682D01*
X5587D02*
Y3877D01*
X5682*
Y3830D02*
Y3877D01*
X5700Y4061D02*
X5849D01*
Y3938D02*
Y4061D01*
X5700Y3938D02*
X5849D01*
X5700D02*
Y4061D01*
X5588Y3581D02*
X5683D01*
Y3534D02*
Y3581D01*
X5588Y3534D02*
X5683D01*
X5588D02*
Y3581D01*
X5332Y3222D02*
X5427D01*
Y3175D02*
Y3222D01*
X5332Y3175D02*
X5427D01*
X5332D02*
Y3222D01*
X5716Y4102D02*
X5811D01*
X5716D02*
Y4149D01*
X5811*
Y4102D02*
Y4149D01*
X4586Y3622D02*
Y3717D01*
X4539Y3622D02*
X4586D01*
X4539D02*
Y3717D01*
X4586*
M02*