%FSLAX23Y23*%
%MOIN*%
%SFA1B1*%

%IPPOS*%
%ADD12C,0.007870*%
%ADD14C,0.005000*%
%ADD15C,0.006000*%
%ADD92C,0.003940*%
%LNmtb_telemetry_system_pcb-1*%
%LPD*%
G36*
X4732Y2488D02*
Y2508D01*
X4707*
Y2488*
X4732*
G37*
G36*
Y2527D02*
Y2547D01*
X4707*
Y2527*
X4732*
G37*
G36*
Y2563D02*
Y2582D01*
X4707*
Y2563*
X4732*
G37*
G36*
X4825Y2488D02*
Y2508D01*
X4799*
Y2488*
X4825*
G37*
G36*
Y2525D02*
Y2545D01*
X4799*
Y2525*
X4825*
G37*
G36*
Y2563D02*
Y2582D01*
X4799*
Y2563*
X4825*
G37*
G54D12*
X4133Y2677D02*
D01*
D01*
G75*
G03X4125I-3J0D01*
G74*G01*
D01*
G75*
G03X4133I3J0D01*
G74*G01*
X4984Y2345D02*
D01*
D01*
G75*
G03X4976I-3J0D01*
G74*G01*
D01*
G75*
G03X4984I3J0D01*
G74*G01*
X4360Y4284D02*
X4947D01*
X4360Y4058D02*
Y4284D01*
Y4058D02*
X4947D01*
Y4284*
X6044Y2224D02*
X6113D01*
Y2261*
X6044D02*
X6113D01*
X6044Y2224D02*
Y2261D01*
X4976Y2954D02*
Y3540D01*
X4750D02*
X4976D01*
X4750Y2954D02*
Y3540D01*
Y2954D02*
X4976D01*
X5184Y2236D02*
X5253D01*
Y2273*
X5184D02*
X5253D01*
X5184Y2236D02*
Y2273D01*
X5623Y2224D02*
X5692D01*
Y2261*
X5623D02*
X5692D01*
X5623Y2224D02*
Y2261D01*
X4590Y2364D02*
Y2655D01*
X4364D02*
X4590D01*
X4364Y2364D02*
Y2655D01*
Y2364D02*
X4590D01*
X4584Y1964D02*
Y2256D01*
Y1964D02*
X4810D01*
Y2256*
X4584D02*
X4810D01*
X4108Y1976D02*
Y2045D01*
Y1976D02*
X4145D01*
Y2045*
X4108D02*
X4145D01*
X5977Y4043D02*
Y4433D01*
Y4043D02*
X6203D01*
Y4433*
X5977D02*
X6203D01*
X5976Y3585D02*
Y3974D01*
Y3585D02*
X6203D01*
Y3974*
X5976D02*
X6203D01*
G54D14*
X4127Y2423D02*
Y2580D01*
X4328Y2423D02*
Y2580D01*
X4127D02*
X4328D01*
X4127Y2423D02*
X4328D01*
X4866Y2609D02*
X4985D01*
X4866Y2432D02*
X4985D01*
X4866D02*
Y2609D01*
X4985Y2432D02*
Y2609D01*
G54D15*
X4798Y2479D02*
Y2591D01*
X4734Y2479D02*
Y2591D01*
G54D92*
X4391Y2076D02*
D01*
D01*
G75*
G03X4352I-19J0D01*
G74*G01*
D01*
G75*
G03X4391I19J0D01*
G74*G01*
X3824Y2608D02*
X4009D01*
Y2312D02*
Y2608D01*
X3824Y2313D02*
X4009D01*
X3824D02*
Y2608D01*
X4611Y2985D02*
Y3085D01*
X4011Y2985D02*
Y3085D01*
X4611*
X4011Y2985D02*
X4611D01*
X4216Y2722D02*
Y2779D01*
X4302Y2722D02*
Y2779D01*
X4216Y2722D02*
X4302D01*
X4216Y2779D02*
X4302D01*
X4458Y1967D02*
X4515D01*
X4458Y2053D02*
X4515D01*
Y1967D02*
Y2053D01*
X4458Y1967D02*
Y2053D01*
X4103Y2189D02*
Y2272D01*
X4156Y2189D02*
Y2272D01*
X4103D02*
X4156D01*
X4103Y2189D02*
X4156D01*
X4609Y2606D02*
X4666D01*
X4609Y2520D02*
X4666D01*
X4609D02*
Y2606D01*
X4666Y2520D02*
Y2606D01*
X4448Y2187D02*
X4505D01*
X4448Y2273D02*
X4505D01*
Y2187D02*
Y2273D01*
X4448Y2187D02*
Y2273D01*
X5813Y2348D02*
X5866D01*
X5813Y2265D02*
X5866D01*
X5813D02*
Y2348D01*
X5866Y2265D02*
Y2348D01*
X6233Y2336D02*
X6286D01*
X6233Y2253D02*
X6286D01*
X6233D02*
Y2336D01*
X6286Y2253D02*
Y2336D01*
X4466Y3339D02*
Y3392D01*
X4549Y3339D02*
Y3392D01*
X4466Y3339D02*
X4549D01*
X4466Y3392D02*
X4549D01*
X4531Y3879D02*
X4584D01*
X4531Y3962D02*
X4584D01*
Y3879D02*
Y3962D01*
X4531Y3879D02*
Y3962D01*
X4803Y2635D02*
Y2688D01*
X4720Y2635D02*
Y2688D01*
X4803*
X4720Y2635D02*
X4803D01*
X4554Y3536D02*
Y3589D01*
X4637Y3536D02*
Y3589D01*
X4554Y3536D02*
X4637D01*
X4554Y3589D02*
X4637D01*
X4623Y2411D02*
X4676D01*
X4623Y2328D02*
X4676D01*
X4623D02*
Y2411D01*
X4676Y2328D02*
Y2411D01*
X4553Y3632D02*
Y3685D01*
X4636Y3632D02*
Y3685D01*
X4553Y3632D02*
X4636D01*
X4553Y3685D02*
X4636D01*
X4210Y2041D02*
Y2198D01*
X4407Y2041D02*
Y2198D01*
X4210D02*
X4407D01*
X4210Y2041D02*
X4407D01*
X4950Y3849D02*
Y3906D01*
X5037Y3849D02*
Y3906D01*
X4950Y3849D02*
X5037D01*
X4950Y3906D02*
X5037D01*
X5389Y2353D02*
X5442D01*
X5389Y2270D02*
X5442D01*
X5389D02*
Y2353D01*
X5442Y2270D02*
Y2353D01*
X4552Y3733D02*
Y3786D01*
X4635Y3733D02*
Y3786D01*
X4552Y3733D02*
X4635D01*
X4552Y3786D02*
X4635D01*
X4057Y2695D02*
Y2748D01*
X4140Y2695D02*
Y2748D01*
X4057Y2695D02*
X4140D01*
X4057Y2748D02*
X4140D01*
X4553Y3445D02*
Y3498D01*
X4636Y3445D02*
Y3498D01*
X4553Y3445D02*
X4636D01*
X4553Y3498D02*
X4636D01*
X4950Y3770D02*
Y3827D01*
X5037Y3770D02*
Y3827D01*
X4950Y3770D02*
X5037D01*
X4950Y3827D02*
X5037D01*
X4595Y2804D02*
Y2857D01*
X4678Y2804D02*
Y2857D01*
X4595Y2804D02*
X4678D01*
X4595Y2857D02*
X4678D01*
X4415Y2804D02*
Y2857D01*
X4498Y2804D02*
Y2857D01*
X4415Y2804D02*
X4498D01*
X4415Y2857D02*
X4498D01*
M02*