%FSLAX23Y23*%
%MOIN*%
%SFA1B1*%

%IPPOS*%
%AMD63*
4,1,8,0.015700,0.031500,-0.015700,0.031500,-0.031500,0.015700,-0.031500,-0.015700,-0.015700,-0.031500,0.015700,-0.031500,0.031500,-0.015700,0.031500,0.015700,0.015700,0.031500,0.0*
1,1,0.031500,0.015700,0.015700*
1,1,0.031500,-0.015700,0.015700*
1,1,0.031500,-0.015700,-0.015700*
1,1,0.031500,0.015700,-0.015700*
%
%ADD13C,0.010000*%
%ADD16R,0.047240X0.057090*%
%ADD17R,0.043310X0.053150*%
%ADD18R,0.051180X0.074800*%
%ADD19R,0.029530X0.035430*%
%ADD20R,0.055120X0.047240*%
%ADD21R,0.053150X0.043310*%
%ADD22R,0.055120X0.024410*%
%ADD23R,0.094490X0.043310*%
%ADD24R,0.220470X0.220470*%
%ADD25O,0.009840X0.035430*%
%ADD26O,0.035430X0.009840*%
%ADD27R,0.037400X0.031500*%
%ADD28R,0.031500X0.013780*%
%ADD29R,0.013780X0.033470*%
%ADD30R,0.106300X0.102360*%
%ADD31R,0.035430X0.029530*%
%ADD32R,0.057090X0.047240*%
%ADD49C,0.060630*%
%ADD50R,0.060630X0.060630*%
%ADD51R,0.055120X0.055120*%
%ADD52C,0.055120*%
%ADD53C,0.043310*%
%ADD55R,0.055120X0.055120*%
%ADD56R,0.061020X0.061020*%
%ADD57C,0.061020*%
%ADD60C,0.030000*%
%ADD61C,0.020000*%
%ADD62C,0.062990*%
G04~CAMADD=63~8~0.0~0.0~629.9~629.9~157.5~0.0~15~0.0~0.0~0.0~0.0~0~0.0~0.0~0.0~0.0~0~0.0~0.0~0.0~0.0~629.9~629.9*
%ADD63D63*%
%ADD64C,0.057090*%
%ADD65C,0.037400*%
%ADD66C,0.098430*%
%ADD67C,0.017720*%
%ADD68C,0.025000*%
%ADD69C,0.019680*%
%ADD70C,0.050000*%
%ADD71C,0.031500*%
%LNmtb_telemetry_system_pcb-1*%
%LPD*%
G36*
X4731Y4468D02*
X4730Y4467D01*
X4729Y4465*
X4728Y4462*
X4727Y4460*
X4726Y4457*
X4725Y4453*
X4725Y4450*
X4724Y4441*
X4724Y4437*
X4693Y4468*
X4697Y4468*
X4706Y4469*
X4709Y4469*
X4713Y4470*
X4716Y4471*
X4718Y4472*
X4721Y4473*
X4723Y4474*
X4724Y4475*
X4731Y4468*
G37*
G36*
X4924Y4432D02*
X4925Y4423D01*
X4925Y4420*
X4926Y4416*
X4927Y4413*
X4928Y4411*
X4929Y4408*
X4930Y4406*
X4931Y4405*
X4924Y4398*
X4923Y4399*
X4921Y4400*
X4918Y4401*
X4916Y4402*
X4913Y4403*
X4909Y4404*
X4906Y4404*
X4897Y4405*
X4893Y4405*
X4924Y4436*
X4924Y4432*
G37*
G36*
X5216Y4416D02*
X5216Y4414D01*
X5215Y4413*
X5215Y4412*
X5215Y4410*
X5215Y4409*
X5216Y4407*
X5216Y4406*
X5217Y4405*
X5218Y4403*
X5211Y4396*
X5210Y4398*
X5208Y4399*
X5206Y4401*
X5204Y4402*
X5202Y4403*
X5200Y4404*
X5198Y4404*
X5196Y4405*
X5194Y4405*
X5192Y4405*
X5217Y4417*
X5216Y4416*
G37*
G36*
X5023Y4427D02*
X5023Y4425D01*
X5023Y4424*
X5024Y4421*
X5025Y4419*
X5026Y4417*
X5027Y4415*
X5029Y4413*
X5031Y4410*
X5033Y4408*
X5007Y4392*
X5005Y4394*
X4998Y4400*
X4996Y4401*
X4994Y4403*
X4992Y4404*
X4990Y4404*
X4989Y4405*
X4987Y4405*
X5023Y4429*
X5023Y4427*
G37*
G36*
X4802Y4425D02*
X4801Y4423D01*
X4800Y4421*
X4800Y4418*
X4799Y4415*
X4799Y4414*
X4815*
X4811Y4411*
X4806Y4405*
X4804Y4402*
X4802Y4399*
X4800Y4396*
X4799Y4394*
X4798Y4391*
X4798Y4389*
X4798Y4387*
X4788*
X4787Y4389*
X4787Y4391*
X4786Y4394*
X4785Y4396*
X4783Y4399*
X4781Y4402*
X4779Y4405*
X4774Y4411*
X4770Y4414*
X4786*
X4786Y4415*
X4785Y4418*
X4785Y4421*
X4784Y4423*
X4783Y4425*
X4782Y4426*
X4803*
X4802Y4425*
G37*
G36*
X5220Y4355D02*
X5220Y4353D01*
X5220Y4352*
X5221Y4350*
X5221Y4349*
X5222Y4348*
X5222Y4348*
X5223Y4347*
X5224Y4347*
X5225Y4347*
X5205*
X5206Y4347*
X5207Y4347*
X5207Y4348*
X5208Y4348*
X5209Y4349*
X5209Y4350*
X5209Y4352*
X5210Y4353*
X5210Y4355*
X5210Y4357*
X5220*
X5220Y4355*
G37*
G36*
X5038Y4369D02*
X5039Y4360D01*
X5039Y4356*
X5040Y4352*
X5041Y4350*
X5042Y4348*
X5043Y4346*
X5045Y4345*
X5046Y4345*
X4999*
X5001Y4345*
X5002Y4346*
X5004Y4348*
X5005Y4350*
X5006Y4352*
X5007Y4356*
X5007Y4360*
X5008Y4364*
X5008Y4375*
X5038*
X5038Y4369*
G37*
G36*
X4851Y4328D02*
X4853Y4327D01*
X4853Y4326*
X4854Y4326*
X4854Y4326*
X4855Y4326*
X4855Y4325*
X4855Y4325*
X4847Y4317*
X4847Y4317*
X4847Y4317*
X4846Y4318*
X4846Y4318*
X4846Y4319*
X4845Y4319*
X4844Y4321*
X4843Y4322*
X4850Y4329*
X4851Y4328*
G37*
G36*
X4862Y4322D02*
X4862Y4322D01*
X4863Y4322*
X4863Y4322*
X4864Y4322*
X4865Y4322*
X4866Y4322*
X4868Y4322*
Y4312*
X4867Y4311*
X4865Y4311*
X4864Y4311*
X4863Y4311*
X4863Y4311*
X4862Y4311*
X4862Y4311*
X4862Y4310*
Y4323*
X4862Y4322*
G37*
G36*
X4921Y4307D02*
X4921Y4307D01*
X4920Y4308*
X4920Y4309*
X4919Y4310*
X4918Y4310*
X4917Y4311*
X4916Y4311*
X4914Y4311*
X4913Y4311*
X4911Y4312*
Y4322*
X4913Y4322*
X4914Y4322*
X4916Y4322*
X4917Y4322*
X4918Y4323*
X4919Y4323*
X4920Y4324*
X4920Y4325*
X4921Y4326*
X4921Y4327*
Y4307*
G37*
G36*
X5113Y4290D02*
X5112Y4292D01*
X5111Y4295*
X5110Y4296*
X5108Y4298*
X5105Y4299*
X5102Y4301*
X5098Y4301*
X5093Y4302*
X5088Y4302*
X5083Y4303*
Y4333*
X5088Y4333*
X5093Y4333*
X5098Y4334*
X5102Y4335*
X5105Y4336*
X5108Y4338*
X5110Y4340*
X5111Y4342*
X5112Y4344*
X5113Y4347*
Y4290*
G37*
G36*
X5047Y4343D02*
X5048Y4340D01*
X5049Y4339*
X5051Y4337*
X5054Y4336*
X5057Y4334*
X5061Y4334*
X5066Y4333*
X5071Y4333*
X5076Y4333*
Y4303*
X5071Y4302*
X5066Y4302*
X5061Y4301*
X5057Y4300*
X5054Y4299*
X5051Y4297*
X5049Y4295*
X5048Y4293*
X5047Y4291*
X5046Y4288*
Y4345*
X5047Y4343*
G37*
G36*
X5021Y4275D02*
X5021Y4275D01*
X5022Y4275*
X5022Y4275*
X5023Y4275*
X5024Y4275*
X5025Y4275*
X5027Y4275*
Y4265*
X5026Y4264*
X5024Y4264*
X5023Y4264*
X5022Y4264*
X5022Y4264*
X5021Y4264*
X5021Y4264*
X5021Y4263*
Y4276*
X5021Y4275*
G37*
G36*
X5042Y4236D02*
X5042Y4236D01*
X5043Y4236*
X5043Y4236*
X5044Y4236*
X5045Y4236*
X5046Y4236*
X5048Y4236*
Y4226*
X5047Y4225*
X5045Y4225*
X5044Y4225*
X5043Y4225*
X5043Y4225*
X5042Y4225*
X5042Y4225*
X5042Y4224*
Y4237*
X5042Y4236*
G37*
G36*
X5413Y4215D02*
X5413Y4214D01*
X5413Y4214*
X5412Y4214*
X5412Y4213*
X5412Y4212*
X5412Y4212*
X5412Y4211*
X5412Y4209*
X5412Y4208*
X5402Y4210*
X5402Y4211*
X5401Y4214*
X5401Y4214*
X5401Y4215*
X5401Y4215*
X5401Y4216*
X5401Y4216*
X5413Y4215*
G37*
G36*
X5802Y4135D02*
X5802Y4134D01*
X5803Y4133*
X5803Y4132*
X5804Y4132*
X5805Y4131*
X5807Y4131*
X5808Y4131*
X5808Y4131*
X5808*
X5809Y4131*
X5810Y4131*
X5810Y4131*
X5811Y4131*
X5811Y4131*
X5811Y4132*
Y4131*
X5812Y4131*
Y4121*
X5811Y4120*
Y4119*
X5811Y4120*
X5811Y4120*
X5810Y4120*
X5810Y4120*
X5809Y4120*
X5808Y4120*
X5808*
X5808Y4120*
X5807Y4120*
X5805Y4120*
X5804Y4119*
X5803Y4119*
X5803Y4118*
X5802Y4117*
X5802Y4116*
X5802Y4116*
Y4136*
X5802Y4135*
G37*
G36*
X5725Y4108D02*
X5725Y4108D01*
X5725Y4108*
X5710Y4108*
Y4128*
X5713Y4128*
X5718Y4128*
X5720Y4129*
X5722Y4129*
X5723Y4130*
X5724Y4130*
X5725Y4131*
X5725Y4132*
X5725Y4133*
X5725Y4108*
G37*
G36*
X5244Y4112D02*
X5245Y4107D01*
X5251*
X5249Y4107*
X5248Y4106*
X5247Y4104*
X5246Y4102*
X5246Y4100*
X5245Y4098*
X5246Y4095*
X5246Y4093*
X5247Y4091*
X5248Y4089*
X5249Y4088*
X5251Y4088*
X5244*
X5244Y4083*
X5244Y4077*
X5214*
X5214Y4083*
X5214Y4088*
X5208*
X5209Y4088*
X5210Y4089*
X5211Y4091*
X5212Y4093*
X5212Y4095*
X5213Y4098*
X5212Y4100*
X5212Y4102*
X5211Y4104*
X5210Y4106*
X5209Y4107*
X5208Y4107*
X5214*
X5214Y4112*
X5214Y4118*
X5244*
X5244Y4112*
G37*
G36*
X5152Y4107D02*
X5159D01*
X5159Y4112*
X5159Y4118*
X5189*
X5189Y4112*
X5189Y4107*
X5195*
X5194Y4107*
X5193Y4106*
X5192Y4104*
X5191Y4102*
X5191Y4100*
X5190Y4098*
X5191Y4095*
X5191Y4093*
X5192Y4091*
X5193Y4089*
X5194Y4088*
X5195Y4088*
X5189*
X5189Y4083*
X5189Y4077*
X5159*
X5159Y4083*
X5159Y4088*
X5152*
X5154Y4088*
X5155Y4089*
X5156Y4091*
X5157Y4093*
X5157Y4095*
X5158Y4098*
X5157Y4100*
X5157Y4102*
X5156Y4104*
X5155Y4106*
X5154Y4107*
X5152Y4107*
X5152Y4109*
X5151Y4111*
X5150Y4113*
X5148Y4114*
X5145Y4116*
X5142Y4117*
X5138Y4117*
X5133Y4118*
X5128Y4118*
X5122Y4119*
Y4149*
X5128Y4149*
X5138Y4150*
X5142Y4150*
X5145Y4151*
X5148Y4153*
X5150Y4154*
X5151Y4156*
X5152Y4158*
X5152Y4160*
Y4107*
G37*
G36*
Y4075D02*
X5161Y4075D01*
Y4045*
X5155Y4045*
X5152Y4045*
Y4035*
X5152Y4037*
X5151Y4039*
X5150Y4040*
X5148Y4041*
X5145Y4042*
X5142Y4043*
X5141Y4043*
X5138Y4043*
X5136Y4042*
X5134Y4041*
X5132Y4040*
X5131Y4038*
X5131Y4037*
Y4044*
X5122Y4045*
Y4075*
X5128Y4075*
X5131Y4075*
Y4080*
X5131Y4079*
X5132Y4078*
X5134Y4077*
X5136Y4077*
X5138Y4076*
X5142Y4077*
X5145Y4078*
X5148Y4080*
X5150Y4081*
X5151Y4083*
X5152Y4085*
X5152Y4088*
Y4075*
G37*
G36*
X5661Y4055D02*
X5657Y4051D01*
X5651Y4043*
X5649Y4040*
X5647Y4037*
X5646Y4034*
X5645Y4032*
X5645Y4030*
X5646Y4028*
X5647Y4026*
X5619Y4055*
X5620Y4053*
X5622Y4053*
X5624Y4053*
X5627Y4054*
X5629Y4055*
X5632Y4056*
X5636Y4059*
X5639Y4061*
X5647Y4069*
X5661Y4055*
G37*
G36*
X5189Y4061D02*
X5190Y4056D01*
X5191Y4054*
X5192Y4053*
X5192Y4051*
X5193Y4050*
X5193Y4049*
X5194Y4048*
X5187Y4041*
X5186Y4042*
X5185Y4043*
X5184Y4043*
X5183Y4044*
X5181Y4045*
X5180Y4045*
X5176Y4046*
X5174Y4046*
X5172Y4047*
X5189Y4064*
X5189Y4061*
G37*
G36*
X5793Y4073D02*
X5806Y4061D01*
X5810Y4059*
X5813Y4057*
X5816Y4056*
X5819Y4055*
X5821Y4055*
X5823Y4056*
X5790Y4032*
X5792Y4033*
X5792Y4035*
X5793Y4037*
X5792Y4040*
X5791Y4042*
X5789Y4045*
X5787Y4049*
X5784Y4052*
X5776Y4060*
X5787Y4078*
X5793Y4073*
G37*
G36*
X5195Y4035D02*
X5196Y4027D01*
X5186*
X5186Y4029*
X5185Y4031*
X5185Y4032*
X5185Y4033*
X5185Y4034*
X5184Y4034*
X5184Y4035*
X5183Y4035*
X5183Y4035*
X5195Y4035*
G37*
G36*
X5549Y4054D02*
X5550Y4044D01*
X5550Y4044*
X5551*
X5551Y4043*
X5550Y4042*
X5550Y4042*
X5550Y4040*
X5551Y4037*
X5553Y4034*
X5554Y4032*
X5556Y4031*
X5558Y4030*
X5560Y4030*
X5549*
X5549Y4029*
X5549Y4027*
X5519*
X5518Y4029*
X5518Y4030*
X5507*
X5509Y4030*
X5511Y4031*
X5513Y4032*
X5514Y4034*
X5516Y4037*
X5517Y4040*
X5517Y4042*
X5517Y4042*
X5516Y4043*
X5516Y4044*
X5517*
X5517Y4044*
X5518Y4049*
X5518Y4054*
X5519Y4060*
X5549*
X5549Y4054*
G37*
G36*
X5238Y4035D02*
X5238Y4035D01*
X5237Y4034*
X5236Y4034*
X5236Y4033*
X5235Y4032*
X5235Y4030*
X5235Y4029*
X5234Y4027*
X5234Y4025*
X5224*
X5224Y4027*
X5224Y4029*
X5224Y4030*
X5224Y4032*
X5223Y4033*
X5223Y4034*
X5222Y4034*
X5221Y4035*
X5220Y4035*
X5219Y4035*
X5239*
X5238Y4035*
G37*
G36*
X5273Y4027D02*
X5273Y4027D01*
X5273Y4027*
X5272Y4026*
X5272Y4026*
X5271Y4026*
X5271Y4025*
X5269Y4024*
X5268Y4023*
X5261Y4030*
X5262Y4031*
X5263Y4033*
X5264Y4033*
X5264Y4034*
X5264Y4034*
X5265Y4035*
X5265Y4035*
X5265Y4035*
X5273Y4027*
G37*
G36*
X5078Y3992D02*
X5078Y3987D01*
X5078*
Y3981*
X5078Y3982*
X5077Y3983*
X5075Y3984*
X5073Y3985*
X5071Y3985*
X5067Y3986*
X5066Y3986*
X5065Y3986*
X5064Y3985*
X5063Y3985*
X5062Y3984*
X5061Y3984*
X5061Y3986*
X5059Y3987*
X5048Y3987*
Y4017*
X5054Y4017*
X5060Y4017*
X5059Y4019*
X5060Y4018*
X5061Y4018*
X5062Y4018*
X5063Y4018*
X5067Y4018*
X5071Y4019*
X5073Y4020*
X5075Y4021*
X5077Y4022*
X5078Y4023*
X5078Y4024*
Y3992*
G37*
G36*
X5208Y4018D02*
X5209Y4018D01*
X5209Y4017*
X5209Y4017*
X5209Y4016*
X5210Y4016*
X5211Y4014*
X5212Y4013*
X5205Y4006*
X5204Y4007*
X5202Y4008*
X5202Y4009*
X5201Y4009*
X5201Y4009*
X5200Y4010*
X5200Y4010*
X5200Y4010*
X5208Y4018*
X5208Y4018*
G37*
G36*
X5116Y4012D02*
X5118Y4012D01*
X5120Y4011*
X5123Y4010*
X5126Y4009*
X5130Y4009*
X5131Y4009*
Y4013*
X5131Y4012*
X5131Y4011*
X5132Y4010*
X5132Y4010*
X5133Y4009*
X5134Y4009*
X5136Y4008*
X5136Y4008*
X5138Y4008*
X5149Y4008*
Y3998*
X5143Y3998*
X5135Y3997*
X5134Y3997*
X5133Y3997*
X5132Y3996*
X5132Y3995*
X5131Y3995*
X5131Y3994*
X5131Y3993*
Y3997*
X5126Y3997*
X5123Y3996*
X5120Y3995*
X5118Y3994*
X5116Y3993*
X5115Y3992*
Y4014*
X5116Y4012*
G37*
G36*
X5185Y3978D02*
X5185Y3979D01*
X5185Y3980*
X5184Y3980*
X5184Y3981*
X5183Y3982*
X5182Y3982*
X5180Y3982*
X5179Y3983*
X5177Y3983*
X5175Y3983*
Y3993*
X5177Y3993*
X5179Y3993*
X5180Y3993*
X5182Y3994*
X5183Y3994*
X5184Y3995*
X5185Y3995*
X5185Y3996*
X5185Y3997*
X5186Y3998*
X5185Y3978*
G37*
G36*
X5624Y3972D02*
X5623Y3972D01*
X5622Y3971*
X5622Y3971*
X5621Y3970*
X5621Y3969*
X5620Y3967*
X5620Y3966*
X5620Y3964*
X5620Y3962*
X5610*
X5610Y3972*
X5625*
X5624Y3972*
G37*
G36*
X4897Y3949D02*
X4896Y3948D01*
X4895Y3946*
X4894Y3945*
X4894Y3945*
X4893Y3944*
X4893Y3943*
X4892Y3942*
X4892Y3941*
X4892Y3940*
X4882Y3955*
X4883Y3954*
X4884Y3954*
X4885Y3954*
X4886Y3955*
X4887Y3955*
X4888Y3955*
X4889Y3956*
X4890Y3956*
X4891Y3957*
X4892Y3958*
X4897Y3949*
G37*
G36*
X5727Y3956D02*
X5727Y3956D01*
X5726Y3955*
X5725Y3955*
X5723Y3954*
X5720Y3951*
X5714Y3946*
X5718Y3943*
X5717Y3943*
X5716Y3943*
X5715*
X5714Y3943*
X5713Y3943*
X5711Y3942*
X5709Y3941*
X5708Y3939*
X5704Y3935*
X5697Y3943*
X5699Y3945*
X5702Y3948*
X5703Y3950*
X5704Y3951*
X5704Y3953*
X5705Y3954*
Y3955*
X5704Y3956*
X5704Y3957*
X5707Y3953*
X5716Y3963*
X5717Y3964*
X5717Y3965*
X5717Y3966*
X5727Y3956*
G37*
G36*
X5521Y3931D02*
X5520Y3932D01*
X5519Y3932*
X5518*
X5517Y3932*
X5516Y3931*
X5514Y3931*
X5513Y3929*
X5511Y3928*
X5507Y3924*
X5500Y3931*
X5502Y3933*
X5505Y3937*
X5506Y3939*
X5507Y3940*
X5508Y3942*
X5508Y3943*
Y3944*
X5508Y3945*
X5507Y3946*
X5521Y3931*
G37*
G36*
X4971Y3943D02*
X4971Y3943D01*
X4971Y3942*
X4972Y3942*
X4972Y3942*
X4973Y3942*
X4974Y3942*
X4976Y3942*
X4977Y3942*
X4976Y3932*
X4975Y3932*
X4971Y3931*
X4971Y3931*
X4970Y3931*
X4970Y3931*
X4970Y3931*
X4969Y3931*
X4970Y3943*
X4971Y3943*
G37*
G36*
X5449Y3930D02*
X5448Y3930D01*
X5448Y3931*
X5448Y3931*
X5447Y3931*
X5447Y3931*
X5446Y3931*
X5445Y3931*
X5443Y3932*
X5442Y3932*
X5443Y3942*
X5444Y3942*
X5448Y3942*
X5448Y3942*
X5449Y3942*
X5449Y3942*
X5449Y3942*
X5450Y3943*
X5449Y3930*
G37*
G36*
X5483Y3927D02*
X5483Y3927D01*
X5483Y3927*
X5482Y3926*
X5482Y3926*
X5481Y3926*
X5481Y3925*
X5479Y3924*
X5478Y3923*
X5471Y3930*
X5472Y3931*
X5473Y3933*
X5474Y3933*
X5474Y3934*
X5474Y3934*
X5475Y3935*
X5475Y3935*
X5475Y3935*
X5483Y3927*
G37*
G36*
X5758Y3942D02*
X5758Y3942D01*
X5757Y3941*
X5757Y3939*
X5757Y3938*
X5756Y3935*
X5756Y3930*
X5756Y3923*
X5736*
X5736Y3926*
X5735Y3930*
X5735Y3933*
X5734Y3935*
X5733Y3938*
X5732Y3939*
X5731Y3941*
X5729Y3942*
X5728Y3942*
X5726Y3943*
X5759*
X5758Y3942*
G37*
G36*
X5756Y3903D02*
X5757Y3894D01*
X5757Y3892*
X5758Y3890*
X5758Y3889*
X5759Y3888*
X5760Y3887*
X5761Y3887*
X5731*
X5732Y3887*
X5733Y3888*
X5734Y3889*
X5734Y3890*
X5735Y3892*
X5735Y3894*
X5735Y3897*
X5736Y3903*
X5736Y3907*
X5756*
X5756Y3903*
G37*
G36*
X4394Y3917D02*
X4395Y3916D01*
X4397Y3915*
X4399Y3914*
X4401Y3914*
X4405Y3913*
X4409Y3913*
X4418Y3912*
X4424Y3912*
Y3882*
X4418Y3882*
X4405Y3881*
X4401Y3881*
X4399Y3880*
X4397Y3879*
X4395Y3878*
X4394Y3877*
X4394Y3876*
Y3919*
X4394Y3917*
G37*
G36*
X4300Y3876D02*
X4299Y3877D01*
X4298Y3878*
X4297Y3879*
X4295Y3880*
X4292Y3881*
X4289Y3881*
X4285Y3882*
X4275Y3882*
X4270Y3882*
Y3912*
X4275Y3912*
X4289Y3913*
X4292Y3914*
X4295Y3914*
X4297Y3915*
X4298Y3916*
X4299Y3917*
X4300Y3919*
Y3876*
G37*
G36*
X4040Y3917D02*
X4041Y3916D01*
X4042Y3915*
X4044Y3914*
X4047Y3914*
X4050Y3913*
X4054Y3913*
X4064Y3912*
X4070Y3912*
Y3882*
X4064Y3882*
X4050Y3881*
X4047Y3881*
X4044Y3880*
X4042Y3879*
X4041Y3878*
X4040Y3877*
X4040Y3876*
Y3919*
X4040Y3917*
G37*
G36*
X5479Y3869D02*
X5479Y3870D01*
X5478Y3870*
X5477Y3871*
X5476Y3871*
X5475Y3872*
X5474Y3872*
X5473Y3872*
X5472Y3872*
X5471Y3873*
X5469Y3873*
X5470Y3883*
X5471Y3883*
X5472Y3883*
X5473Y3883*
X5474Y3883*
X5475Y3884*
X5476Y3884*
X5477Y3884*
X5478Y3885*
X5479Y3886*
X5480Y3886*
X5479Y3869*
G37*
G36*
X5808Y3886D02*
X5809Y3885D01*
X5810Y3885*
X5811Y3884*
X5813Y3884*
X5815Y3883*
X5818Y3883*
X5824Y3883*
X5828Y3883*
Y3863*
X5824Y3862*
X5821Y3862*
X5818Y3862*
X5815Y3861*
X5813Y3860*
X5811Y3859*
X5809Y3858*
X5808Y3856*
X5808Y3854*
X5808Y3853*
X5808Y3887*
X5808Y3886*
G37*
G36*
X5462Y3852D02*
X5462Y3852D01*
X5461Y3852*
X5461Y3852*
X5460Y3852*
X5460Y3853*
X5459Y3853*
X5458Y3853*
X5457Y3853*
X5456Y3853*
X5456Y3863*
X5457Y3863*
X5460Y3863*
X5460Y3863*
X5461Y3863*
X5461Y3863*
X5462Y3864*
X5462Y3864*
X5462Y3864*
X5462Y3852*
G37*
G36*
X5673Y3870D02*
X5674Y3869D01*
X5675Y3868*
X5676Y3867*
X5678Y3866*
X5680Y3866*
X5683Y3865*
X5686Y3865*
X5693Y3865*
Y3845*
X5689Y3844*
X5686Y3844*
X5683Y3844*
X5680Y3843*
X5678Y3842*
X5676Y3841*
X5675Y3840*
X5674Y3839*
X5673Y3838*
X5673Y3836*
Y3871*
X5673Y3870*
G37*
G36*
X5625Y3836D02*
X5624Y3835D01*
X5623Y3834*
X5622Y3833*
X5622Y3831*
X5621Y3829*
X5621Y3826*
X5621Y3824*
X5621Y3822*
X5621Y3819*
X5622Y3816*
X5623Y3814*
X5624Y3812*
X5625Y3811*
X5627Y3810*
X5628Y3809*
X5630Y3809*
X5590*
X5592Y3809*
X5594Y3810*
X5595Y3811*
X5597Y3812*
X5598Y3814*
X5599Y3816*
X5599Y3819*
X5600Y3822*
X5600Y3823*
X5600Y3829*
X5599Y3831*
X5599Y3833*
X5598Y3834*
X5598Y3835*
X5597Y3836*
X5596Y3836*
X5626*
X5625Y3836*
G37*
G36*
X5584Y3789D02*
X5584Y3790D01*
X5584Y3791*
X5583Y3791*
X5583Y3792*
X5582Y3793*
X5581Y3793*
X5579Y3793*
X5578Y3794*
X5576Y3794*
X5574Y3794*
Y3804*
X5576Y3804*
X5578Y3804*
X5579Y3804*
X5581Y3805*
X5582Y3805*
X5583Y3806*
X5583Y3806*
X5584Y3807*
X5584Y3808*
X5584Y3809*
Y3789*
G37*
G36*
X4453Y3811D02*
X4454Y3811D01*
X4455Y3811*
X4456Y3810*
X4458Y3810*
X4463Y3810*
X4473Y3810*
Y3790*
X4469Y3789*
X4455Y3788*
X4454Y3788*
X4453Y3788*
X4453Y3787*
Y3812*
X4453Y3811*
G37*
G36*
X5074Y3767D02*
X5073Y3767D01*
X5072Y3765*
X5071Y3764*
X5071Y3764*
X5071Y3763*
X5071Y3763*
X5070Y3763*
X5070Y3762*
X5062Y3771*
X5062Y3771*
X5063Y3771*
X5063Y3772*
X5064Y3772*
X5064Y3772*
X5065Y3773*
X5066Y3774*
X5067Y3774*
X5067Y3775*
X5074Y3767*
G37*
G36*
X4507Y3764D02*
X4508Y3763D01*
X4509Y3762*
X4510Y3762*
X4511Y3761*
X4512Y3761*
X4513Y3761*
X4513Y3761*
X4522Y3761*
X4526Y3761*
Y3751*
X4522Y3750*
X4511Y3750*
X4511Y3750*
X4510Y3749*
X4509Y3749*
X4508Y3748*
X4507Y3747*
X4506Y3747*
Y3749*
X4506Y3749*
X4505Y3749*
X4505Y3748*
Y3763*
X4505Y3762*
X4506Y3762*
X4506Y3762*
Y3764*
X4507Y3764*
G37*
G36*
X5134Y3765D02*
X5134Y3765D01*
X5135Y3765*
X5135Y3765*
X5136Y3765*
X5137Y3765*
X5138Y3765*
X5140Y3764*
X5140Y3754*
X5139Y3754*
X5137Y3754*
X5136Y3754*
X5135Y3754*
X5135Y3754*
X5134Y3754*
X5134Y3754*
X5134Y3753*
X5134Y3766*
X5134Y3765*
G37*
G36*
X4453Y3768D02*
X4454Y3767D01*
X4455Y3767*
X4456Y3767*
X4458Y3766*
X4463Y3766*
X4473Y3766*
Y3746*
X4469Y3746*
X4455Y3745*
X4454Y3745*
X4453Y3744*
X4453Y3744*
Y3768*
X4453Y3768*
G37*
G36*
X5060Y3733D02*
X5061Y3733D01*
X5060Y3713*
X5060Y3713*
Y3703*
X5060Y3705*
X5059Y3707*
X5058Y3708*
X5057Y3710*
X5055Y3711*
X5053Y3712*
X5051Y3712*
X5051Y3712*
X5049Y3711*
X5047Y3711*
X5045Y3710*
X5043Y3709*
X5042Y3707*
X5040Y3706*
X5040Y3713*
X5040Y3713*
Y3733*
X5040Y3733*
X5041Y3741*
X5042Y3739*
X5044Y3738*
X5045Y3737*
X5047Y3736*
X5049Y3735*
X5051Y3734*
X5051Y3734*
X5053Y3735*
X5055Y3736*
X5057Y3737*
X5058Y3738*
X5059Y3740*
X5060Y3741*
X5060Y3743*
Y3733*
G37*
G36*
X5123Y3735D02*
X5121Y3735D01*
X5119Y3735*
X5118Y3734*
X5117Y3734*
X5115Y3734*
X5114Y3733*
X5114Y3732*
X5113Y3732*
X5113Y3731*
X5113Y3730*
X5113Y3745*
X5123Y3745*
Y3735*
G37*
G36*
X5112Y3736D02*
X5110Y3734D01*
X5104Y3728*
X5103Y3726*
X5102Y3725*
X5102Y3724*
X5102Y3723*
X5101Y3722*
X5090Y3733*
X5091Y3733*
X5092Y3734*
X5094Y3734*
X5095Y3735*
X5096Y3736*
X5099Y3738*
X5103Y3741*
X5105Y3743*
X5112Y3736*
G37*
G36*
X4453Y3725D02*
X4454Y3724D01*
X4455Y3724*
X4456Y3724*
X4458Y3723*
X4463Y3723*
X4473Y3723*
Y3703*
X4469Y3703*
X4455Y3702*
X4454Y3702*
X4453Y3701*
X4453Y3701*
Y3725*
X4453Y3725*
G37*
G36*
X5509Y3702D02*
X5509Y3700D01*
X5509Y3698*
X5509Y3697*
X5510Y3696*
X5510Y3695*
X5511Y3694*
X5512Y3694*
X5513Y3694*
X5514Y3694*
X5494*
X5495Y3694*
X5495Y3694*
X5496Y3694*
X5497Y3695*
X5497Y3696*
X5498Y3697*
X5498Y3698*
X5498Y3700*
X5499Y3702*
X5499Y3704*
X5509*
X5509Y3702*
G37*
G36*
X5411Y3708D02*
X5411Y3707D01*
X5411Y3706*
X5411Y3704*
X5412Y3703*
X5413Y3701*
X5414Y3700*
X5415Y3698*
X5417Y3697*
X5419Y3695*
X5410Y3689*
X5405Y3695*
X5411Y3709*
X5411Y3708*
G37*
G36*
X5392Y3692D02*
X5392Y3689D01*
X5392Y3689*
X5392Y3688*
X5393Y3687*
X5393Y3687*
X5393Y3687*
X5393Y3686*
X5381*
X5381Y3687*
X5381Y3687*
X5381Y3687*
X5382Y3688*
X5382Y3689*
X5382Y3689*
X5382Y3691*
X5382Y3693*
X5392*
X5392Y3692*
G37*
G36*
X5333Y3691D02*
X5333Y3690D01*
X5333Y3689*
X5333Y3688*
X5333Y3688*
X5334Y3687*
X5334Y3687*
X5334Y3686*
X5334Y3686*
X5322Y3684*
X5322Y3685*
X5322Y3685*
X5323Y3685*
X5323Y3686*
X5323Y3687*
X5323Y3688*
X5323Y3690*
Y3691*
X5333Y3692*
X5333Y3691*
G37*
G36*
X5595Y3689D02*
X5595Y3686D01*
X5595Y3686*
X5595Y3685*
X5596Y3684*
X5596Y3684*
X5596Y3683*
X5597Y3683*
X5597Y3683*
X5584Y3683*
X5584Y3683*
X5585Y3683*
X5585Y3684*
X5585Y3684*
X5585Y3686*
X5585Y3689*
X5585Y3690*
X5595*
X5595Y3689*
G37*
G36*
X5313Y3678D02*
X5313Y3677D01*
X5313Y3672*
X5314Y3672*
X5314Y3672*
X5314Y3672*
X5302Y3674*
X5302Y3674*
X5302Y3674*
X5302Y3675*
X5303Y3675*
X5303Y3676*
X5303Y3677*
X5303Y3677*
X5303Y3678*
X5303Y3680*
X5313Y3678*
G37*
G36*
X5233Y3677D02*
X5232Y3676D01*
X5231Y3675*
X5230Y3674*
X5230Y3673*
X5230Y3673*
X5229Y3672*
X5229Y3672*
X5229Y3672*
X5229Y3671*
X5219Y3678*
X5219Y3678*
X5220Y3678*
X5220Y3679*
X5220Y3679*
X5221Y3680*
X5223Y3681*
X5224Y3682*
X5233Y3677*
G37*
G36*
X5266Y3675D02*
X5265Y3674D01*
X5264Y3673*
X5263Y3672*
X5263Y3671*
X5263Y3671*
X5262Y3670*
X5262Y3670*
X5262Y3669*
X5262Y3669*
X5252Y3676*
X5252Y3676*
X5253Y3676*
X5253Y3677*
X5253Y3677*
X5254Y3678*
X5256Y3679*
X5257Y3680*
X5266Y3675*
G37*
G36*
X4453Y3681D02*
X4454Y3681D01*
X4455Y3681*
X4456Y3680*
X4458Y3680*
X4463Y3680*
X4473Y3680*
Y3660*
X4469Y3660*
X4455Y3659*
X4454Y3658*
X4453Y3658*
X4453Y3657*
Y3682*
X4453Y3681*
G37*
G36*
X5289Y3663D02*
X5289Y3657D01*
X5277Y3660*
X5278Y3661*
X5278Y3661*
X5278Y3661*
X5278Y3662*
X5279Y3662*
X5279Y3663*
X5279Y3664*
X5279Y3664*
X5279Y3666*
X5289Y3663*
G37*
G36*
X5535Y3687D02*
X5536Y3686D01*
X5537Y3685*
X5539Y3684*
X5541Y3683*
X5543Y3682*
X5546Y3681*
X5550Y3681*
X5554Y3680*
X5559Y3680*
Y3650*
X5535Y3651*
X5535Y3689*
X5535Y3687*
G37*
G36*
X5596Y3667D02*
X5606Y3658D01*
X5607Y3657*
X5608Y3656*
X5609Y3656*
X5610Y3656*
X5600Y3645*
X5600Y3646*
X5599Y3647*
X5599Y3648*
X5598Y3650*
X5596Y3651*
X5593Y3655*
X5586Y3662*
X5593Y3669*
X5596Y3667*
G37*
G36*
X5433Y3663D02*
X5433Y3661D01*
X5433Y3659*
X5433Y3658*
X5434Y3657*
X5434Y3656*
X5435Y3655*
X5436Y3655*
X5437Y3655*
X5438Y3655*
X5433*
X5434Y3643*
X5434Y3642*
X5434Y3641*
X5435Y3640*
X5420*
X5421Y3641*
X5421Y3642*
X5421Y3643*
X5422Y3645*
X5422Y3649*
X5422Y3655*
X5418*
X5418Y3655*
X5419Y3655*
X5420Y3655*
X5421Y3656*
X5421Y3657*
X5422Y3658*
X5422Y3659*
X5422Y3661*
X5422Y3663*
X5423Y3665*
X5433*
X5433Y3663*
G37*
G36*
X5111Y3646D02*
X5110Y3645D01*
X5108Y3644*
X5107Y3642*
X5106Y3639*
X5105Y3636*
X5104Y3632*
X5104Y3627*
X5104Y3627*
X5104Y3625*
X5104Y3623*
X5105Y3622*
X5105Y3620*
X5105Y3619*
X5106Y3618*
X5107Y3618*
X5104Y3617*
X5104Y3616*
X5090*
X5072Y3615*
X5072Y3615*
X5072Y3616*
X5073Y3617*
X5073Y3619*
X5073Y3620*
X5073Y3623*
X5073Y3627*
X5072Y3632*
X5071Y3636*
X5070Y3639*
X5069Y3642*
X5067Y3644*
X5065Y3645*
X5063Y3646*
X5060Y3646*
X5113*
X5111Y3646*
G37*
G36*
X4453Y3638D02*
X4454Y3637D01*
X4455Y3637*
X4456Y3637*
X4458Y3637*
X4463Y3636*
X4473Y3636*
Y3616*
X4469Y3616*
X4454Y3615*
X4453Y3615*
X4453Y3614*
Y3638*
X4453Y3638*
G37*
G36*
X5324Y3613D02*
X5323Y3612D01*
X5321Y3611*
X5321Y3610*
X5321Y3610*
X5320Y3609*
X5320Y3609*
X5320Y3608*
X5320Y3608*
X5311Y3617*
X5312Y3617*
X5312Y3617*
X5312Y3617*
X5313Y3617*
X5313Y3618*
X5314Y3618*
X5315Y3619*
X5317Y3620*
X5324Y3613*
G37*
G36*
X5381Y3632D02*
X5382Y3632D01*
X5386Y3632*
X5409Y3631*
X5412Y3611*
X5410Y3611*
X5407Y3611*
X5405Y3611*
X5403Y3610*
X5402Y3609*
X5400Y3608*
X5399Y3607*
X5398Y3606*
X5397Y3604*
X5397Y3603*
X5380Y3632*
X5381Y3632*
G37*
G36*
X5195Y3603D02*
X5195Y3602D01*
X5195Y3598*
X5195Y3598*
X5195Y3597*
X5196Y3597*
X5196Y3597*
X5184Y3599*
X5184Y3599*
X5184Y3599*
X5184Y3600*
X5185Y3600*
X5185Y3601*
X5185Y3602*
X5185Y3602*
X5185Y3604*
X5185Y3605*
X5195Y3603*
G37*
G36*
X4500Y3587D02*
X4500Y3586D01*
X4501Y3585*
X4502Y3585*
X4503Y3584*
X4504Y3584*
X4505Y3584*
X4506Y3584*
X4515Y3584*
X4519Y3583*
Y3573*
X4515Y3573*
X4504Y3573*
X4503Y3573*
X4502Y3572*
X4501Y3572*
X4500Y3571*
X4500Y3570*
X4499Y3570*
Y3572*
X4499Y3572*
X4498Y3572*
X4497Y3571*
Y3586*
X4498Y3585*
X4499Y3585*
X4499Y3585*
Y3587*
X4500Y3587*
G37*
G36*
X5532Y3595D02*
X5530Y3594D01*
X5528Y3593*
X5527Y3591*
X5525Y3588*
X5524Y3585*
X5523Y3581*
X5523Y3579*
X5523Y3578*
X5523Y3577*
X5524Y3576*
X5524Y3575*
X5522Y3575*
X5522Y3571*
X5522Y3565*
X5492*
X5492Y3571*
X5491Y3577*
X5489Y3577*
X5490Y3578*
X5490Y3579*
X5491Y3580*
X5491Y3581*
X5491Y3581*
X5490Y3585*
X5490Y3588*
X5488Y3591*
X5487Y3593*
X5486Y3594*
X5484Y3595*
X5482Y3595*
X5535*
X5532Y3595*
G37*
G36*
X5629Y3608D02*
X5627Y3608D01*
X5626Y3607*
X5624Y3605*
X5623Y3604*
X5622Y3601*
X5622Y3599*
X5621Y3596*
X5621Y3592*
X5621Y3591*
X5621Y3585*
X5622Y3582*
X5622Y3580*
X5623Y3578*
X5624Y3577*
X5624Y3576*
X5625Y3575*
X5627Y3575*
X5597*
X5598Y3575*
X5599Y3576*
X5599Y3577*
X5600Y3578*
X5600Y3580*
X5600Y3582*
X5601Y3588*
X5601Y3591*
X5601Y3592*
X5600Y3596*
X5600Y3599*
X5599Y3601*
X5598Y3604*
X5597Y3605*
X5596Y3607*
X5594Y3608*
X5593Y3608*
X5591Y3609*
X5631*
X5629Y3608*
G37*
G36*
X4453Y3595D02*
X4454Y3594D01*
X4455Y3594*
X4456Y3594*
X4458Y3593*
X4463Y3593*
X4473Y3593*
Y3573*
X4469Y3573*
X4455Y3572*
X4454Y3572*
X4453Y3571*
X4453Y3571*
Y3595*
X4453Y3595*
G37*
G36*
X5278Y3594D02*
X5277Y3593D01*
X5276Y3591*
X5275Y3590*
X5274Y3588*
X5274Y3586*
X5273Y3585*
X5273Y3583*
X5273Y3581*
X5273Y3579*
X5263Y3569*
X5263Y3571*
X5262Y3572*
X5262Y3573*
X5261Y3574*
X5261Y3575*
X5260Y3575*
X5259Y3574*
X5258Y3574*
X5257Y3573*
X5256Y3572*
X5264Y3594*
X5280Y3596*
X5278Y3594*
G37*
G36*
X5454Y3598D02*
X5455Y3597D01*
X5456Y3595*
X5458Y3594*
X5461Y3593*
X5464Y3593*
X5468Y3592*
X5472Y3592*
X5482Y3592*
Y3562*
X5477Y3561*
X5461Y3560*
X5458Y3560*
X5456Y3559*
X5455Y3558*
X5454Y3557*
X5454Y3556*
Y3599*
X5454Y3598*
G37*
G36*
X5340Y3566D02*
X5341Y3566D01*
X5341Y3565*
X5341Y3565*
X5341Y3564*
X5342Y3564*
X5343Y3562*
X5344Y3561*
X5337Y3554*
X5336Y3555*
X5334Y3556*
X5334Y3557*
X5333Y3557*
X5333Y3557*
X5332Y3558*
X5332Y3558*
X5332Y3558*
X5340Y3566*
X5340Y3566*
G37*
G36*
X5674Y3566D02*
X5674Y3565D01*
X5675Y3564*
X5675Y3563*
X5676Y3563*
X5677Y3562*
X5679Y3562*
X5680Y3562*
X5682Y3562*
X5683Y3562*
X5685Y3562*
X5686Y3562*
X5687Y3562*
X5687Y3562*
X5688Y3562*
X5688Y3562*
X5688Y3563*
Y3550*
X5688Y3551*
X5688Y3551*
X5687Y3551*
X5687Y3551*
X5686Y3551*
X5685Y3551*
X5684Y3551*
X5683Y3551*
X5682Y3551*
X5680Y3551*
X5679Y3551*
X5677Y3551*
X5676Y3550*
X5675Y3550*
X5675Y3549*
X5674Y3548*
X5674Y3547*
X5674Y3547*
Y3567*
X5674Y3566*
G37*
G36*
X4453Y3551D02*
X4454Y3551D01*
X4454Y3551*
X4455Y3550*
X4457Y3550*
X4458Y3550*
X4465Y3550*
X4468Y3550*
Y3530*
X4465Y3530*
X4455Y3529*
X4454Y3529*
X4454Y3528*
X4453Y3528*
X4453Y3528*
Y3552*
X4453Y3551*
G37*
G36*
X4692Y3532D02*
X4690Y3532D01*
X4689Y3532*
X4689Y3531*
X4688Y3531*
X4687Y3530*
X4686Y3530*
X4685Y3529*
X4684Y3529*
X4683Y3528*
X4682Y3527*
X4674Y3533*
X4674Y3534*
X4675Y3534*
X4676Y3535*
X4676Y3536*
X4677Y3537*
X4677Y3538*
X4677Y3539*
X4677Y3540*
X4677Y3541*
X4677Y3542*
X4692Y3532*
G37*
G36*
X5246Y3533D02*
X5254Y3533D01*
X5254Y3533*
X5254Y3532*
X5254Y3532*
X5253Y3531*
X5253Y3531*
X5253Y3530*
X5253Y3529*
X5253Y3528*
X5253Y3527*
X5243Y3527*
X5243Y3527*
X5236Y3534*
X5237Y3535*
X5238Y3537*
X5239Y3537*
X5239Y3538*
X5239Y3538*
X5240Y3539*
X5240Y3539*
X5240Y3539*
X5246Y3533*
G37*
G36*
X4502Y3524D02*
X4503Y3523D01*
X4504Y3522*
X4505Y3522*
X4506Y3521*
X4507Y3521*
X4508Y3521*
X4508Y3521*
X4517Y3521*
X4521Y3521*
Y3511*
X4517Y3510*
X4506Y3510*
X4506Y3510*
X4505Y3509*
X4504Y3509*
X4503Y3508*
X4502Y3507*
X4501Y3507*
Y3509*
X4501Y3509*
X4500Y3509*
X4500Y3508*
Y3523*
X4500Y3522*
X4501Y3522*
X4501Y3522*
Y3524*
X4502Y3524*
G37*
G36*
X5076Y3497D02*
X5076Y3497D01*
X5076Y3497*
X5075Y3496*
X5075Y3496*
X5074Y3496*
X5074Y3495*
X5072Y3494*
X5071Y3493*
X5064Y3500*
X5065Y3501*
X5066Y3503*
X5067Y3503*
X5067Y3504*
X5067Y3504*
X5068Y3505*
X5068Y3505*
X5068Y3505*
X5076Y3497*
G37*
G36*
X5408Y3506D02*
X5408Y3505D01*
X5409Y3503*
X5410Y3502*
X5412Y3501*
X5414Y3501*
X5416Y3500*
X5419Y3500*
X5422Y3500*
X5426Y3500*
Y3480*
X5422Y3479*
X5419Y3479*
X5416Y3479*
X5414Y3478*
X5412Y3478*
X5410Y3477*
X5409Y3476*
X5408Y3474*
X5408Y3473*
X5407Y3472*
Y3507*
X5408Y3506*
G37*
G36*
X4453Y3484D02*
X4453Y3484D01*
X4453Y3484*
X4454Y3483*
X4454Y3482*
X4461Y3475*
X4466Y3470*
X4438*
X4435Y3473*
X4432Y3475*
X4429Y3477*
X4426Y3479*
X4423Y3481*
X4421Y3482*
X4418Y3483*
X4415Y3484*
X4412Y3484*
X4409Y3484*
X4453Y3484*
G37*
G36*
X5336Y3464D02*
X5335Y3464D01*
X5334Y3463*
X5333Y3463*
X5333Y3462*
X5332Y3461*
X5332Y3459*
X5332Y3458*
X5332Y3456*
X5332Y3454*
X5322*
X5322Y3456*
X5321Y3458*
X5321Y3459*
X5321Y3461*
X5320Y3462*
X5320Y3463*
X5319Y3463*
X5318Y3464*
X5318Y3464*
X5317Y3464*
X5337*
X5336Y3464*
G37*
G36*
X5332Y3446D02*
X5332Y3441D01*
X5332Y3440*
X5333Y3439*
X5333Y3439*
X5333Y3438*
X5333Y3438*
X5320*
X5320Y3438*
X5321Y3439*
X5321Y3439*
X5321Y3440*
X5321Y3441*
X5321Y3442*
X5322Y3445*
X5322Y3448*
X5332*
X5332Y3446*
G37*
G36*
X5273D02*
X5273Y3441D01*
X5273Y3440*
X5273Y3439*
X5274Y3439*
X5274Y3438*
X5274Y3438*
X5261*
X5261Y3438*
X5261Y3439*
X5262Y3439*
X5262Y3440*
X5262Y3441*
X5262Y3442*
X5263Y3445*
X5263Y3448*
X5273*
X5273Y3446*
G37*
G36*
X5253D02*
X5253Y3441D01*
X5254Y3440*
X5254Y3439*
X5254Y3439*
X5254Y3438*
X5255Y3438*
X5241*
X5242Y3438*
X5242Y3439*
X5242Y3439*
X5242Y3440*
X5243Y3441*
X5243Y3442*
X5243Y3445*
X5243Y3448*
X5253*
X5253Y3446*
G37*
G36*
X4923Y3399D02*
X4923Y3399D01*
X4924Y3399*
X4924Y3399*
X4925Y3399*
X4926Y3399*
X4927Y3399*
X4929Y3399*
Y3389*
X4928Y3388*
X4926Y3388*
X4925Y3388*
X4924Y3388*
X4924Y3388*
X4923Y3388*
X4923Y3388*
X4923Y3387*
Y3400*
X4923Y3399*
G37*
G36*
X5392Y3399D02*
X5392Y3399D01*
X5392Y3399*
X5393Y3399*
X5394Y3399*
X5395Y3398*
X5398Y3398*
X5402Y3398*
Y3388*
X5400Y3388*
X5394Y3388*
X5393Y3387*
X5392Y3387*
X5392Y3387*
X5392Y3387*
X5392Y3386*
Y3400*
X5392Y3399*
G37*
G36*
X5195Y3400D02*
X5195Y3400D01*
X5195Y3399*
X5196Y3399*
X5196Y3399*
X5197Y3399*
X5197Y3399*
X5202Y3399*
X5202Y3399*
X5203Y3400*
X5203Y3400*
Y3386*
X5203Y3387*
X5202Y3387*
X5202Y3388*
X5201Y3388*
X5200Y3388*
X5199Y3388*
X5198Y3389*
X5197Y3389*
X5195Y3389*
X5195Y3388*
X5194Y3388*
X5194Y3388*
X5194Y3388*
X5193Y3388*
X5193Y3389*
X5193Y3389*
Y3399*
X5194Y3399*
X5194Y3400*
X5195Y3400*
G37*
G36*
X5472Y3389D02*
X5473Y3387D01*
X5474Y3385*
X5475Y3384*
X5477Y3383*
X5479Y3382*
X5482Y3381*
X5485Y3381*
X5489Y3381*
X5492Y3381*
Y3361*
X5489Y3360*
X5485Y3360*
X5482Y3360*
X5479Y3359*
X5477Y3358*
X5475Y3357*
X5474Y3356*
X5473Y3354*
X5472Y3352*
X5472Y3351*
Y3391*
X5472Y3389*
G37*
G36*
X4865Y3362D02*
X4870Y3358D01*
X4873Y3356*
X4875Y3354*
X4878Y3353*
X4880Y3352*
X4882Y3351*
X4884Y3351*
X4886Y3351*
Y3341*
X4884Y3340*
X4882Y3340*
X4880Y3339*
X4878Y3338*
X4875Y3337*
X4873Y3335*
X4870Y3334*
X4868Y3331*
X4862Y3326*
Y3365*
X4865Y3362*
G37*
G36*
X5441Y3306D02*
X5440Y3305D01*
X5439Y3305*
X5438Y3304*
X5437Y3303*
X5434Y3301*
X5429Y3297*
X5424Y3292*
X5419Y3296*
X5419Y3294*
X5409Y3290*
Y3300*
X5411Y3300*
X5413Y3300*
X5415Y3300*
X5416Y3300*
X5417Y3301*
X5418Y3301*
X5419Y3302*
X5419Y3303*
X5419Y3304*
X5420Y3305*
X5420Y3301*
X5420Y3301*
X5430Y3313*
X5430Y3314*
X5431Y3315*
X5431Y3316*
X5441Y3306*
G37*
G36*
X5472Y3334D02*
X5473Y3332D01*
X5474Y3331*
X5475Y3330*
X5477Y3329*
X5479Y3328*
X5482Y3327*
X5485Y3326*
X5489Y3326*
X5492Y3326*
Y3306*
X5489Y3306*
X5485Y3306*
X5482Y3305*
X5479Y3304*
X5477Y3304*
X5475Y3302*
X5474Y3301*
X5473Y3300*
X5472Y3298*
X5472Y3296*
Y3336*
X5472Y3334*
G37*
G36*
X5392Y3301D02*
X5392Y3301D01*
X5392Y3301*
X5393Y3300*
X5394Y3300*
X5395Y3300*
X5398Y3300*
X5402Y3300*
Y3290*
X5400Y3290*
X5394Y3289*
X5393Y3289*
X5392Y3289*
X5392Y3289*
X5392Y3288*
X5392Y3288*
Y3301*
X5392Y3301*
G37*
G36*
X5353Y3275D02*
X5354Y3274D01*
X5354Y3274*
X5355Y3273*
X5356Y3272*
X5357Y3272*
X5358Y3272*
X5360Y3271*
X5361Y3271*
X5363Y3271*
Y3261*
X5361Y3261*
X5360Y3261*
X5358Y3261*
X5357Y3260*
X5356Y3260*
X5355Y3259*
X5354Y3259*
X5354Y3258*
X5353Y3257*
X5353Y3256*
Y3276*
X5353Y3275*
G37*
G36*
X5273Y3250D02*
X5273Y3249D01*
X5273Y3249*
X5273Y3249*
X5273Y3248*
X5273Y3246*
X5273Y3244*
X5263*
X5263Y3245*
X5262Y3249*
X5262Y3249*
X5262Y3250*
X5262Y3250*
X5273*
X5273Y3250*
G37*
G36*
X5333Y3249D02*
X5334Y3243D01*
X5324*
X5324Y3244*
X5323Y3246*
X5323Y3247*
X5323Y3248*
X5323Y3248*
X5323Y3249*
X5322Y3249*
X5322Y3250*
X5322Y3250*
X5333Y3249*
G37*
G36*
X4394Y3282D02*
X4395Y3280D01*
X4397Y3280*
X4399Y3279*
X4401Y3278*
X4405Y3277*
X4409Y3277*
X4418Y3276*
X4424Y3276*
Y3246*
X4418Y3246*
X4405Y3245*
X4401Y3245*
X4399Y3244*
X4397Y3243*
X4395Y3242*
X4394Y3241*
X4394Y3240*
Y3283*
X4394Y3282*
G37*
G36*
X4300Y3240D02*
X4299Y3241D01*
X4298Y3242*
X4297Y3243*
X4295Y3244*
X4292Y3245*
X4289Y3245*
X4285Y3246*
X4275Y3246*
X4270Y3246*
Y3276*
X4275Y3276*
X4289Y3277*
X4292Y3278*
X4295Y3279*
X4297Y3280*
X4298Y3280*
X4299Y3282*
X4300Y3283*
Y3240*
G37*
G36*
X4040Y3282D02*
X4041Y3280D01*
X4042Y3280*
X4044Y3279*
X4047Y3278*
X4050Y3277*
X4054Y3277*
X4064Y3276*
X4070Y3276*
Y3246*
X4064Y3246*
X4050Y3245*
X4047Y3245*
X4044Y3244*
X4042Y3243*
X4041Y3242*
X4040Y3241*
X4040Y3240*
Y3283*
X4040Y3282*
G37*
G36*
X5313Y3249D02*
X5313Y3249D01*
X5313Y3249*
X5313Y3248*
X5312Y3247*
X5312Y3246*
X5312Y3243*
X5312Y3239*
X5302*
X5302Y3241*
X5302Y3247*
X5301Y3248*
X5301Y3249*
X5301Y3249*
X5301Y3249*
X5300Y3249*
X5314*
X5313Y3249*
G37*
G36*
X5294D02*
X5293Y3249D01*
X5293Y3249*
X5293Y3248*
X5293Y3247*
X5293Y3246*
X5292Y3243*
X5292Y3239*
X5282*
X5282Y3241*
X5282Y3247*
X5282Y3248*
X5281Y3249*
X5281Y3249*
X5281Y3249*
X5281Y3249*
X5294*
X5294Y3249*
G37*
G36*
X4865Y3264D02*
X4870Y3259D01*
X4873Y3257*
X4875Y3256*
X4878Y3254*
X4880Y3253*
X4882Y3253*
X4884Y3252*
X4886Y3252*
Y3242*
X4884Y3242*
X4882Y3242*
X4880Y3241*
X4878Y3240*
X4875Y3239*
X4873Y3237*
X4870Y3235*
X4868Y3233*
X4862Y3228*
Y3266*
X4865Y3264*
G37*
G36*
X5251Y3220D02*
X5249Y3218D01*
X5243Y3211*
X5242Y3209*
X5241Y3208*
X5240Y3206*
X5240Y3205*
X5240Y3204*
X5241Y3203*
X5228Y3219*
X5229Y3218*
X5230Y3218*
X5231Y3218*
X5232Y3218*
X5234Y3219*
X5235Y3220*
X5237Y3221*
X5239Y3222*
X5243Y3226*
X5251Y3220*
G37*
G36*
X5341Y3191D02*
X5341Y3192D01*
X5341Y3193*
X5340Y3194*
X5340Y3195*
X5339Y3195*
X5338Y3196*
X5336Y3196*
X5335Y3196*
X5333Y3196*
X5331Y3196*
Y3206*
X5333Y3207*
X5335Y3207*
X5336Y3207*
X5338Y3207*
X5339Y3208*
X5340Y3208*
X5340Y3209*
X5341Y3210*
X5341Y3211*
X5341Y3211*
Y3191*
G37*
G36*
X5292Y3191D02*
X5293Y3190D01*
X5293Y3188*
X5293Y3187*
X5294Y3186*
X5294Y3185*
X5295Y3184*
X5296Y3184*
X5296Y3183*
X5297Y3183*
X5277*
X5278Y3183*
X5279Y3184*
X5280Y3184*
X5281Y3185*
X5281Y3186*
X5282Y3187*
X5282Y3188*
X5282Y3190*
X5282Y3191*
X5282Y3193*
X5292*
X5292Y3191*
G37*
G36*
X5418Y3214D02*
X5418Y3213D01*
X5419Y3212*
X5420Y3211*
X5422Y3210*
X5424Y3210*
X5426Y3209*
X5428Y3209*
X5431Y3209*
X5435Y3209*
Y3189*
X5431Y3188*
X5426Y3188*
X5424Y3187*
X5422Y3187*
X5420Y3186*
X5419Y3185*
X5418Y3184*
X5418Y3183*
X5418Y3182*
Y3215*
X5418Y3214*
G37*
G36*
X5143Y3176D02*
X5142Y3177D01*
X5142Y3177*
X5141Y3178*
X5140Y3179*
X5139Y3179*
X5137Y3180*
X5135Y3180*
X5133Y3180*
X5128Y3181*
Y3201*
X5130Y3201*
X5135Y3201*
X5137Y3201*
X5139Y3202*
X5140Y3202*
X5141Y3203*
X5142Y3204*
X5142Y3204*
X5143Y3205*
Y3176*
G37*
G36*
X5235Y3166D02*
X5234Y3166D01*
X5233Y3165*
X5232Y3164*
X5231Y3162*
X5231Y3160*
X5230Y3158*
X5230Y3156*
X5230Y3153*
X5230Y3150*
X5210*
X5209Y3153*
X5209Y3158*
X5208Y3160*
X5208Y3162*
X5207Y3164*
X5206Y3165*
X5205Y3166*
X5204Y3166*
X5203Y3166*
X5236*
X5235Y3166*
G37*
G36*
X4706Y3144D02*
X4706Y3144D01*
X4706Y3143*
X4706Y3143*
X4706Y3142*
X4706Y3141*
X4706Y3140*
X4706Y3138*
X4696*
X4695Y3139*
X4695Y3141*
X4695Y3142*
X4695Y3143*
X4695Y3143*
X4695Y3144*
X4695Y3144*
X4694Y3144*
X4707*
X4706Y3144*
G37*
G36*
X5307Y3058D02*
X5306Y3057D01*
X5304Y3056*
X5303Y3054*
X5303Y3052*
X5302Y3049*
X5301Y3046*
X5301Y3043*
X5301Y3039*
X5301Y3035*
X5271*
X5270Y3039*
X5270Y3046*
X5269Y3049*
X5268Y3052*
X5268Y3054*
X5267Y3056*
X5265Y3057*
X5264Y3058*
X5262Y3058*
X5309*
X5307Y3058*
G37*
G36*
X4559Y2836D02*
X4558Y2835D01*
X4557Y2833*
X4556Y2832*
X4556Y2832*
X4556Y2831*
X4556Y2831*
X4556Y2831*
X4556Y2830*
X4547Y2839*
X4547Y2839*
X4548Y2839*
X4548Y2839*
X4548Y2840*
X4549Y2840*
X4550Y2840*
X4551Y2841*
X4552Y2843*
X4559Y2836*
G37*
G36*
X5321Y2394D02*
X5322Y2392D01*
X5322Y2391*
X5322Y2390*
X5323Y2388*
X5323Y2387*
X5324Y2387*
X5325Y2386*
X5325Y2386*
X5326Y2386*
X5306*
X5307Y2386*
X5308Y2386*
X5309Y2387*
X5310Y2387*
X5310Y2388*
X5311Y2390*
X5311Y2391*
X5311Y2392*
X5311Y2394*
X5311Y2396*
X5321*
X5321Y2394*
G37*
G36*
X5710Y2395D02*
X5713Y2392D01*
X5715Y2391*
X5716Y2390*
X5718Y2389*
X5719Y2389*
X5720Y2389*
X5721Y2389*
X5722Y2390*
X5708Y2376*
X5708Y2377*
X5708Y2377*
X5708Y2379*
X5708Y2380*
X5708Y2381*
X5707Y2383*
X5706Y2384*
X5704Y2386*
X5700Y2390*
X5707Y2397*
X5710Y2395*
G37*
G36*
X6131Y2393D02*
X6135Y2390D01*
X6136Y2389*
X6138Y2388*
X6139Y2387*
X6140Y2387*
X6141Y2387*
X6142Y2387*
X6143Y2388*
X6129Y2374*
X6129Y2375*
X6130Y2376*
X6130Y2377*
X6129Y2378*
X6129Y2379*
X6128Y2381*
X6127Y2382*
X6125Y2384*
X6122Y2388*
X6129Y2395*
X6131Y2393*
G37*
G36*
X4691Y2214D02*
X4692Y2209D01*
X4692Y2204*
X4693Y2200*
X4695Y2197*
X4696Y2194*
X4698Y2192*
X4701Y2191*
X4703Y2190*
X4706Y2190*
X4646*
X4649Y2190*
X4651Y2191*
X4654Y2192*
X4656Y2194*
X4657Y2197*
X4659Y2200*
X4660Y2204*
X4660Y2209*
X4661Y2214*
X4661Y2220*
X4691*
X4691Y2214*
G37*
G54D13*
X5407Y4221D02*
X5408Y4222D01*
X5407Y3984D02*
Y4221D01*
X4893Y4437D02*
X4939Y4391D01*
X4955*
X4986Y4360*
Y4246D02*
Y4360D01*
Y4246D02*
X5029Y4203D01*
X5255*
X5328Y3984D02*
Y4129D01*
X5255Y4203D02*
X5328Y4129D01*
X5015Y4270D02*
X5264D01*
X5036Y4231D02*
X5266D01*
X5264Y4270D02*
X5367Y4166D01*
X5344Y4246D02*
Y4471D01*
X5319Y4496D02*
X5344Y4471D01*
X4693Y4437D02*
X4752Y4496D01*
X5319*
X5344Y4246D02*
X5387Y4202D01*
Y3984D02*
Y4202D01*
X5367Y3984D02*
Y4166D01*
X5348Y3984D02*
Y4148D01*
X5266Y4231D02*
X5348Y4148D01*
X4893Y4437D02*
X4901Y4445D01*
X5215Y4319D02*
Y4400D01*
X5193Y4422D02*
X5215Y4400D01*
X5193Y4422D02*
Y4437D01*
X4793Y4380D02*
Y4437D01*
Y4380D02*
X4856Y4317D01*
X4944*
X5659Y3558D02*
X5660Y3557D01*
X5695*
X5787Y4126D02*
X5818D01*
X5188Y3395D02*
X5188Y3394D01*
X5434Y3858D02*
X5468D01*
X5469Y3858*
X5434Y3838D02*
X5503D01*
X5465Y3917D02*
X5484Y3936D01*
X5434Y3917D02*
X5465D01*
X5473Y3897D02*
X5529Y3953D01*
X5434Y3897D02*
X5473D01*
X5434Y3917D02*
X5434Y3917D01*
X5434Y3937D02*
X5434Y3937D01*
X5455*
X5456Y3936*
X5434Y3956D02*
X5434Y3956D01*
X5456D02*
X5463Y3964D01*
X5434Y3956D02*
X5456D01*
X5463Y3964D02*
X5466D01*
X5434Y3878D02*
X5434Y3878D01*
X5488D02*
X5489Y3878D01*
X5434Y3878D02*
X5488D01*
X4690Y3542D02*
Y3545D01*
X4664Y3516D02*
X4690Y3542D01*
X4498Y3756D02*
X4683D01*
X4844Y3917D02*
X5163D01*
X4683Y3756D02*
X4844Y3917D01*
X5249Y3984D02*
Y4011D01*
X5274Y4036*
X5249Y3984D02*
X5249Y3984D01*
X5200Y4019D02*
X5210Y4008D01*
X5191Y4027D02*
X5200Y4019D01*
X5434Y3779D02*
X5501D01*
X5590Y3666D02*
X5610Y3646D01*
X5590Y3666D02*
Y3690D01*
X5501Y3779D02*
X5590Y3690D01*
X5434Y3740D02*
X5475D01*
X5504Y3679D02*
Y3711D01*
X5475Y3740D02*
X5504Y3711D01*
X5269Y3685D02*
Y3712D01*
X5254Y3670D02*
X5269Y3685D01*
X5254Y3668D02*
Y3670D01*
X5360Y3539D02*
X5425D01*
X5520Y3301D02*
Y3444D01*
X5425Y3539D02*
X5520Y3444D01*
X5346Y3266D02*
X5485D01*
X5520Y3301*
X5353Y3201D02*
X5356Y3199D01*
X5327Y3201D02*
X5353D01*
X5307Y3221D02*
X5327Y3201D01*
X5307Y3221D02*
Y3266D01*
X4493Y3516D02*
X4664D01*
X5151Y4003D02*
X5166Y3988D01*
X5105Y4003D02*
X5151D01*
X5166Y3988D02*
X5190D01*
X4917Y3394D02*
X4965D01*
X5077Y3506*
X4701Y2984D02*
Y3151D01*
X4547Y2830D02*
X4701Y2984D01*
X5128Y3759D02*
X5162D01*
X5128Y3760D02*
X5128Y3759D01*
X5316Y2356D02*
Y2441D01*
X4749Y3009D02*
X5316Y2441D01*
X4749Y3009D02*
Y3577D01*
X4548Y3578D02*
X4867Y3897D01*
X5163*
X5010Y3838D02*
X5163D01*
X4749Y3577D02*
X5010Y3838D01*
X5022Y3818D02*
X5163D01*
X4772Y3568D02*
X5022Y3818D01*
X4772Y3020D02*
Y3568D01*
X5030Y3799D02*
X5163D01*
X4794Y3563D02*
X5030Y3799D01*
X5162Y3799D02*
X5163Y3799D01*
X4772Y3020D02*
X4853Y2939D01*
X4865Y2958D02*
X5559D01*
X4794Y3029D02*
Y3563D01*
Y3029D02*
X4865Y2958D01*
X5159Y2939D02*
X5738Y2360D01*
X4853Y2939D02*
X5159D01*
X5559Y2958D02*
X6159Y2358D01*
X5190Y3595D02*
Y3712D01*
X5189Y3594D02*
X5190Y3595D01*
X5189Y3592D02*
Y3594D01*
X5332Y3567D02*
X5360Y3539D01*
X5387Y3680D02*
Y3712D01*
X5188Y3394D02*
X5218D01*
X5218Y3393*
X5079Y3779D02*
X5163D01*
X5062Y3763D02*
X5079Y3779D01*
X5062Y3763D02*
X5062D01*
X5162Y3759D02*
X5163Y3759D01*
X5108Y3740D02*
X5163D01*
X5091Y3723D02*
X5108Y3740D01*
X4843Y3247D02*
X4956D01*
X5248Y3539*
X5249Y3540*
X4843Y3346D02*
X5022D01*
X5268Y3591*
X5284Y3657D02*
Y3687D01*
X5282Y3655D02*
X5284Y3657D01*
X5282Y3653D02*
Y3655D01*
X5311Y3608D02*
X5367Y3664D01*
Y3712*
X5268Y3591D02*
X5348Y3671D01*
X5268Y3422D02*
Y3591D01*
X5308Y3670D02*
Y3712D01*
X5307Y3667D02*
Y3669D01*
X5308Y3670*
X5328Y3680D02*
X5329Y3679D01*
X5328Y3680D02*
Y3712D01*
X5348Y3712D02*
X5348Y3712D01*
Y3687D02*
Y3712D01*
X5328Y3712D02*
X5328Y3712D01*
X5348Y3671D02*
Y3687D01*
X5348Y3687D02*
X5348Y3687D01*
X5288Y3691D02*
Y3712D01*
X5284Y3687D02*
X5288Y3691D01*
X5387Y3712D02*
X5387Y3712D01*
X5407Y3699D02*
X5428Y3679D01*
X5162Y3838D02*
X5163Y3838D01*
X5229Y3712D02*
X5229Y3712D01*
X5229Y3680D02*
Y3712D01*
X5221Y3672D02*
X5229Y3680D01*
X5221Y3670D02*
Y3672D01*
X5269Y3712D02*
X5269Y3712D01*
X5288Y3712D02*
X5288Y3712D01*
X4880Y3943D02*
X4884D01*
X4897Y3956*
X5163*
X4964Y3937D02*
X4964Y3937D01*
X5162*
X5163Y3937*
X4490Y3578D02*
X4548D01*
X5367Y3712D02*
X5367Y3712D01*
X5615Y3950D02*
Y3977D01*
X5503Y3838D02*
X5615Y3950D01*
X5248Y3422D02*
Y3539D01*
X5327Y3266D02*
X5329Y3264D01*
Y3243D02*
Y3264D01*
Y3243D02*
X5337Y3235D01*
Y3233D02*
Y3235D01*
X5287Y3162D02*
Y3266D01*
X5286Y3160D02*
X5287Y3162D01*
X5268Y3244D02*
Y3266D01*
X5238Y3214D02*
X5268Y3244D01*
X5236Y3214D02*
X5238D01*
X5219Y3197D02*
X5236Y3214D01*
X5219Y3193D02*
Y3197D01*
X5327Y3422D02*
Y3486D01*
X5331Y3491*
X5376Y3393D02*
X5419D01*
X5441Y3371*
X5446*
X5376Y3295D02*
X5420D01*
X5441Y3316*
X5190Y3984D02*
Y3988D01*
X5190Y3988D02*
X5190Y3988D01*
X5174Y4062D02*
X5191Y4045D01*
X5434Y3818D02*
X5514D01*
X5628Y3932D02*
X5693D01*
X5514Y3818D02*
X5628Y3932D01*
X5626Y3988D02*
X5629D01*
X5615Y3977D02*
X5626Y3988D01*
X5428Y3633D02*
Y3679D01*
X5442Y3633D02*
X5447D01*
X5191Y4027D02*
Y4045D01*
X5210Y3984D02*
Y4008D01*
Y3984D02*
X5210Y3984D01*
X5229D02*
Y4061D01*
X5229Y4062D02*
X5229Y4061D01*
X5529Y3953D02*
X5534D01*
X5693Y3932D02*
X5727Y3966D01*
X5434Y3799D02*
X5589D01*
X5610Y3778*
Y3772D02*
Y3778D01*
G54D16*
X5023Y4317D03*
X4944D03*
X5215Y4319D03*
X5136D03*
G54D17*
X5174Y4134D03*
X5229D03*
X5164Y3193D03*
X5219D03*
X5174Y4062D03*
X5229D03*
X5386Y3491D03*
X5331D03*
G54D18*
X5826Y3646D03*
Y3772D03*
X5610Y3646D03*
Y3772D03*
G54D19*
X5793Y3870D03*
X5746D03*
X5658Y3854D03*
X5611D03*
X5612Y3558D03*
X5659D03*
X5356Y3199D03*
X5403D03*
X5787Y4126D03*
X5740D03*
G54D20*
X5818Y4033D03*
Y3966D03*
X5731D03*
Y4033D03*
G54D21*
X5428Y3578D03*
Y3633D03*
X5534Y4008D03*
Y3953D03*
X5446Y3371D03*
Y3316D03*
X5509Y3617D03*
Y3672D03*
X5105Y4058D03*
Y4003D03*
X5087Y3668D03*
Y3723D03*
G54D22*
X4425Y3496D03*
Y3540D03*
Y3583D03*
Y3626D03*
Y3670D03*
Y3713D03*
Y3756D03*
Y3800D03*
Y3843D03*
G54D23*
X3992Y3897D03*
X4347D03*
Y3261D03*
X3992D03*
G54D24*
X5298Y3848D03*
G54D25*
X5407Y3712D03*
X5387D03*
X5367D03*
X5348D03*
X5328D03*
X5308D03*
X5288D03*
X5269D03*
X5249D03*
X5229D03*
X5210D03*
X5190D03*
Y3984D03*
X5210D03*
X5229D03*
X5249D03*
X5269D03*
X5288D03*
X5308D03*
X5328D03*
X5348D03*
X5367D03*
X5387D03*
X5407D03*
G54D26*
X5163Y3740D03*
Y3759D03*
Y3779D03*
Y3799D03*
Y3818D03*
Y3838D03*
Y3858D03*
Y3878D03*
Y3897D03*
Y3917D03*
Y3937D03*
Y3956D03*
X5434D03*
Y3937D03*
Y3917D03*
Y3897D03*
Y3878D03*
Y3858D03*
Y3838D03*
Y3818D03*
Y3799D03*
Y3779D03*
Y3759D03*
Y3740D03*
G54D27*
X5629Y3988D03*
Y4039D03*
G54D28*
X5218Y3393D03*
Y3373D03*
Y3354D03*
Y3334D03*
Y3314D03*
Y3295D03*
X5376Y3393D03*
Y3373D03*
Y3354D03*
Y3334D03*
Y3314D03*
Y3295D03*
G54D29*
X5248Y3266D03*
X5268D03*
X5287D03*
X5307D03*
X5327D03*
X5346D03*
X5248Y3422D03*
X5268D03*
X5287D03*
X5307D03*
X5327D03*
X5346D03*
G54D30*
X5297Y3344D03*
G54D31*
X4563Y3693D03*
Y3646D03*
G54D32*
X5286Y3081D03*
Y3160D03*
G54D49*
X5139Y2100D03*
X5316D03*
X5139Y2356D03*
X5561Y2104D03*
X5738D03*
X5561Y2360D03*
X5982Y2102D03*
X6159D03*
X5982Y2358D03*
G54D50*
X5316Y2356D03*
X5738Y2360D03*
X6159Y2358D03*
G54D51*
X4457Y4151D03*
G54D52*
X4555Y4151D03*
X4654D03*
X4752D03*
X4850D03*
X4843Y3346D03*
Y3247D03*
Y3149D03*
Y3050D03*
X6070Y4238D03*
Y4140D03*
X6069Y3780D03*
Y3681D03*
G54D53*
X4394Y4229D03*
X4921Y3507D03*
G54D55*
X4843Y3444D03*
X6070Y4336D03*
X6069Y3878D03*
G54D56*
X4497Y2460D03*
X4676Y2159D03*
G54D57*
X4497Y2559D03*
X4676Y2061D03*
G54D60*
X4993Y4428D02*
Y4437D01*
X5023Y4317D02*
Y4397D01*
X4993Y4428D02*
X5023Y4397D01*
X5080Y4318D02*
X5135D01*
X5024D02*
X5080D01*
X5135D02*
X5136Y4319D01*
X5023Y4317D02*
X5024Y4318D01*
X5087Y3668D02*
X5089Y3666D01*
Y3601D02*
Y3666D01*
Y3601D02*
X5091Y3599D01*
X5118Y4134D02*
X5174D01*
X4676Y2159D02*
Y2232D01*
X4910Y2466D02*
X5142D01*
X4676Y2232D02*
X4910Y2466D01*
X5509Y3672D02*
X5515Y3665D01*
X5502Y3679D02*
X5509Y3672D01*
X5515Y3665D02*
X5559D01*
X5560Y3665*
X5428Y3578D02*
X5429Y3577D01*
X5482*
X5500Y3559*
X4347Y3897D02*
X4428D01*
X4429Y3898*
X4347Y3261D02*
X4429D01*
X4430Y3262*
X3992Y3261D02*
X4347D01*
X3992Y3897D02*
X4347D01*
X5186Y4443D02*
X5193Y4437D01*
X4793D02*
X4799Y4443D01*
X5534Y4008D02*
Y4062D01*
Y3953D02*
X5540Y3960D01*
X5574*
X5580Y3966*
X5286Y3035D02*
D01*
Y3081*
X5500Y3559D02*
X5506D01*
X5507Y3615D02*
X5509Y3617D01*
X5507Y3560D02*
Y3615D01*
X5506Y3559D02*
X5507Y3560D01*
X5103Y4002D02*
X5105Y4003D01*
X5044Y4002D02*
X5103D01*
X5043Y4001D02*
X5044Y4002D01*
X5171Y4060D02*
X5172Y4059D01*
X5174Y4062D02*
Y4134D01*
X5172Y4059D02*
X5174Y4062D01*
X5105Y4058D02*
X5106Y4060D01*
X5171*
X5229Y4062D02*
Y4134D01*
G54D61*
X5441Y3316D02*
X5441Y3316D01*
X5493*
X5494Y3317*
X5658Y3854D02*
X5659Y3855D01*
X5700*
X5701Y3856*
X5793Y3870D02*
X5796Y3873D01*
X5832*
X5833Y3874*
X5446Y3371D02*
X5446Y3371D01*
X5492*
X5493Y3371*
X5745Y4106D02*
Y4121D01*
Y4106D02*
X5800Y4051D01*
Y4047D02*
Y4051D01*
Y4047D02*
X5814Y4033D01*
X5818*
X5219Y3193D02*
X5220Y3192D01*
Y3150D02*
Y3192D01*
X5023Y3723D02*
X5091D01*
X5162Y3191D02*
X5164Y3193D01*
X5128Y3191D02*
X5162D01*
X5393Y3621D02*
X5416D01*
X5428Y3633*
X5023Y3724D02*
X5023Y3723D01*
X5091D02*
X5091Y3723D01*
X4425Y3670D02*
X4493D01*
X4488Y3800D02*
X4514Y3826D01*
X4425Y3800D02*
X4488D01*
X4560Y3646D02*
X4563D01*
X4541Y3627D02*
X4560Y3646D01*
X4541Y3627D02*
Y3627D01*
X4490Y3626D02*
X4540D01*
X4541Y3627*
X4558Y3698D02*
X4563Y3693D01*
X4536Y3698D02*
X4558D01*
X4484Y3713D02*
X4485Y3712D01*
X4522*
X4536Y3698*
X4560Y3693D02*
X4563D01*
X4484Y3713D02*
X4484Y3713D01*
X4425Y3713D02*
X4484D01*
X4425Y3626D02*
X4426Y3626D01*
X4489*
X4490Y3626*
X4468Y3540D02*
X4493Y3516D01*
X4425Y3540D02*
X4468D01*
X4485Y3583D02*
X4490Y3578D01*
X4425Y3583D02*
X4485D01*
X4493Y3670D02*
X4495Y3668D01*
X4425Y3756D02*
X4426Y3756D01*
X4497*
X4498Y3756*
X4464Y3444D02*
Y3458D01*
X4425Y3496D02*
X4464Y3458D01*
X4425Y3670D02*
X4425Y3670D01*
X4423Y3537D02*
X4425Y3540D01*
X5403Y3199D02*
D01*
X5435*
X5386Y3491D02*
X5387Y3490D01*
X5426*
X5731Y3966D02*
X5732D01*
X5727D02*
X5731D01*
X5746Y3870D02*
Y3952D01*
X5732Y3966D02*
X5746Y3952D01*
X5740Y4126D02*
X5745Y4121D01*
X5629Y4039D02*
X5631D01*
X5710Y4118*
X5735*
X5740Y4123*
Y4126*
X5610Y3853D02*
X5611Y3854D01*
X5610Y3772D02*
Y3853D01*
X5610Y3772D02*
X5610Y3772D01*
X5611Y3559D02*
X5612Y3558D01*
X5611Y3559D02*
Y3645D01*
X5610Y3646D02*
X5611Y3645D01*
G54D62*
X5693Y4437D03*
X5593D03*
X5493D03*
X5393D03*
X5193D03*
X5093D03*
X4893D03*
X4693D03*
X4593D03*
X4793D03*
X4993D03*
X5293D03*
X4361Y3035D03*
X4161D03*
X4261D03*
X4461D03*
X4561D03*
G54D63*
X4493Y4437D03*
X4061Y3035D03*
G54D64*
X4015Y2362D03*
Y2559D03*
G54D65*
X3976Y3732D03*
Y3464D03*
G54D66*
X6259Y4448D03*
X3897D03*
Y2007D03*
X6259D03*
G54D67*
X5408Y4222D03*
X5036Y4231D03*
X5015Y4270D03*
X4856Y4317D03*
X5818Y4126D03*
X5387Y3680D03*
X5695Y3557D03*
X5188Y3395D03*
X5426Y3490D03*
X5435Y3199D03*
X5220Y3150D03*
X5128Y3191D03*
X5469Y3858D03*
X5484Y3936D03*
X5456Y3936D03*
X5466Y3964D03*
X5274Y4036D03*
X5200Y4019D03*
X5254Y3668D03*
X4547Y2830D03*
X4701Y3151D03*
X4917Y3394D03*
X5077Y3506D03*
X5128Y3760D03*
X5189Y3592D03*
X5332Y3567D03*
X5062Y3763D03*
X5282Y3653D03*
X5311Y3608D03*
X5307Y3667D03*
X5329Y3679D03*
X5221Y3670D03*
X4964Y3937D03*
X5249Y3540D03*
X5337Y3233D03*
G54D68*
X5080Y4318D03*
X5494Y3317D03*
X5489Y3878D03*
X5701Y3856D03*
X5833Y3874D03*
X5493Y3371D03*
X4690Y3545D03*
X5118Y4134D03*
X5560Y3665D03*
X5142Y2466D03*
X4924Y3799D03*
X4429Y3898D03*
X4430Y3262D03*
X4880Y3943D03*
X4613Y3960D03*
X4514Y3826D03*
X4484Y3713D03*
X4490Y3626D03*
X4493Y3516D03*
X4490Y3578D03*
X4495Y3668D03*
X4498Y3756D03*
X4704Y3660D03*
X4464Y3444D03*
X5403Y2197D03*
X5826D03*
X6253Y2198D03*
X5580Y3966D03*
G54D69*
X5212Y3935D03*
X5255D03*
X5298D03*
X5342D03*
X5385D03*
X5212Y3891D03*
X5255D03*
X5298D03*
X5342D03*
X5385D03*
X5212Y3848D03*
X5255D03*
X5298D03*
X5342D03*
X5385D03*
X5212Y3805D03*
X5255D03*
X5298D03*
X5342D03*
X5385D03*
X5212Y3761D03*
X5255D03*
X5298D03*
X5342D03*
X5385D03*
X5276Y3322D03*
X5319D03*
Y3366D03*
X5276D03*
X4907Y2576D03*
G54D70*
X5091Y3599D03*
X4733Y2832D03*
X5372Y3609D03*
X5506Y3559D03*
X5023Y3724D03*
X4800Y2734D03*
X5534Y4062D03*
X4926Y2335D03*
X5043Y4001D03*
X4255Y2682D03*
X4346Y2723D03*
X4096Y2409D03*
X4477Y2144D03*
X4556Y1983D03*
X4335Y2113D03*
X4075Y1987D03*
G54D71*
X5286Y3035D03*
M02*