%FSLAX23Y23*%
%MOIN*%
%SFA1B1*%

%IPPOS*%
%AMD48*
4,1,8,0.015700,0.035500,-0.015700,0.035500,-0.035500,0.015700,-0.035500,-0.015700,-0.015700,-0.035500,0.015700,-0.035500,0.035500,-0.015700,0.035500,0.015700,0.015700,0.035500,0.0*
1,1,0.039500,0.015700,0.015700*
1,1,0.039500,-0.015700,0.015700*
1,1,0.039500,-0.015700,-0.015700*
1,1,0.039500,0.015700,-0.015700*
%
%AMD87*
4,1,8,0.015800,-0.035800,0.015800,0.035800,0.008900,0.042800,-0.008900,0.042800,-0.015800,0.035800,-0.015800,-0.035800,-0.008900,-0.042800,0.008900,-0.042800,0.015800,-0.035800,0.0*
1,1,0.013900,0.008900,-0.035800*
1,1,0.013900,0.008900,0.035800*
1,1,0.013900,-0.008900,0.035800*
1,1,0.013900,-0.008900,-0.035800*
%
%AMD91*
4,1,8,-0.011900,0.028700,-0.011900,-0.028700,-0.005900,-0.034700,0.005900,-0.034700,0.011900,-0.028700,0.011900,0.028700,0.005900,0.034700,-0.005900,0.034700,-0.011900,0.028700,0.0*
1,1,0.011940,-0.005900,0.028700*
1,1,0.011940,-0.005900,-0.028700*
1,1,0.011940,0.005900,-0.028700*
1,1,0.011940,0.005900,0.028700*
%
%ADD19R,0.029530X0.035430*%
%ADD31R,0.035430X0.029530*%
%ADD33R,0.055240X0.065090*%
%ADD34R,0.051310X0.061150*%
%ADD36R,0.061150X0.051310*%
%ADD46R,0.065090X0.055240*%
%ADD47C,0.070990*%
G04~CAMADD=48~8~0.0~0.0~709.9~709.9~197.5~0.0~15~0.0~0.0~0.0~0.0~0~0.0~0.0~0.0~0.0~0~0.0~0.0~0.0~0.0~709.9~709.9*
%ADD48D48*%
%ADD49C,0.060630*%
%ADD50R,0.060630X0.060630*%
%ADD51R,0.055120X0.055120*%
%ADD52C,0.055120*%
%ADD53C,0.043310*%
%ADD54C,0.065090*%
%ADD55R,0.055120X0.055120*%
%ADD56R,0.061020X0.061020*%
%ADD57C,0.061020*%
%ADD58C,0.045400*%
%ADD59C,0.059060*%
%ADD84C,0.027690*%
%ADD85R,0.082800X0.067060*%
%ADD86R,0.061150X0.023750*%
G04~CAMADD=87~8~0.0~0.0~855.6~316.2~69.5~0.0~15~0.0~0.0~0.0~0.0~0~0.0~0.0~0.0~0.0~0~0.0~0.0~0.0~270.0~316.0~856.0*
%ADD87D87*%
%ADD88R,0.138000X0.103000*%
%ADD89O,0.035560X0.106420*%
%ADD90R,0.055240X0.029650*%
G04~CAMADD=91~8~0.0~0.0~694.2~237.5~59.7~0.0~15~0.0~0.0~0.0~0.0~0~0.0~0.0~0.0~0.0~0~0.0~0.0~0.0~90.0~238.0~694.0*
%ADD91D91*%
%LNmtb_telemetry_system_pcb-1*%
%LPD*%
G36*
X3947Y2374D02*
X3947Y2373D01*
X3948Y2373*
X3948Y2373*
X3949Y2373*
X3949Y2372*
X3950Y2372*
X3950Y2372*
X3950Y2371*
X3950Y2371*
X3950Y2370*
X3950Y2370*
Y2318*
X3950Y2318*
X3950Y2317*
X3950Y2317*
X3950Y2316*
X3950Y2316*
X3949Y2316*
X3949Y2315*
X3948Y2315*
X3948Y2315*
X3947Y2315*
X3947Y2314*
X3946Y2314*
X3932*
X3932Y2314*
X3932Y2314*
X3932Y2314*
Y2313*
X3932Y2313*
X3932Y2313*
X3932Y2312*
X3932Y2312*
X3932Y2312*
Y2312*
X3932Y2312*
X3932Y2311*
X3932Y2311*
X3932Y2311*
X3932Y2311*
X3932Y2311*
X3932Y2311*
X3932Y2310*
X3932Y2310*
X3931Y2310*
X3931Y2310*
X3931Y2310*
X3931Y2310*
X3931Y2310*
X3931Y2309*
X3931Y2309*
X3931Y2309*
X3931Y2309*
X3931Y2309*
Y2299*
X3931Y2298*
X3931Y2298*
X3930Y2297*
X3930Y2297*
X3930Y2297*
X3930Y2296*
X3930Y2296*
X3929Y2296*
X3929Y2295*
X3928Y2295*
X3928Y2295*
X3928Y2295*
X3927Y2295*
X3927Y2295*
X3891Y2295*
X3891Y2295*
X3890Y2295*
X3890Y2295*
X3889Y2295*
X3889Y2295*
X3889Y2296*
X3888Y2296*
X3888Y2296*
X3888Y2297*
X3888Y2297*
X3888Y2297*
X3887Y2298*
X3887Y2298*
X3887Y2299*
Y2308*
X3886Y2309*
X3886Y2309*
X3886Y2309*
X3884Y2311*
X3884Y2311*
X3884Y2311*
X3882Y2314*
X3882Y2314*
X3882Y2314*
X3882Y2314*
X3882Y2314*
X3882Y2314*
X3872*
X3871Y2314*
X3871Y2315*
X3870Y2315*
X3870Y2315*
X3869Y2315*
X3869Y2316*
X3868Y2316*
X3868Y2316*
X3868Y2317*
X3868Y2317*
X3868Y2318*
X3868Y2318*
Y2370*
X3868Y2370*
X3868Y2371*
X3868Y2371*
X3868Y2372*
X3868Y2372*
X3869Y2372*
X3869Y2373*
X3870Y2373*
X3870Y2373*
X3871Y2373*
X3871Y2374*
X3872Y2374*
X3946*
X3947Y2374*
G37*
G36*
X3927Y2626D02*
X3927Y2626D01*
X3928Y2625*
X3928Y2625*
X3928Y2625*
X3929Y2625*
X3929Y2625*
X3930Y2624*
X3930Y2624*
X3930Y2624*
X3930Y2623*
X3930Y2623*
X3931Y2623*
X3931Y2622*
X3931Y2622*
Y2612*
X3931Y2612*
X3931Y2612*
X3931Y2611*
X3931Y2611*
X3931Y2611*
X3931Y2611*
X3931Y2610*
X3931Y2610*
X3931Y2610*
X3932Y2610*
X3932Y2610*
X3932Y2609*
X3932Y2609*
X3932Y2609*
X3932Y2609*
X3932Y2609*
X3932Y2609*
X3932Y2609*
X3932Y2608*
Y2608*
X3932Y2608*
X3932Y2608*
X3932Y2608*
X3932Y2608*
X3932Y2607*
Y2607*
X3932Y2607*
X3932Y2606*
X3932Y2606*
X3946*
X3947Y2606*
X3947Y2606*
X3948Y2606*
X3948Y2605*
X3949Y2605*
X3949Y2605*
X3950Y2604*
X3950Y2604*
X3950Y2603*
X3950Y2603*
X3950Y2602*
X3950Y2602*
Y2551*
X3950Y2550*
X3950Y2550*
X3950Y2549*
X3950Y2549*
X3950Y2548*
X3949Y2548*
X3949Y2548*
X3948Y2547*
X3948Y2547*
X3947Y2547*
X3947Y2547*
X3946Y2547*
X3872*
X3871Y2547*
X3871Y2547*
X3870Y2547*
X3870Y2547*
X3869Y2548*
X3869Y2548*
X3868Y2548*
X3868Y2549*
X3868Y2549*
X3868Y2550*
X3868Y2550*
X3868Y2551*
Y2602*
X3868Y2602*
X3868Y2603*
X3868Y2603*
X3868Y2604*
X3868Y2604*
X3869Y2605*
X3869Y2605*
X3870Y2605*
X3870Y2606*
X3871Y2606*
X3871Y2606*
X3872Y2606*
X3882*
X3882Y2606*
X3882Y2606*
X3882Y2606*
X3882Y2606*
X3882Y2606*
X3884Y2609*
X3884Y2609*
X3884Y2609*
X3887Y2612*
Y2622*
X3887Y2622*
X3887Y2623*
X3888Y2623*
X3888Y2623*
X3888Y2624*
X3888Y2624*
X3888Y2624*
X3889Y2625*
X3889Y2625*
X3889Y2625*
X3890Y2625*
X3890Y2625*
X3891Y2626*
X3891Y2626*
X3927*
G37*
G54D19*
X6055Y2243D03*
X6102D03*
X5195Y2255D03*
X5242D03*
X5634Y2243D03*
X5681D03*
G54D31*
X4127Y2034D03*
Y1987D03*
G54D33*
X4468Y3366D03*
X4547D03*
X4801Y2662D03*
X4722D03*
X4556Y3563D03*
X4635D03*
X4555Y3659D03*
X4634D03*
X4554Y3760D03*
X4633D03*
X4059Y2722D03*
X4138D03*
X4555Y3472D03*
X4634D03*
X4597Y2830D03*
X4676D03*
X4417D03*
X4496D03*
G54D34*
X4232Y2750D03*
X4287D03*
X4966Y3878D03*
X5021D03*
X4966Y3799D03*
X5021D03*
G54D36*
X4487Y1983D03*
Y2038D03*
X4638Y2591D03*
Y2536D03*
X4477Y2203D03*
Y2258D03*
G54D46*
X4130Y2270D03*
Y2191D03*
X5840Y2346D03*
Y2267D03*
X6260Y2334D03*
Y2255D03*
X4558Y3881D03*
Y3960D03*
X4650Y2409D03*
Y2330D03*
X5416Y2351D03*
Y2272D03*
G54D47*
X5693Y4437D03*
X5593D03*
X5493D03*
X5393D03*
X5193D03*
X5093D03*
X4893D03*
X4693D03*
X4593D03*
X4793D03*
X4993D03*
X5293D03*
X4361Y3035D03*
X4161D03*
X4261D03*
X4461D03*
X4561D03*
G54D48*
X4493Y4437D03*
X4061Y3035D03*
G54D49*
X5139Y2100D03*
X5316D03*
X5139Y2356D03*
X5561Y2104D03*
X5738D03*
X5561Y2360D03*
X5982Y2102D03*
X6159D03*
X5982Y2358D03*
G54D50*
X5316Y2356D03*
X5738Y2360D03*
X6159Y2358D03*
G54D51*
X4457Y4151D03*
G54D52*
X4555Y4151D03*
X4654D03*
X4752D03*
X4850D03*
X4843Y3346D03*
Y3247D03*
Y3149D03*
Y3050D03*
X6070Y4238D03*
Y4140D03*
X6069Y3780D03*
Y3681D03*
G54D53*
X4394Y4229D03*
X4921Y3507D03*
G54D54*
X4015Y2362D03*
Y2559D03*
G54D55*
X4843Y3444D03*
X6070Y4336D03*
X6069Y3878D03*
G54D56*
X4497Y2460D03*
X4676Y2159D03*
G54D57*
X4497Y2559D03*
X4676Y2061D03*
G54D58*
X3976Y3732D03*
Y3464D03*
G54D59*
X6259Y2007D03*
G54D84*
X3901Y2318D02*
D01*
D01*
G75*
G03X3881I-9J0D01*
G74*G01*
D01*
G75*
G03X3901I9J0D01*
G74*G01*
Y2602D02*
D01*
D01*
G75*
G03X3881I-9J0D01*
G74*G01*
D01*
G75*
G03X3901I9J0D01*
G74*G01*
X3937Y2318D02*
D01*
D01*
G75*
G03X3936Y2322I-9J0D01*
G74*G01*
D01*
D01*
G75*
G03X3918I-9J-3D01*
G74*G01*
D01*
D01*
G75*
G03X3937Y2318I9J-3D01*
G74*G01*
Y2602D02*
D01*
D01*
G75*
G03X3918Y2598I-9J0D01*
G74*G01*
D01*
D01*
G75*
G03X3936I9J3D01*
G74*G01*
D01*
D01*
G75*
G03X3937Y2602I-8J3D01*
G74*G01*
G54D85*
X3909Y2500D03*
Y2421D03*
G54D86*
X4015Y2511D03*
Y2486D03*
Y2460D03*
Y2435D03*
Y2409D03*
G54D87*
X4153Y2599D03*
X4203D03*
X4253D03*
X4303D03*
Y2404D03*
X4253D03*
X4203D03*
X4153D03*
G54D88*
X4228Y2502D03*
G54D89*
X4234Y2216D03*
X4284D03*
X4334D03*
X4384D03*
X4234Y2023D03*
X4284D03*
X4334D03*
X4384D03*
G54D90*
X4817Y2573D03*
Y2535D03*
Y2498D03*
X4715D03*
Y2573D03*
Y2535D03*
G54D91*
X4964Y2634D03*
X4938D03*
X4913D03*
X4887D03*
Y2407D03*
X4913D03*
X4938D03*
X4964D03*
M02*